<svg width="48" height="49" viewBox="0 0 48 49" fill="none" xmlns="http://www.w3.org/2000/svg">
<path d="M23.6381 27.0005H34.7046L34.7008 29.7265H23.6381V27.0005Z" fill="#677178"/>
<path d="M23.7348 21.5173H34.6717V24.2646L23.7348 24.2607V21.5173Z" fill="#677178"/>
<path d="M27.0239 35.3021L18.1765 39.2644L18.1688 35.3215H15.4583L15.4757 43.4898L29.6938 37.1033L27.0239 35.3021Z" fill="#3F81FD"/>
<path d="M37.4075 15.9958H37.392L20.947 16.05C19.4923 16.05 18.0972 16.6279 17.0686 17.6565C16.04 18.6851 15.4622 20.0802 15.4622 21.5349V32.5356L18.1707 32.5685V21.5407C18.1723 20.8035 18.4663 20.0971 18.9883 19.5765C19.5103 19.056 20.2176 18.7639 20.9548 18.7644L37.3997 18.7102C38.1356 18.7107 38.8412 19.0032 39.3617 19.5233C39.8821 20.0434 40.175 20.7488 40.1761 21.4846V29.7264C40.1741 30.4588 39.8836 31.1609 39.3675 31.6806C38.8515 32.2002 38.1514 32.4956 37.4191 32.5027H37.3939L34.2655 32.553H33.6851L33.1608 32.7987L29.7229 34.4045L32.1606 36.1671L34.3081 35.2519L37.4365 35.2017C38.8843 35.1909 40.2692 34.6084 41.2894 33.581C42.3095 32.5536 42.8822 31.1646 42.8827 29.7168V21.4749C42.8817 20.0227 42.3046 18.6303 41.2782 17.6031C40.2517 16.5759 38.8596 15.9979 37.4075 15.9958Z" fill="#677178"/>
<path d="M37.4075 5.12476H9.98497C8.53028 5.12476 7.1352 5.70267 6.10658 6.73129C5.07797 7.7599 4.50006 9.15499 4.50006 10.6097V32.5357L12.7825 32.5686L12.8387 29.8019H7.24157L7.21252 13.3569H42.9001V10.6155C42.9011 9.89398 42.7597 9.17937 42.484 8.51262C42.2083 7.84587 41.8038 7.2401 41.2935 6.73001C40.7832 6.21993 40.1773 5.81555 39.5105 5.54009C38.8436 5.26463 38.129 5.12349 37.4075 5.12476ZM9.97528 7.83335H37.4075C38.1413 7.83436 38.8449 8.12566 39.3647 8.64365C39.8845 9.16163 40.1783 9.86423 40.1818 10.598H7.19901C7.2031 9.86238 7.49859 9.15836 8.02079 8.64015C8.54298 8.12195 9.24929 7.8318 9.98497 7.83335H9.97528Z" fill="#677178"/>
</svg>
