<svg width="48" height="49" viewBox="0 0 48 49" fill="none" xmlns="http://www.w3.org/2000/svg">
<path d="M23.6382 27.3591H34.7047L34.7008 30.0851H23.6382V27.3591Z" fill="#677178"/>
<path d="M23.7349 21.876H34.6717V24.6232L23.7349 24.6194V21.876Z" fill="#677178"/>
<path d="M27.024 35.6608L18.1766 39.623L18.1689 35.6801H15.4584L15.4758 43.8484L29.6939 37.462L27.024 35.6608Z" fill="#3F81FD"/>
<path d="M37.4076 16.3545H37.3921L20.9471 16.4086C19.4925 16.4086 18.0974 16.9865 17.0688 18.0151C16.0401 19.0438 15.4623 20.4388 15.4623 21.8935V32.8943L18.1709 32.9271V21.8993C18.1724 21.1621 18.4664 20.4557 18.9884 19.9352C19.5104 19.4146 20.2177 19.1225 20.9549 19.123L37.3999 19.0688C38.1357 19.0694 38.8413 19.3618 39.3618 19.8819C39.8823 20.4021 40.1752 21.1074 40.1762 21.8432V30.0851C40.1742 30.8174 39.8837 31.5195 39.3676 32.0392C38.8516 32.5589 38.1516 32.8542 37.4192 32.8613H37.3941L34.2657 32.9117H33.6852L33.1609 33.1574L29.723 34.7632L32.1607 36.5257L34.3082 35.6106L37.4366 35.5603C38.8844 35.5496 40.2693 34.967 41.2895 33.9396C42.3096 32.9122 42.8824 31.5232 42.8828 30.0754V21.8335C42.8818 20.3814 42.3048 18.989 41.2783 17.9618C40.2518 16.9346 38.8598 16.3565 37.4076 16.3545Z" fill="#677178"/>
<path d="M37.4075 5.48341H9.98503C8.53034 5.48341 7.13526 6.06131 6.10664 7.08993C5.07803 8.11854 4.50012 9.51363 4.50012 10.9683V32.8943L12.7826 32.9272L12.8387 30.1606H7.24163L7.21258 13.7156H42.9001V10.9741C42.9011 10.2526 42.7598 9.53801 42.4841 8.87126C42.2084 8.20452 41.8038 7.59874 41.2935 7.08865C40.7833 6.57857 40.1774 6.17419 39.5105 5.89874C38.8437 5.62328 38.129 5.48213 37.4075 5.48341ZM9.97534 8.19199H37.4075C38.1413 8.19301 38.845 8.48431 39.3647 9.00229C39.8845 9.52028 40.1783 10.2229 40.1819 10.9567H7.19907C7.20317 10.221 7.49865 9.517 8.02085 8.9988C8.54304 8.48059 9.24935 8.19044 9.98503 8.19199H9.97534Z" fill="#677178"/>
</svg>
