<svg width="48" height="49" viewBox="0 0 48 49" fill="none" xmlns="http://www.w3.org/2000/svg">
<path d="M23.6382 27.3591H34.7047L34.7008 30.0851H23.6382V27.3591Z" fill="#677178"/>
<path d="M23.7349 21.876H34.6717V24.6232L23.7349 24.6194V21.876Z" fill="#677178"/>
<path d="M27.0239 35.6606L18.1765 39.6229L18.1688 35.68H15.4583L15.4757 43.8483L29.6938 37.4619L27.0239 35.6606Z" fill="#3F81FD"/>
<path d="M37.4075 16.3545H37.392L20.947 16.4086C19.4923 16.4086 18.0972 16.9865 17.0686 18.0151C16.04 19.0438 15.4622 20.4388 15.4622 21.8935V32.8943L18.1707 32.9271V21.8993C18.1723 21.1621 18.4663 20.4557 18.9883 19.9352C19.5103 19.4146 20.2176 19.1225 20.9548 19.123L37.3997 19.0688C38.1356 19.0694 38.8412 19.3618 39.3617 19.8819C39.8821 20.4021 40.175 21.1074 40.1761 21.8432V30.0851C40.1741 30.8174 39.8836 31.5195 39.3675 32.0392C38.8515 32.5589 38.1514 32.8542 37.4191 32.8613H37.3939L34.2655 32.9117H33.6851L33.1608 33.1574L29.7229 34.7632L32.1606 36.5257L34.3081 35.6106L37.4365 35.5603C38.8843 35.5496 40.2692 34.967 41.2894 33.9396C42.3095 32.9122 42.8822 31.5232 42.8827 30.0754V21.8335C42.8817 20.3814 42.3046 18.989 41.2782 17.9618C40.2517 16.9346 38.8596 16.3565 37.4075 16.3545Z" fill="#677178"/>
<path d="M37.4074 5.48341H9.9849C8.53022 5.48341 7.13514 6.06131 6.10652 7.08993C5.07791 8.11854 4.5 9.51363 4.5 10.9683V32.8943L12.7825 32.9272L12.8386 30.1606H7.24151L7.21246 13.7156H42.9V10.9741C42.901 10.2526 42.7597 9.53801 42.484 8.87126C42.2083 8.20452 41.8037 7.59874 41.2934 7.08865C40.7832 6.57857 40.1772 6.17419 39.5104 5.89874C38.8435 5.62328 38.1289 5.48213 37.4074 5.48341ZM9.97522 8.19199H37.4074C38.1412 8.19301 38.8448 8.48431 39.3646 9.00229C39.8844 9.52028 40.1782 10.2229 40.1818 10.9567H7.19895C7.20304 10.221 7.49853 9.517 8.02073 8.9988C8.54292 8.48059 9.24923 8.19044 9.9849 8.19199H9.97522Z" fill="#677178"/>
</svg>
