<svg width="48" height="48" viewBox="0 0 48 48" fill="none" xmlns="http://www.w3.org/2000/svg">
<path d="M23.6381 26.3757H34.7046L34.7008 29.1017H23.6381V26.3757Z" fill="#677178"/>
<path d="M23.7348 20.8926H34.6717V23.6398L23.7348 23.636V20.8926Z" fill="#677178"/>
<path d="M27.0239 34.6774L18.1765 38.6396L18.1688 34.6967H15.4583L15.4757 42.865L29.6938 36.4786L27.0239 34.6774Z" fill="#3F81FD"/>
<path d="M37.4075 15.3711H37.392L20.947 15.4252C19.4923 15.4252 18.0972 16.0031 17.0686 17.0317C16.04 18.0604 15.4622 19.4554 15.4622 20.9101V31.9109L18.1707 31.9437V20.9159C18.1723 20.1787 18.4663 19.4723 18.9883 18.9518C19.5103 18.4312 20.2176 18.1391 20.9548 18.1396L37.3997 18.0854C38.1356 18.086 38.8412 18.3784 39.3617 18.8985C39.8821 19.4187 40.175 20.124 40.1761 20.8598V29.1017C40.1741 29.834 39.8836 30.5361 39.3675 31.0558C38.8515 31.5755 38.1514 31.8708 37.4191 31.878H37.3939L34.2655 31.9283H33.6851L33.1608 32.174L29.7229 33.7798L32.1606 35.5423L34.3081 34.6272L37.4365 34.5769C38.8843 34.5662 40.2692 33.9836 41.2894 32.9562C42.3095 31.9288 42.8822 30.5398 42.8827 29.092V20.8501C42.8817 19.398 42.3046 18.0056 41.2782 16.9784C40.2517 15.9512 38.8596 15.3731 37.4075 15.3711Z" fill="#677178"/>
<path d="M37.4075 4.50001H9.98497C8.53028 4.50001 7.1352 5.07792 6.10658 6.10653C5.07797 7.13515 4.50006 8.53023 4.50006 9.98491V31.9109L12.7825 31.9438L12.8387 29.1772H7.24157L7.21252 12.7322H42.9001V9.99072C42.9011 9.26922 42.7597 8.55461 42.484 7.88787C42.2083 7.22112 41.8038 6.61534 41.2935 6.10526C40.7832 5.59517 40.1773 5.19079 39.5105 4.91534C38.8436 4.63988 38.129 4.49873 37.4075 4.50001ZM9.97528 7.20859H37.4075C38.1413 7.20961 38.8449 7.50091 39.3647 8.01889C39.8845 8.53688 40.1783 9.23948 40.1818 9.97329H7.19901C7.2031 9.23762 7.49859 8.5336 8.02079 8.0154C8.54298 7.49719 9.24929 7.20705 9.98497 7.20859H9.97528Z" fill="#677178"/>
</svg>
