<svg width="24" height="24" viewBox="0 0 24 24" fill="none" xmlns="http://www.w3.org/2000/svg">
<path d="M12 4C13.0506 4 14.0909 4.20693 15.0615 4.60896C16.0321 5.011 16.914 5.60028 17.6569 6.34315C18.3997 7.08601 18.989 7.96793 19.391 8.93853C19.7931 9.90914 20 10.9494 20 12C20 13.0506 19.7931 14.0909 19.391 15.0615C18.989 16.0321 18.3997 16.914 17.6569 17.6569C16.914 18.3997 16.0321 18.989 15.0615 19.391C14.0909 19.7931 13.0506 20 12 20C9.87827 20 7.84344 19.1571 6.34315 17.6569C4.84285 16.1566 4 14.1217 4 12C4 9.87827 4.84285 7.84344 6.34315 6.34315C7.84344 4.84285 9.87827 4 12 4V4ZM12 15.3333C11.7348 15.3333 11.4804 15.4387 11.2929 15.6262C11.1054 15.8138 11 16.0681 11 16.3333C11 16.5986 11.1054 16.8529 11.2929 17.0404C11.4804 17.228 11.7348 17.3333 12 17.3333C12.2652 17.3333 12.5196 17.228 12.7071 17.0404C12.8946 16.8529 13 16.5986 13 16.3333C13 16.0681 12.8946 15.8138 12.7071 15.6262C12.5196 15.4387 12.2652 15.3333 12 15.3333ZM12 7.33333C11.2928 7.33333 10.6145 7.61428 10.1144 8.11438C9.61428 8.61448 9.33333 9.29276 9.33333 10C9.33333 10.1768 9.40357 10.3464 9.5286 10.4714C9.65362 10.5964 9.82319 10.6667 10 10.6667C10.1768 10.6667 10.3464 10.5964 10.4714 10.4714C10.5964 10.3464 10.6667 10.1768 10.6667 10C10.6667 9.64638 10.8071 9.30724 11.0572 9.05719C11.3072 8.80714 11.6464 8.66667 12 8.66667C12.3536 8.66667 12.6928 8.80714 12.9428 9.05719C13.1929 9.30724 13.3333 9.64638 13.3333 10C13.3333 10.4933 13.2227 10.7733 12.8453 11.1973L12.6907 11.364L12.3387 11.724C11.616 12.48 11.3333 13.024 11.3333 14C11.3333 14.1768 11.4036 14.3464 11.5286 14.4714C11.6536 14.5964 11.8232 14.6667 12 14.6667C12.1768 14.6667 12.3464 14.5964 12.4714 14.4714C12.5964 14.3464 12.6667 14.1768 12.6667 14C12.6667 13.5067 12.7773 13.2267 13.1547 12.8027L13.3093 12.636L13.6613 12.276C14.384 11.52 14.6667 10.976 14.6667 10C14.6667 9.29276 14.3857 8.61448 13.8856 8.11438C13.3855 7.61428 12.7072 7.33333 12 7.33333V7.33333Z" fill="#262626" fill-opacity="0.7"/>
</svg>
