<svg width="32" height="32" viewBox="0 0 32 32" fill="none" xmlns="http://www.w3.org/2000/svg">
<path d="M15.9999 5.33337C17.4007 5.33337 18.7877 5.60928 20.0819 6.14533C21.376 6.68138 22.5519 7.46708 23.5424 8.45757C24.5329 9.44806 25.3186 10.6239 25.8546 11.9181C26.3907 13.2122 26.6666 14.5993 26.6666 16C26.6666 17.4008 26.3907 18.7879 25.8546 20.082C25.3186 21.3761 24.5329 22.552 23.5424 23.5425C22.5519 24.533 21.376 25.3187 20.0819 25.8548C18.7877 26.3908 17.4007 26.6667 15.9999 26.6667C13.1709 26.6667 10.4578 25.5429 8.45745 23.5425C6.45706 21.5421 5.33325 18.829 5.33325 16C5.33325 13.1711 6.45706 10.458 8.45745 8.45757C10.4578 6.45718 13.1709 5.33337 15.9999 5.33337V5.33337ZM15.9999 20.4445C15.6463 20.4445 15.3072 20.585 15.0571 20.835C14.8071 21.0851 14.6666 21.4242 14.6666 21.7778C14.6666 22.1314 14.8071 22.4706 15.0571 22.7206C15.3072 22.9707 15.6463 23.1112 15.9999 23.1112C16.3535 23.1112 16.6927 22.9707 16.9427 22.7206C17.1928 22.4706 17.3333 22.1314 17.3333 21.7778C17.3333 21.4242 17.1928 21.0851 16.9427 20.835C16.6927 20.585 16.3535 20.4445 15.9999 20.4445ZM15.9999 9.77782C15.0569 9.77782 14.1526 10.1524 13.4858 10.8192C12.819 11.486 12.4444 12.3904 12.4444 13.3334C12.4444 13.5691 12.538 13.7952 12.7047 13.9619C12.8714 14.1286 13.0975 14.2223 13.3333 14.2223C13.569 14.2223 13.7951 14.1286 13.9618 13.9619C14.1285 13.7952 14.2221 13.5691 14.2221 13.3334C14.2221 12.8619 14.4094 12.4097 14.7428 12.0763C15.0762 11.7429 15.5284 11.5556 15.9999 11.5556C16.4714 11.5556 16.9236 11.7429 17.257 12.0763C17.5904 12.4097 17.7777 12.8619 17.7777 13.3334C17.7777 13.9912 17.6301 14.3645 17.127 14.9298L16.9208 15.152L16.4515 15.632C15.4879 16.64 15.111 17.3654 15.111 18.6667C15.111 18.9025 15.2047 19.1285 15.3714 19.2952C15.5381 19.4619 15.7642 19.5556 15.9999 19.5556C16.2357 19.5556 16.4618 19.4619 16.6285 19.2952C16.7952 19.1285 16.8888 18.9025 16.8888 18.6667C16.8888 18.0089 17.0364 17.6356 17.5395 17.0703L17.7457 16.848L18.215 16.368C19.1786 15.36 19.5555 14.6347 19.5555 13.3334C19.5555 12.3904 19.1809 11.486 18.5141 10.8192C17.8473 10.1524 16.9429 9.77782 15.9999 9.77782V9.77782Z" fill="#262626" fill-opacity="0.7"/>
</svg>
