<svg width="48" height="48" viewBox="0 0 48 48" fill="none" xmlns="http://www.w3.org/2000/svg">
<path d="M38.0646 30.4062H38.0601C37.1937 30.4062 36.4913 31.1087 36.4913 31.9752C36.4913 32.8416 37.1937 33.5441 38.0601 33.5441H38.0646C38.931 33.5441 39.6335 32.8416 39.6335 31.9752C39.6335 31.1087 38.931 30.4062 38.0646 30.4062Z" fill="#2A72F8"/>
<path d="M4.64005 42.948L4.63969 43.4477L5.13938 43.4484L16.4994 43.4636L18.0564 45.5677L2.5 45.5899V37.1658L4.64413 37.1643L4.64005 42.948Z" fill="#2A72F8" stroke="#2A72F8"/>
<path d="M42.8646 26.5395V17.7998H38.5258L42.8868 13.4388L31.5455 2.09749L15.8455 17.7998H13.9841L27.5901 4.19377L25.3962 2L9.59653 17.7998H7.86807L21.474 4.19377L19.2802 2L3.48268 17.7998H2.00244V33.522H5.10478V20.9022H39.7623V25.693H30.2669V38.2552H39.7623V42.9641H20.0824L22.3648 46.0665H42.8646V37.4088C43.8184 36.8581 44.6102 36.0661 45.1607 35.1123C45.7111 34.1585 46.0006 33.0765 46.0002 31.9752V31.9752C46.0008 30.8737 45.7114 29.7914 45.1609 28.8372C44.6105 27.883 43.8185 27.0905 42.8646 26.5395ZM31.5455 6.48515L38.4992 13.4388L34.1405 17.7998H20.2331L31.5455 6.48515ZM39.718 35.1529H33.3693V28.7953H39.718C40.1425 28.7841 40.5649 28.8581 40.9604 29.0128C41.3559 29.1675 41.7164 29.3998 42.0206 29.6961C42.3248 29.9924 42.5666 30.3466 42.7317 30.7379C42.8968 31.1291 42.9818 31.5495 42.9818 31.9742C42.9818 32.3988 42.8968 32.8191 42.7317 33.2104C42.5666 33.6016 42.3248 33.9558 42.0206 34.2521C41.7164 34.5484 41.3559 34.7808 40.9604 34.9355C40.5649 35.0902 40.1425 35.1641 39.718 35.1529Z" fill="#677178"/>
</svg>
