<svg width="48" height="48" viewBox="0 0 48 48" fill="none" xmlns="http://www.w3.org/2000/svg">
<g clip-path="url(#clip0_43_2419)">
<path d="M21.5931 46.4987L19.2104 43.2082L7.72776 43.2309L7.75045 36.8315L4.50537 36.8088V46.4987H21.5931Z" fill="#3F81FD"/>
<path d="M39.816 27.1649C40.7237 27.1649 41.4726 27.9137 41.4726 28.8214C41.4726 29.7292 40.7237 30.478 39.816 30.478H33.462C32.5543 30.478 31.8054 29.7292 31.8054 28.8214C31.8054 27.9137 32.5543 27.1649 33.462 27.1649H39.816ZM39.816 23.9879H33.462C30.7842 23.9879 28.6284 26.1437 28.6284 28.8214C28.6284 31.4992 30.7842 33.655 33.462 33.655H39.816C42.4938 33.655 44.6496 31.4992 44.6496 28.8214C44.6496 26.1437 42.4938 23.9879 39.816 23.9879Z" fill="#677178"/>
<path d="M39.816 20.6976C40.7237 20.6976 41.4726 21.4464 41.4726 22.3542C41.4726 23.2619 40.7237 24.0107 39.816 24.0107H33.462C32.5543 24.0107 31.8054 23.2619 31.8054 22.3542C31.8054 21.4464 32.5543 20.6976 33.462 20.6976H39.816ZM39.816 17.5206H33.462C30.7842 17.5206 28.6284 19.6764 28.6284 22.3542C28.6284 25.0319 30.7842 27.1877 33.462 27.1877H39.816C42.4938 27.1877 44.6496 25.0319 44.6496 22.3542C44.6496 19.6764 42.4938 17.5206 39.816 17.5206Z" fill="#677178"/>
<path d="M38.1754 33.5886C39.0831 33.5886 39.832 34.3374 39.832 35.2451C39.832 36.1529 39.0831 36.9017 38.1754 36.9017H31.8214C30.9137 36.9017 30.1648 36.1529 30.1648 35.2451C30.1648 34.3374 30.9137 33.5886 31.8214 33.5886H38.1754ZM38.1754 30.4116H31.8214C29.1436 30.4116 26.9878 32.5674 26.9878 35.2451C26.9878 37.9229 29.1436 40.0787 31.8214 40.0787H38.1754C40.8531 40.0787 43.009 37.9229 43.009 35.2451C43.009 32.5901 40.8304 30.4116 38.1754 30.4116Z" fill="#677178"/>
<path d="M38.1754 40.0104C39.0831 40.0104 39.832 40.7593 39.832 41.667C39.832 42.5747 39.0831 43.3236 38.1754 43.3236H31.8214C30.9137 43.3236 30.1648 42.5747 30.1648 41.667C30.1648 40.7593 30.9137 40.0104 31.8214 40.0104H38.1754ZM38.1754 36.8334H31.8214C29.1436 36.8334 26.9878 38.9893 26.9878 41.667C26.9878 44.3448 29.1436 46.5006 31.8214 46.5006H38.1754C40.8531 46.5006 43.009 44.3448 43.009 41.667C43.009 38.9893 40.8304 36.8334 38.1754 36.8334Z" fill="#677178"/>
<path d="M30.9888 43.2767L22.7739 43.2994L25.134 46.4764C25.134 46.4764 32.4865 46.4991 32.8042 46.4537L30.9888 43.2767Z" fill="#677178"/>
<path d="M20.6168 27.1893V28.2104C20.6168 29.4586 19.5956 30.4797 18.3475 30.4797C17.0994 30.4797 16.0782 29.4586 16.0782 28.2104V27.212L13.0601 29.4586C13.6274 31.864 15.7832 33.6567 18.3702 33.6567C21.3657 33.6567 23.8165 31.2059 23.8165 28.2104V27.1893H20.6168V27.1893Z" fill="#677178"/>
<path d="M7.69971 33.6558H4.52271V23.4667C4.52271 20.1762 6.29275 17.1126 9.15205 15.4788C11.2625 14.276 12.5787 12.0067 12.5787 9.55591V7.0597C12.5787 3.99616 15.0749 1.49994 18.1384 1.49994H18.2065C21.2701 1.49994 23.7663 3.99616 23.7663 7.0597V27.1883H20.5893V7.0597C20.5893 5.74351 19.5227 4.67694 18.2065 4.67694H18.1384C16.8222 4.67694 15.7557 5.74351 15.7557 7.0597V9.57861C15.7557 13.1414 13.8268 16.4772 10.7406 18.2473C8.87974 19.3139 7.69971 21.3335 7.69971 23.4893V33.6558V33.6558Z" fill="#677178"/>
<path d="M36.2744 17.5179H21.751V20.6951H36.2744V17.5179Z" fill="#677178"/>
</g>
<defs>
<clipPath id="clip0_43_2419">
<rect width="40.1437" height="45" fill="white" transform="translate(4.5 1.5)"/>
</clipPath>
</defs>
</svg>
