<svg width="40" height="41" viewBox="0 0 40 41" fill="none" xmlns="http://www.w3.org/2000/svg">
<path d="M20.7391 10.1013C21.477 10.1006 22.1985 10.3189 22.8123 10.7284C23.4261 11.1379 23.9047 11.7203 24.1874 12.4019C24.4701 13.0834 24.5442 13.8335 24.4004 14.5573C24.2567 15.281 23.9014 15.9458 23.3796 16.4676C22.8579 16.9893 22.193 17.3446 21.4693 17.4884C20.7456 17.6322 19.9955 17.558 19.3139 17.2753C18.6323 16.9926 18.0499 16.5141 17.6404 15.9003C17.2309 15.2864 17.0127 14.565 17.0134 13.8271C17.0143 12.8383 17.4075 11.8903 18.1067 11.1911C18.8058 10.4919 19.7539 10.0987 20.7426 10.0978L20.7391 10.1013ZM20.7426 7.61224C19.5135 7.61259 18.3121 7.97737 17.2903 8.66048C16.2685 9.34359 15.4723 10.3143 15.0021 11.45C14.532 12.5856 14.4092 13.8352 14.6492 15.0406C14.8892 16.2461 15.4812 17.3533 16.3504 18.2223C17.2197 19.0913 18.3271 19.683 19.5326 19.9227C20.7381 20.1623 21.9876 20.0391 23.1231 19.5687C24.2586 19.0983 25.2292 18.3017 25.912 17.2797C26.5948 16.2577 26.9592 15.0562 26.9592 13.8271C26.9592 13.0108 26.7985 12.2025 26.486 11.4484C26.1736 10.6942 25.7156 10.009 25.1384 9.43189C24.5611 8.85476 23.8757 8.39704 23.1215 8.08482C22.3673 7.7726 21.5589 7.61201 20.7426 7.61224V7.61224Z" fill="#2A72F8"/>
<path d="M5.86113 14.4269L5.89096 5.302H10.8481L10.8306 2.72345L3.37378 2.72696V16.2582L5.86113 14.4269Z" fill="#3F81FD"/>
<path d="M38.2157 2.64981L13.3668 2.79717V5.28099H35.6565V35.1238H30.8274V30.1228C30.8448 28.8069 30.6008 27.5006 30.1093 26.2798C29.6178 25.0589 28.8886 23.9478 27.9642 23.0111C27.0398 22.0743 25.9386 21.3305 24.7244 20.8228C23.5102 20.3152 22.2072 20.0537 20.8911 20.0537C19.5751 20.0537 18.2721 20.3152 17.0579 20.8228C15.8437 21.3305 14.7424 22.0743 13.818 23.0111C12.8936 23.9478 12.1645 25.0589 11.673 26.2798C11.1815 27.5006 10.9374 28.8069 10.9549 30.1228V35.1379H5.89951L5.84165 16.8214L3.50866 18.5755L3.33325 37.6112L38.2806 37.6498L38.2157 2.64981ZM13.4457 30.1228C13.4306 29.1355 13.612 28.155 13.9793 27.2384C14.3467 26.3218 14.8927 25.4875 15.5856 24.7839C16.2785 24.0803 17.1044 23.5215 18.0152 23.1401C18.926 22.7588 19.9037 22.5623 20.8911 22.5623C21.8786 22.5623 22.8562 22.7588 23.7671 23.1401C24.6779 23.5215 25.5038 24.0803 26.1967 24.7839C26.8895 25.4875 27.4355 26.3218 27.8029 27.2384C28.1703 28.155 28.3517 29.1355 28.3365 30.1228V35.1274L13.4457 35.1361V30.1228Z" fill="#677178"/>
</svg>
