<svg width="48" height="48" viewBox="0 0 48 48" fill="none" xmlns="http://www.w3.org/2000/svg">
<g clip-path="url(#clip0_43_2400)">
<path d="M23.9804 46.1966L12.9048 39.5866C7.72054 36.4783 4.5 30.8125 4.5 24.7533V1.5H22.9045L25.3146 4.81738H7.80748V24.7926C7.80748 31.1149 12.1979 34.9708 15.7326 37.0561L23.9804 41.9743L32.2281 37.0561C35.7628 34.9314 40.1533 31.0756 40.1533 24.7926V21.3957L43.4607 18.1092V24.7926C43.4607 30.8518 40.2402 36.5176 35.0559 39.6259L23.9804 46.1966Z" fill="#677178"/>
<path d="M35.9179 16.7496L32.1494 16.1799L24.0207 24.3086L19.6168 19.9046L17.4258 22.0957L24.0207 28.6906L35.9179 16.7496Z" fill="#677178"/>
<path d="M26.5329 1.50126L28.8689 4.78762L40.1455 4.78762L40.1455 10.9146L43.5004 10.9457L43.5004 1.50126L26.5329 1.50126Z" fill="#3F81FD"/>
</g>
<defs>
<clipPath id="clip0_43_2400">
<rect width="39" height="44.6966" fill="white" transform="translate(4.5 1.5)"/>
</clipPath>
</defs>
</svg>
