<svg width="40" height="40" viewBox="0 0 40 40" fill="none" xmlns="http://www.w3.org/2000/svg">
<path d="M20.7391 9.11815C21.477 9.11745 22.1985 9.33569 22.8123 9.7452C23.4261 10.1547 23.9047 10.7371 24.1874 11.4187C24.4701 12.1003 24.5442 12.8503 24.4004 13.5741C24.2567 14.2978 23.9014 14.9626 23.3796 15.4844C22.8579 16.0061 22.193 16.3614 21.4693 16.5052C20.7456 16.649 19.9955 16.5748 19.3139 16.2921C18.6323 16.0095 18.0499 15.5309 17.6404 14.9171C17.2309 14.3033 17.0127 13.5818 17.0134 12.8439C17.0143 11.8551 17.4075 10.9071 18.1067 10.2079C18.8058 9.50875 19.7539 9.11556 20.7426 9.11464L20.7391 9.11815ZM20.7426 6.62906C19.5135 6.62941 18.3121 6.99418 17.2903 7.67729C16.2685 8.3604 15.4723 9.33115 15.0021 10.4668C14.532 11.6024 14.4092 12.852 14.6492 14.0574C14.8892 15.2629 15.4812 16.3701 16.3504 17.2391C17.2197 18.1081 18.3271 18.6998 19.5326 18.9395C20.7381 19.1791 21.9876 19.056 23.1231 18.5855C24.2586 18.1151 25.2292 17.3185 25.912 16.2965C26.5948 15.2745 26.9592 14.073 26.9592 12.8439C26.9592 12.0276 26.7985 11.2193 26.486 10.4652C26.1736 9.71104 25.7156 9.02583 25.1384 8.4487C24.5611 7.87158 23.8757 7.41386 23.1215 7.10164C22.3673 6.78941 21.5589 6.62883 20.7426 6.62906V6.62906Z" fill="#2A72F8"/>
<path d="M5.86113 13.4438L5.89096 4.31885H10.8481L10.8306 1.7403L3.37378 1.74381V15.2751L5.86113 13.4438Z" fill="#3F81FD"/>
<path d="M38.2157 1.66666L13.3668 1.81402V4.29784H35.6565V34.1407H30.8274V29.1397C30.8448 27.8237 30.6008 26.5174 30.1093 25.2966C29.6178 24.0758 28.8886 22.9647 27.9642 22.0279C27.0398 21.0912 25.9386 20.3474 24.7244 19.8397C23.5102 19.332 22.2072 19.0706 20.8911 19.0706C19.5751 19.0706 18.2721 19.332 17.0579 19.8397C15.8437 20.3474 14.7424 21.0912 13.818 22.0279C12.8936 22.9647 12.1645 24.0758 11.673 25.2966C11.1815 26.5174 10.9374 27.8237 10.9549 29.1397V34.1547H5.89951L5.84165 15.8382L3.50866 17.5923L3.33325 36.6281L38.2806 36.6667L38.2157 1.66666ZM13.4457 29.1397C13.4306 28.1523 13.612 27.1718 13.9793 26.2552C14.3467 25.3386 14.8927 24.5043 15.5856 23.8007C16.2785 23.0971 17.1044 22.5384 18.0152 22.157C18.926 21.7756 19.9037 21.5792 20.8911 21.5792C21.8786 21.5792 22.8562 21.7756 23.7671 22.157C24.6779 22.5384 25.5038 23.0971 26.1967 23.8007C26.8895 24.5043 27.4355 25.3386 27.8029 26.2552C28.1703 27.1718 28.3517 28.1523 28.3365 29.1397V34.1442L13.4457 34.153V29.1397Z" fill="#677178"/>
</svg>
