<svg width="40" height="40" viewBox="0 0 40 40" fill="none" xmlns="http://www.w3.org/2000/svg">
<path d="M20.7393 9.11815C21.4772 9.11745 22.1987 9.33569 22.8125 9.7452C23.4263 10.1547 23.9049 10.7371 24.1876 11.4187C24.4703 12.1003 24.5444 12.8503 24.4006 13.5741C24.2568 14.2978 23.9015 14.9626 23.3798 15.4844C22.858 16.0061 22.1932 16.3614 21.4695 16.5052C20.7458 16.649 19.9957 16.5748 19.3141 16.2921C18.6325 16.0095 18.0501 15.5309 17.6406 14.9171C17.2311 14.3033 17.0129 13.5818 17.0136 12.8439C17.0145 11.8551 17.4077 10.9071 18.1068 10.2079C18.806 9.50875 19.754 9.11556 20.7428 9.11464L20.7393 9.11815ZM20.7428 6.62906C19.5137 6.62941 18.3123 6.99418 17.2905 7.67729C16.2687 8.3604 15.4724 9.33115 15.0023 10.4668C14.5322 11.6024 14.4094 12.852 14.6494 14.0574C14.8894 15.2629 15.4814 16.3701 16.3506 17.2391C17.2199 18.1081 18.3272 18.6998 19.5328 18.9395C20.7383 19.1791 21.9878 19.056 23.1233 18.5855C24.2588 18.1151 25.2294 17.3185 25.9122 16.2965C26.595 15.2745 26.9594 14.073 26.9594 12.8439C26.9594 12.0276 26.7986 11.2193 26.4862 10.4652C26.1738 9.71104 25.7158 9.02583 25.1385 8.4487C24.5613 7.87158 23.8759 7.41386 23.1217 7.10164C22.3675 6.78941 21.5591 6.62883 20.7428 6.62906V6.62906Z" fill="#2A72F8"/>
<path d="M5.86126 13.4438L5.89108 4.31885H10.8482L10.8307 1.7403L3.3739 1.74381V15.2751L5.86126 13.4438Z" fill="#3F81FD"/>
<path d="M38.2158 1.66666L13.3669 1.81402V4.29784H35.6565V34.1407H30.8274V29.1397C30.8449 27.8237 30.6008 26.5174 30.1093 25.2966C29.6178 24.0758 28.8887 22.9647 27.9643 22.0279C27.0399 21.0912 25.9386 20.3474 24.7244 19.8397C23.5102 19.332 22.2073 19.0706 20.8912 19.0706C19.5751 19.0706 18.2722 19.332 17.0579 19.8397C15.8437 20.3474 14.7425 21.0912 13.8181 22.0279C12.8937 22.9647 12.1646 24.0758 11.6731 25.2966C11.1816 26.5174 10.9375 27.8237 10.955 29.1397V34.1547H5.89957L5.84172 15.8382L3.50873 17.5923L3.33331 36.6281L38.2807 36.6667L38.2158 1.66666ZM13.4458 29.1397C13.4307 28.1523 13.612 27.1718 13.9794 26.2552C14.3468 25.3386 14.8928 24.5043 15.5857 23.8007C16.2785 23.0971 17.1044 22.5384 18.0153 22.157C18.9261 21.7756 19.9037 21.5792 20.8912 21.5792C21.8787 21.5792 22.8563 21.7756 23.7671 22.157C24.678 22.5384 25.5039 23.0971 26.1967 23.8007C26.8896 24.5043 27.4356 25.3386 27.803 26.2552C28.1703 27.1718 28.3517 28.1523 28.3366 29.1397V34.1442L13.4458 34.153V29.1397Z" fill="#677178"/>
</svg>
