<svg width="40" height="41" viewBox="0 0 40 41" fill="none" xmlns="http://www.w3.org/2000/svg">
<path d="M20.7393 9.7429C21.4772 9.74221 22.1987 9.96044 22.8125 10.37C23.4263 10.7795 23.9049 11.3619 24.1876 12.0434C24.4703 12.725 24.5444 13.4751 24.4006 14.1988C24.2568 14.9226 23.9015 15.5874 23.3798 16.1091C22.858 16.6309 22.1932 16.9862 21.4695 17.13C20.7458 17.2737 19.9957 17.1996 19.3141 16.9169C18.6325 16.6342 18.0501 16.1556 17.6406 15.5418C17.2311 14.928 17.0129 14.2065 17.0136 13.4687C17.0145 12.4799 17.4077 11.5318 18.1068 10.8327C18.806 10.1335 19.754 9.74032 20.7428 9.73939L20.7393 9.7429ZM20.7428 7.25381C19.5137 7.25416 18.3123 7.61894 17.2905 8.30205C16.2687 8.98516 15.4724 9.95591 15.0023 11.0916C14.5322 12.2272 14.4094 13.4767 14.6494 14.6822C14.8894 15.8876 15.4814 16.9949 16.3506 17.8639C17.2199 18.7328 18.3272 19.3246 19.5328 19.5642C20.7383 19.8039 21.9878 19.6807 23.1233 19.2103C24.2588 18.7398 25.2294 17.9433 25.9122 16.9213C26.595 15.8993 26.9594 14.6978 26.9594 13.4687C26.9594 12.6524 26.7986 11.8441 26.4862 11.0899C26.1738 10.3358 25.7158 9.65058 25.1385 9.07346C24.5613 8.49633 23.8759 8.03861 23.1217 7.72639C22.3675 7.41417 21.5591 7.25358 20.7428 7.25381V7.25381Z" fill="#2A72F8"/>
<path d="M5.86126 14.0685L5.89108 4.9436H10.8482L10.8307 2.36505L3.3739 2.36856V15.8998L5.86126 14.0685Z" fill="#3F81FD"/>
<path d="M38.2158 2.29141L13.3669 2.43877V4.9226H35.6565V34.7655H30.8274V29.7644C30.8449 28.4485 30.6008 27.1422 30.1093 25.9214C29.6178 24.7005 28.8887 23.5894 27.9643 22.6527C27.0399 21.7159 25.9386 20.9721 24.7244 20.4644C23.5102 19.9568 22.2073 19.6953 20.8912 19.6953C19.5751 19.6953 18.2722 19.9568 17.0579 20.4644C15.8437 20.9721 14.7425 21.7159 13.8181 22.6527C12.8937 23.5894 12.1646 24.7005 11.6731 25.9214C11.1816 27.1422 10.9375 28.4485 10.955 29.7644V34.7795H5.89957L5.84172 16.463L3.50873 18.2171L3.33331 37.2528L38.2807 37.2914L38.2158 2.29141ZM13.4458 29.7644C13.4307 28.7771 13.612 27.7966 13.9794 26.88C14.3468 25.9634 14.8928 25.1291 15.5857 24.4255C16.2785 23.7219 17.1044 23.1631 18.0153 22.7817C18.9261 22.4004 19.9037 22.204 20.8912 22.204C21.8787 22.204 22.8563 22.4004 23.7671 22.7817C24.678 23.1631 25.5039 23.7219 26.1967 24.4255C26.8896 25.1291 27.4356 25.9634 27.803 26.88C28.1703 27.7966 28.3517 28.7771 28.3366 29.7644V34.769L13.4458 34.7777V29.7644Z" fill="#677178"/>
</svg>
