<svg width="49" height="48" viewBox="0 0 49 48" fill="none" xmlns="http://www.w3.org/2000/svg">
<g clip-path="url(#clip0_43_2002)">
<path d="M24.4804 46.1966L13.4048 39.5866C8.22054 36.4783 5 30.8125 5 24.7533V1.5H23.4045L25.8146 4.81738H8.30748V24.7926C8.30748 31.1149 12.6979 34.9708 16.2326 37.0561L24.4804 41.9743L32.7281 37.0561C36.2628 34.9314 40.6533 31.0756 40.6533 24.7926V21.3957L43.9607 18.1092V24.7926C43.9607 30.8518 40.7402 36.5176 35.5559 39.6259L24.4804 46.1966Z" fill="#677178"/>
<path d="M36.4179 16.7496L32.6494 16.1799L24.5207 24.3086L20.1168 19.9046L17.9258 22.0957L24.5207 28.6906L36.4179 16.7496Z" fill="#677178"/>
<path d="M27.0329 1.50126L29.3689 4.78762L40.6455 4.78762L40.6455 10.9146L44.0004 10.9457L44.0004 1.50126L27.0329 1.50126Z" fill="#3F81FD"/>
</g>
<defs>
<clipPath id="clip0_43_2002">
<rect width="39" height="44.6966" fill="white" transform="translate(5 1.5)"/>
</clipPath>
</defs>
</svg>
