<svg width="49" height="48" viewBox="0 0 49 48" fill="none" xmlns="http://www.w3.org/2000/svg">
<g clip-path="url(#clip0_43_2039)">
<path d="M22.0929 46.4987L19.7102 43.2082L8.22758 43.2309L8.25027 36.8315L5.00519 36.8088V46.4987H22.0929Z" fill="#3F81FD"/>
<path d="M40.3159 27.1648C41.2236 27.1648 41.9725 27.9137 41.9725 28.8214C41.9725 29.7291 41.2236 30.478 40.3159 30.478H33.9619C33.0542 30.478 32.3053 29.7291 32.3053 28.8214C32.3053 27.9137 33.0542 27.1648 33.9619 27.1648H40.3159ZM40.3159 23.9878H33.9619C31.2841 23.9878 29.1283 26.1436 29.1283 28.8214C29.1283 31.4991 31.2841 33.655 33.9619 33.655H40.3159C42.9937 33.655 45.1495 31.4991 45.1495 28.8214C45.1495 26.1436 42.9937 23.9878 40.3159 23.9878Z" fill="#677178"/>
<path d="M40.3159 20.6975C41.2236 20.6975 41.9725 21.4464 41.9725 22.3541C41.9725 23.2618 41.2236 24.0107 40.3159 24.0107H33.9619C33.0542 24.0107 32.3053 23.2618 32.3053 22.3541C32.3053 21.4464 33.0542 20.6975 33.9619 20.6975H40.3159ZM40.3159 17.5205H33.9619C31.2841 17.5205 29.1283 19.6763 29.1283 22.3541C29.1283 25.0319 31.2841 27.1877 33.9619 27.1877H40.3159C42.9937 27.1877 45.1495 25.0319 45.1495 22.3541C45.1495 19.6763 42.9937 17.5205 40.3159 17.5205Z" fill="#677178"/>
<path d="M38.6753 33.5885C39.583 33.5885 40.3318 34.3374 40.3318 35.2451C40.3318 36.1528 39.583 36.9017 38.6753 36.9017H32.3213C31.4135 36.9017 30.6647 36.1528 30.6647 35.2451C30.6647 34.3374 31.4135 33.5885 32.3213 33.5885H38.6753ZM38.6753 30.4115H32.3213C29.6435 30.4115 27.4877 32.5673 27.4877 35.2451C27.4877 37.9228 29.6435 40.0787 32.3213 40.0787H38.6753C41.353 40.0787 43.5088 37.9228 43.5088 35.2451C43.5088 32.59 41.3303 30.4115 38.6753 30.4115Z" fill="#677178"/>
<path d="M38.6753 40.0104C39.583 40.0104 40.3318 40.7592 40.3318 41.667C40.3318 42.5747 39.583 43.3235 38.6753 43.3235H32.3213C31.4135 43.3235 30.6647 42.5747 30.6647 41.667C30.6647 40.7592 31.4135 40.0104 32.3213 40.0104H38.6753ZM38.6753 36.8334H32.3213C29.6435 36.8334 27.4877 38.9892 27.4877 41.667C27.4877 44.3447 29.6435 46.5005 32.3213 46.5005H38.6753C41.353 46.5005 43.5088 44.3447 43.5088 41.667C43.5088 38.9892 41.3303 36.8334 38.6753 36.8334Z" fill="#677178"/>
<path d="M31.4887 43.2766L23.2739 43.2993L25.634 46.4763C25.634 46.4763 32.9865 46.499 33.3042 46.4536L31.4887 43.2766Z" fill="#677178"/>
<path d="M21.1167 27.1892V28.2104C21.1167 29.4585 20.0955 30.4797 18.8474 30.4797C17.5993 30.4797 16.5781 29.4585 16.5781 28.2104V27.2119L13.5599 29.4585C14.1273 31.8639 16.2831 33.6567 18.8701 33.6567C21.8655 33.6567 24.3164 31.2058 24.3164 28.2104V27.1892H21.1167V27.1892Z" fill="#677178"/>
<path d="M8.19948 33.6557H5.02248V23.4666C5.02248 20.1761 6.79252 17.1126 9.65182 15.4787C11.7623 14.276 13.0785 12.0067 13.0785 9.55585V7.05964C13.0785 3.9961 15.5747 1.49988 18.6382 1.49988H18.7063C21.7698 1.49988 24.266 3.9961 24.266 7.05964V27.1882H21.089V7.05964C21.089 5.74345 20.0225 4.67688 18.7063 4.67688H18.6382C17.322 4.67688 16.2555 5.74345 16.2555 7.05964V9.57855C16.2555 13.1413 14.3266 16.4772 11.2403 18.2472C9.37951 19.3138 8.19948 21.3335 8.19948 23.4893V33.6557V33.6557Z" fill="#677178"/>
<path d="M36.7743 17.5178H22.2509V20.6951H36.7743V17.5178Z" fill="#677178"/>
</g>
<defs>
<clipPath id="clip0_43_2039">
<rect width="40.1437" height="45" fill="white" transform="translate(5 1.5)"/>
</clipPath>
</defs>
</svg>
