<svg width="40" height="41" viewBox="0 0 40 41" fill="none" xmlns="http://www.w3.org/2000/svg">
<path d="M20.7394 10.1013C21.4773 10.1006 22.1987 10.3189 22.8125 10.7284C23.4264 11.1379 23.9049 11.7203 24.1876 12.4019C24.4703 13.0834 24.5445 13.8335 24.4007 14.5573C24.2569 15.281 23.9016 15.9458 23.3799 16.4676C22.8581 16.9893 22.1933 17.3446 21.4695 17.4884C20.7458 17.6322 19.9957 17.558 19.3142 17.2753C18.6326 16.9926 18.0502 16.5141 17.6407 15.9003C17.2312 15.2864 17.0129 14.565 17.0136 13.8271C17.0146 12.8383 17.4077 11.8903 18.1069 11.1911C18.8061 10.4919 19.7541 10.0987 20.7429 10.0978L20.7394 10.1013ZM20.7429 7.61224C19.5138 7.61259 18.3124 7.97737 17.2906 8.66048C16.2688 9.34359 15.4725 10.3143 15.0024 11.45C14.5323 12.5856 14.4094 13.8352 14.6494 15.0406C14.8894 16.2461 15.4815 17.3533 16.3507 18.2223C17.2199 19.0913 18.3273 19.683 19.5328 19.9227C20.7383 20.1623 21.9879 20.0391 23.1234 19.5687C24.2589 19.0983 25.2294 18.3017 25.9122 17.2797C26.5951 16.2577 26.9595 15.0562 26.9595 13.8271C26.9595 13.0108 26.7987 12.2025 26.4863 11.4484C26.1738 10.6942 25.7159 10.009 25.1386 9.43189C24.5613 8.85476 23.876 8.39704 23.1217 8.08482C22.3675 7.7726 21.5592 7.61201 20.7429 7.61224V7.61224Z" fill="#2A72F8"/>
<path d="M5.86138 14.427L5.89121 5.30203H10.8483L10.8308 2.72348L3.37402 2.72699V16.2583L5.86138 14.427Z" fill="#3F81FD"/>
<path d="M38.2159 2.64983L13.3669 2.79719V5.28101H35.6566V35.1239H30.8275V30.1229C30.845 28.8069 30.6009 27.5006 30.1094 26.2798C29.6179 25.0589 28.8888 23.9479 27.9644 23.0111C27.04 22.0743 25.9387 21.3305 24.7245 20.8228C23.5103 20.3152 22.2073 20.0537 20.8913 20.0537C19.5752 20.0537 18.2722 20.3152 17.058 20.8228C15.8438 21.3305 14.7425 22.0743 13.8181 23.0111C12.8938 23.9479 12.1646 25.0589 11.6731 26.2798C11.1816 27.5006 10.9375 28.8069 10.955 30.1229V35.1379H5.89963L5.84178 16.8214L3.50879 18.5755L3.33337 37.6112L38.2807 37.6498L38.2159 2.64983ZM13.4459 30.1229C13.4307 29.1355 13.6121 28.155 13.9795 27.2384C14.3468 26.3218 14.8928 25.4875 15.5857 24.7839C16.2786 24.0803 17.1045 23.5216 18.0153 23.1402C18.9262 22.7588 19.9038 22.5624 20.8913 22.5624C21.8787 22.5624 22.8563 22.7588 23.7672 23.1402C24.678 23.5216 25.5039 24.0803 26.1968 24.7839C26.8897 25.4875 27.4357 26.3218 27.803 27.2384C28.1704 28.155 28.3518 29.1355 28.3366 30.1229V35.1274L13.4459 35.1362V30.1229Z" fill="#677178"/>
</svg>
