<svg width="48" height="48" viewBox="0 0 48 48" fill="none" xmlns="http://www.w3.org/2000/svg">
<path d="M24.0001 4.67221C34.6497 4.67221 43.328 13.3278 43.328 24C43.328 34.6722 34.6724 43.3278 24.0001 43.3278C13.3278 43.3278 4.67222 34.6495 4.67222 24C4.67222 13.3505 13.3278 4.67221 24.0001 4.67221ZM24.0001 1.5C11.5605 1.5 1.5 11.5604 1.5 24C1.5 36.4396 11.5605 46.5 24.0001 46.5C36.4397 46.5 46.5002 36.4396 46.5002 24C46.5002 11.5604 36.4171 1.5 24.0001 1.5Z" fill="#677178"/>
<path d="M35.5595 15.8397L31.6622 15.2432L23.2558 23.733L18.7014 19.121L16.4355 21.4385L23.2558 28.3451L35.5595 15.8397Z" fill="#3F81FD"/>
<path d="M10.5 22.5H7.5V25.5H10.5V22.5Z" fill="#677178"/>
<path d="M39 22.5H36V25.5H39V22.5Z" fill="#3F81FD"/>
<path d="M25.5 7.5H22.5V10.5H25.5V7.5Z" fill="#677178"/>
<path d="M25.5 37.5H22.5V40.5H25.5V37.5Z" fill="#677178"/>
</svg>
