<svg width="40" height="40" viewBox="0 0 40 40" fill="none" xmlns="http://www.w3.org/2000/svg">
<path d="M24.4229 10.5779L11.9481 21.7714L6.78805 18.4736L24.4229 10.5779ZM38.75 1.25L1.25 18.0779L12.2127 25.0879L38.75 1.25Z" fill="#677178"/>
<path d="M11.2336 38.6559C10.9312 38.6559 10.6477 38.5993 10.3453 38.4863C9.23011 38.0717 8.58746 36.9599 8.75758 35.7916L10.6477 22.9586L13.275 23.3355L11.4793 35.49L16.6772 27.7074L18.8886 29.1772L13.3317 37.5064C12.8402 38.2413 12.0653 38.6559 11.2336 38.6559Z" fill="#677178"/>
<path d="M32.7024 25.0313L31.3793 34.3027L27.6747 31.9095L26.0303 33.9258L33.4206 38.7499L35.5565 23.6746L32.7024 25.0313Z" fill="#3F81FD"/>
<path d="M34.8162 10.0879L33.134 21.941L35.9881 20.603L38.7476 1.25L16.5576 27.858L23.7212 32.456L25.4034 30.4209L20.508 27.255L34.8162 10.0879Z" fill="#677178"/>
<path d="M21.5512 29.3314L10.5566 36.2186L11.9644 38.4524L22.9589 31.5651L21.5512 29.3314Z" fill="#677178"/>
</svg>
