<svg width="41" height="40" viewBox="0 0 41 40" fill="none" xmlns="http://www.w3.org/2000/svg">
<path d="M24.7561 10.5779L12.2813 21.7714L7.12131 18.4736L24.7561 10.5779ZM39.0833 1.25L1.58325 18.0779L12.546 25.0879L39.0833 1.25Z" fill="#677178"/>
<path d="M11.5669 38.6559C11.2645 38.6559 10.9809 38.5993 10.6785 38.4863C9.56336 38.0717 8.92072 36.9599 9.09083 35.7916L10.9809 22.9586L13.6082 23.3355L11.8126 35.49L17.0104 27.7074L19.2219 29.1772L13.6649 37.5064C13.1735 38.2413 12.3985 38.6559 11.5669 38.6559Z" fill="#677178"/>
<path d="M33.0356 25.0313L31.7126 34.3027L28.0079 31.9095L26.3635 33.9258L33.7539 38.7499L35.8897 23.6746L33.0356 25.0313Z" fill="#3F81FD"/>
<path d="M35.1494 10.0879L33.4672 21.941L36.3213 20.603L39.0809 1.25L16.8909 27.858L24.0544 32.456L25.7366 30.4209L20.8412 27.255L35.1494 10.0879Z" fill="#677178"/>
<path d="M21.8844 29.3314L10.8899 36.2186L12.2977 38.4524L23.2922 31.5651L21.8844 29.3314Z" fill="#677178"/>
</svg>
