<svg width="40" height="41" viewBox="0 0 40 41" fill="none" xmlns="http://www.w3.org/2000/svg">
<path d="M24.4229 11.2026L11.9481 22.3961L6.78805 19.0984L24.4229 11.2026ZM38.75 1.87476L1.25 18.7026L12.2127 25.7127L38.75 1.87476Z" fill="#677178"/>
<path d="M11.2336 39.2806C10.9312 39.2806 10.6477 39.2241 10.3453 39.111C9.23011 38.6965 8.58746 37.5846 8.75758 36.4163L10.6477 23.5834L13.275 23.9603L11.4793 36.1148L16.6772 28.3321L18.8886 29.802L13.3317 38.1311C12.8402 38.8661 12.0653 39.2806 11.2336 39.2806Z" fill="#677178"/>
<path d="M32.7024 25.6561L31.3793 34.9275L27.6747 32.5342L26.0303 34.5506L33.4206 39.3747L35.5565 24.2993L32.7024 25.6561Z" fill="#3F81FD"/>
<path d="M34.8162 10.7127L33.134 22.5657L35.9881 21.2278L38.7476 1.87476L16.5576 28.4828L23.7212 33.0808L25.4034 31.0456L20.508 27.8798L34.8162 10.7127Z" fill="#677178"/>
<path d="M21.5512 29.9561L10.5566 36.8434L11.9644 39.0771L22.9589 32.1899L21.5512 29.9561Z" fill="#677178"/>
</svg>
