<svg width="30" height="37" viewBox="0 0 30 37" fill="none" xmlns="http://www.w3.org/2000/svg">
<path d="M12.4985 4.79492C11.2271 4.79445 9.974 5.09895 8.84451 5.68283C7.71503 6.26671 6.74204 7.11298 6.0072 8.15061C5.27236 9.18824 4.7971 10.387 4.62129 11.6462C4.44548 12.9055 4.57425 14.1886 4.9968 15.3878L6.90791 13.7428C6.77098 12.9676 6.79671 12.1724 6.98348 11.4077C7.17026 10.6429 7.51399 9.92535 7.99286 9.30053C8.47173 8.67572 9.07528 8.15729 9.76518 7.77817C10.4551 7.39904 11.2163 7.16749 12.0004 7.09822C12.7846 7.02895 13.5746 7.12351 14.3203 7.37582C15.066 7.62814 15.751 8.03272 16.332 8.56391C16.913 9.0951 17.3772 9.74127 17.6952 10.4614C18.0131 11.1816 18.1778 11.96 18.1789 12.7472C18.1789 12.7744 18.1789 12.8001 18.1789 12.8257L20.4508 12.8049C20.4508 12.7856 20.4508 12.768 20.4508 12.7472C20.4508 10.6381 19.6129 8.61543 18.1216 7.1241C16.6303 5.63276 14.6076 4.79492 12.4985 4.79492Z" fill="#677178"/>
<path d="M12.499 0.25C10.354 0.249482 8.24501 0.801074 6.375 1.85175C4.50499 2.90242 2.93691 4.41679 1.82171 6.24905C0.706506 8.08131 0.0817176 10.1698 0.00748652 12.3135C-0.0667446 14.4571 0.412076 16.5839 1.39787 18.4889L3.17911 16.9529C2.55203 15.5627 2.24391 14.0498 2.27732 12.5251C2.31073 11.0003 2.68481 9.50238 3.37218 8.14097C4.05955 6.77955 5.04279 5.58917 6.24985 4.65701C7.45691 3.72485 8.85722 3.07453 10.3482 2.75371C11.8392 2.43289 13.383 2.44969 14.8667 2.80287C16.3503 3.15606 17.7361 3.83671 18.9226 4.79491C20.1091 5.75311 21.0662 6.96459 21.7238 8.34063C22.3814 9.71668 22.7228 11.2224 22.723 12.7475V12.786L24.9949 12.7667C24.9957 12.7604 24.9957 12.7539 24.9949 12.7475C24.9928 9.4339 23.6756 6.25658 21.3327 3.91334C18.9897 1.57011 15.8126 0.252549 12.499 0.25Z" fill="#677178"/>
<path d="M29.518 24.4219L27.2029 26.1037L27.2205 34.2099L22.7009 34.1922L22.6816 36.4881H29.518V24.4219Z" fill="#2A72F8"/>
<path d="M29.5128 20.2326C29.3836 19.4353 28.9755 18.7098 28.3612 18.1853C27.7469 17.6609 26.9664 17.3716 26.1587 17.3691C25.3328 17.3644 24.5339 17.6634 23.9141 18.2092C23.2987 17.6256 22.4868 17.294 21.6388 17.2797C20.7908 17.2655 19.9682 17.5696 19.3336 18.1323C18.8777 17.7175 18.317 17.4352 17.7123 17.316C17.1076 17.1967 16.4818 17.245 15.9026 17.4557V12.6266H15.9218C15.9113 11.732 15.5492 10.8773 14.9139 10.2474C14.2785 9.6174 13.4208 9.26265 12.5261 9.25977C10.7336 9.25977 9.09826 10.7139 9.09024 12.4134L9.07581 18.097L9.05657 18.1147V21.1609L9.071 21.148V23.6524L5.92858 26.2577C5.43605 26.6673 5.04658 27.1868 4.7915 27.7743C4.53642 28.3619 4.42288 29.0012 4.46 29.6407C4.49712 30.2802 4.68387 30.9021 5.00523 31.4562C5.32658 32.0103 5.77355 32.4813 6.31016 32.8311L10.5653 35.5968C11.2822 36.1818 12.1795 36.5007 13.1048 36.4994L20.4799 36.4802V34.2356L13.1048 34.2195C12.6371 34.2195 12.1885 34.0337 11.8578 33.703C11.5271 33.3722 11.3412 32.9237 11.3412 32.4559V30.1729L11.3861 12.6122C11.3978 12.3268 11.5168 12.0563 11.7193 11.8548C11.9219 11.6533 12.193 11.5358 12.4785 11.5256C12.764 11.5155 13.0428 11.6136 13.2591 11.8002C13.4754 11.9867 13.6133 12.2481 13.6451 12.532V25.1482H15.9218V20.5805C15.9347 20.2911 16.0604 20.0184 16.272 19.8206C16.4836 19.6228 16.7642 19.5158 17.0537 19.5223C17.3311 19.5236 17.5984 19.6264 17.8052 19.8113C18.012 19.9962 18.1439 20.2505 18.176 20.526V25.1434H20.4735V20.6173C20.4823 20.3286 20.6039 20.0547 20.8121 19.8545C21.0204 19.6543 21.2989 19.5437 21.5878 19.5464C22.1698 19.5464 22.6892 19.8991 22.7101 20.6141V25.1434H25.0541V20.7071C25.0684 20.4253 25.1884 20.1592 25.3902 19.9619C25.5919 19.7645 25.8606 19.6505 26.1427 19.6424C26.4248 19.6343 26.6996 19.7328 26.9123 19.9182C27.1251 20.1037 27.2601 20.3625 27.2906 20.643V21.5184L27.2986 23.8255L29.5432 22.1629C29.5432 22.1629 29.5496 20.4506 29.5128 20.2326ZM6.71899 29.4995C6.70097 29.2156 6.75074 28.9314 6.8642 28.6704C6.97766 28.4095 7.15155 28.1793 7.37153 27.9988L9.05497 26.6024V28.374V31.7072V31.8964L7.53987 30.9104C7.30058 30.7564 7.10135 30.5477 6.95862 30.3016C6.81589 30.0554 6.73375 29.7789 6.71899 29.4947V29.4995Z" fill="#677178"/>
</svg>
