<svg width="40" height="41" viewBox="0 0 40 41" fill="none" xmlns="http://www.w3.org/2000/svg">
<path d="M24.4229 11.561L11.9481 22.7545L6.78805 19.4568L24.4229 11.561ZM38.75 2.23315L1.25 19.061L12.2127 26.0711L38.75 2.23315Z" fill="#677178"/>
<path d="M11.2336 39.639C10.9312 39.639 10.6477 39.5825 10.3453 39.4694C9.23011 39.0548 8.58746 37.943 8.75758 36.7747L10.6477 23.9418L13.275 24.3187L11.4793 36.4732L16.6772 28.6905L18.8886 30.1604L13.3317 38.4895C12.8402 39.2244 12.0653 39.639 11.2336 39.639Z" fill="#677178"/>
<path d="M32.7024 26.0145L31.3793 35.2859L27.6747 32.8926L26.0303 34.909L33.4206 39.7331L35.5565 24.6577L32.7024 26.0145Z" fill="#3F81FD"/>
<path d="M34.8162 11.0711L33.134 22.9241L35.9881 21.5862L38.7476 2.23315L16.5576 28.8412L23.7212 33.4392L25.4034 31.404L20.508 28.2382L34.8162 11.0711Z" fill="#677178"/>
<path d="M21.5512 30.3145L10.5566 37.2018L11.9644 39.4355L22.9589 32.5483L21.5512 30.3145Z" fill="#677178"/>
</svg>
