<svg width="295" height="253" viewBox="0 0 295 253" fill="none" xmlns="http://www.w3.org/2000/svg">
<g clip-path="url(#clip0_43_1521)">
<g filter="url(#filter0_dd_43_1521)">
<path d="M160.974 2.12741H21.2741C11.8747 2.12741 4.25488 9.74718 4.25488 19.1466V24.8197C4.25488 34.2192 11.8747 41.8389 21.2741 41.8389H160.974C170.373 41.8389 177.993 34.2192 177.993 24.8197V19.1466C177.993 9.74718 170.373 2.12741 160.974 2.12741Z" fill="white"/>
<path d="M21.4443 27.0039H22.7038C23.0441 26.1756 23.3562 25.0807 23.6398 23.7192C23.9348 22.3576 24.0937 20.7578 24.1164 18.9197L24.1504 16.4519H31.3665V27.0039H32.8983V30.5779H31.4687V28.3654H22.874V30.5779H21.4443V27.0039ZM29.8348 17.8135H25.6311L25.614 18.9708C25.6027 19.7537 25.5573 20.5252 25.4779 21.2854C25.4098 22.0342 25.3134 22.7547 25.1886 23.4468C25.0751 24.139 24.939 24.7857 24.7801 25.387C24.6326 25.9884 24.4738 26.5273 24.3036 27.0039H29.8348V17.8135ZM34.2985 23.8213C34.2985 23.0384 34.4063 22.3576 34.6219 21.779C34.8375 21.2003 35.1382 20.7181 35.5239 20.3323C35.9097 19.9466 36.3692 19.6572 36.9025 19.4643C37.4471 19.2715 38.0428 19.175 38.6895 19.175C39.3022 19.175 39.8582 19.2658 40.3574 19.4473C40.8566 19.6289 41.2764 19.9125 41.6168 20.2983C41.9685 20.6841 42.2408 21.1719 42.4337 21.7619C42.6266 22.3519 42.7231 23.0554 42.7231 23.8723C42.7231 24.7233 42.6096 25.4438 42.3827 26.0338C42.1671 26.6238 41.8664 27.106 41.4807 27.4804C41.1062 27.8548 40.6637 28.1271 40.1532 28.2973C39.6426 28.4675 39.0923 28.5526 38.5023 28.5526C37.1521 28.5526 36.1139 28.1385 35.3878 27.3102C34.6616 26.4819 34.2985 25.319 34.2985 23.8213ZM35.7111 23.8723C35.7111 24.9502 35.9551 25.7898 36.443 26.3912C36.9422 26.9812 37.6683 27.2762 38.6214 27.2762C39.461 27.2762 40.1191 27.0095 40.5957 26.4763C41.0722 25.9316 41.3105 25.0637 41.3105 23.8723V23.8213C41.3105 22.6753 41.0665 21.8243 40.5786 21.2684C40.1021 20.7124 39.41 20.4344 38.5023 20.4344C37.6059 20.4344 36.9138 20.7238 36.4259 21.3024C35.9494 21.8697 35.7111 22.7093 35.7111 23.8213V23.8723ZM45.1693 19.3452H50.8707V20.6727H46.5819V28.3654H45.1693V19.3452ZM52.0224 23.8213C52.0224 23.0384 52.1302 22.3576 52.3458 21.779C52.5614 21.2003 52.8621 20.7181 53.2478 20.3323C53.6336 19.9466 54.0931 19.6572 54.6264 19.4643C55.171 19.2715 55.7667 19.175 56.4134 19.175C57.0261 19.175 57.582 19.2658 58.0813 19.4473C58.5805 19.6289 59.0003 19.9125 59.3407 20.2983C59.6924 20.6841 59.9647 21.1719 60.1576 21.7619C60.3505 22.3519 60.447 23.0554 60.447 23.8723C60.447 24.7233 60.3335 25.4438 60.1066 26.0338C59.891 26.6238 59.5903 27.106 59.2045 27.4804C58.8301 27.8548 58.3876 28.1271 57.8771 28.2973C57.3665 28.4675 56.8162 28.5526 56.2262 28.5526C54.876 28.5526 53.8378 28.1385 53.1117 27.3102C52.3855 26.4819 52.0224 25.319 52.0224 23.8213ZM53.435 23.8723C53.435 24.9502 53.679 25.7898 54.1669 26.3912C54.6661 26.9812 55.3922 27.2762 56.3453 27.2762C57.1849 27.2762 57.843 27.0095 58.3196 26.4763C58.7961 25.9316 59.0344 25.0637 59.0344 23.8723V23.8213C59.0344 22.6753 58.7904 21.8243 58.3025 21.2684C57.826 20.7124 57.1339 20.4344 56.2262 20.4344C55.3298 20.4344 54.6377 20.7238 54.1498 21.3024C53.6733 21.8697 53.435 22.7093 53.435 23.8213V23.8723ZM62.8932 19.3282C63.2222 19.3055 63.6364 19.2828 64.1356 19.2601C64.6462 19.2374 65.2532 19.2261 65.9566 19.2261C66.6828 19.2261 67.2785 19.2771 67.7437 19.3792C68.2089 19.4814 68.5776 19.6232 68.8499 19.8047C69.1222 19.9863 69.3094 20.2132 69.4115 20.4855C69.525 20.7465 69.5817 21.0358 69.5817 21.3535C69.5817 21.9321 69.4513 22.3973 69.1903 22.7491C68.9293 23.0894 68.4755 23.3504 67.8288 23.5319C68.589 23.6 69.1392 23.7872 69.4796 24.0936C69.8314 24.3999 70.0072 24.9275 70.0072 25.6764C70.0072 26.0962 69.9448 26.4819 69.82 26.8337C69.6952 27.1741 69.4796 27.4691 69.1733 27.7187C68.8783 27.9683 68.4755 28.1612 67.9649 28.2973C67.4657 28.4335 66.8416 28.5016 66.0928 28.5016C65.7978 28.5016 65.4915 28.4959 65.1738 28.4845C64.8674 28.4845 64.5724 28.4789 64.2888 28.4675C64.0051 28.4562 63.7441 28.4391 63.5059 28.4165C63.2676 28.4051 63.0634 28.3938 62.8932 28.3824V19.3282ZM64.3058 27.1911C64.6008 27.2138 64.8958 27.2365 65.1908 27.2591C65.4971 27.2705 65.8148 27.2762 66.1439 27.2762C66.6091 27.2762 66.9948 27.2535 67.3012 27.2081C67.6189 27.1514 67.8741 27.0606 68.067 26.9358C68.2599 26.811 68.3961 26.6465 68.4755 26.4422C68.5549 26.238 68.5946 25.9884 68.5946 25.6934C68.5946 25.1828 68.4188 24.8311 68.067 24.6382C67.7266 24.434 67.1707 24.3318 66.3992 24.3318H64.3058V27.1911ZM66.3992 23.1235C66.9324 23.1235 67.3579 23.0157 67.6756 22.8001C67.9933 22.5845 68.1521 22.2385 68.1521 21.7619C68.1521 21.2514 67.9933 20.9053 67.6756 20.7238C67.3692 20.5422 66.8303 20.4515 66.0588 20.4515C65.6276 20.4515 65.2759 20.4515 65.0036 20.4515C64.7313 20.4515 64.4987 20.4571 64.3058 20.4685V23.1235H66.3992ZM71.8404 23.8213C71.8404 23.0384 71.9482 22.3576 72.1638 21.779C72.3794 21.2003 72.68 20.7181 73.0658 20.3323C73.4516 19.9466 73.9111 19.6572 74.4443 19.4643C74.989 19.2715 75.5846 19.175 76.2314 19.175C76.8441 19.175 77.4 19.2658 77.8993 19.4473C78.3985 19.6289 78.8183 19.9125 79.1587 20.2983C79.5104 20.6841 79.7827 21.1719 79.9756 21.7619C80.1685 22.3519 80.2649 23.0554 80.2649 23.8723C80.2649 24.7233 80.1515 25.4438 79.9245 26.0338C79.709 26.6238 79.4083 27.106 79.0225 27.4804C78.6481 27.8548 78.2056 28.1271 77.695 28.2973C77.1844 28.4675 76.6342 28.5526 76.0442 28.5526C74.694 28.5526 73.6558 28.1385 72.9296 27.3102C72.2035 26.4819 71.8404 25.319 71.8404 23.8213ZM73.253 23.8723C73.253 24.9502 73.4969 25.7898 73.9848 26.3912C74.4841 26.9812 75.2102 27.2762 76.1633 27.2762C77.0029 27.2762 77.661 27.0095 78.1375 26.4763C78.6141 25.9316 78.8523 25.0637 78.8523 23.8723V23.8213C78.8523 22.6753 78.6084 21.8243 78.1205 21.2684C77.644 20.7124 76.9519 20.4344 76.0442 20.4344C75.1478 20.4344 74.4557 20.7238 73.9678 21.3024C73.4913 21.8697 73.253 22.7093 73.253 23.8213V23.8723ZM82.6944 19.3452H83.9879L84.073 20.928C84.5495 19.7593 85.599 19.175 87.2215 19.175C88.3902 19.175 89.2638 19.5267 89.8425 20.2302C90.4212 20.9223 90.7105 22.0683 90.7105 23.6681C90.7105 24.5417 90.6311 25.2906 90.4722 25.9146C90.3134 26.5273 90.0751 27.0322 89.7574 27.4293C89.4511 27.8151 89.0653 28.0988 88.6001 28.2803C88.1349 28.4618 87.596 28.5526 86.9833 28.5526C86.2117 28.5526 85.5934 28.4165 85.1282 28.1442C84.6743 27.8605 84.3339 27.5315 84.107 27.157V31.4289H82.6944V19.3452ZM84.107 24.7403C84.107 25.5232 84.3283 26.1416 84.7708 26.5954C85.2246 27.0492 85.8657 27.2762 86.6939 27.2762C87.1705 27.2762 87.5733 27.2138 87.9023 27.089C88.2313 26.9642 88.498 26.7599 88.7022 26.4763C88.9064 26.1926 89.0539 25.8295 89.1447 25.387C89.2468 24.9445 89.2979 24.3999 89.2979 23.7532C89.2979 23.1405 89.2412 22.6242 89.1277 22.2044C89.0142 21.7733 88.8497 21.4329 88.6341 21.1833C88.4186 20.9223 88.1462 20.7351 87.8172 20.6217C87.4995 20.5082 87.1308 20.4515 86.711 20.4515C86.2685 20.4515 85.8827 20.5139 85.5537 20.6387C85.2246 20.7635 84.9523 20.9393 84.7367 21.1663C84.5212 21.3818 84.3623 21.6428 84.2602 21.9492C84.1581 22.2555 84.107 22.5845 84.107 22.9363V24.7403ZM94.5646 22.3236C94.7916 22.3009 95.0015 22.2839 95.1943 22.2725C95.3872 22.2612 95.5915 22.2555 95.807 22.2555C96.5218 22.2555 97.1289 22.3179 97.6281 22.4427C98.1273 22.5562 98.5301 22.7377 98.8365 22.9873C99.1428 23.2256 99.364 23.5319 99.5002 23.9064C99.6364 24.2694 99.7044 24.7063 99.7044 25.2168C99.7044 25.6707 99.6364 26.0962 99.5002 26.4933C99.364 26.8904 99.1315 27.2365 98.8024 27.5315C98.4847 27.8265 98.0592 28.0591 97.526 28.2292C96.9927 28.3994 96.329 28.4845 95.5347 28.4845C95.1376 28.4845 94.7405 28.4732 94.3434 28.4505C93.9463 28.4391 93.5491 28.4108 93.152 28.3654V19.3452H94.5646V22.3236ZM94.5646 27.157C94.7689 27.1797 94.9391 27.1967 95.0752 27.2081C95.2227 27.2081 95.4269 27.2081 95.6879 27.2081C96.1985 27.2081 96.6183 27.1627 96.9473 27.0719C97.2877 26.9812 97.5543 26.8507 97.7472 26.6805C97.9515 26.5103 98.0933 26.3061 98.1727 26.0678C98.2521 25.8295 98.2918 25.5629 98.2918 25.2679C98.2918 24.9956 98.2578 24.746 98.1897 24.5191C98.1217 24.2921 97.9855 24.0992 97.7813 23.9404C97.5884 23.7702 97.3104 23.6397 96.9473 23.549C96.5956 23.4582 96.1247 23.4128 95.5347 23.4128C95.3532 23.4128 95.1887 23.4242 95.0412 23.4468C94.905 23.4582 94.7462 23.4752 94.5646 23.4979V27.157ZM100.981 19.3452H102.393V28.3654H100.981V19.3452ZM110.344 19.3452H111.757V23.1235H116.25V19.3452H117.663V28.3654H116.25V24.468H111.757V28.3654H110.344V19.3452ZM125.757 27.0719C125.53 27.4804 125.178 27.8321 124.701 28.1271C124.236 28.4108 123.68 28.5526 123.034 28.5526C122.126 28.5526 121.411 28.3257 120.889 27.8718C120.367 27.4067 120.106 26.7372 120.106 25.8636C120.106 25.3643 120.169 24.9445 120.293 24.6042C120.43 24.2524 120.64 23.9688 120.923 23.7532C121.218 23.5263 121.593 23.3617 122.046 23.2596C122.5 23.1575 123.051 23.1065 123.697 23.1065H125.723V22.2555C125.723 21.8924 125.677 21.5974 125.586 21.3705C125.507 21.1322 125.377 20.9507 125.195 20.8259C125.013 20.6897 124.781 20.599 124.497 20.5536C124.225 20.4968 123.902 20.4685 123.527 20.4685C123.017 20.4685 122.506 20.5649 121.995 20.7578C121.496 20.9507 121.093 21.1776 120.787 21.4386V19.8047C120.969 19.7026 121.178 19.6118 121.417 19.5324C121.666 19.453 121.922 19.3906 122.183 19.3452C122.444 19.2885 122.704 19.2488 122.965 19.2261C123.226 19.192 123.465 19.175 123.68 19.175C124.27 19.175 124.781 19.2261 125.212 19.3282C125.655 19.4303 126.018 19.6005 126.301 19.8388C126.585 20.077 126.795 20.3947 126.931 20.7918C127.067 21.1776 127.135 21.6598 127.135 22.2385V28.3654H125.842L125.757 27.0719ZM121.553 25.6423C121.553 26.1302 121.689 26.5103 121.961 26.7826C122.234 27.0549 122.682 27.1911 123.306 27.1911C124.145 27.1911 124.758 26.9755 125.144 26.5443C125.53 26.1132 125.723 25.5686 125.723 24.9105V24.1446H123.748C123.317 24.1446 122.96 24.173 122.676 24.2297C122.392 24.2865 122.166 24.3772 121.995 24.502C121.837 24.6155 121.723 24.7687 121.655 24.9616C121.587 25.1431 121.553 25.37 121.553 25.6423ZM130.096 19.3452H131.508V23.7362C131.508 24.2694 131.497 24.7857 131.474 25.2849C131.452 25.7728 131.429 26.1302 131.406 26.3571L131.474 26.3912C131.69 26.0281 131.917 25.6764 132.155 25.336C132.393 24.9842 132.637 24.6382 132.887 24.2978L136.308 19.3452H137.55V28.3654H136.138V24.7233C136.138 24.3942 136.138 24.0652 136.138 23.7362C136.149 23.3958 136.16 23.0724 136.172 22.7661C136.183 22.4597 136.194 22.1817 136.206 21.9321C136.217 21.6712 136.228 21.4613 136.24 21.3024L136.189 21.2854C136.041 21.5464 135.848 21.8754 135.61 22.2725C135.372 22.6583 135.122 23.0214 134.861 23.3617L131.355 28.3654H130.096V19.3452ZM132.496 15.4308C132.541 15.8619 132.654 16.2023 132.836 16.4519C133.029 16.7016 133.364 16.8264 133.84 16.8264C134.317 16.8264 134.651 16.7016 134.844 16.4519C135.048 16.2023 135.173 15.8619 135.219 15.4308H136.478C136.387 16.2704 136.104 16.8774 135.627 17.2518C135.162 17.6263 134.566 17.8135 133.84 17.8135C133.114 17.8135 132.513 17.6263 132.036 17.2518C131.571 16.8774 131.293 16.2704 131.202 15.4308H132.496ZM140.603 19.3452H142.475L145.334 24.7063L148.075 19.3452H149.862V28.3654H148.449V23.617C148.449 23.1065 148.472 22.6016 148.517 22.1023C148.562 21.5917 148.608 21.0812 148.653 20.5706C148.392 21.1492 148.148 21.6939 147.921 22.2044C147.694 22.7037 147.484 23.1235 147.292 23.4639L145.726 26.1869H144.756L143.275 23.4809C143.082 23.1178 142.861 22.6867 142.611 22.1874C142.362 21.6882 142.101 21.1549 141.828 20.5876C141.874 21.0982 141.914 21.6144 141.948 22.1364C141.993 22.6469 142.016 23.1632 142.016 23.6851V28.3654H140.603V19.3452ZM157.96 27.0719C157.733 27.4804 157.381 27.8321 156.905 28.1271C156.439 28.4108 155.883 28.5526 155.237 28.5526C154.329 28.5526 153.614 28.3257 153.092 27.8718C152.57 27.4067 152.309 26.7372 152.309 25.8636C152.309 25.3643 152.372 24.9445 152.497 24.6042C152.633 24.2524 152.843 23.9688 153.126 23.7532C153.421 23.5263 153.796 23.3617 154.25 23.2596C154.703 23.1575 155.254 23.1065 155.901 23.1065H157.926V22.2555C157.926 21.8924 157.88 21.5974 157.79 21.3705C157.71 21.1322 157.58 20.9507 157.398 20.8259C157.217 20.6897 156.984 20.599 156.7 20.5536C156.428 20.4968 156.105 20.4685 155.73 20.4685C155.22 20.4685 154.709 20.5649 154.199 20.7578C153.699 20.9507 153.297 21.1776 152.99 21.4386V19.8047C153.172 19.7026 153.382 19.6118 153.62 19.5324C153.87 19.453 154.125 19.3906 154.386 19.3452C154.647 19.2885 154.908 19.2488 155.169 19.2261C155.43 19.192 155.668 19.175 155.883 19.175C156.473 19.175 156.984 19.2261 157.415 19.3282C157.858 19.4303 158.221 19.6005 158.504 19.8388C158.788 20.077 158.998 20.3947 159.134 20.7918C159.27 21.1776 159.338 21.6598 159.338 22.2385V28.3654H158.045L157.96 27.0719ZM153.756 25.6423C153.756 26.1302 153.892 26.5103 154.165 26.7826C154.437 27.0549 154.885 27.1911 155.509 27.1911C156.349 27.1911 156.961 26.9755 157.347 26.5443C157.733 26.1132 157.926 25.5686 157.926 24.9105V24.1446H155.952C155.52 24.1446 155.163 24.173 154.879 24.2297C154.596 24.2865 154.369 24.3772 154.199 24.502C154.04 24.6155 153.926 24.7687 153.858 24.9616C153.79 25.1431 153.756 25.37 153.756 25.6423Z" fill="#262626" fill-opacity="0.7"/>
</g>
<g filter="url(#filter1_dd_43_1521)">
<path d="M101.406 58.8582H21.2741C11.8747 58.8582 4.25488 66.4779 4.25488 75.8774C4.25488 85.2769 11.8747 92.8966 21.2741 92.8966H101.406C110.806 92.8966 118.426 85.2769 118.426 75.8774C118.426 66.4779 110.806 58.8582 101.406 58.8582Z" fill="white"/>
<path d="M23.1802 70.4483C23.5433 70.4029 23.9971 70.3575 24.5417 70.3121C25.0977 70.2667 25.665 70.244 26.2436 70.244C27.1513 70.244 27.9229 70.3235 28.5583 70.4823C29.1936 70.6411 29.7099 70.8851 30.107 71.2141C30.5041 71.5318 30.7878 71.9346 30.958 72.4225C31.1395 72.899 31.2303 73.4663 31.2303 74.1244C31.2303 75.6335 30.8388 76.7397 30.0559 77.4432C29.2844 78.1466 28.0136 78.4984 26.2436 78.4984C26.0167 78.4984 25.7671 78.4927 25.4948 78.4813C25.2225 78.47 24.9615 78.453 24.7119 78.4303V82.2596H23.1802V70.4483ZM24.7119 77.0858C24.9615 77.1085 25.2111 77.1255 25.4608 77.1368C25.7217 77.1482 25.9827 77.1538 26.2436 77.1538C26.8677 77.1538 27.3953 77.1085 27.8264 77.0177C28.2576 76.9156 28.6036 76.7511 28.8646 76.5241C29.1369 76.2972 29.3298 76.0022 29.4433 75.6391C29.5681 75.2761 29.6305 74.8222 29.6305 74.2776C29.6305 73.7784 29.5737 73.3586 29.4603 73.0182C29.3468 72.6778 29.1539 72.4055 28.8816 72.2012C28.6207 71.9857 28.2803 71.8325 27.8605 71.7417C27.4407 71.651 26.9244 71.6056 26.3117 71.6056C26.0508 71.6056 25.7784 71.6112 25.4948 71.6226C25.2225 71.6339 24.9615 71.651 24.7119 71.6736V77.0858ZM38.6823 80.9662C38.4554 81.3746 38.1036 81.7263 37.6271 82.0213C37.1619 82.305 36.6059 82.4468 35.9592 82.4468C35.0515 82.4468 34.3367 82.2199 33.8148 81.7661C33.2929 81.3009 33.0319 80.6314 33.0319 79.7578C33.0319 79.2586 33.0943 78.8387 33.2191 78.4984C33.3553 78.1466 33.5652 77.863 33.8488 77.6474C34.1438 77.4205 34.5182 77.256 34.9721 77.1538C35.4259 77.0517 35.9762 77.0007 36.623 77.0007H38.6482V76.1497C38.6482 75.7866 38.6029 75.4916 38.5121 75.2647C38.4327 75.0264 38.3022 74.8449 38.1206 74.7201C37.9391 74.5839 37.7065 74.4932 37.4229 74.4478C37.1506 74.3911 36.8272 74.3627 36.4528 74.3627C35.9422 74.3627 35.4316 74.4591 34.921 74.652C34.4218 74.8449 34.019 75.0718 33.7127 75.3328V73.6989C33.8942 73.5968 34.1041 73.5061 34.3424 73.4266C34.592 73.3472 34.8473 73.2848 35.1082 73.2394C35.3692 73.1827 35.6302 73.143 35.8911 73.1203C36.1521 73.0862 36.3904 73.0692 36.6059 73.0692C37.1959 73.0692 37.7065 73.1203 38.1377 73.2224C38.5802 73.3245 38.9432 73.4947 39.2269 73.733C39.5106 73.9712 39.7205 74.2889 39.8566 74.6861C39.9928 75.0718 40.0608 75.554 40.0608 76.1327V82.2596H38.7674L38.6823 80.9662ZM34.4785 79.5365C34.4785 80.0244 34.6147 80.4045 34.887 80.6768C35.1593 80.9491 35.6075 81.0853 36.2315 81.0853C37.0711 81.0853 37.6838 80.8697 38.0696 80.4386C38.4554 80.0074 38.6482 79.4628 38.6482 78.8047V78.0388H36.674C36.2429 78.0388 35.8855 78.0672 35.6018 78.1239C35.3182 78.1807 35.0912 78.2714 34.921 78.3962C34.7622 78.5097 34.6487 78.6629 34.5806 78.8558C34.5126 79.0373 34.4785 79.2642 34.4785 79.5365ZM49.3104 75.1286C49.0381 74.9357 48.6864 74.7712 48.2553 74.635C47.8241 74.4875 47.3532 74.4137 46.8427 74.4137C46.4342 74.4137 46.0598 74.4705 45.7194 74.5839C45.379 74.6861 45.084 74.8619 44.8344 75.1115C44.5961 75.3611 44.4089 75.7015 44.2727 76.1327C44.1479 76.5525 44.0855 77.0744 44.0855 77.6985C44.0855 78.3338 44.1536 78.8671 44.2898 79.2983C44.4259 79.7294 44.6245 80.0811 44.8854 80.3535C45.1577 80.6144 45.4811 80.8016 45.8555 80.9151C46.2413 81.0286 46.6838 81.0853 47.183 81.0853C47.6482 81.0853 48.0907 81.0172 48.5105 80.8811C48.9417 80.7449 49.3048 80.552 49.5998 80.3024V81.8341C49.3615 82.027 49.0154 82.1745 48.5616 82.2766C48.1191 82.3901 47.5915 82.4468 46.9788 82.4468C46.298 82.4468 45.6853 82.3674 45.1407 82.2086C44.6075 82.0384 44.1536 81.7604 43.7792 81.3746C43.4048 80.9888 43.1154 80.4896 42.9112 79.8769C42.7183 79.2529 42.6219 78.487 42.6219 77.5793C42.6219 76.0249 42.985 74.8846 43.7111 74.1585C44.4486 73.4323 45.5549 73.0692 47.0299 73.0692C47.5858 73.0692 48.0397 73.1146 48.3914 73.2054C48.7431 73.2848 49.0495 73.3926 49.3104 73.5287V75.1286ZM52.1597 73.2394H59.3418V82.2596H57.9292V74.5669H53.5723V82.2596H52.1597V73.2394ZM62.6305 73.2394H64.0431V77.6304C64.0431 78.1636 64.0317 78.6799 64.009 79.1791C63.9863 79.667 63.9636 80.0244 63.941 80.2513L64.009 80.2854C64.2246 79.9223 64.4515 79.5706 64.6898 79.2302C64.9281 78.8785 65.172 78.5324 65.4216 78.192L68.8425 73.2394H70.0849V82.2596H68.6723V78.6175C68.6723 78.2885 68.6723 77.9594 68.6723 77.6304C68.6836 77.29 68.695 76.9666 68.7063 76.6603C68.7177 76.3539 68.729 76.076 68.7404 75.8263C68.7517 75.5654 68.7631 75.3555 68.7744 75.1966L68.7234 75.1796C68.5759 75.4406 68.383 75.7696 68.1447 76.1667C67.9064 76.5525 67.6568 76.9156 67.3959 77.256L63.8899 82.2596H62.6305V73.2394ZM79.4266 75.1286C79.1543 74.9357 78.8026 74.7712 78.3714 74.635C77.9403 74.4875 77.4694 74.4137 76.9588 74.4137C76.5504 74.4137 76.1759 74.4705 75.8356 74.5839C75.4952 74.6861 75.2002 74.8619 74.9506 75.1115C74.7123 75.3611 74.5251 75.7015 74.3889 76.1327C74.2641 76.5525 74.2017 77.0744 74.2017 77.6985C74.2017 78.3338 74.2698 78.8671 74.4059 79.2983C74.5421 79.7294 74.7406 80.0811 75.0016 80.3535C75.2739 80.6144 75.5973 80.8016 75.9717 80.9151C76.3575 81.0286 76.8 81.0853 77.2992 81.0853C77.7644 81.0853 78.2069 81.0172 78.6267 80.8811C79.0579 80.7449 79.4209 80.552 79.7159 80.3024V81.8341C79.4777 82.027 79.1316 82.1745 78.6778 82.2766C78.2353 82.3901 77.7077 82.4468 77.095 82.4468C76.4142 82.4468 75.8015 82.3674 75.2569 82.2086C74.7236 82.0384 74.2698 81.7604 73.8954 81.3746C73.5209 80.9888 73.2316 80.4896 73.0274 79.8769C72.8345 79.2529 72.738 78.487 72.738 77.5793C72.738 76.0249 73.1011 74.8846 73.8273 74.1585C74.5648 73.4323 75.671 73.0692 77.146 73.0692C77.702 73.0692 78.1558 73.1146 78.5076 73.2054C78.8593 73.2848 79.1656 73.3926 79.4266 73.5287V75.1286ZM85.1692 78.175H83.6885V82.2596H82.2759V73.2394H83.6885V77.0687H85.1862L88.1986 73.2394H89.8154L86.3775 77.5283L90.1728 82.2596H88.4539L85.1692 78.175ZM92.1485 73.2394H93.5611V77.6304C93.5611 78.1636 93.5497 78.6799 93.527 79.1791C93.5044 79.667 93.4817 80.0244 93.459 80.2513L93.527 80.2854C93.7426 79.9223 93.9695 79.5706 94.2078 79.2302C94.4461 78.8785 94.69 78.5324 94.9396 78.192L98.3605 73.2394H99.6029V82.2596H98.1903V78.6175C98.1903 78.2885 98.1903 77.9594 98.1903 77.6304C98.2017 77.29 98.213 76.9666 98.2243 76.6603C98.2357 76.3539 98.247 76.076 98.2584 75.8263C98.2697 75.5654 98.2811 75.3555 98.2924 75.1966L98.2414 75.1796C98.0939 75.4406 97.901 75.7696 97.6627 76.1667C97.4244 76.5525 97.1748 76.9156 96.9139 77.256L93.4079 82.2596H92.1485V73.2394Z" fill="#262626" fill-opacity="0.7"/>
</g>
<g filter="url(#filter2_dd_43_1521)">
<path d="M196.43 58.8582H153.882C144.483 58.8582 136.863 66.4779 136.863 75.8774C136.863 85.2769 144.483 92.8966 153.882 92.8966H196.43C205.83 92.8966 213.45 85.2769 213.45 75.8774C213.45 66.4779 205.83 58.8582 196.43 58.8582Z" fill="white"/>
<path d="M162.137 79.077H157.048L155.874 82.2596H154.308L158.852 70.3461H160.401L165.013 82.2596H163.328L162.137 79.077ZM157.559 77.7155H161.626L159.584 72.2523L157.559 77.7155ZM169.961 78.175H168.48V82.2596H167.067V73.2394H168.48V77.0687H169.978L172.99 73.2394H174.607L171.169 77.5283L174.964 82.2596H173.245L169.961 78.175ZM178.706 74.5669H175.778V73.2394H183.029V74.5669H180.118V82.2596H178.706V74.5669ZM186.38 76.2178C186.607 76.1951 186.817 76.1781 187.01 76.1667C187.202 76.1554 187.407 76.1497 187.622 76.1497C188.337 76.1497 188.944 76.2121 189.443 76.3369C189.943 76.4504 190.345 76.6319 190.652 76.8815C190.958 77.1198 191.179 77.4261 191.315 77.8006C191.452 78.1636 191.52 78.6005 191.52 79.111C191.52 79.5649 191.452 79.9904 191.315 80.3875C191.179 80.7846 190.947 81.1307 190.618 81.4257C190.3 81.7207 189.874 81.9533 189.341 82.1234C188.808 82.2936 188.144 82.3787 187.35 82.3787C186.953 82.3787 186.556 82.3674 186.159 82.3447C185.762 82.3334 185.364 82.305 184.967 82.2596V73.2394H186.38V76.2178ZM186.38 81.0512C186.584 81.0739 186.754 81.0909 186.89 81.1023C187.038 81.1023 187.242 81.1023 187.503 81.1023C188.014 81.1023 188.434 81.0569 188.763 80.9661C189.103 80.8754 189.37 80.7449 189.562 80.5747C189.767 80.4045 189.909 80.2003 189.988 79.962C190.067 79.7237 190.107 79.4571 190.107 79.1621C190.107 78.8898 190.073 78.6402 190.005 78.4133C189.937 78.1863 189.801 77.9935 189.597 77.8346C189.404 77.6644 189.126 77.5339 188.763 77.4432C188.411 77.3524 187.94 77.307 187.35 77.307C187.168 77.307 187.004 77.3184 186.856 77.3411C186.72 77.3524 186.561 77.3694 186.38 77.3921V81.0512ZM192.796 73.2394H194.209V82.2596H192.796V73.2394Z" fill="#262626" fill-opacity="0.7"/>
</g>
<g filter="url(#filter3_dd_43_1521)">
<path d="M268.053 109.916H21.2741C11.8747 109.916 4.25488 117.536 4.25488 126.935C4.25488 136.335 11.8747 143.954 21.2741 143.954H268.053C277.452 143.954 285.072 136.335 285.072 126.935C285.072 117.536 277.452 109.916 268.053 109.916Z" fill="white"/>
<path d="M21.4443 131.956H22.7038C23.0441 131.127 23.3562 130.033 23.6398 128.671C23.9348 127.31 24.0937 125.71 24.1164 123.872L24.1504 121.404H31.3665V131.956H32.8983V135.53H31.4687V133.317H22.874V135.53H21.4443V131.956ZM29.8348 122.765H25.6311L25.614 123.923C25.6027 124.706 25.5573 125.477 25.4779 126.237C25.4098 126.986 25.3134 127.707 25.1886 128.399C25.0751 129.091 24.939 129.738 24.7801 130.339C24.6326 130.94 24.4738 131.479 24.3036 131.956H29.8348V122.765ZM34.5113 128.773C34.5113 127.99 34.6191 127.31 34.8346 126.731C35.0502 126.152 35.3509 125.67 35.7367 125.284C36.1224 124.898 36.5819 124.609 37.1152 124.416C37.6598 124.223 38.2555 124.127 38.9022 124.127C39.5149 124.127 40.0709 124.218 40.5701 124.399C41.0694 124.581 41.4892 124.864 41.8295 125.25C42.1813 125.636 42.4536 126.124 42.6465 126.714C42.8394 127.304 42.9358 128.007 42.9358 128.824C42.9358 129.675 42.8223 130.396 42.5954 130.986C42.3798 131.576 42.0792 132.058 41.6934 132.432C41.319 132.807 40.8765 133.079 40.3659 133.249C39.8553 133.419 39.305 133.505 38.715 133.505C37.3648 133.505 36.3267 133.09 35.6005 132.262C34.8744 131.434 34.5113 130.271 34.5113 128.773ZM35.9239 128.824C35.9239 129.902 36.1678 130.742 36.6557 131.343C37.1549 131.933 37.8811 132.228 38.8342 132.228C39.6738 132.228 40.3319 131.961 40.8084 131.428C41.2849 130.884 41.5232 130.016 41.5232 128.824V128.773C41.5232 127.627 41.2793 126.776 40.7914 126.22C40.3148 125.664 39.6227 125.386 38.715 125.386C37.8187 125.386 37.1266 125.676 36.6387 126.254C36.1621 126.822 35.9239 127.661 35.9239 128.773V128.824ZM45.5948 124.297H51.2962V125.625H47.0074V133.317H45.5948V124.297ZM52.6607 128.773C52.6607 127.99 52.7684 127.31 52.984 126.731C53.1996 126.152 53.5003 125.67 53.886 125.284C54.2718 124.898 54.7313 124.609 55.2646 124.416C55.8092 124.223 56.4049 124.127 57.0516 124.127C57.6643 124.127 58.2203 124.218 58.7195 124.399C59.2187 124.581 59.6385 124.864 59.9789 125.25C60.3307 125.636 60.603 126.124 60.7958 126.714C60.9887 127.304 61.0852 128.007 61.0852 128.824C61.0852 129.675 60.9717 130.396 60.7448 130.986C60.5292 131.576 60.2285 132.058 59.8428 132.432C59.4683 132.807 59.0258 133.079 58.5153 133.249C58.0047 133.419 57.4544 133.505 56.8644 133.505C55.5142 133.505 54.476 133.09 53.7499 132.262C53.0237 131.434 52.6607 130.271 52.6607 128.773ZM54.0733 128.824C54.0733 129.902 54.3172 130.742 54.8051 131.343C55.3043 131.933 56.0305 132.228 56.9835 132.228C57.8232 132.228 58.4812 131.961 58.9578 131.428C59.4343 130.884 59.6726 130.016 59.6726 128.824V128.773C59.6726 127.627 59.4286 126.776 58.9408 126.22C58.4642 125.664 57.7721 125.386 56.8644 125.386C55.9681 125.386 55.2759 125.676 54.7881 126.254C54.3115 126.822 54.0733 127.661 54.0733 128.773V128.824ZM63.7441 124.28C64.0732 124.257 64.4873 124.235 64.9866 124.212C65.4971 124.189 66.1041 124.178 66.8076 124.178C67.5338 124.178 68.1294 124.229 68.5946 124.331C69.0598 124.433 69.4286 124.575 69.7009 124.757C69.9732 124.938 70.1604 125.165 70.2625 125.437C70.376 125.698 70.4327 125.988 70.4327 126.305C70.4327 126.884 70.3022 127.349 70.0413 127.701C69.7803 128.041 69.3265 128.302 68.6797 128.484C69.4399 128.552 69.9902 128.739 70.3306 129.045C70.6823 129.352 70.8582 129.879 70.8582 130.628C70.8582 131.048 70.7958 131.434 70.671 131.786C70.5462 132.126 70.3306 132.421 70.0242 132.671C69.7292 132.92 69.3265 133.113 68.8159 133.249C68.3166 133.385 67.6926 133.453 66.9438 133.453C66.6488 133.453 66.3424 133.448 66.0247 133.436C65.7184 133.436 65.4234 133.431 65.1397 133.419C64.8561 133.408 64.5951 133.391 64.3568 133.368C64.1186 133.357 63.9143 133.346 63.7441 133.334V124.28ZM65.1567 132.143C65.4517 132.166 65.7467 132.188 66.0417 132.211C66.3481 132.222 66.6658 132.228 66.9948 132.228C67.46 132.228 67.8458 132.205 68.1521 132.16C68.4698 132.103 68.7251 132.012 68.918 131.888C69.1109 131.763 69.247 131.598 69.3265 131.394C69.4059 131.19 69.4456 130.94 69.4456 130.645C69.4456 130.135 69.2697 129.783 68.918 129.59C68.5776 129.386 68.0216 129.284 67.2501 129.284H65.1567V132.143ZM67.2501 128.075C67.7834 128.075 68.2089 127.968 68.5266 127.752C68.8442 127.536 69.0031 127.19 69.0031 126.714C69.0031 126.203 68.8442 125.857 68.5266 125.676C68.2202 125.494 67.6813 125.403 66.9097 125.403C66.4786 125.403 66.1268 125.403 65.8545 125.403C65.5822 125.403 65.3496 125.409 65.1567 125.42V128.075H67.2501ZM72.9041 128.773C72.9041 127.99 73.0119 127.31 73.2275 126.731C73.4431 126.152 73.7437 125.67 74.1295 125.284C74.5153 124.898 74.9748 124.609 75.5081 124.416C76.0527 124.223 76.6483 124.127 77.2951 124.127C77.9078 124.127 78.4637 124.218 78.963 124.399C79.4622 124.581 79.882 124.864 80.2224 125.25C80.5741 125.636 80.8464 126.124 81.0393 126.714C81.2322 127.304 81.3286 128.007 81.3286 128.824C81.3286 129.675 81.2152 130.396 80.9882 130.986C80.7727 131.576 80.472 132.058 80.0862 132.432C79.7118 132.807 79.2693 133.079 78.7587 133.249C78.2482 133.419 77.6979 133.505 77.1079 133.505C75.7577 133.505 74.7195 133.09 73.9933 132.262C73.2672 131.434 72.9041 130.271 72.9041 128.773ZM74.3167 128.824C74.3167 129.902 74.5607 130.742 75.0485 131.343C75.5478 131.933 76.2739 132.228 77.227 132.228C78.0666 132.228 78.7247 131.961 79.2012 131.428C79.6778 130.884 79.916 130.016 79.916 128.824V128.773C79.916 127.627 79.6721 126.776 79.1842 126.22C78.7077 125.664 78.0156 125.386 77.1079 125.386C76.2115 125.386 75.5194 125.676 75.0315 126.254C74.555 126.822 74.3167 127.661 74.3167 128.773V128.824ZM83.9709 124.297H85.2643L85.3494 125.88C85.826 124.711 86.8755 124.127 88.498 124.127C89.6666 124.127 90.5403 124.479 91.1189 125.182C91.6976 125.874 91.9869 127.02 91.9869 128.62C91.9869 129.494 91.9075 130.242 91.7487 130.867C91.5898 131.479 91.3515 131.984 91.0338 132.381C90.7275 132.767 90.3417 133.051 89.8765 133.232C89.4113 133.414 88.8724 133.505 88.2597 133.505C87.4882 133.505 86.8698 133.368 86.4046 133.096C85.9508 132.812 85.6104 132.483 85.3835 132.109V136.381H83.9709V124.297ZM85.3835 129.692C85.3835 130.475 85.6047 131.093 86.0472 131.547C86.5011 132.001 87.1421 132.228 87.9704 132.228C88.4469 132.228 88.8497 132.166 89.1788 132.041C89.5078 131.916 89.7744 131.712 89.9787 131.428C90.1829 131.145 90.3304 130.781 90.4212 130.339C90.5233 129.896 90.5743 129.352 90.5743 128.705C90.5743 128.092 90.5176 127.576 90.4041 127.156C90.2907 126.725 90.1262 126.385 89.9106 126.135C89.695 125.874 89.4227 125.687 89.0937 125.574C88.776 125.46 88.4072 125.403 87.9874 125.403C87.5449 125.403 87.1591 125.466 86.8301 125.591C86.5011 125.715 86.2288 125.891 86.0132 126.118C85.7976 126.334 85.6388 126.595 85.5366 126.901C85.4345 127.207 85.3835 127.536 85.3835 127.888V129.692ZM96.0538 127.275C96.2807 127.253 96.4906 127.236 96.6835 127.224C96.8764 127.213 97.0806 127.207 97.2962 127.207C98.011 127.207 98.618 127.27 99.1173 127.395C99.6165 127.508 100.019 127.69 100.326 127.939C100.632 128.177 100.853 128.484 100.989 128.858C101.126 129.221 101.194 129.658 101.194 130.169C101.194 130.623 101.126 131.048 100.989 131.445C100.853 131.842 100.621 132.188 100.292 132.483C99.9739 132.778 99.5484 133.011 99.0152 133.181C98.4819 133.351 97.8181 133.436 97.0239 133.436C96.6268 133.436 96.2297 133.425 95.8326 133.402C95.4354 133.391 95.0383 133.363 94.6412 133.317V124.297H96.0538V127.275ZM96.0538 132.109C96.258 132.132 96.4282 132.149 96.5644 132.16C96.7119 132.16 96.9161 132.16 97.1771 132.16C97.6877 132.16 98.1075 132.115 98.4365 132.024C98.7769 131.933 99.0435 131.803 99.2364 131.632C99.4406 131.462 99.5825 131.258 99.6619 131.02C99.7413 130.781 99.781 130.515 99.781 130.22C99.781 129.947 99.747 129.698 99.6789 129.471C99.6108 129.244 99.4747 129.051 99.2705 128.892C99.0776 128.722 98.7996 128.592 98.4365 128.501C98.0848 128.41 97.6139 128.365 97.0239 128.365C96.8424 128.365 96.6778 128.376 96.5303 128.399C96.3942 128.41 96.2353 128.427 96.0538 128.45V132.109ZM102.47 124.297H103.883V133.317H102.47V124.297ZM111.646 128.773C111.646 127.99 111.754 127.31 111.97 126.731C112.185 126.152 112.486 125.67 112.872 125.284C113.257 124.898 113.717 124.609 114.25 124.416C114.795 124.223 115.39 124.127 116.037 124.127C116.65 124.127 117.206 124.218 117.705 124.399C118.204 124.581 118.624 124.864 118.965 125.25C119.316 125.636 119.589 126.124 119.781 126.714C119.974 127.304 120.071 128.007 120.071 128.824C120.071 129.675 119.957 130.396 119.73 130.986C119.515 131.576 119.214 132.058 118.828 132.432C118.454 132.807 118.011 133.079 117.501 133.249C116.99 133.419 116.44 133.505 115.85 133.505C114.5 133.505 113.462 133.09 112.735 132.262C112.009 131.434 111.646 130.271 111.646 128.773ZM113.059 128.824C113.059 129.902 113.303 130.742 113.791 131.343C114.29 131.933 115.016 132.228 115.969 132.228C116.809 132.228 117.467 131.961 117.943 131.428C118.42 130.884 118.658 130.016 118.658 128.824V128.773C118.658 127.627 118.414 126.776 117.926 126.22C117.45 125.664 116.758 125.386 115.85 125.386C114.954 125.386 114.262 125.676 113.774 126.254C113.297 126.822 113.059 127.661 113.059 128.773V128.824ZM129.895 121.846C129.725 121.937 129.407 122.011 128.942 122.068C128.477 122.124 127.773 122.181 126.832 122.238C126.219 122.272 125.714 122.368 125.317 122.527C124.92 122.675 124.602 122.902 124.364 123.208C124.126 123.514 123.95 123.906 123.836 124.382C123.723 124.859 123.638 125.437 123.581 126.118L123.632 126.135C124.029 125.557 124.523 125.125 125.113 124.842C125.714 124.558 126.355 124.416 127.036 124.416C127.592 124.416 128.091 124.484 128.534 124.62C128.987 124.745 129.373 124.967 129.691 125.284C130.009 125.602 130.253 126.033 130.423 126.578C130.593 127.111 130.678 127.786 130.678 128.603C130.678 129.465 130.587 130.208 130.406 130.832C130.224 131.445 129.952 131.95 129.589 132.347C129.237 132.733 128.8 133.022 128.278 133.215C127.756 133.397 127.161 133.487 126.491 133.487C125.039 133.487 123.961 133.039 123.258 132.143C122.554 131.235 122.202 129.8 122.202 127.837C122.202 126.668 122.276 125.664 122.424 124.825C122.571 123.974 122.804 123.265 123.121 122.697C123.451 122.13 123.87 121.693 124.381 121.387C124.903 121.08 125.533 120.876 126.27 120.774C126.486 120.74 126.764 120.712 127.104 120.689C127.444 120.655 127.79 120.621 128.142 120.587C128.505 120.542 128.846 120.49 129.163 120.434C129.481 120.366 129.725 120.286 129.895 120.195V121.846ZM126.525 132.143C127.422 132.143 128.085 131.882 128.517 131.36C128.959 130.827 129.18 129.964 129.18 128.773C129.18 128.172 129.124 127.678 129.01 127.292C128.897 126.895 128.726 126.583 128.5 126.356C128.284 126.118 128.012 125.954 127.683 125.863C127.365 125.761 127.002 125.71 126.593 125.71C125.72 125.71 125.011 125.948 124.466 126.425C123.933 126.89 123.666 127.565 123.666 128.45C123.666 129.119 123.728 129.692 123.853 130.169C123.978 130.634 124.16 131.014 124.398 131.309C124.648 131.604 124.948 131.82 125.3 131.956C125.663 132.081 126.071 132.143 126.525 132.143ZM137.823 128.773C137.823 127.99 137.931 127.31 138.147 126.731C138.362 126.152 138.663 125.67 139.049 125.284C139.434 124.898 139.894 124.609 140.427 124.416C140.972 124.223 141.567 124.127 142.214 124.127C142.827 124.127 143.383 124.218 143.882 124.399C144.381 124.581 144.801 124.864 145.142 125.25C145.493 125.636 145.766 126.124 145.958 126.714C146.151 127.304 146.248 128.007 146.248 128.824C146.248 129.675 146.134 130.396 145.907 130.986C145.692 131.576 145.391 132.058 145.005 132.432C144.631 132.807 144.188 133.079 143.678 133.249C143.167 133.419 142.617 133.505 142.027 133.505C140.677 133.505 139.639 133.09 138.912 132.262C138.186 131.434 137.823 130.271 137.823 128.773ZM139.236 128.824C139.236 129.902 139.48 130.742 139.968 131.343C140.467 131.933 141.193 132.228 142.146 132.228C142.986 132.228 143.644 131.961 144.12 131.428C144.597 130.884 144.835 130.016 144.835 128.824V128.773C144.835 127.627 144.591 126.776 144.103 126.22C143.627 125.664 142.935 125.386 142.027 125.386C141.131 125.386 140.439 125.676 139.951 126.254C139.474 126.822 139.236 127.661 139.236 128.773V128.824ZM151.8 129.233H150.32V133.317H148.907V124.297H150.32V128.126H151.817L154.83 124.297H156.447L153.009 128.586L156.804 133.317H155.085L151.8 129.233ZM163.817 132.024C163.59 132.432 163.239 132.784 162.762 133.079C162.297 133.363 161.741 133.505 161.094 133.505C160.187 133.505 159.472 133.278 158.95 132.824C158.428 132.359 158.167 131.689 158.167 130.815C158.167 130.316 158.229 129.896 158.354 129.556C158.49 129.204 158.7 128.921 158.984 128.705C159.279 128.478 159.653 128.314 160.107 128.212C160.561 128.109 161.111 128.058 161.758 128.058H163.783V127.207C163.783 126.844 163.738 126.549 163.647 126.322C163.568 126.084 163.437 125.903 163.256 125.778C163.074 125.642 162.842 125.551 162.558 125.505C162.286 125.449 161.962 125.42 161.588 125.42C161.077 125.42 160.567 125.517 160.056 125.71C159.557 125.903 159.154 126.129 158.848 126.39V124.757C159.029 124.654 159.239 124.564 159.477 124.484C159.727 124.405 159.982 124.342 160.243 124.297C160.504 124.24 160.765 124.201 161.026 124.178C161.287 124.144 161.525 124.127 161.741 124.127C162.331 124.127 162.842 124.178 163.273 124.28C163.715 124.382 164.078 124.552 164.362 124.791C164.646 125.029 164.855 125.347 164.992 125.744C165.128 126.13 165.196 126.612 165.196 127.19V133.317H163.902L163.817 132.024ZM159.614 130.594C159.614 131.082 159.75 131.462 160.022 131.735C160.294 132.007 160.742 132.143 161.367 132.143C162.206 132.143 162.819 131.927 163.205 131.496C163.59 131.065 163.783 130.52 163.783 129.862V129.097H161.809C161.378 129.097 161.02 129.125 160.737 129.182C160.453 129.238 160.226 129.329 160.056 129.454C159.897 129.567 159.784 129.721 159.716 129.913C159.648 130.095 159.614 130.322 159.614 130.594ZM167.757 131.224C168.052 131.462 168.466 131.689 168.999 131.905C169.544 132.12 170.179 132.228 170.905 132.228C171.597 132.228 172.113 132.109 172.454 131.871C172.806 131.632 172.981 131.224 172.981 130.645C172.981 130.396 172.942 130.186 172.862 130.016C172.783 129.845 172.647 129.709 172.454 129.607C172.261 129.505 172.006 129.437 171.688 129.403C171.382 129.357 170.99 129.335 170.514 129.335H169.339V128.212H170.701C171.348 128.212 171.813 128.092 172.096 127.854C172.391 127.605 172.539 127.23 172.539 126.731C172.539 126.266 172.414 125.925 172.165 125.71C171.915 125.494 171.427 125.386 170.701 125.386C170.031 125.386 169.487 125.477 169.067 125.659C168.659 125.829 168.278 126.05 167.927 126.322V124.672C168.086 124.603 168.256 124.541 168.437 124.484C168.619 124.416 168.829 124.36 169.067 124.314C169.305 124.257 169.578 124.212 169.884 124.178C170.19 124.144 170.548 124.127 170.956 124.127C172.068 124.127 172.845 124.325 173.288 124.723C173.742 125.108 173.969 125.642 173.969 126.322C173.969 126.958 173.872 127.463 173.679 127.837C173.486 128.2 173.106 128.461 172.539 128.62C173.095 128.654 173.543 128.836 173.883 129.165C174.224 129.482 174.394 129.947 174.394 130.56C174.394 131.581 174.093 132.33 173.492 132.807C172.902 133.272 171.904 133.505 170.497 133.505C170.292 133.505 170.065 133.493 169.816 133.47C169.566 133.448 169.317 133.408 169.067 133.351C168.829 133.306 168.59 133.255 168.352 133.198C168.125 133.13 167.927 133.051 167.757 132.96V131.224ZM182.082 132.024C181.856 132.432 181.504 132.784 181.027 133.079C180.562 133.363 180.006 133.505 179.359 133.505C178.452 133.505 177.737 133.278 177.215 132.824C176.693 132.359 176.432 131.689 176.432 130.815C176.432 130.316 176.494 129.896 176.619 129.556C176.755 129.204 176.965 128.921 177.249 128.705C177.544 128.478 177.918 128.314 178.372 128.212C178.826 128.109 179.376 128.058 180.023 128.058H182.048V127.207C182.048 126.844 182.003 126.549 181.912 126.322C181.833 126.084 181.702 125.903 181.521 125.778C181.339 125.642 181.107 125.551 180.823 125.505C180.551 125.449 180.227 125.42 179.853 125.42C179.342 125.42 178.832 125.517 178.321 125.71C177.822 125.903 177.419 126.129 177.113 126.39V124.757C177.294 124.654 177.504 124.564 177.743 124.484C177.992 124.405 178.247 124.342 178.508 124.297C178.769 124.24 179.03 124.201 179.291 124.178C179.552 124.144 179.791 124.127 180.006 124.127C180.596 124.127 181.107 124.178 181.538 124.28C181.98 124.382 182.343 124.552 182.627 124.791C182.911 125.029 183.121 125.347 183.257 125.744C183.393 126.13 183.461 126.612 183.461 127.19V133.317H182.168L182.082 132.024ZM177.879 130.594C177.879 131.082 178.015 131.462 178.287 131.735C178.559 132.007 179.008 132.143 179.632 132.143C180.471 132.143 181.084 131.927 181.47 131.496C181.856 131.065 182.048 130.52 182.048 129.862V129.097H180.074C179.643 129.097 179.286 129.125 179.002 129.182C178.718 129.238 178.491 129.329 178.321 129.454C178.162 129.567 178.049 129.721 177.981 129.913C177.913 130.095 177.879 130.322 177.879 130.594ZM186.635 124.297H188.048V128.075H192.541V124.297H193.953V133.317H192.541V129.42H188.048V133.317H186.635V124.297ZM197.223 124.297H198.635V128.688C198.635 129.221 198.624 129.738 198.601 130.237C198.578 130.725 198.556 131.082 198.533 131.309L198.601 131.343C198.817 130.98 199.044 130.628 199.282 130.288C199.52 129.936 199.764 129.59 200.014 129.25L203.435 124.297H204.677V133.317H203.264V129.675C203.264 129.346 203.264 129.017 203.264 128.688C203.276 128.348 203.287 128.024 203.298 127.718C203.31 127.412 203.321 127.134 203.332 126.884C203.344 126.623 203.355 126.413 203.366 126.254L203.315 126.237C203.168 126.498 202.975 126.827 202.737 127.224C202.498 127.61 202.249 127.973 201.988 128.314L198.482 133.317H197.223V124.297ZM207.943 124.297H209.355V128.688C209.355 129.221 209.344 129.738 209.321 130.237C209.298 130.725 209.276 131.082 209.253 131.309L209.321 131.343C209.537 130.98 209.764 130.628 210.002 130.288C210.24 129.936 210.484 129.59 210.734 129.25L214.155 124.297H215.397V133.317H213.984V129.675C213.984 129.346 213.984 129.017 213.984 128.688C213.996 128.348 214.007 128.024 214.018 127.718C214.03 127.412 214.041 127.134 214.052 126.884C214.064 126.623 214.075 126.413 214.086 126.254L214.035 126.237C213.888 126.498 213.695 126.827 213.457 127.224C213.218 127.61 212.969 127.973 212.708 128.314L209.202 133.317H207.943V124.297ZM224.752 135.155C224.911 135.155 225.052 135.133 225.177 135.087C225.313 135.053 225.438 134.974 225.552 134.849C225.677 134.724 225.796 134.543 225.909 134.304C226.034 134.066 226.164 133.748 226.301 133.351L222.641 124.297H224.275L227.032 131.496L229.33 124.297H230.845L227.73 133.011C227.435 133.851 227.152 134.503 226.879 134.968C226.618 135.433 226.369 135.779 226.13 136.006C225.892 136.233 225.66 136.369 225.433 136.415C225.206 136.472 224.984 136.5 224.769 136.5C224.406 136.5 224.139 136.455 223.969 136.364V134.951C224.207 135.087 224.468 135.155 224.752 135.155ZM238.699 126.186C238.427 125.993 238.075 125.829 237.644 125.693C237.213 125.545 236.742 125.471 236.231 125.471C235.823 125.471 235.448 125.528 235.108 125.642C234.768 125.744 234.473 125.92 234.223 126.169C233.985 126.419 233.798 126.759 233.661 127.19C233.537 127.61 233.474 128.132 233.474 128.756C233.474 129.392 233.542 129.925 233.678 130.356C233.815 130.787 234.013 131.139 234.274 131.411C234.546 131.672 234.87 131.859 235.244 131.973C235.63 132.086 236.072 132.143 236.572 132.143C237.037 132.143 237.479 132.075 237.899 131.939C238.33 131.803 238.693 131.61 238.988 131.36V132.892C238.75 133.085 238.404 133.232 237.95 133.334C237.508 133.448 236.98 133.505 236.367 133.505C235.687 133.505 235.074 133.425 234.529 133.266C233.996 133.096 233.542 132.818 233.168 132.432C232.793 132.047 232.504 131.547 232.3 130.935C232.107 130.311 232.011 129.545 232.011 128.637C232.011 127.083 232.374 125.942 233.1 125.216C233.837 124.49 234.944 124.127 236.419 124.127C236.974 124.127 237.428 124.172 237.78 124.263C238.132 124.342 238.438 124.45 238.699 124.586V126.186ZM240.675 131.735C240.811 131.78 240.958 131.803 241.117 131.803C241.231 131.803 241.35 131.786 241.475 131.752C241.599 131.717 241.719 131.638 241.832 131.513C241.945 131.377 242.053 131.179 242.155 130.918C242.269 130.645 242.365 130.277 242.445 129.811C242.536 129.346 242.609 128.762 242.666 128.058C242.723 127.344 242.768 126.481 242.802 125.471L242.836 124.297H248.827V133.317H247.414V125.659H244.113L244.096 126.203C244.039 127.803 243.925 129.085 243.755 130.05C243.596 131.003 243.392 131.74 243.143 132.262C242.904 132.773 242.632 133.107 242.326 133.266C242.019 133.425 241.696 133.505 241.355 133.505C241.219 133.505 241.1 133.499 240.998 133.487C240.907 133.487 240.8 133.465 240.675 133.419V131.735ZM253.107 135.155C253.265 135.155 253.407 135.133 253.532 135.087C253.668 135.053 253.793 134.974 253.906 134.849C254.031 134.724 254.15 134.543 254.264 134.304C254.389 134.066 254.519 133.748 254.655 133.351L250.996 124.297H252.63L255.387 131.496L257.685 124.297H259.199L256.085 133.011C255.79 133.851 255.506 134.503 255.234 134.968C254.973 135.433 254.723 135.779 254.485 136.006C254.247 136.233 254.014 136.369 253.787 136.415C253.56 136.472 253.339 136.5 253.124 136.5C252.761 136.5 252.494 136.455 252.324 136.364V134.951C252.562 135.087 252.823 135.155 253.107 135.155ZM261.177 124.297H266.879V125.625H262.59V133.317H261.177V124.297Z" fill="#262626" fill-opacity="0.7"/>
</g>
<g filter="url(#filter4_dd_43_1521)">
<path d="M273.726 160.974H21.2741C11.8747 160.974 4.25488 168.593 4.25488 177.993C4.25488 187.392 11.8747 195.012 21.2741 195.012H273.726C283.125 195.012 290.745 187.392 290.745 177.993C290.745 168.593 283.125 160.974 273.726 160.974Z" fill="white"/>
<path d="M21.4443 183.013H22.7038C23.0441 182.185 23.3562 181.09 23.6398 179.729C23.9348 178.367 24.0937 176.767 24.1164 174.929L24.1504 172.462H31.3665V183.013H32.8983V186.587H31.4687V184.375H22.874V186.587H21.4443V183.013ZM29.8348 173.823H25.6311L25.614 174.98C25.6027 175.763 25.5573 176.535 25.4779 177.295C25.4098 178.044 25.3134 178.764 25.1886 179.456C25.0751 180.149 24.939 180.795 24.7801 181.397C24.6326 181.998 24.4738 182.537 24.3036 183.013H29.8348V173.823ZM34.5113 179.831C34.5113 179.048 34.6191 178.367 34.8346 177.789C35.0502 177.21 35.3509 176.728 35.7367 176.342C36.1224 175.956 36.5819 175.667 37.1152 175.474C37.6598 175.281 38.2555 175.185 38.9022 175.185C39.5149 175.185 40.0709 175.275 40.5701 175.457C41.0694 175.638 41.4892 175.922 41.8295 176.308C42.1813 176.694 42.4536 177.182 42.6465 177.772C42.8394 178.362 42.9358 179.065 42.9358 179.882C42.9358 180.733 42.8223 181.453 42.5954 182.043C42.3798 182.633 42.0792 183.116 41.6934 183.49C41.319 183.864 40.8765 184.137 40.3659 184.307C39.8553 184.477 39.305 184.562 38.715 184.562C37.3648 184.562 36.3267 184.148 35.6005 183.32C34.8744 182.492 34.5113 181.329 34.5113 179.831ZM35.9239 179.882C35.9239 180.96 36.1678 181.799 36.6557 182.401C37.1549 182.991 37.8811 183.286 38.8342 183.286C39.6738 183.286 40.3319 183.019 40.8084 182.486C41.2849 181.941 41.5232 181.073 41.5232 179.882V179.831C41.5232 178.685 41.2793 177.834 40.7914 177.278C40.3148 176.722 39.6227 176.444 38.715 176.444C37.8187 176.444 37.1266 176.733 36.6387 177.312C36.1621 177.879 35.9239 178.719 35.9239 179.831V179.882ZM45.5948 175.355H52.7769V184.375H51.3643V176.682H47.0074V184.375H45.5948V175.355ZM55.4529 179.831C55.4529 179.048 55.5607 178.367 55.7762 177.789C55.9918 177.21 56.2925 176.728 56.6783 176.342C57.064 175.956 57.5235 175.667 58.0568 175.474C58.6014 175.281 59.1971 175.185 59.8438 175.185C60.4565 175.185 61.0125 175.275 61.5117 175.457C62.011 175.638 62.4308 175.922 62.7711 176.308C63.1229 176.694 63.3952 177.182 63.5881 177.772C63.781 178.362 63.8774 179.065 63.8774 179.882C63.8774 180.733 63.7639 181.453 63.537 182.043C63.3214 182.633 63.0208 183.116 62.635 183.49C62.2606 183.864 61.8181 184.137 61.3075 184.307C60.7969 184.477 60.2466 184.562 59.6566 184.562C58.3064 184.562 57.2683 184.148 56.5421 183.32C55.816 182.492 55.4529 181.329 55.4529 179.831ZM56.8655 179.882C56.8655 180.96 57.1094 181.799 57.5973 182.401C58.0965 182.991 58.8227 183.286 59.7758 183.286C60.6154 183.286 61.2734 183.019 61.75 182.486C62.2265 181.941 62.4648 181.073 62.4648 179.882V179.831C62.4648 178.685 62.2209 177.834 61.733 177.278C61.2564 176.722 60.5643 176.444 59.6566 176.444C58.7603 176.444 58.0682 176.733 57.5803 177.312C57.1037 177.879 56.8655 178.719 56.8655 179.831V179.882ZM65.4131 182.792C65.5493 182.838 65.6968 182.86 65.8556 182.86C65.9691 182.86 66.0882 182.843 66.213 182.809C66.3378 182.775 66.4569 182.696 66.5704 182.571C66.6839 182.435 66.7917 182.236 66.8938 181.975C67.0072 181.703 67.1037 181.334 67.1831 180.869C67.2739 180.404 67.3476 179.82 67.4043 179.116C67.4611 178.401 67.5065 177.539 67.5405 176.529L67.5745 175.355H73.565V184.375H72.1524V176.716H68.851L68.834 177.261C68.7772 178.861 68.6638 180.143 68.4936 181.107C68.3347 182.06 68.1305 182.798 67.8809 183.32C67.6426 183.83 67.3703 184.165 67.064 184.324C66.7576 184.483 66.4342 184.562 66.0939 184.562C65.9577 184.562 65.8386 184.557 65.7365 184.545C65.6457 184.545 65.5379 184.522 65.4131 184.477V182.792ZM76.8575 175.355H78.2701V179.133H82.7632V175.355H84.1758V184.375H82.7632V180.478H78.2701V184.375H76.8575V175.355ZM87.4449 175.355H88.8575V179.746C88.8575 180.279 88.8462 180.795 88.8235 181.295C88.8008 181.782 88.7781 182.14 88.7554 182.367L88.8235 182.401C89.039 182.038 89.266 181.686 89.5042 181.346C89.7425 180.994 89.9865 180.648 90.2361 180.307L93.6569 175.355H94.8993V184.375H93.4867V180.733C93.4867 180.404 93.4867 180.075 93.4867 179.746C93.4981 179.405 93.5094 179.082 93.5208 178.776C93.5321 178.469 93.5435 178.191 93.5548 177.942C93.5662 177.681 93.5775 177.471 93.5889 177.312L93.5378 177.295C93.3903 177.556 93.1974 177.885 92.9591 178.282C92.7209 178.668 92.4713 179.031 92.2103 179.371L88.7043 184.375H87.4449V175.355ZM99.7647 176.682H96.8374V175.355H104.088V176.682H101.177V184.375H99.7647V176.682ZM106.843 180.375C106.843 181.351 107.093 182.083 107.592 182.571C108.103 183.047 108.857 183.286 109.856 183.286C110.434 183.286 110.956 183.189 111.421 182.996C111.887 182.792 112.284 182.56 112.613 182.299V183.762C112.386 183.921 112.034 184.097 111.558 184.29C111.081 184.471 110.502 184.562 109.822 184.562C109.096 184.562 108.454 184.477 107.898 184.307C107.354 184.125 106.894 183.842 106.52 183.456C106.157 183.059 105.879 182.56 105.686 181.958C105.504 181.346 105.414 180.602 105.414 179.729C105.414 178.242 105.76 177.113 106.452 176.342C107.144 175.57 108.154 175.185 109.481 175.185C110.173 175.185 110.763 175.287 111.251 175.491C111.739 175.695 112.131 175.985 112.426 176.359C112.721 176.733 112.936 177.187 113.072 177.72C113.208 178.242 113.277 178.821 113.277 179.456V180.375H106.843ZM109.464 176.461C108.636 176.461 107.989 176.682 107.524 177.125C107.07 177.556 106.843 178.231 106.843 179.15H111.864C111.864 178.231 111.671 177.556 111.285 177.125C110.911 176.682 110.304 176.461 109.464 176.461ZM114.642 182.792C114.779 182.838 114.926 182.86 115.085 182.86C115.198 182.86 115.317 182.843 115.442 182.809C115.567 182.775 115.686 182.696 115.8 182.571C115.913 182.435 116.021 182.236 116.123 181.975C116.236 181.703 116.333 181.334 116.412 180.869C116.503 180.404 116.577 179.82 116.634 179.116C116.69 178.401 116.736 177.539 116.77 176.529L116.804 175.355H122.795V184.375H121.382V176.716H118.08L118.063 177.261C118.006 178.861 117.893 180.143 117.723 181.107C117.564 182.06 117.36 182.798 117.11 183.32C116.872 183.83 116.6 184.165 116.293 184.324C115.987 184.483 115.664 184.562 115.323 184.562C115.187 184.562 115.068 184.557 114.966 184.545C114.875 184.545 114.767 184.522 114.642 184.477V182.792ZM126.087 175.355H127.5V178.333C127.761 178.31 128.022 178.293 128.283 178.282C128.555 178.271 128.856 178.265 129.185 178.265C129.831 178.265 130.393 178.316 130.869 178.418C131.357 178.509 131.754 178.674 132.061 178.912C132.379 179.139 132.611 179.445 132.759 179.831C132.917 180.205 132.997 180.67 132.997 181.226C132.997 181.771 132.923 182.248 132.776 182.656C132.639 183.064 132.407 183.405 132.078 183.677C131.76 183.949 131.335 184.154 130.801 184.29C130.279 184.426 129.633 184.494 128.861 184.494C128.317 184.494 127.795 184.483 127.295 184.46C126.808 184.437 126.405 184.409 126.087 184.375V175.355ZM127.5 183.15C127.727 183.184 127.948 183.206 128.163 183.218C128.39 183.218 128.708 183.218 129.117 183.218C129.593 183.218 129.984 183.184 130.291 183.116C130.609 183.047 130.864 182.94 131.057 182.792C131.25 182.633 131.386 182.435 131.465 182.197C131.545 181.947 131.584 181.641 131.584 181.277C131.584 180.937 131.545 180.653 131.465 180.427C131.386 180.188 131.238 179.995 131.023 179.848C130.807 179.7 130.506 179.593 130.121 179.525C129.746 179.456 129.253 179.422 128.64 179.422C128.458 179.422 128.277 179.434 128.095 179.456C127.914 179.468 127.715 179.485 127.5 179.507V183.15ZM135.444 175.355H136.857V179.133H141.35V175.355H142.762V184.375H141.35V180.478H136.857V184.375H135.444V175.355ZM147.444 178.333C147.671 178.31 147.881 178.293 148.074 178.282C148.267 178.271 148.471 178.265 148.686 178.265C149.401 178.265 150.008 178.327 150.508 178.452C151.007 178.566 151.41 178.747 151.716 178.997C152.022 179.235 152.244 179.542 152.38 179.916C152.516 180.279 152.584 180.716 152.584 181.226C152.584 181.68 152.516 182.106 152.38 182.503C152.244 182.9 152.011 183.246 151.682 183.541C151.364 183.836 150.939 184.069 150.405 184.239C149.872 184.409 149.208 184.494 148.414 184.494C148.017 184.494 147.62 184.483 147.223 184.46C146.826 184.449 146.429 184.42 146.031 184.375V175.355H147.444V178.333ZM147.444 183.167C147.648 183.189 147.819 183.206 147.955 183.218C148.102 183.218 148.306 183.218 148.567 183.218C149.078 183.218 149.498 183.172 149.827 183.082C150.167 182.991 150.434 182.86 150.627 182.69C150.831 182.52 150.973 182.316 151.052 182.077C151.132 181.839 151.171 181.572 151.171 181.277C151.171 181.005 151.137 180.756 151.069 180.529C151.001 180.302 150.865 180.109 150.661 179.95C150.468 179.78 150.19 179.649 149.827 179.559C149.475 179.468 149.004 179.422 148.414 179.422C148.233 179.422 148.068 179.434 147.921 179.456C147.784 179.468 147.626 179.485 147.444 179.507V183.167ZM153.86 175.355H155.273V184.375H153.86V175.355ZM159.363 180.375C159.363 181.351 159.613 182.083 160.112 182.571C160.623 183.047 161.377 183.286 162.376 183.286C162.954 183.286 163.476 183.189 163.941 182.996C164.407 182.792 164.804 182.56 165.133 182.299V183.762C164.906 183.921 164.554 184.097 164.078 184.29C163.601 184.471 163.022 184.562 162.342 184.562C161.615 184.562 160.974 184.477 160.418 184.307C159.874 184.125 159.414 183.842 159.04 183.456C158.677 183.059 158.399 182.56 158.206 181.958C158.024 181.346 157.934 180.602 157.934 179.729C157.934 178.242 158.28 177.113 158.972 176.342C159.664 175.57 160.674 175.185 162.001 175.185C162.693 175.185 163.283 175.287 163.771 175.491C164.259 175.695 164.651 175.985 164.946 176.359C165.241 176.733 165.456 177.187 165.592 177.72C165.728 178.242 165.796 178.821 165.796 179.456V180.375H159.363ZM161.984 176.461C161.156 176.461 160.509 176.682 160.044 177.125C159.59 177.556 159.363 178.231 159.363 179.15H164.384C164.384 178.231 164.191 177.556 163.805 177.125C163.431 176.682 162.824 176.461 161.984 176.461ZM179.631 177.244C179.359 177.051 179.007 176.887 178.576 176.75C178.145 176.603 177.674 176.529 177.163 176.529C176.755 176.529 176.38 176.586 176.04 176.699C175.7 176.801 175.405 176.977 175.155 177.227C174.917 177.477 174.729 177.817 174.593 178.248C174.468 178.668 174.406 179.19 174.406 179.814C174.406 180.449 174.474 180.982 174.61 181.414C174.746 181.845 174.945 182.197 175.206 182.469C175.478 182.73 175.802 182.917 176.176 183.03C176.562 183.144 177.004 183.201 177.504 183.201C177.969 183.201 178.411 183.133 178.831 182.996C179.262 182.86 179.625 182.667 179.92 182.418V183.949C179.682 184.142 179.336 184.29 178.882 184.392C178.44 184.505 177.912 184.562 177.299 184.562C176.619 184.562 176.006 184.483 175.461 184.324C174.928 184.154 174.474 183.876 174.1 183.49C173.725 183.104 173.436 182.605 173.232 181.992C173.039 181.368 172.942 180.602 172.942 179.695C172.942 178.14 173.306 177 174.032 176.274C174.769 175.548 175.875 175.185 177.35 175.185C177.906 175.185 178.36 175.23 178.712 175.321C179.064 175.4 179.37 175.508 179.631 175.644V177.244ZM181.618 179.831C181.618 179.048 181.726 178.367 181.941 177.789C182.157 177.21 182.458 176.728 182.843 176.342C183.229 175.956 183.689 175.667 184.222 175.474C184.767 175.281 185.362 175.185 186.009 175.185C186.622 175.185 187.178 175.275 187.677 175.457C188.176 175.638 188.596 175.922 188.936 176.308C189.288 176.694 189.56 177.182 189.753 177.772C189.946 178.362 190.043 179.065 190.043 179.882C190.043 180.733 189.929 181.453 189.702 182.043C189.487 182.633 189.186 183.116 188.8 183.49C188.426 183.864 187.983 184.137 187.473 184.307C186.962 184.477 186.412 184.562 185.822 184.562C184.472 184.562 183.433 184.148 182.707 183.32C181.981 182.492 181.618 181.329 181.618 179.831ZM183.031 179.882C183.031 180.96 183.275 181.799 183.762 182.401C184.262 182.991 184.988 183.286 185.941 183.286C186.78 183.286 187.439 183.019 187.915 182.486C188.392 181.941 188.63 181.073 188.63 179.882V179.831C188.63 178.685 188.386 177.834 187.898 177.278C187.422 176.722 186.729 176.444 185.822 176.444C184.925 176.444 184.233 176.733 183.745 177.312C183.269 177.879 183.031 178.719 183.031 179.831V179.882ZM192.702 175.355H198.403V176.682H194.114V184.375H192.702V175.355ZM198.741 182.792C198.878 182.838 199.025 182.86 199.184 182.86C199.297 182.86 199.417 182.843 199.541 182.809C199.666 182.775 199.785 182.696 199.899 182.571C200.012 182.435 200.12 182.236 200.222 181.975C200.336 181.703 200.432 181.334 200.511 180.869C200.602 180.404 200.676 179.82 200.733 179.116C200.789 178.401 200.835 177.539 200.869 176.529L200.903 175.355H206.894V184.375H205.481V176.716H202.179L202.162 177.261C202.106 178.861 201.992 180.143 201.822 181.107C201.663 182.06 201.459 182.798 201.209 183.32C200.971 183.83 200.699 184.165 200.392 184.324C200.086 184.483 199.763 184.562 199.422 184.562C199.286 184.562 199.167 184.557 199.065 184.545C198.974 184.545 198.866 184.522 198.741 184.477V182.792ZM215.224 183.082C214.997 183.49 214.645 183.842 214.169 184.137C213.704 184.42 213.148 184.562 212.501 184.562C211.593 184.562 210.878 184.335 210.356 183.881C209.834 183.416 209.574 182.747 209.574 181.873C209.574 181.374 209.636 180.954 209.761 180.614C209.897 180.262 210.107 179.978 210.39 179.763C210.685 179.536 211.06 179.371 211.514 179.269C211.968 179.167 212.518 179.116 213.165 179.116H215.19V178.265C215.19 177.902 215.144 177.607 215.054 177.38C214.974 177.142 214.844 176.96 214.662 176.835C214.481 176.699 214.248 176.609 213.964 176.563C213.692 176.506 213.369 176.478 212.994 176.478C212.484 176.478 211.973 176.575 211.463 176.767C210.963 176.96 210.561 177.187 210.254 177.448V175.814C210.436 175.712 210.646 175.621 210.884 175.542C211.134 175.463 211.389 175.4 211.65 175.355C211.911 175.298 212.172 175.258 212.433 175.236C212.694 175.202 212.932 175.185 213.148 175.185C213.738 175.185 214.248 175.236 214.679 175.338C215.122 175.44 215.485 175.61 215.769 175.848C216.052 176.087 216.262 176.404 216.398 176.801C216.534 177.187 216.602 177.669 216.602 178.248V184.375H215.309L215.224 183.082ZM211.02 181.652C211.02 182.14 211.156 182.52 211.429 182.792C211.701 183.065 212.149 183.201 212.773 183.201C213.613 183.201 214.225 182.985 214.611 182.554C214.997 182.123 215.19 181.578 215.19 180.92V180.154H213.216C212.784 180.154 212.427 180.183 212.143 180.239C211.86 180.296 211.633 180.387 211.463 180.512C211.304 180.625 211.19 180.778 211.122 180.971C211.054 181.153 211.02 181.38 211.02 181.652ZM219.776 175.355H221.188V183.03H224.49V175.355H225.903V183.03H229.204V175.355H230.617V184.375H219.776V175.355ZM234.704 180.375C234.704 181.351 234.953 182.083 235.453 182.571C235.963 183.047 236.718 183.286 237.716 183.286C238.295 183.286 238.817 183.189 239.282 182.996C239.747 182.792 240.144 182.56 240.473 182.299V183.762C240.246 183.921 239.895 184.097 239.418 184.29C238.942 184.471 238.363 184.562 237.682 184.562C236.956 184.562 236.315 184.477 235.759 184.307C235.214 184.125 234.755 183.842 234.38 183.456C234.017 183.059 233.739 182.56 233.547 181.958C233.365 181.346 233.274 180.602 233.274 179.729C233.274 178.242 233.62 177.113 234.312 176.342C235.005 175.57 236.014 175.185 237.342 175.185C238.034 175.185 238.624 175.287 239.112 175.491C239.6 175.695 239.991 175.985 240.286 176.359C240.581 176.733 240.797 177.187 240.933 177.72C241.069 178.242 241.137 178.821 241.137 179.456V180.375H234.704ZM237.325 176.461C236.497 176.461 235.85 176.682 235.385 177.125C234.931 177.556 234.704 178.231 234.704 179.15H239.724C239.724 178.231 239.532 177.556 239.146 177.125C238.771 176.682 238.164 176.461 237.325 176.461ZM243.792 175.355H245.205V179.133H249.698V175.355H251.11V184.375H249.698V180.478H245.205V184.375H243.792V175.355ZM254.379 175.355H255.792V179.746C255.792 180.279 255.781 180.795 255.758 181.295C255.735 181.782 255.713 182.14 255.69 182.367L255.758 182.401C255.974 182.038 256.201 181.686 256.439 181.346C256.677 180.994 256.921 180.648 257.171 180.307L260.591 175.355H261.834V184.375H260.421V180.733C260.421 180.404 260.421 180.075 260.421 179.746C260.433 179.405 260.444 179.082 260.455 178.776C260.467 178.469 260.478 178.191 260.489 177.942C260.501 177.681 260.512 177.471 260.523 177.312L260.472 177.295C260.325 177.556 260.132 177.885 259.894 178.282C259.655 178.668 259.406 179.031 259.145 179.371L255.639 184.375H254.379V175.355ZM266.648 180.903C266.285 180.846 265.984 180.739 265.746 180.58C265.508 180.409 265.321 180.211 265.185 179.984C265.048 179.746 264.952 179.479 264.895 179.184C264.838 178.878 264.81 178.56 264.81 178.231C264.81 177.754 264.873 177.335 264.997 176.972C265.134 176.597 265.36 176.285 265.678 176.036C265.996 175.786 266.416 175.599 266.938 175.474C267.459 175.338 268.106 175.27 268.878 175.27C269.377 175.27 269.893 175.281 270.426 175.304C270.96 175.315 271.391 175.343 271.72 175.389V184.375H270.307V181.141H268.095L265.78 184.375H264.146L266.648 180.903ZM270.307 176.58C270.092 176.557 269.876 176.54 269.661 176.529C269.445 176.518 269.144 176.512 268.759 176.512C268.248 176.512 267.828 176.546 267.499 176.614C267.17 176.671 266.909 176.767 266.716 176.904C266.535 177.04 266.404 177.221 266.325 177.448C266.257 177.664 266.223 177.936 266.223 178.265C266.223 178.946 266.387 179.411 266.716 179.661C267.057 179.91 267.624 180.035 268.418 180.035H270.307V176.58Z" fill="#262626" fill-opacity="0.7"/>
</g>
<g filter="url(#filter5_dd_43_1521)">
<path d="M241.106 212.031H21.2741C11.8747 212.031 4.25488 219.651 4.25488 229.05C4.25488 238.45 11.8747 246.07 21.2741 246.07H241.106C250.505 246.07 258.125 238.45 258.125 229.05C258.125 219.651 250.505 212.031 241.106 212.031Z" fill="white"/>
<path d="M24.0823 228.744H25.7842C26.2381 228.744 26.6125 228.687 26.9075 228.574C27.2138 228.46 27.4578 228.313 27.6393 228.131C27.8209 227.939 27.9457 227.717 28.0137 227.468C28.0932 227.218 28.1329 226.957 28.1329 226.685C28.1329 225.981 27.9173 225.488 27.4861 225.204C27.0663 224.909 26.4139 224.762 25.5289 224.762C25.0184 224.762 24.5248 224.852 24.0483 225.034C23.5717 225.215 23.1349 225.459 22.7378 225.766V224.013C23.0668 223.888 23.4753 223.752 23.9632 223.604C24.4624 223.457 25.0921 223.383 25.8523 223.383C27.1571 223.383 28.1272 223.61 28.7626 224.064C29.4093 224.506 29.7327 225.244 29.7327 226.276C29.7327 227.025 29.5682 227.626 29.2391 228.08C28.9101 228.534 28.3995 228.863 27.7074 229.067C28.581 229.17 29.2391 229.453 29.6816 229.918C30.1241 230.384 30.3454 231.093 30.3454 232.046C30.3454 233.192 29.9823 234.065 29.2561 234.667C28.53 235.268 27.3727 235.569 25.7842 235.569C25.024 235.569 24.3546 235.501 23.7759 235.365C23.1973 235.217 22.7321 235.064 22.3804 234.905V232.965C22.5279 233.112 22.7151 233.26 22.942 233.407C23.1803 233.544 23.4526 233.674 23.7589 233.799C24.0653 233.912 24.4 234.009 24.7631 234.088C25.1375 234.156 25.5346 234.19 25.9544 234.19C26.9756 234.19 27.6904 234.003 28.0988 233.629C28.5186 233.243 28.7285 232.676 28.7285 231.927C28.7285 231.223 28.4959 230.73 28.0308 230.446C27.5769 230.162 26.8337 230.021 25.8012 230.021H24.0823V228.744ZM38.1173 234.139C37.8904 234.548 37.5387 234.899 37.0622 235.194C36.597 235.478 36.041 235.62 35.3943 235.62C34.4866 235.62 33.7718 235.393 33.2498 234.939C32.7279 234.474 32.467 233.804 32.467 232.931C32.467 232.432 32.5294 232.012 32.6542 231.671C32.7903 231.32 33.0002 231.036 33.2839 230.82C33.5789 230.594 33.9533 230.429 34.4072 230.327C34.861 230.225 35.4113 230.174 36.058 230.174H38.0833V229.323C38.0833 228.96 38.0379 228.665 37.9472 228.438C37.8677 228.199 37.7372 228.018 37.5557 227.893C37.3742 227.757 37.1416 227.666 36.8579 227.621C36.5856 227.564 36.2622 227.536 35.8878 227.536C35.3772 227.536 34.8667 227.632 34.3561 227.825C33.8569 228.018 33.4541 228.245 33.1477 228.506V226.872C33.3293 226.77 33.5392 226.679 33.7774 226.6C34.0271 226.52 34.2823 226.458 34.5433 226.412C34.8043 226.356 35.0652 226.316 35.3262 226.293C35.5872 226.259 35.8254 226.242 36.041 226.242C36.631 226.242 37.1416 226.293 37.5727 226.395C38.0152 226.498 38.3783 226.668 38.662 226.906C38.9456 227.144 39.1555 227.462 39.2917 227.859C39.4278 228.245 39.4959 228.727 39.4959 229.306V235.433H38.2024L38.1173 234.139ZM33.9136 232.71C33.9136 233.197 34.0497 233.578 34.3221 233.85C34.5944 234.122 35.0425 234.258 35.6666 234.258C36.5062 234.258 37.1189 234.043 37.5047 233.612C37.8904 233.18 38.0833 232.636 38.0833 231.978V231.212H36.1091C35.6779 231.212 35.3205 231.24 35.0369 231.297C34.7532 231.354 34.5263 231.444 34.3561 231.569C34.1972 231.683 34.0838 231.836 34.0157 232.029C33.9476 232.21 33.9136 232.437 33.9136 232.71ZM45.5628 231.348H44.0822V235.433H42.6696V226.412H44.0822V230.242H45.5799L48.5923 226.412H50.2091L46.7712 230.701L50.5665 235.433H48.8475L45.5628 231.348ZM52.525 226.412H53.8185L53.9036 227.995C54.3801 226.827 55.4297 226.242 57.0522 226.242C58.2208 226.242 59.0945 226.594 59.6731 227.297C60.2518 227.99 60.5411 229.136 60.5411 230.735C60.5411 231.609 60.4617 232.358 60.3028 232.982C60.144 233.595 59.9057 234.099 59.588 234.497C59.2817 234.882 58.8959 235.166 58.4307 235.348C57.9655 235.529 57.4266 235.62 56.8139 235.62C56.0424 235.62 55.424 235.484 54.9588 235.211C54.5049 234.928 54.1646 234.599 53.9376 234.224V238.496H52.525V226.412ZM53.9376 231.808C53.9376 232.59 54.1589 233.209 54.6014 233.663C55.0552 234.117 55.6963 234.343 56.5246 234.343C57.0011 234.343 57.4039 234.281 57.7329 234.156C58.062 234.031 58.3286 233.827 58.5328 233.544C58.7371 233.26 58.8846 232.897 58.9753 232.454C59.0774 232.012 59.1285 231.467 59.1285 230.82C59.1285 230.208 59.0718 229.692 58.9583 229.272C58.8449 228.841 58.6803 228.5 58.4648 228.251C58.2492 227.99 57.9769 227.802 57.6478 227.689C57.3301 227.575 56.9614 227.519 56.5416 227.519C56.0991 227.519 55.7133 227.581 55.3843 227.706C55.0552 227.831 54.7829 228.007 54.5674 228.234C54.3518 228.449 54.1929 228.71 54.0908 229.016C53.9887 229.323 53.9376 229.652 53.9376 230.004V231.808ZM64.6083 229.391C64.8352 229.368 65.0451 229.351 65.238 229.34C65.4309 229.328 65.6351 229.323 65.8507 229.323C66.5655 229.323 67.1725 229.385 67.6717 229.51C68.171 229.623 68.5738 229.805 68.8801 230.055C69.1864 230.293 69.4077 230.599 69.5438 230.974C69.68 231.337 69.7481 231.774 69.7481 232.284C69.7481 232.738 69.68 233.163 69.5438 233.561C69.4077 233.958 69.1751 234.304 68.8461 234.599C68.5284 234.894 68.1029 235.126 67.5696 235.297C67.0364 235.467 66.3726 235.552 65.5784 235.552C65.1813 235.552 64.7841 235.54 64.387 235.518C63.9899 235.506 63.5928 235.478 63.1957 235.433V226.412H64.6083V229.391ZM64.6083 234.224C64.8125 234.247 64.9827 234.264 65.1188 234.275C65.2663 234.275 65.4706 234.275 65.7315 234.275C66.2421 234.275 66.6619 234.23 66.991 234.139C67.3313 234.048 67.598 233.918 67.7909 233.748C67.9951 233.578 68.1369 233.373 68.2164 233.135C68.2958 232.897 68.3355 232.63 68.3355 232.335C68.3355 232.063 68.3014 231.813 68.2334 231.586C68.1653 231.359 68.0291 231.167 67.8249 231.008C67.632 230.837 67.354 230.707 66.991 230.616C66.6392 230.525 66.1684 230.48 65.5784 230.48C65.3968 230.48 65.2323 230.491 65.0848 230.514C64.9487 230.525 64.7898 230.542 64.6083 230.565V234.224ZM71.0249 226.412H72.4375V235.433H71.0249V226.412ZM75.7108 226.395C76.0399 226.373 76.454 226.35 76.9532 226.327C77.4638 226.305 78.0708 226.293 78.7743 226.293C79.5005 226.293 80.0961 226.344 80.5613 226.447C81.0265 226.549 81.3953 226.69 81.6676 226.872C81.9399 227.054 82.1271 227.28 82.2292 227.553C82.3427 227.814 82.3994 228.103 82.3994 228.421C82.3994 228.999 82.2689 229.465 82.008 229.816C81.747 230.157 81.2931 230.418 80.6464 230.599C81.4066 230.667 81.9569 230.854 82.2973 231.161C82.649 231.467 82.8249 231.995 82.8249 232.744C82.8249 233.163 82.7625 233.549 82.6377 233.901C82.5129 234.241 82.2973 234.536 81.9909 234.786C81.6959 235.036 81.2931 235.228 80.7826 235.365C80.2833 235.501 79.6593 235.569 78.9105 235.569C78.6155 235.569 78.3091 235.563 77.9914 235.552C77.6851 235.552 77.3901 235.546 77.1064 235.535C76.8228 235.523 76.5618 235.506 76.3235 235.484C76.0853 235.472 75.881 235.461 75.7108 235.45V226.395ZM77.1234 234.258C77.4184 234.281 77.7134 234.304 78.0084 234.326C78.3148 234.338 78.6325 234.343 78.9615 234.343C79.4267 234.343 79.8125 234.321 80.1188 234.275C80.4365 234.219 80.6918 234.128 80.8847 234.003C81.0776 233.878 81.2137 233.714 81.2931 233.509C81.3726 233.305 81.4123 233.056 81.4123 232.761C81.4123 232.25 81.2364 231.898 80.8847 231.705C80.5443 231.501 79.9883 231.399 79.2168 231.399H77.1234V234.258ZM79.2168 230.191C79.7501 230.191 80.1756 230.083 80.4932 229.867C80.8109 229.652 80.9698 229.306 80.9698 228.829C80.9698 228.319 80.8109 227.973 80.4932 227.791C80.1869 227.609 79.648 227.519 78.8764 227.519C78.4453 227.519 78.0935 227.519 77.8212 227.519C77.5489 227.519 77.3163 227.524 77.1234 227.536V230.191H79.2168ZM90.5211 234.139C90.2942 234.548 89.9425 234.899 89.4659 235.194C89.0007 235.478 88.4448 235.62 87.798 235.62C86.8903 235.62 86.1755 235.393 85.6536 234.939C85.1317 234.474 84.8707 233.804 84.8707 232.931C84.8707 232.432 84.9331 232.012 85.0579 231.671C85.1941 231.32 85.404 231.036 85.6877 230.82C85.9827 230.594 86.3571 230.429 86.8109 230.327C87.2648 230.225 87.8151 230.174 88.4618 230.174H90.4871V229.323C90.4871 228.96 90.4417 228.665 90.3509 228.438C90.2715 228.199 90.141 228.018 89.9595 227.893C89.7779 227.757 89.5453 227.666 89.2617 227.621C88.9894 227.564 88.666 227.536 88.2916 227.536C87.781 227.536 87.2704 227.632 86.7599 227.825C86.2606 228.018 85.8578 228.245 85.5515 228.506V226.872C85.733 226.77 85.9429 226.679 86.1812 226.6C86.4308 226.52 86.6861 226.458 86.9471 226.412C87.208 226.356 87.469 226.316 87.73 226.293C87.9909 226.259 88.2292 226.242 88.4448 226.242C89.0348 226.242 89.5453 226.293 89.9765 226.395C90.419 226.498 90.7821 226.668 91.0657 226.906C91.3494 227.144 91.5593 227.462 91.6954 227.859C91.8316 228.245 91.8997 228.727 91.8997 229.306V235.433H90.6062L90.5211 234.139ZM86.3174 232.71C86.3174 233.197 86.4535 233.578 86.7258 233.85C86.9981 234.122 87.4463 234.258 88.0703 234.258C88.91 234.258 89.5227 234.043 89.9084 233.612C90.2942 233.18 90.4871 232.636 90.4871 231.978V231.212H88.5128C88.0817 231.212 87.7243 231.24 87.4406 231.297C87.157 231.354 86.9301 231.444 86.7599 231.569C86.601 231.683 86.4876 231.836 86.4195 232.029C86.3514 232.21 86.3174 232.437 86.3174 232.71ZM102.477 226.242C103.124 226.242 103.691 226.327 104.179 226.498C104.678 226.656 105.098 226.923 105.438 227.297C105.779 227.672 106.034 228.16 106.204 228.761C106.386 229.351 106.477 230.072 106.477 230.923C106.477 231.796 106.386 232.534 106.204 233.135C106.023 233.725 105.756 234.207 105.404 234.582C105.053 234.945 104.616 235.211 104.094 235.382C103.583 235.54 102.993 235.62 102.324 235.62C101.62 235.62 101.019 235.523 100.52 235.331C100.021 235.138 99.6065 234.865 99.2775 234.514C98.9485 234.151 98.6989 233.708 98.5287 233.186C98.3585 232.664 98.262 232.08 98.2393 231.433H96.4864V235.433H95.0738V226.412H96.4864V230.157H98.2734C98.3755 228.863 98.7556 227.887 99.4137 227.229C100.072 226.571 101.093 226.242 102.477 226.242ZM99.6519 230.923C99.6519 232.125 99.8788 232.993 100.333 233.527C100.787 234.06 101.467 234.326 102.375 234.326C102.783 234.326 103.147 234.275 103.464 234.173C103.793 234.071 104.071 233.895 104.298 233.646C104.536 233.385 104.712 233.039 104.826 232.607C104.951 232.176 105.013 231.632 105.013 230.974C105.013 230.304 104.962 229.748 104.86 229.306C104.769 228.863 104.61 228.512 104.383 228.251C104.168 227.978 103.884 227.791 103.532 227.689C103.192 227.575 102.778 227.519 102.29 227.519C101.813 227.519 101.411 227.581 101.082 227.706C100.753 227.819 100.48 228.012 100.265 228.285C100.049 228.546 99.8902 228.892 99.7881 229.323C99.6973 229.754 99.6519 230.287 99.6519 230.923ZM109.151 226.412H110.563V234.088H113.865V226.412H115.278V234.088H118.579V226.412H119.992V234.088H121.303V237.645H119.975V235.433H109.151V226.412ZM123.477 226.412H124.89V230.803C124.89 231.337 124.879 231.853 124.856 232.352C124.833 232.84 124.811 233.197 124.788 233.424L124.856 233.458C125.072 233.095 125.298 232.744 125.537 232.403C125.775 232.052 126.019 231.705 126.269 231.365L129.689 226.412H130.932V235.433H129.519V231.791C129.519 231.462 129.519 231.132 129.519 230.803C129.531 230.463 129.542 230.14 129.553 229.833C129.565 229.527 129.576 229.249 129.587 228.999C129.599 228.738 129.61 228.529 129.621 228.37L129.57 228.353C129.423 228.614 129.23 228.943 128.992 229.34C128.753 229.726 128.504 230.089 128.243 230.429L124.737 235.433H123.477V226.412ZM135.015 231.433C135.015 232.409 135.265 233.141 135.764 233.629C136.274 234.105 137.029 234.343 138.027 234.343C138.606 234.343 139.128 234.247 139.593 234.054C140.058 233.85 140.456 233.617 140.785 233.356V234.82C140.558 234.979 140.206 235.155 139.729 235.348C139.253 235.529 138.674 235.62 137.993 235.62C137.267 235.62 136.626 235.535 136.07 235.365C135.526 235.183 135.066 234.899 134.692 234.514C134.329 234.117 134.051 233.617 133.858 233.016C133.676 232.403 133.585 231.66 133.585 230.786C133.585 229.3 133.931 228.171 134.624 227.4C135.316 226.628 136.326 226.242 137.653 226.242C138.345 226.242 138.935 226.344 139.423 226.549C139.911 226.753 140.302 227.042 140.597 227.417C140.892 227.791 141.108 228.245 141.244 228.778C141.38 229.3 141.448 229.879 141.448 230.514V231.433H135.015ZM137.636 227.519C136.808 227.519 136.161 227.74 135.696 228.182C135.242 228.614 135.015 229.289 135.015 230.208H140.036C140.036 229.289 139.843 228.614 139.457 228.182C139.083 227.74 138.476 227.519 137.636 227.519ZM147.913 234.088H148.934C149.229 233.453 149.462 232.579 149.632 231.467C149.802 230.344 149.887 228.982 149.887 227.383V226.412H155.895V234.088H157.256V237.645H155.929V235.433H149.24V237.645H147.913V234.088ZM154.482 227.74H151.232L151.215 228.37C151.192 229.47 151.112 230.514 150.976 231.501C150.851 232.488 150.636 233.351 150.33 234.088H154.482V227.74ZM158.815 230.889C158.815 230.106 158.923 229.425 159.138 228.846C159.354 228.268 159.655 227.785 160.04 227.4C160.426 227.014 160.886 226.724 161.419 226.532C161.964 226.339 162.559 226.242 163.206 226.242C163.819 226.242 164.375 226.333 164.874 226.515C165.373 226.696 165.793 226.98 166.133 227.366C166.485 227.751 166.757 228.239 166.95 228.829C167.143 229.419 167.24 230.123 167.24 230.94C167.24 231.791 167.126 232.511 166.899 233.101C166.684 233.691 166.383 234.173 165.997 234.548C165.623 234.922 165.18 235.194 164.67 235.365C164.159 235.535 163.609 235.62 163.019 235.62C161.669 235.62 160.63 235.206 159.904 234.377C159.178 233.549 158.815 232.386 158.815 230.889ZM160.228 230.94C160.228 232.017 160.472 232.857 160.959 233.458C161.459 234.048 162.185 234.343 163.138 234.343C163.978 234.343 164.636 234.077 165.112 233.544C165.589 232.999 165.827 232.131 165.827 230.94V230.889C165.827 229.743 165.583 228.892 165.095 228.336C164.619 227.78 163.926 227.502 163.019 227.502C162.122 227.502 161.43 227.791 160.942 228.37C160.466 228.937 160.228 229.777 160.228 230.889V230.94ZM172.791 231.348H171.311V235.433H169.898V226.412H171.311V230.242H172.808L175.821 226.412H177.438L174 230.701L177.795 235.433H176.076L172.791 231.348ZM180.758 237.271C180.917 237.271 181.058 237.248 181.183 237.203C181.319 237.169 181.444 237.089 181.558 236.964C181.682 236.84 181.802 236.658 181.915 236.42C182.04 236.182 182.17 235.864 182.307 235.467L178.647 226.412H180.281L183.038 233.612L185.336 226.412H186.851L183.736 235.126C183.441 235.966 183.157 236.618 182.885 237.084C182.624 237.549 182.375 237.895 182.136 238.122C181.898 238.349 181.665 238.485 181.439 238.53C181.212 238.587 180.99 238.615 180.775 238.615C180.412 238.615 180.145 238.57 179.975 238.479V237.066C180.213 237.203 180.474 237.271 180.758 237.271ZM188.829 226.412H190.701L193.56 231.774L196.301 226.412H198.088V235.433H196.675V230.684C196.675 230.174 196.698 229.669 196.743 229.17C196.788 228.659 196.834 228.148 196.879 227.638C196.618 228.217 196.374 228.761 196.147 229.272C195.921 229.771 195.711 230.191 195.518 230.531L193.952 233.254H192.982L191.501 230.548C191.308 230.185 191.087 229.754 190.837 229.255C190.588 228.755 190.327 228.222 190.055 227.655C190.1 228.165 190.14 228.682 190.174 229.204C190.219 229.714 190.242 230.23 190.242 230.752V235.433H188.829V226.412ZM202.177 231.433C202.177 232.409 202.427 233.141 202.926 233.629C203.437 234.105 204.191 234.343 205.19 234.343C205.768 234.343 206.29 234.247 206.755 234.054C207.221 233.85 207.618 233.617 207.947 233.356V234.82C207.72 234.979 207.368 235.155 206.892 235.348C206.415 235.529 205.836 235.62 205.156 235.62C204.429 235.62 203.788 235.535 203.232 235.365C202.688 235.183 202.228 234.899 201.854 234.514C201.491 234.117 201.213 233.617 201.02 233.016C200.838 232.403 200.748 231.66 200.748 230.786C200.748 229.3 201.094 228.171 201.786 227.4C202.478 226.628 203.488 226.242 204.815 226.242C205.507 226.242 206.097 226.344 206.585 226.549C207.073 226.753 207.465 227.042 207.76 227.417C208.055 227.791 208.27 228.245 208.406 228.778C208.542 229.3 208.61 229.879 208.61 230.514V231.433H202.177ZM204.798 227.519C203.97 227.519 203.323 227.74 202.858 228.182C202.404 228.614 202.177 229.289 202.177 230.208H207.198C207.198 229.289 207.005 228.614 206.619 228.182C206.245 227.74 205.638 227.519 204.798 227.519ZM211.266 226.412H212.679V230.191H217.172V226.412H218.584V235.433H217.172V231.535H212.679V235.433H211.266V226.412ZM223.453 227.74H220.526V226.412H227.776V227.74H224.866V235.433H223.453V227.74ZM231.128 229.391C231.355 229.368 231.564 229.351 231.757 229.34C231.95 229.328 232.154 229.323 232.37 229.323C233.085 229.323 233.692 229.385 234.191 229.51C234.69 229.623 235.093 229.805 235.399 230.055C235.706 230.293 235.927 230.599 236.063 230.974C236.199 231.337 236.267 231.774 236.267 232.284C236.267 232.738 236.199 233.163 236.063 233.561C235.927 233.958 235.694 234.304 235.365 234.599C235.048 234.894 234.622 235.126 234.089 235.297C233.556 235.467 232.892 235.552 232.098 235.552C231.701 235.552 231.303 235.54 230.906 235.518C230.509 235.506 230.112 235.478 229.715 235.433V226.412H231.128V229.391ZM231.128 234.224C231.332 234.247 231.502 234.264 231.638 234.275C231.786 234.275 231.99 234.275 232.251 234.275C232.761 234.275 233.181 234.23 233.51 234.139C233.851 234.048 234.117 233.918 234.31 233.748C234.514 233.578 234.656 233.373 234.736 233.135C234.815 232.897 234.855 232.63 234.855 232.335C234.855 232.063 234.821 231.813 234.753 231.586C234.685 231.359 234.548 231.167 234.344 231.008C234.151 230.837 233.873 230.707 233.51 230.616C233.159 230.525 232.688 230.48 232.098 230.48C231.916 230.48 231.752 230.491 231.604 230.514C231.468 230.525 231.309 230.542 231.128 230.565V234.224ZM237.544 226.412H238.956V235.433H237.544V226.412Z" fill="#262626" fill-opacity="0.7"/>
</g>
</g>
<defs>
<filter id="filter0_dd_43_1521" x="-1.74512" y="-0.872589" width="185.738" height="51.7115" filterUnits="userSpaceOnUse" color-interpolation-filters="sRGB">
<feFlood flood-opacity="0" result="BackgroundImageFix"/>
<feColorMatrix in="SourceAlpha" type="matrix" values="0 0 0 0 0 0 0 0 0 0 0 0 0 0 0 0 0 0 127 0" result="hardAlpha"/>
<feOffset dy="3"/>
<feGaussianBlur stdDeviation="3"/>
<feColorMatrix type="matrix" values="0 0 0 0 0.14902 0 0 0 0 0.14902 0 0 0 0 0.14902 0 0 0 0.16 0"/>
<feBlend mode="normal" in2="BackgroundImageFix" result="effect1_dropShadow_43_1521"/>
<feColorMatrix in="SourceAlpha" type="matrix" values="0 0 0 0 0 0 0 0 0 0 0 0 0 0 0 0 0 0 127 0" result="hardAlpha"/>
<feOffset dy="1"/>
<feGaussianBlur stdDeviation="1"/>
<feColorMatrix type="matrix" values="0 0 0 0 0.14902 0 0 0 0 0.14902 0 0 0 0 0.14902 0 0 0 0.04 0"/>
<feBlend mode="normal" in2="effect1_dropShadow_43_1521" result="effect2_dropShadow_43_1521"/>
<feBlend mode="normal" in="SourceGraphic" in2="effect2_dropShadow_43_1521" result="shape"/>
</filter>
<filter id="filter1_dd_43_1521" x="-1.74512" y="55.8582" width="126.171" height="46.0385" filterUnits="userSpaceOnUse" color-interpolation-filters="sRGB">
<feFlood flood-opacity="0" result="BackgroundImageFix"/>
<feColorMatrix in="SourceAlpha" type="matrix" values="0 0 0 0 0 0 0 0 0 0 0 0 0 0 0 0 0 0 127 0" result="hardAlpha"/>
<feOffset dy="3"/>
<feGaussianBlur stdDeviation="3"/>
<feColorMatrix type="matrix" values="0 0 0 0 0.14902 0 0 0 0 0.14902 0 0 0 0 0.14902 0 0 0 0.16 0"/>
<feBlend mode="normal" in2="BackgroundImageFix" result="effect1_dropShadow_43_1521"/>
<feColorMatrix in="SourceAlpha" type="matrix" values="0 0 0 0 0 0 0 0 0 0 0 0 0 0 0 0 0 0 127 0" result="hardAlpha"/>
<feOffset dy="1"/>
<feGaussianBlur stdDeviation="1"/>
<feColorMatrix type="matrix" values="0 0 0 0 0.14902 0 0 0 0 0.14902 0 0 0 0 0.14902 0 0 0 0.04 0"/>
<feBlend mode="normal" in2="effect1_dropShadow_43_1521" result="effect2_dropShadow_43_1521"/>
<feBlend mode="normal" in="SourceGraphic" in2="effect2_dropShadow_43_1521" result="shape"/>
</filter>
<filter id="filter2_dd_43_1521" x="130.863" y="55.8582" width="88.5867" height="46.0385" filterUnits="userSpaceOnUse" color-interpolation-filters="sRGB">
<feFlood flood-opacity="0" result="BackgroundImageFix"/>
<feColorMatrix in="SourceAlpha" type="matrix" values="0 0 0 0 0 0 0 0 0 0 0 0 0 0 0 0 0 0 127 0" result="hardAlpha"/>
<feOffset dy="3"/>
<feGaussianBlur stdDeviation="3"/>
<feColorMatrix type="matrix" values="0 0 0 0 0.14902 0 0 0 0 0.14902 0 0 0 0 0.14902 0 0 0 0.16 0"/>
<feBlend mode="normal" in2="BackgroundImageFix" result="effect1_dropShadow_43_1521"/>
<feColorMatrix in="SourceAlpha" type="matrix" values="0 0 0 0 0 0 0 0 0 0 0 0 0 0 0 0 0 0 127 0" result="hardAlpha"/>
<feOffset dy="1"/>
<feGaussianBlur stdDeviation="1"/>
<feColorMatrix type="matrix" values="0 0 0 0 0.14902 0 0 0 0 0.14902 0 0 0 0 0.14902 0 0 0 0.04 0"/>
<feBlend mode="normal" in2="effect1_dropShadow_43_1521" result="effect2_dropShadow_43_1521"/>
<feBlend mode="normal" in="SourceGraphic" in2="effect2_dropShadow_43_1521" result="shape"/>
</filter>
<filter id="filter3_dd_43_1521" x="-1.74512" y="106.916" width="292.817" height="46.0385" filterUnits="userSpaceOnUse" color-interpolation-filters="sRGB">
<feFlood flood-opacity="0" result="BackgroundImageFix"/>
<feColorMatrix in="SourceAlpha" type="matrix" values="0 0 0 0 0 0 0 0 0 0 0 0 0 0 0 0 0 0 127 0" result="hardAlpha"/>
<feOffset dy="3"/>
<feGaussianBlur stdDeviation="3"/>
<feColorMatrix type="matrix" values="0 0 0 0 0.14902 0 0 0 0 0.14902 0 0 0 0 0.14902 0 0 0 0.16 0"/>
<feBlend mode="normal" in2="BackgroundImageFix" result="effect1_dropShadow_43_1521"/>
<feColorMatrix in="SourceAlpha" type="matrix" values="0 0 0 0 0 0 0 0 0 0 0 0 0 0 0 0 0 0 127 0" result="hardAlpha"/>
<feOffset dy="1"/>
<feGaussianBlur stdDeviation="1"/>
<feColorMatrix type="matrix" values="0 0 0 0 0.14902 0 0 0 0 0.14902 0 0 0 0 0.14902 0 0 0 0.04 0"/>
<feBlend mode="normal" in2="effect1_dropShadow_43_1521" result="effect2_dropShadow_43_1521"/>
<feBlend mode="normal" in="SourceGraphic" in2="effect2_dropShadow_43_1521" result="shape"/>
</filter>
<filter id="filter4_dd_43_1521" x="-1.74512" y="157.974" width="298.49" height="46.0385" filterUnits="userSpaceOnUse" color-interpolation-filters="sRGB">
<feFlood flood-opacity="0" result="BackgroundImageFix"/>
<feColorMatrix in="SourceAlpha" type="matrix" values="0 0 0 0 0 0 0 0 0 0 0 0 0 0 0 0 0 0 127 0" result="hardAlpha"/>
<feOffset dy="3"/>
<feGaussianBlur stdDeviation="3"/>
<feColorMatrix type="matrix" values="0 0 0 0 0.14902 0 0 0 0 0.14902 0 0 0 0 0.14902 0 0 0 0.16 0"/>
<feBlend mode="normal" in2="BackgroundImageFix" result="effect1_dropShadow_43_1521"/>
<feColorMatrix in="SourceAlpha" type="matrix" values="0 0 0 0 0 0 0 0 0 0 0 0 0 0 0 0 0 0 127 0" result="hardAlpha"/>
<feOffset dy="1"/>
<feGaussianBlur stdDeviation="1"/>
<feColorMatrix type="matrix" values="0 0 0 0 0.14902 0 0 0 0 0.14902 0 0 0 0 0.14902 0 0 0 0.04 0"/>
<feBlend mode="normal" in2="effect1_dropShadow_43_1521" result="effect2_dropShadow_43_1521"/>
<feBlend mode="normal" in="SourceGraphic" in2="effect2_dropShadow_43_1521" result="shape"/>
</filter>
<filter id="filter5_dd_43_1521" x="-1.74512" y="209.031" width="265.87" height="46.0385" filterUnits="userSpaceOnUse" color-interpolation-filters="sRGB">
<feFlood flood-opacity="0" result="BackgroundImageFix"/>
<feColorMatrix in="SourceAlpha" type="matrix" values="0 0 0 0 0 0 0 0 0 0 0 0 0 0 0 0 0 0 127 0" result="hardAlpha"/>
<feOffset dy="3"/>
<feGaussianBlur stdDeviation="3"/>
<feColorMatrix type="matrix" values="0 0 0 0 0.14902 0 0 0 0 0.14902 0 0 0 0 0.14902 0 0 0 0.16 0"/>
<feBlend mode="normal" in2="BackgroundImageFix" result="effect1_dropShadow_43_1521"/>
<feColorMatrix in="SourceAlpha" type="matrix" values="0 0 0 0 0 0 0 0 0 0 0 0 0 0 0 0 0 0 127 0" result="hardAlpha"/>
<feOffset dy="1"/>
<feGaussianBlur stdDeviation="1"/>
<feColorMatrix type="matrix" values="0 0 0 0 0.14902 0 0 0 0 0.14902 0 0 0 0 0.14902 0 0 0 0.04 0"/>
<feBlend mode="normal" in2="effect1_dropShadow_43_1521" result="effect2_dropShadow_43_1521"/>
<feBlend mode="normal" in="SourceGraphic" in2="effect2_dropShadow_43_1521" result="shape"/>
</filter>
<clipPath id="clip0_43_1521">
<rect width="295" height="252.452" fill="white"/>
</clipPath>
</defs>
</svg>
