<svg width="303" height="265" viewBox="0 0 303 265" fill="none" xmlns="http://www.w3.org/2000/svg">
<g clip-path="url(#clip0_43_1241)">
<g filter="url(#filter0_dd_43_1241)">
<path d="M165.129 2.23267H21.9824C12.351 2.23267 4.54321 10.2294 4.54321 20.0938V26.0475C4.54321 35.9119 12.351 43.9086 21.9824 43.9086H165.129C174.761 43.9086 182.569 35.9119 182.569 26.0475V20.0938C182.569 10.2294 174.761 2.23267 165.129 2.23267Z" fill="white"/>
<path d="M22.1569 28.3396H23.4474C23.7961 27.4704 24.1159 26.3213 24.4065 24.8924C24.7088 23.4636 24.8716 21.7846 24.8948 19.8556L24.9297 17.2658H32.3239V28.3396H33.8935V32.0905H32.4286V29.7685H23.6218V32.0905H22.1569V28.3396ZM30.7544 18.6946H26.4469L26.4295 19.9092C26.4178 20.7308 26.3713 21.5405 26.29 22.3383C26.2202 23.1242 26.1214 23.8803 25.9935 24.6067C25.8772 25.333 25.7377 26.0117 25.5749 26.6428C25.4238 27.2739 25.261 27.8395 25.0867 28.3396H30.7544V18.6946ZM35.3283 24.9996C35.3283 24.178 35.4387 23.4636 35.6596 22.8563C35.8805 22.249 36.1886 21.7429 36.5839 21.3381C36.9792 20.9332 37.45 20.6296 37.9965 20.4272C38.5545 20.2247 39.1649 20.1235 39.8276 20.1235C40.4554 20.1235 41.0251 20.2188 41.5366 20.4093C42.0482 20.5998 42.4784 20.8975 42.8271 21.3024C43.1876 21.7072 43.4666 22.2192 43.6642 22.8384C43.8619 23.4576 43.9607 24.1959 43.9607 25.0532C43.9607 25.9463 43.8444 26.7024 43.6119 27.3216C43.391 27.9407 43.0829 28.4468 42.6876 28.8397C42.304 29.2327 41.8505 29.5185 41.3274 29.6971C40.8042 29.8757 40.2403 29.965 39.6358 29.965C38.2523 29.965 37.1885 29.5304 36.4444 28.6611C35.7003 27.7919 35.3283 26.5714 35.3283 24.9996ZM36.7757 25.0532C36.7757 26.1844 37.0257 27.0655 37.5256 27.6966C38.0372 28.3158 38.7812 28.6254 39.7578 28.6254C40.6182 28.6254 41.2925 28.3456 41.7808 27.7859C42.2691 27.2144 42.5132 26.3035 42.5132 25.0532V24.9996C42.5132 23.797 42.2633 22.9039 41.7633 22.3204C41.2751 21.737 40.5659 21.4453 39.6358 21.4453C38.7173 21.4453 38.0081 21.7489 37.5082 22.3562C37.0199 22.9515 36.7757 23.8327 36.7757 24.9996V25.0532ZM46.4673 20.3021H52.3094V21.6953H47.9148V29.7685H46.4673V20.3021ZM53.4896 24.9996C53.4896 24.178 53.6 23.4636 53.8209 22.8563C54.0418 22.249 54.3499 21.7429 54.7452 21.3381C55.1405 20.9332 55.6113 20.6296 56.1578 20.4272C56.7158 20.2247 57.3262 20.1235 57.9889 20.1235C58.6167 20.1235 59.1864 20.2188 59.6979 20.4093C60.2095 20.5998 60.6396 20.8975 60.9884 21.3024C61.3488 21.7072 61.6279 22.2192 61.8255 22.8384C62.0232 23.4576 62.122 24.1959 62.122 25.0532C62.122 25.9463 62.0057 26.7024 61.7732 27.3216C61.5523 27.9407 61.2442 28.4468 60.8489 28.8397C60.4653 29.2327 60.0118 29.5185 59.4887 29.6971C58.9655 29.8757 58.4016 29.965 57.7971 29.965C56.4135 29.965 55.3497 29.5304 54.6057 28.6611C53.8616 27.7919 53.4896 26.5714 53.4896 24.9996ZM54.937 25.0532C54.937 26.1844 55.187 27.0655 55.6869 27.6966C56.1985 28.3158 56.9425 28.6254 57.9191 28.6254C58.7795 28.6254 59.4538 28.3456 59.9421 27.7859C60.4304 27.2144 60.6745 26.3035 60.6745 25.0532V24.9996C60.6745 23.797 60.4246 22.9039 59.9246 22.3204C59.4363 21.737 58.7271 21.4453 57.7971 21.4453C56.8786 21.4453 56.1694 21.7489 55.6695 22.3562C55.1812 22.9515 54.937 23.8327 54.937 24.9996V25.0532ZM64.6286 20.2843C64.9657 20.2605 65.3901 20.2367 65.9016 20.2128C66.4248 20.189 67.0468 20.1771 67.7676 20.1771C68.5117 20.1771 69.1221 20.2307 69.5988 20.3379C70.0754 20.445 70.4533 20.5939 70.7323 20.7844C71.0113 20.9749 71.2032 21.2131 71.3078 21.4988C71.4241 21.7727 71.4822 22.0763 71.4822 22.4098C71.4822 23.017 71.3485 23.5052 71.0811 23.8744C70.8137 24.2316 70.3486 24.5055 69.686 24.696C70.4649 24.7674 71.0288 24.9639 71.3776 25.2854C71.738 25.6069 71.9182 26.1606 71.9182 26.9465C71.9182 27.387 71.8542 27.7919 71.7263 28.161C71.5985 28.5182 71.3776 28.8278 71.0637 29.0898C70.7614 29.3518 70.3486 29.5542 69.8255 29.6971C69.3139 29.84 68.6745 29.9114 67.9072 29.9114C67.6049 29.9114 67.291 29.9055 66.9654 29.8936C66.6515 29.8936 66.3492 29.8876 66.0586 29.8757C65.7679 29.8638 65.5005 29.8459 65.2564 29.8221C65.0122 29.8102 64.803 29.7983 64.6286 29.7864V20.2843ZM66.076 28.5361C66.3783 28.5599 66.6806 28.5837 66.9829 28.6076C67.2968 28.6195 67.6223 28.6254 67.9595 28.6254C68.4361 28.6254 68.8314 28.6016 69.1453 28.554C69.4709 28.4944 69.7325 28.3992 69.9301 28.2682C70.1278 28.1372 70.2673 27.9646 70.3486 27.7502C70.43 27.5359 70.4707 27.2739 70.4707 26.9643C70.4707 26.4285 70.2905 26.0594 69.9301 25.8569C69.5813 25.6426 69.0116 25.5354 68.2211 25.5354H66.076V28.5361ZM68.2211 24.2673C68.7675 24.2673 69.2035 24.1542 69.529 23.9279C69.8545 23.7017 70.0173 23.3385 70.0173 22.8384C70.0173 22.3026 69.8545 21.9394 69.529 21.7489C69.2151 21.5584 68.6629 21.4631 67.8723 21.4631C67.4305 21.4631 67.0701 21.4631 66.791 21.4631C66.512 21.4631 66.2737 21.4691 66.076 21.481V24.2673H68.2211ZM73.7966 24.9996C73.7966 24.178 73.907 23.4636 74.1279 22.8563C74.3488 22.249 74.6569 21.7429 75.0522 21.3381C75.4475 20.9332 75.9184 20.6296 76.4648 20.4272C77.0229 20.2247 77.6332 20.1235 78.2959 20.1235C78.9237 20.1235 79.4934 20.2188 80.005 20.4093C80.5165 20.5998 80.9467 20.8975 81.2955 21.3024C81.6559 21.7072 81.9349 22.2192 82.1326 22.8384C82.3302 23.4576 82.429 24.1959 82.429 25.0532C82.429 25.9463 82.3128 26.7024 82.0802 27.3216C81.8593 27.9407 81.5512 28.4468 81.156 28.8397C80.7723 29.2327 80.3189 29.5185 79.7957 29.6971C79.2725 29.8757 78.7087 29.965 78.1041 29.965C76.7206 29.965 75.6568 29.5304 74.9127 28.6611C74.1686 27.7919 73.7966 26.5714 73.7966 24.9996ZM75.2441 25.0532C75.2441 26.1844 75.494 27.0655 75.9939 27.6966C76.5055 28.3158 77.2496 28.6254 78.2262 28.6254C79.0865 28.6254 79.7608 28.3456 80.2491 27.7859C80.7374 27.2144 80.9816 26.3035 80.9816 25.0532V24.9996C80.9816 23.797 80.7316 22.9039 80.2317 22.3204C79.7434 21.737 79.0342 21.4453 78.1041 21.4453C77.1856 21.4453 76.4764 21.7489 75.9765 22.3562C75.4882 22.9515 75.2441 23.8327 75.2441 24.9996V25.0532ZM84.9185 20.3021H86.2438L86.331 21.9632C86.8193 20.7368 87.8948 20.1235 89.5573 20.1235C90.7548 20.1235 91.65 20.4927 92.2429 21.2309C92.8359 21.9573 93.1323 23.1599 93.1323 24.8389C93.1323 25.7557 93.051 26.5416 92.8882 27.1965C92.7254 27.8395 92.4813 28.3694 92.1557 28.7862C91.8418 29.191 91.4466 29.4887 90.9699 29.6792C90.4932 29.8697 89.941 29.965 89.3132 29.965C88.5226 29.965 87.8889 29.8221 87.4123 29.5363C86.9472 29.2386 86.5985 28.8933 86.3659 28.5004V32.9835H84.9185V20.3021ZM86.3659 25.9641C86.3659 26.7857 86.5926 27.4347 87.0461 27.911C87.5111 28.3873 88.168 28.6254 89.0167 28.6254C89.505 28.6254 89.9177 28.5599 90.2549 28.4289C90.592 28.298 90.8652 28.0836 91.0745 27.7859C91.2838 27.4883 91.4349 27.1072 91.5279 26.6428C91.6326 26.1784 91.6849 25.6069 91.6849 24.9282C91.6849 24.2852 91.6268 23.7434 91.5105 23.3028C91.3942 22.8503 91.2257 22.4931 91.0048 22.2311C90.7839 21.9573 90.5048 21.7608 90.1677 21.6417C89.8421 21.5227 89.4643 21.4631 89.0341 21.4631C88.5807 21.4631 88.1854 21.5286 87.8483 21.6596C87.5111 21.7906 87.2321 21.9751 87.0112 22.2133C86.7903 22.4395 86.6275 22.7134 86.5229 23.0349C86.4182 23.3564 86.3659 23.7017 86.3659 24.0708V25.9641ZM97.0816 23.4278C97.3141 23.404 97.5292 23.3862 97.7269 23.3743C97.9245 23.3623 98.1338 23.3564 98.3547 23.3564C99.0871 23.3564 99.7091 23.4219 100.221 23.5529C100.732 23.6719 101.145 23.8625 101.459 24.1244C101.773 24.3745 101.999 24.696 102.139 25.0889C102.278 25.47 102.348 25.9284 102.348 26.4642C102.348 26.9405 102.278 27.387 102.139 27.8038C101.999 28.2206 101.761 28.5837 101.424 28.8933C101.098 29.2029 100.662 29.447 100.116 29.6256C99.5696 29.8042 98.8895 29.8936 98.0756 29.8936C97.6687 29.8936 97.2618 29.8816 96.8549 29.8578C96.448 29.8459 96.0411 29.8162 95.6341 29.7685V20.3021H97.0816V23.4278ZM97.0816 28.5004C97.2909 28.5242 97.4653 28.5421 97.6048 28.554C97.7559 28.554 97.9652 28.554 98.2326 28.554C98.7558 28.554 99.1859 28.5063 99.5231 28.4111C99.8719 28.3158 100.145 28.1789 100.343 28.0003C100.552 27.8217 100.697 27.6073 100.779 27.3573C100.86 27.1072 100.901 26.8274 100.901 26.5178C100.901 26.232 100.866 25.9701 100.796 25.7319C100.726 25.4938 100.587 25.2913 100.378 25.1246C100.18 24.946 99.8951 24.8091 99.5231 24.7138C99.1627 24.6186 98.6802 24.5709 98.0756 24.5709C97.8896 24.5709 97.721 24.5829 97.5699 24.6067C97.4304 24.6186 97.2676 24.6364 97.0816 24.6603V28.5004ZM103.656 20.3021H105.104V29.7685H103.656V20.3021ZM113.251 20.3021H114.698V24.2673H119.302V20.3021H120.75V29.7685H119.302V25.6783H114.698V29.7685H113.251V20.3021ZM129.043 28.4111C128.811 28.8397 128.45 29.2089 127.962 29.5185C127.485 29.8162 126.916 29.965 126.253 29.965C125.323 29.965 124.591 29.7269 124.056 29.2506C123.521 28.7624 123.254 28.0598 123.254 27.1429C123.254 26.619 123.317 26.1784 123.445 25.8212C123.585 25.4521 123.8 25.1544 124.091 24.9282C124.393 24.69 124.777 24.5174 125.242 24.4102C125.707 24.303 126.271 24.2494 126.933 24.2494H129.008V23.3564C129.008 22.9754 128.962 22.6658 128.869 22.4276C128.788 22.1776 128.654 21.987 128.468 21.8561C128.282 21.7132 128.043 21.6179 127.753 21.5703C127.474 21.5107 127.142 21.481 126.759 21.481C126.236 21.481 125.712 21.5822 125.189 21.7846C124.678 21.987 124.265 22.2252 123.951 22.4991V20.7844C124.137 20.6772 124.352 20.582 124.596 20.4986C124.852 20.4153 125.114 20.3498 125.381 20.3021C125.649 20.2426 125.916 20.2009 126.183 20.1771C126.451 20.1414 126.695 20.1235 126.916 20.1235C127.52 20.1235 128.044 20.1771 128.485 20.2843C128.939 20.3914 129.311 20.5701 129.601 20.8201C129.892 21.0702 130.107 21.4036 130.247 21.8203C130.386 22.2252 130.456 22.7313 130.456 23.3385V29.7685H129.131L129.043 28.4111ZM124.736 26.9107C124.736 27.4228 124.875 27.8217 125.154 28.1074C125.433 28.3932 125.893 28.5361 126.532 28.5361C127.392 28.5361 128.02 28.3099 128.416 27.8574C128.811 27.4049 129.008 26.8334 129.008 26.1427V25.339H126.986C126.544 25.339 126.178 25.3687 125.887 25.4283C125.596 25.4878 125.364 25.5831 125.189 25.7141C125.027 25.8331 124.91 25.9939 124.84 26.1963C124.771 26.3868 124.736 26.625 124.736 26.9107ZM133.49 20.3021H134.937V24.9103C134.937 25.47 134.925 26.0117 134.902 26.5357C134.879 27.0477 134.856 27.4228 134.832 27.6609L134.902 27.6966C135.123 27.3156 135.356 26.9465 135.6 26.5893C135.844 26.2201 136.094 25.8569 136.35 25.4997L139.855 20.3021H141.128V29.7685H139.681V25.9462C139.681 25.6009 139.681 25.2556 139.681 24.9103C139.692 24.5531 139.704 24.2137 139.715 23.8922C139.727 23.5707 139.739 23.279 139.75 23.017C139.762 22.7432 139.774 22.5229 139.785 22.3562L139.733 22.3383C139.582 22.6122 139.384 22.9575 139.14 23.3743C138.896 23.7791 138.64 24.1601 138.373 24.5174L134.78 29.7685H133.49V20.3021ZM135.949 16.1941C135.995 16.6466 136.111 17.0038 136.297 17.2658C136.495 17.5277 136.838 17.6587 137.326 17.6587C137.815 17.6587 138.158 17.5277 138.355 17.2658C138.564 17.0038 138.692 16.6466 138.739 16.1941H140.029C139.936 17.0752 139.646 17.7123 139.157 18.1052C138.681 18.4982 138.07 18.6946 137.326 18.6946C136.582 18.6946 135.966 18.4982 135.478 18.1052C135.001 17.7123 134.716 17.0752 134.623 16.1941H135.949ZM144.256 20.3021H146.174L149.104 25.9284L151.912 20.3021H153.743V29.7685H152.296V24.7853C152.296 24.2494 152.319 23.7196 152.365 23.1956C152.412 22.6598 152.458 22.124 152.505 21.5881C152.238 22.1954 151.988 22.767 151.755 23.3028C151.523 23.8267 151.307 24.2673 151.11 24.6245L149.505 27.4823H148.511L146.994 24.6424C146.796 24.2614 146.57 23.8089 146.314 23.2849C146.058 22.761 145.791 22.2014 145.512 21.606C145.558 22.1418 145.599 22.6836 145.634 23.2314C145.68 23.7672 145.704 24.309 145.704 24.8567V29.7685H144.256V20.3021ZM162.041 28.4111C161.809 28.8397 161.448 29.2089 160.96 29.5185C160.483 29.8162 159.914 29.965 159.251 29.965C158.321 29.965 157.588 29.7269 157.054 29.2506C156.519 28.7624 156.251 28.0598 156.251 27.1429C156.251 26.619 156.315 26.1784 156.443 25.8212C156.583 25.4521 156.798 25.1544 157.089 24.9282C157.391 24.69 157.774 24.5174 158.24 24.4102C158.705 24.303 159.268 24.2494 159.931 24.2494H162.006V23.3564C162.006 22.9754 161.96 22.6658 161.867 22.4276C161.785 22.1776 161.652 21.987 161.466 21.8561C161.28 21.7132 161.041 21.6179 160.751 21.5703C160.472 21.5107 160.14 21.481 159.757 21.481C159.234 21.481 158.71 21.5822 158.187 21.7846C157.676 21.987 157.263 22.2252 156.949 22.4991V20.7844C157.135 20.6772 157.35 20.582 157.594 20.4986C157.85 20.4153 158.112 20.3498 158.379 20.3021C158.646 20.2426 158.914 20.2009 159.181 20.1771C159.449 20.1414 159.693 20.1235 159.914 20.1235C160.518 20.1235 161.041 20.1771 161.483 20.2843C161.937 20.3914 162.309 20.5701 162.599 20.8201C162.89 21.0702 163.105 21.4036 163.245 21.8203C163.384 22.2252 163.454 22.7313 163.454 23.3385V29.7685H162.128L162.041 28.4111ZM157.734 26.9107C157.734 27.4228 157.873 27.8217 158.152 28.1074C158.431 28.3932 158.891 28.5361 159.53 28.5361C160.39 28.5361 161.018 28.3099 161.413 27.8574C161.809 27.4049 162.006 26.8334 162.006 26.1427V25.339H159.983C159.542 25.339 159.175 25.3687 158.885 25.4283C158.594 25.4878 158.362 25.5831 158.187 25.7141C158.024 25.8331 157.908 25.9939 157.838 26.1963C157.769 26.3868 157.734 26.625 157.734 26.9107Z" fill="#262626" fill-opacity="0.7"/>
</g>
<g filter="url(#filter1_dd_43_1241)">
<path d="M104.092 61.7696H21.9824C12.351 61.7696 4.54321 69.7663 4.54321 79.6307C4.54321 89.4951 12.351 97.4918 21.9824 97.4918H104.092C113.724 97.4918 121.531 89.4951 121.531 79.6307C121.531 69.7663 113.724 61.7696 104.092 61.7696Z" fill="white"/>
<path d="M23.9357 73.933C24.3077 73.8854 24.7728 73.8378 25.3308 73.7901C25.9005 73.7425 26.4818 73.7187 27.0747 73.7187C28.0048 73.7187 28.7954 73.802 29.4465 73.9687C30.0975 74.1354 30.6265 74.3915 31.0334 74.7368C31.4404 75.0702 31.731 75.4929 31.9054 76.0049C32.0914 76.505 32.1844 77.1004 32.1844 77.791C32.1844 79.3747 31.7833 80.5357 30.9811 81.2739C30.1905 82.0122 28.8884 82.3813 27.0747 82.3813C26.8422 82.3813 26.5864 82.3754 26.3074 82.3635C26.0284 82.3516 25.761 82.3337 25.5052 82.3099V86.3286H23.9357V73.933ZM25.5052 80.8989C25.761 80.9227 26.0168 80.9405 26.2725 80.9524C26.5399 80.9643 26.8073 80.9703 27.0747 80.9703C27.7142 80.9703 28.2548 80.9227 28.6966 80.8274C29.1384 80.7202 29.493 80.5476 29.7604 80.3094C30.0394 80.0713 30.237 79.7617 30.3533 79.3807C30.4812 78.9996 30.5451 78.5233 30.5451 77.9518C30.5451 77.4278 30.487 76.9873 30.3707 76.6301C30.2545 76.2728 30.0568 75.9871 29.7778 75.7727C29.5104 75.5465 29.1616 75.3857 28.7315 75.2905C28.3013 75.1952 27.7723 75.1476 27.1445 75.1476C26.8771 75.1476 26.5981 75.1535 26.3074 75.1654C26.0284 75.1773 25.761 75.1952 25.5052 75.219V80.8989ZM39.8203 84.9712C39.5878 85.3999 39.2274 85.769 38.7391 86.0786C38.2624 86.3763 37.6928 86.5251 37.0301 86.5251C36.1 86.5251 35.3675 86.287 34.8327 85.8107C34.2979 85.3225 34.0305 84.6199 34.0305 83.703C34.0305 83.1791 34.0945 82.7385 34.2223 82.3813C34.3619 82.0122 34.5769 81.7145 34.8676 81.4883C35.1699 81.2501 35.5535 81.0775 36.0186 80.9703C36.4836 80.8631 37.0475 80.8095 37.7102 80.8095H39.7855V79.9165C39.7855 79.5355 39.739 79.2259 39.6459 78.9877C39.5646 78.7377 39.4309 78.5471 39.2448 78.4162C39.0588 78.2733 38.8205 78.178 38.5298 78.1304C38.2508 78.0708 37.9195 78.0411 37.5358 78.0411C37.0126 78.0411 36.4894 78.1423 35.9663 78.3447C35.4547 78.5471 35.042 78.7853 34.7281 79.0592V77.3445C34.9141 77.2373 35.1292 77.1421 35.3733 77.0587C35.6291 76.9754 35.8907 76.9099 36.1581 76.8622C36.4255 76.8027 36.6929 76.761 36.9603 76.7372C37.2277 76.7015 37.4719 76.6836 37.6928 76.6836C38.2973 76.6836 38.8205 76.7372 39.2623 76.8444C39.7157 76.9515 40.0877 77.1302 40.3784 77.3802C40.669 77.6303 40.8841 77.9637 41.0236 78.3804C41.1632 78.7853 41.2329 79.2914 41.2329 79.8986V86.3286H39.9075L39.8203 84.9712ZM35.5128 83.4709C35.5128 83.9829 35.6524 84.3818 35.9314 84.6675C36.2104 84.9533 36.6697 85.0962 37.3091 85.0962C38.1694 85.0962 38.7972 84.87 39.1925 84.4175C39.5878 83.965 39.7855 83.3935 39.7855 82.7028V81.8991H37.7625C37.3207 81.8991 36.9545 81.9288 36.6638 81.9884C36.3732 82.0479 36.1407 82.1432 35.9663 82.2742C35.8035 82.3932 35.6872 82.554 35.6175 82.7564C35.5477 82.9469 35.5128 83.1851 35.5128 83.4709ZM50.7108 78.8448C50.4317 78.6424 50.0713 78.4697 49.6295 78.3269C49.1878 78.1721 48.7053 78.0947 48.1821 78.0947C47.7635 78.0947 47.3799 78.1542 47.0311 78.2733C46.6823 78.3804 46.38 78.565 46.1243 78.827C45.8801 79.0889 45.6883 79.4462 45.5488 79.8986C45.4209 80.3392 45.3569 80.8869 45.3569 81.5419C45.3569 82.2087 45.4267 82.7683 45.5662 83.2208C45.7057 83.6733 45.9092 84.0424 46.1766 84.3282C46.4556 84.6021 46.7869 84.7985 47.1706 84.9176C47.5659 85.0367 48.0193 85.0962 48.5309 85.0962C49.0075 85.0962 49.461 85.0248 49.8911 84.8819C50.3329 84.739 50.705 84.5366 51.0072 84.2746V85.8821C50.7631 86.0845 50.4085 86.2393 49.9435 86.3465C49.49 86.4656 48.9494 86.5251 48.3216 86.5251C47.624 86.5251 46.9962 86.4418 46.4382 86.275C45.8917 86.0964 45.4267 85.8047 45.043 85.3999C44.6594 84.995 44.3629 84.4711 44.1536 83.8281C43.956 83.1732 43.8572 82.3694 43.8572 81.4168C43.8572 79.7855 44.2292 78.5888 44.9733 77.8267C45.729 77.0647 46.8625 76.6836 48.3739 76.6836C48.9436 76.6836 49.4086 76.7313 49.7691 76.8265C50.1295 76.9099 50.4434 77.023 50.7108 77.1659V78.8448ZM53.6303 76.8622H60.9897V86.3286H59.5422V78.2554H55.0778V86.3286H53.6303V76.8622ZM64.3595 76.8622H65.807V81.4704C65.807 82.0301 65.7953 82.5718 65.7721 83.0958C65.7488 83.6078 65.7256 83.9829 65.7023 84.221L65.7721 84.2567C65.993 83.8757 66.2255 83.5066 66.4697 83.1493C66.7138 82.7802 66.9638 82.417 67.2195 82.0598L70.7248 76.8622H71.9979V86.3286H70.5504V82.5064C70.5504 82.161 70.5504 81.8157 70.5504 81.4704C70.5621 81.1132 70.5737 80.7738 70.5853 80.4523C70.5969 80.1308 70.6086 79.8391 70.6202 79.5771C70.6318 79.3033 70.6434 79.083 70.6551 78.9163L70.6028 78.8984C70.4516 79.1723 70.254 79.5176 70.0098 79.9344C69.7657 80.3392 69.5099 80.7202 69.2425 81.0775L65.65 86.3286H64.3595V76.8622ZM81.5701 78.8448C81.2911 78.6424 80.9307 78.4697 80.4889 78.3269C80.0471 78.1721 79.5646 78.0947 79.0415 78.0947C78.6229 78.0947 78.2393 78.1542 77.8905 78.2733C77.5417 78.3804 77.2394 78.565 76.9836 78.827C76.7395 79.0889 76.5476 79.4462 76.4081 79.8986C76.2802 80.3392 76.2163 80.8869 76.2163 81.5419C76.2163 82.2087 76.2861 82.7683 76.4256 83.2208C76.5651 83.6733 76.7685 84.0424 77.0359 84.3282C77.315 84.6021 77.6463 84.7985 78.03 84.9176C78.4253 85.0367 78.8787 85.0962 79.3902 85.0962C79.8669 85.0962 80.3203 85.0248 80.7505 84.8819C81.1923 84.739 81.5643 84.5366 81.8666 84.2746V85.8821C81.6225 86.0845 81.2679 86.2393 80.8028 86.3465C80.3494 86.4656 79.8088 86.5251 79.181 86.5251C78.4834 86.5251 77.8556 86.4418 77.2975 86.275C76.7511 86.0964 76.2861 85.8047 75.9024 85.3999C75.5187 84.995 75.2223 84.4711 75.013 83.8281C74.8154 83.1732 74.7165 82.3694 74.7165 81.4168C74.7165 79.7855 75.0886 78.5888 75.8326 77.8267C76.5883 77.0647 77.7219 76.6836 79.2333 76.6836C79.803 76.6836 80.268 76.7313 80.6284 76.8265C80.9888 76.9099 81.3027 77.023 81.5701 77.1659V78.8448ZM87.4544 82.042H85.9372V86.3286H84.4898V76.8622H85.9372V80.881H87.4719L90.5586 76.8622H92.2153L88.6926 81.3632L92.5816 86.3286H90.8202L87.4544 82.042ZM94.606 76.8622H96.0534V81.4704C96.0534 82.0301 96.0418 82.5718 96.0186 83.0958C95.9953 83.6078 95.972 83.9829 95.9488 84.221L96.0186 84.2567C96.2394 83.8757 96.472 83.5066 96.7161 83.1493C96.9603 82.7802 97.2102 82.417 97.466 82.0598L100.971 76.8622H102.244V86.3286H100.797V82.5064C100.797 82.161 100.797 81.8157 100.797 81.4704C100.809 81.1132 100.82 80.7738 100.832 80.4523C100.843 80.1308 100.855 79.8391 100.867 79.5771C100.878 79.3033 100.89 79.083 100.902 78.9163L100.849 78.8984C100.698 79.1723 100.5 79.5176 100.256 79.9344C100.012 80.3392 99.7564 80.7202 99.4889 81.0775L95.8965 86.3286H94.606V76.8622Z" fill="#262626" fill-opacity="0.7"/>
</g>
<g filter="url(#filter2_dd_43_1241)">
<path d="M201.461 61.7696H157.863C148.232 61.7696 140.424 69.7663 140.424 79.6307C140.424 89.4951 148.232 97.4918 157.863 97.4918H201.461C211.093 97.4918 218.9 89.4951 218.9 79.6307C218.9 69.7663 211.093 61.7696 201.461 61.7696Z" fill="white"/>
<path d="M166.321 82.9885H161.107L159.903 86.3286H158.299L162.955 73.8258H164.542L169.268 86.3286H167.542L166.321 82.9885ZM161.63 81.5597H165.798L163.705 75.8263L161.63 81.5597ZM174.338 82.0419H172.821V86.3286H171.373V76.8622H172.821V80.8809H174.356L177.442 76.8622H179.099L175.576 81.3632L179.465 86.3286H177.704L174.338 82.0419ZM183.299 78.2554H180.299V76.8622H187.729V78.2554H184.746V86.3286H183.299V78.2554ZM191.163 79.9879C191.395 79.9641 191.61 79.9462 191.808 79.9343C192.005 79.9224 192.215 79.9164 192.436 79.9164C193.168 79.9164 193.79 79.9819 194.302 80.1129C194.813 80.232 195.226 80.4225 195.54 80.6845C195.854 80.9345 196.08 81.256 196.22 81.649C196.359 82.03 196.429 82.4884 196.429 83.0243C196.429 83.5006 196.359 83.9471 196.22 84.3639C196.08 84.7806 195.842 85.1438 195.505 85.4534C195.179 85.763 194.743 86.0071 194.197 86.1857C193.651 86.3643 192.97 86.4536 192.157 86.4536C191.75 86.4536 191.343 86.4417 190.936 86.4179C190.529 86.406 190.122 86.3762 189.715 86.3286V76.8622H191.163V79.9879ZM191.163 85.0604C191.372 85.0842 191.546 85.1021 191.686 85.114C191.837 85.114 192.046 85.114 192.314 85.114C192.837 85.114 193.267 85.0664 193.604 84.9711C193.953 84.8759 194.226 84.7389 194.424 84.5603C194.633 84.3817 194.778 84.1674 194.86 83.9173C194.941 83.6673 194.982 83.3874 194.982 83.0779C194.982 82.7921 194.947 82.5301 194.877 82.292C194.807 82.0538 194.668 81.8514 194.459 81.6847C194.261 81.5061 193.976 81.3691 193.604 81.2739C193.244 81.1786 192.761 81.131 192.157 81.131C191.971 81.131 191.802 81.1429 191.651 81.1667C191.511 81.1786 191.349 81.1965 191.163 81.2203V85.0604ZM197.737 76.8622H199.185V86.3286H197.737V76.8622Z" fill="#262626" fill-opacity="0.7"/>
</g>
<g filter="url(#filter3_dd_43_1241)">
<path d="M274.851 115.353H21.9824C12.351 115.353 4.54321 123.35 4.54321 133.214C4.54321 143.078 12.351 151.075 21.9824 151.075H274.851C284.483 151.075 292.291 143.078 292.291 133.214C292.291 123.35 284.483 115.353 274.851 115.353Z" fill="white"/>
<path d="M22.1569 138.483H23.4474C23.7961 137.614 24.1159 136.465 24.4065 135.036C24.7088 133.607 24.8716 131.928 24.8948 129.999L24.9297 127.409H32.3239V138.483H33.8935V142.234H32.4286V139.912H23.6218V142.234H22.1569V138.483ZM30.7544 128.838H26.4469L26.4295 130.053C26.4178 130.874 26.3713 131.684 26.29 132.482C26.2202 133.268 26.1214 134.024 25.9935 134.75C25.8772 135.476 25.7377 136.155 25.5749 136.786C25.4238 137.417 25.261 137.983 25.0867 138.483H30.7544V128.838ZM35.5463 135.143C35.5463 134.321 35.6567 133.607 35.8776 133C36.0985 132.392 36.4066 131.886 36.8019 131.481C37.1972 131.077 37.668 130.773 38.2145 130.571C38.7725 130.368 39.3829 130.267 40.0456 130.267C40.6734 130.267 41.2431 130.362 41.7546 130.553C42.2662 130.743 42.6963 131.041 43.0451 131.446C43.4055 131.851 43.6846 132.363 43.8822 132.982C44.0799 133.601 44.1787 134.339 44.1787 135.197C44.1787 136.09 44.0624 136.846 43.8299 137.465C43.609 138.084 43.3009 138.59 42.9056 138.983C42.522 139.376 42.0685 139.662 41.5454 139.84C41.0222 140.019 40.4583 140.108 39.8538 140.108C38.4702 140.108 37.4064 139.674 36.6624 138.805C35.9183 137.935 35.5463 136.715 35.5463 135.143ZM36.9937 135.197C36.9937 136.328 37.2437 137.209 37.7436 137.84C38.2552 138.459 38.9992 138.769 39.9758 138.769C40.8362 138.769 41.5105 138.489 41.9988 137.929C42.4871 137.358 42.7312 136.447 42.7312 135.197V135.143C42.7312 133.94 42.4813 133.047 41.9813 132.464C41.493 131.88 40.7838 131.589 39.8538 131.589C38.9353 131.589 38.2261 131.892 37.7262 132.5C37.2379 133.095 36.9937 133.976 36.9937 135.143V135.197ZM46.9033 130.446H52.7454V131.839H48.3507V139.912H46.9033V130.446ZM54.1435 135.143C54.1435 134.321 54.254 133.607 54.4749 133C54.6958 132.392 55.0039 131.886 55.3992 131.481C55.7944 131.077 56.2653 130.773 56.8117 130.571C57.3698 130.368 57.9802 130.267 58.6429 130.267C59.2707 130.267 59.8403 130.362 60.3519 130.553C60.8634 130.743 61.2936 131.041 61.6424 131.446C62.0028 131.851 62.2818 132.363 62.4795 132.982C62.6771 133.601 62.7759 134.339 62.7759 135.197C62.7759 136.09 62.6597 136.846 62.4272 137.465C62.2063 138.084 61.8982 138.59 61.5029 138.983C61.1192 139.376 60.6658 139.662 60.1426 139.84C59.6194 140.019 59.0556 140.108 58.451 140.108C57.0675 140.108 56.0037 139.674 55.2596 138.805C54.5156 137.935 54.1435 136.715 54.1435 135.143ZM55.591 135.197C55.591 136.328 55.841 137.209 56.3409 137.84C56.8524 138.459 57.5965 138.769 58.5731 138.769C59.4334 138.769 60.1077 138.489 60.596 137.929C61.0843 137.358 61.3285 136.447 61.3285 135.197V135.143C61.3285 133.94 61.0785 133.047 60.5786 132.464C60.0903 131.88 59.3811 131.589 58.451 131.589C57.5326 131.589 56.8234 131.892 56.3234 132.5C55.8351 133.095 55.591 133.976 55.591 135.143V135.197ZM65.5005 130.428C65.8377 130.404 66.2621 130.38 66.7736 130.356C67.2968 130.332 67.9188 130.32 68.6396 130.32C69.3837 130.32 69.994 130.374 70.4707 130.481C70.9474 130.588 71.3252 130.737 71.6043 130.928C71.8833 131.118 72.0751 131.356 72.1798 131.642C72.296 131.916 72.3542 132.22 72.3542 132.553C72.3542 133.16 72.2205 133.649 71.9531 134.018C71.6857 134.375 71.2206 134.649 70.5579 134.839C71.3369 134.911 71.9007 135.107 72.2495 135.429C72.6099 135.75 72.7901 136.304 72.7901 137.09C72.7901 137.53 72.7262 137.935 72.5983 138.304C72.4704 138.662 72.2495 138.971 71.9356 139.233C71.6333 139.495 71.2206 139.698 70.6974 139.84C70.1859 139.983 69.5464 140.055 68.7791 140.055C68.4768 140.055 68.1629 140.049 67.8374 140.037C67.5235 140.037 67.2212 140.031 66.9306 140.019C66.6399 140.007 66.3725 139.989 66.1284 139.965C65.8842 139.954 65.6749 139.942 65.5005 139.93V130.428ZM66.948 138.679C67.2503 138.703 67.5526 138.727 67.8548 138.751C68.1687 138.763 68.4943 138.769 68.8314 138.769C69.3081 138.769 69.7034 138.745 70.0173 138.697C70.3428 138.638 70.6044 138.543 70.8021 138.412C70.9997 138.281 71.1392 138.108 71.2206 137.894C71.302 137.679 71.3427 137.417 71.3427 137.108C71.3427 136.572 71.1625 136.203 70.8021 136C70.4533 135.786 69.8836 135.679 69.093 135.679H66.948V138.679ZM69.093 134.411C69.6395 134.411 70.0754 134.298 70.401 134.071C70.7265 133.845 70.8893 133.482 70.8893 132.982C70.8893 132.446 70.7265 132.083 70.401 131.892C70.0871 131.702 69.5348 131.606 68.7442 131.606C68.3024 131.606 67.942 131.606 67.663 131.606C67.384 131.606 67.1456 131.612 66.948 131.624V134.411H69.093ZM74.8866 135.143C74.8866 134.321 74.997 133.607 75.2179 133C75.4388 132.392 75.7469 131.886 76.1422 131.481C76.5375 131.077 77.0083 130.773 77.5548 130.571C78.1128 130.368 78.7232 130.267 79.3859 130.267C80.0137 130.267 80.5834 130.362 81.0949 130.553C81.6065 130.743 82.0366 131.041 82.3854 131.446C82.7458 131.851 83.0249 132.363 83.2225 132.982C83.4201 133.601 83.519 134.339 83.519 135.197C83.519 136.09 83.4027 136.846 83.1702 137.465C82.9493 138.084 82.6412 138.59 82.2459 138.983C81.8622 139.376 81.4088 139.662 80.8856 139.84C80.3625 140.019 79.7986 140.108 79.194 140.108C77.8105 140.108 76.7467 139.674 76.0027 138.805C75.2586 137.935 74.8866 136.715 74.8866 135.143ZM76.334 135.197C76.334 136.328 76.584 137.209 77.0839 137.84C77.5954 138.459 78.3395 138.769 79.3161 138.769C80.1765 138.769 80.8508 138.489 81.3391 137.929C81.8274 137.358 82.0715 136.447 82.0715 135.197V135.143C82.0715 133.94 81.8216 133.047 81.3216 132.464C80.8333 131.88 80.1241 131.589 79.194 131.589C78.2756 131.589 77.5664 131.892 77.0665 132.5C76.5782 133.095 76.334 133.976 76.334 135.143V135.197ZM86.2264 130.446H87.5518L87.639 132.107C88.1273 130.88 89.2027 130.267 90.8652 130.267C92.0627 130.267 92.958 130.636 93.5509 131.374C94.1438 132.101 94.4403 133.303 94.4403 134.982C94.4403 135.899 94.3589 136.685 94.1961 137.34C94.0334 137.983 93.7892 138.513 93.4637 138.93C93.1498 139.334 92.7545 139.632 92.2778 139.823C91.8011 140.013 91.2489 140.108 90.6211 140.108C89.8305 140.108 89.1969 139.965 88.7202 139.68C88.2552 139.382 87.9064 139.037 87.6739 138.644V143.127H86.2264V130.446ZM87.6739 136.107C87.6739 136.929 87.9006 137.578 88.354 138.054C88.819 138.531 89.4759 138.769 90.3246 138.769C90.8129 138.769 91.2257 138.703 91.5628 138.572C91.9 138.441 92.1732 138.227 92.3825 137.929C92.5917 137.632 92.7429 137.251 92.8359 136.786C92.9405 136.322 92.9928 135.75 92.9928 135.072C92.9928 134.429 92.9347 133.887 92.8184 133.446C92.7022 132.994 92.5336 132.636 92.3127 132.375C92.0918 132.101 91.8128 131.904 91.4756 131.785C91.1501 131.666 90.7722 131.606 90.3421 131.606C89.8887 131.606 89.4934 131.672 89.1562 131.803C88.819 131.934 88.54 132.119 88.3191 132.357C88.0982 132.583 87.9355 132.857 87.8308 133.178C87.7262 133.5 87.6739 133.845 87.6739 134.214V136.107ZM98.6075 133.571C98.8401 133.547 99.0551 133.53 99.2528 133.518C99.4504 133.506 99.6597 133.5 99.8806 133.5C100.613 133.5 101.235 133.565 101.747 133.696C102.258 133.815 102.671 134.006 102.985 134.268C103.299 134.518 103.525 134.839 103.665 135.232C103.804 135.613 103.874 136.072 103.874 136.608C103.874 137.084 103.804 137.53 103.665 137.947C103.525 138.364 103.287 138.727 102.95 139.037C102.624 139.346 102.188 139.59 101.642 139.769C101.096 139.948 100.415 140.037 99.6016 140.037C99.1947 140.037 98.7877 140.025 98.3808 140.001C97.9739 139.989 97.567 139.96 97.1601 139.912V130.446H98.6075V133.571ZM98.6075 138.644C98.8168 138.668 98.9912 138.685 99.1307 138.697C99.2819 138.697 99.4911 138.697 99.7585 138.697C100.282 138.697 100.712 138.65 101.049 138.554C101.398 138.459 101.671 138.322 101.869 138.144C102.078 137.965 102.223 137.751 102.305 137.501C102.386 137.251 102.427 136.971 102.427 136.661C102.427 136.375 102.392 136.113 102.322 135.875C102.252 135.637 102.113 135.435 101.904 135.268C101.706 135.089 101.421 134.952 101.049 134.857C100.689 134.762 100.206 134.714 99.6016 134.714C99.4156 134.714 99.247 134.726 99.0958 134.75C98.9563 134.762 98.7936 134.78 98.6075 134.804V138.644ZM105.182 130.446H106.63V139.912H105.182V130.446ZM114.585 135.143C114.585 134.321 114.695 133.607 114.916 133C115.137 132.392 115.445 131.886 115.84 131.481C116.236 131.077 116.707 130.773 117.253 130.571C117.811 130.368 118.421 130.267 119.084 130.267C119.712 130.267 120.282 130.362 120.793 130.553C121.305 130.743 121.735 131.041 122.084 131.446C122.444 131.851 122.723 132.363 122.921 132.982C123.118 133.601 123.217 134.339 123.217 135.197C123.217 136.09 123.101 136.846 122.868 137.465C122.648 138.084 122.339 138.59 121.944 138.983C121.56 139.376 121.107 139.662 120.584 139.84C120.061 140.019 119.497 140.108 118.892 140.108C117.509 140.108 116.445 139.674 115.701 138.805C114.957 137.935 114.585 136.715 114.585 135.143ZM116.032 135.197C116.032 136.328 116.282 137.209 116.782 137.84C117.294 138.459 118.038 138.769 119.014 138.769C119.875 138.769 120.549 138.489 121.037 137.929C121.526 137.358 121.77 136.447 121.77 135.197V135.143C121.77 133.94 121.52 133.047 121.02 132.464C120.532 131.88 119.822 131.589 118.892 131.589C117.974 131.589 117.265 131.892 116.765 132.5C116.276 133.095 116.032 133.976 116.032 135.143V135.197ZM133.284 127.874C133.11 127.969 132.784 128.046 132.307 128.106C131.831 128.165 131.11 128.225 130.145 128.284C129.517 128.32 129 128.421 128.593 128.588C128.186 128.743 127.86 128.981 127.616 129.302C127.372 129.624 127.192 130.035 127.076 130.535C126.959 131.035 126.872 131.642 126.814 132.357L126.866 132.375C127.273 131.767 127.779 131.315 128.384 131.017C129 130.719 129.657 130.571 130.354 130.571C130.924 130.571 131.435 130.642 131.889 130.785C132.354 130.916 132.749 131.148 133.075 131.481C133.4 131.815 133.65 132.267 133.825 132.839C133.999 133.399 134.086 134.107 134.086 134.964C134.086 135.869 133.993 136.649 133.807 137.304C133.621 137.947 133.342 138.477 132.97 138.894C132.61 139.299 132.162 139.602 131.627 139.805C131.092 139.995 130.482 140.091 129.796 140.091C128.308 140.091 127.204 139.62 126.483 138.679C125.762 137.727 125.401 136.221 125.401 134.161C125.401 132.934 125.477 131.88 125.628 130.999C125.779 130.106 126.018 129.362 126.343 128.767C126.68 128.171 127.11 127.713 127.634 127.391C128.168 127.07 128.814 126.855 129.569 126.748C129.79 126.713 130.075 126.683 130.424 126.659C130.773 126.623 131.127 126.588 131.488 126.552C131.86 126.504 132.209 126.451 132.534 126.391C132.86 126.32 133.11 126.236 133.284 126.141V127.874ZM129.831 138.679C130.749 138.679 131.43 138.406 131.871 137.858C132.325 137.298 132.552 136.393 132.552 135.143C132.552 134.512 132.493 133.994 132.377 133.589C132.261 133.172 132.086 132.845 131.854 132.607C131.633 132.357 131.354 132.184 131.017 132.089C130.691 131.982 130.319 131.928 129.901 131.928C129.006 131.928 128.279 132.178 127.721 132.678C127.174 133.166 126.901 133.875 126.901 134.804C126.901 135.506 126.965 136.107 127.093 136.608C127.221 137.096 127.407 137.495 127.651 137.804C127.907 138.114 128.215 138.34 128.575 138.483C128.947 138.614 129.366 138.679 129.831 138.679ZM141.408 135.143C141.408 134.321 141.518 133.607 141.739 133C141.96 132.392 142.268 131.886 142.663 131.481C143.059 131.077 143.53 130.773 144.076 130.571C144.634 130.368 145.244 130.267 145.907 130.267C146.535 130.267 147.105 130.362 147.616 130.553C148.128 130.743 148.558 131.041 148.907 131.446C149.267 131.851 149.546 132.363 149.744 132.982C149.941 133.601 150.04 134.339 150.04 135.197C150.04 136.09 149.924 136.846 149.691 137.465C149.47 138.084 149.162 138.59 148.767 138.983C148.383 139.376 147.93 139.662 147.407 139.84C146.884 140.019 146.32 140.108 145.715 140.108C144.332 140.108 143.268 139.674 142.524 138.805C141.78 137.935 141.408 136.715 141.408 135.143ZM142.855 135.197C142.855 136.328 143.105 137.209 143.605 137.84C144.117 138.459 144.861 138.769 145.837 138.769C146.698 138.769 147.372 138.489 147.86 137.929C148.349 137.358 148.593 136.447 148.593 135.197V135.143C148.593 133.94 148.343 133.047 147.843 132.464C147.355 131.88 146.645 131.589 145.715 131.589C144.797 131.589 144.088 131.892 143.588 132.5C143.099 133.095 142.855 133.976 142.855 135.143V135.197ZM155.73 135.625H154.213V139.912H152.765V130.446H154.213V134.464H155.747L158.834 130.446H160.491L156.968 134.947L160.857 139.912H159.095L155.73 135.625ZM168.043 138.554C167.811 138.983 167.45 139.352 166.962 139.662C166.485 139.96 165.916 140.108 165.253 140.108C164.323 140.108 163.59 139.87 163.056 139.394C162.521 138.906 162.253 138.203 162.253 137.286C162.253 136.762 162.317 136.322 162.445 135.965C162.585 135.595 162.8 135.298 163.091 135.072C163.393 134.833 163.776 134.661 164.242 134.554C164.707 134.446 165.27 134.393 165.933 134.393H168.008V133.5C168.008 133.119 167.962 132.809 167.869 132.571C167.788 132.321 167.654 132.13 167.468 131.999C167.282 131.857 167.043 131.761 166.753 131.714C166.474 131.654 166.142 131.624 165.759 131.624C165.236 131.624 164.712 131.726 164.189 131.928C163.678 132.13 163.265 132.369 162.951 132.642V130.928C163.137 130.821 163.352 130.725 163.596 130.642C163.852 130.559 164.114 130.493 164.381 130.446C164.648 130.386 164.916 130.344 165.183 130.32C165.451 130.285 165.695 130.267 165.916 130.267C166.52 130.267 167.043 130.32 167.485 130.428C167.939 130.535 168.311 130.713 168.601 130.963C168.892 131.214 169.107 131.547 169.247 131.964C169.386 132.369 169.456 132.875 169.456 133.482V139.912H168.13L168.043 138.554ZM163.736 137.054C163.736 137.566 163.875 137.965 164.154 138.251C164.433 138.537 164.893 138.679 165.532 138.679C166.392 138.679 167.02 138.453 167.415 138.001C167.811 137.548 168.008 136.977 168.008 136.286V135.482H165.985C165.544 135.482 165.177 135.512 164.887 135.572C164.596 135.631 164.364 135.726 164.189 135.857C164.026 135.977 163.91 136.137 163.84 136.34C163.771 136.53 163.736 136.768 163.736 137.054ZM172.08 137.715C172.382 137.965 172.806 138.203 173.353 138.429C173.911 138.656 174.562 138.769 175.306 138.769C176.015 138.769 176.544 138.644 176.893 138.394C177.253 138.144 177.434 137.715 177.434 137.108C177.434 136.846 177.393 136.625 177.312 136.447C177.23 136.268 177.091 136.125 176.893 136.018C176.695 135.911 176.434 135.84 176.108 135.804C175.794 135.756 175.393 135.732 174.905 135.732H173.702V134.554H175.097C175.759 134.554 176.236 134.429 176.527 134.178C176.829 133.917 176.98 133.524 176.98 133C176.98 132.511 176.852 132.154 176.596 131.928C176.341 131.702 175.841 131.589 175.097 131.589C174.411 131.589 173.853 131.684 173.423 131.874C173.004 132.053 172.615 132.285 172.254 132.571V130.838C172.417 130.767 172.591 130.702 172.777 130.642C172.963 130.571 173.178 130.511 173.423 130.463C173.667 130.404 173.946 130.356 174.26 130.32C174.574 130.285 174.94 130.267 175.358 130.267C176.498 130.267 177.294 130.475 177.747 130.892C178.213 131.297 178.445 131.857 178.445 132.571C178.445 133.238 178.346 133.768 178.149 134.161C177.951 134.542 177.561 134.816 176.98 134.982C177.55 135.018 178.009 135.208 178.358 135.554C178.707 135.887 178.881 136.375 178.881 137.018C178.881 138.09 178.573 138.876 177.957 139.376C177.352 139.864 176.329 140.108 174.887 140.108C174.678 140.108 174.446 140.096 174.19 140.073C173.934 140.049 173.678 140.007 173.423 139.948C173.178 139.9 172.934 139.846 172.69 139.787C172.458 139.715 172.254 139.632 172.08 139.537V137.715ZM186.759 138.554C186.527 138.983 186.166 139.352 185.678 139.662C185.201 139.96 184.632 140.108 183.969 140.108C183.039 140.108 182.306 139.87 181.772 139.394C181.237 138.906 180.969 138.203 180.969 137.286C180.969 136.762 181.033 136.322 181.161 135.965C181.301 135.595 181.516 135.298 181.806 135.072C182.109 134.833 182.492 134.661 182.957 134.554C183.423 134.446 183.986 134.393 184.649 134.393H186.724V133.5C186.724 133.119 186.678 132.809 186.585 132.571C186.503 132.321 186.37 132.13 186.184 131.999C185.998 131.857 185.759 131.761 185.469 131.714C185.19 131.654 184.858 131.624 184.475 131.624C183.951 131.624 183.428 131.726 182.905 131.928C182.394 132.13 181.981 132.369 181.667 132.642V130.928C181.853 130.821 182.068 130.725 182.312 130.642C182.568 130.559 182.83 130.493 183.097 130.446C183.364 130.386 183.632 130.344 183.899 130.32C184.167 130.285 184.411 130.267 184.632 130.267C185.236 130.267 185.759 130.32 186.201 130.428C186.655 130.535 187.027 130.713 187.317 130.963C187.608 131.214 187.823 131.547 187.963 131.964C188.102 132.369 188.172 132.875 188.172 133.482V139.912H186.846L186.759 138.554ZM182.452 137.054C182.452 137.566 182.591 137.965 182.87 138.251C183.149 138.537 183.609 138.679 184.248 138.679C185.108 138.679 185.736 138.453 186.131 138.001C186.527 137.548 186.724 136.977 186.724 136.286V135.482H184.701C184.26 135.482 183.893 135.512 183.603 135.572C183.312 135.631 183.08 135.726 182.905 135.857C182.742 135.977 182.626 136.137 182.556 136.34C182.487 136.53 182.452 136.768 182.452 137.054ZM191.424 130.446H192.872V134.411H197.476V130.446H198.923V139.912H197.476V135.822H192.872V139.912H191.424V130.446ZM202.273 130.446H203.72V135.054C203.72 135.613 203.709 136.155 203.685 136.679C203.662 137.191 203.639 137.566 203.616 137.804L203.685 137.84C203.906 137.459 204.139 137.09 204.383 136.733C204.627 136.363 204.877 136 205.133 135.643L208.638 130.446H209.911V139.912H208.464V136.09C208.464 135.744 208.464 135.399 208.464 135.054C208.475 134.696 208.487 134.357 208.499 134.036C208.51 133.714 208.522 133.422 208.534 133.16C208.545 132.887 208.557 132.666 208.568 132.5L208.516 132.482C208.365 132.756 208.167 133.101 207.923 133.518C207.679 133.922 207.423 134.304 207.156 134.661L203.563 139.912H202.273V130.446ZM213.257 130.446H214.705V135.054C214.705 135.613 214.693 136.155 214.67 136.679C214.647 137.191 214.623 137.566 214.6 137.804L214.67 137.84C214.891 137.459 215.123 137.09 215.368 136.733C215.612 136.363 215.862 136 216.117 135.643L219.623 130.446H220.896V139.912H219.448V136.09C219.448 135.744 219.448 135.399 219.448 135.054C219.46 134.696 219.472 134.357 219.483 134.036C219.495 133.714 219.506 133.422 219.518 133.16C219.53 132.887 219.541 132.666 219.553 132.5L219.501 132.482C219.349 132.756 219.152 133.101 218.908 133.518C218.664 133.922 218.408 134.304 218.14 134.661L214.548 139.912H213.257V130.446ZM230.482 141.841C230.644 141.841 230.79 141.817 230.918 141.769C231.057 141.734 231.185 141.65 231.301 141.519C231.429 141.388 231.551 141.198 231.667 140.948C231.795 140.698 231.929 140.364 232.069 139.948L228.319 130.446H229.993L232.818 138.001L235.173 130.446H236.725L233.533 139.59C233.231 140.472 232.94 141.156 232.661 141.644C232.394 142.133 232.138 142.496 231.894 142.734C231.65 142.972 231.412 143.115 231.179 143.163C230.947 143.222 230.72 143.252 230.499 143.252C230.127 143.252 229.854 143.204 229.679 143.109V141.627C229.923 141.769 230.191 141.841 230.482 141.841ZM244.773 132.428C244.494 132.226 244.134 132.053 243.692 131.91C243.25 131.755 242.767 131.678 242.244 131.678C241.826 131.678 241.442 131.737 241.093 131.857C240.745 131.964 240.442 132.148 240.186 132.41C239.942 132.672 239.751 133.029 239.611 133.482C239.483 133.922 239.419 134.47 239.419 135.125C239.419 135.792 239.489 136.352 239.628 136.804C239.768 137.257 239.971 137.626 240.239 137.911C240.518 138.185 240.849 138.382 241.233 138.501C241.628 138.62 242.082 138.679 242.593 138.679C243.07 138.679 243.523 138.608 243.953 138.465C244.395 138.322 244.767 138.12 245.069 137.858V139.465C244.825 139.668 244.471 139.823 244.006 139.93C243.552 140.049 243.012 140.108 242.384 140.108C241.686 140.108 241.058 140.025 240.5 139.858C239.954 139.68 239.489 139.388 239.105 138.983C238.722 138.578 238.425 138.054 238.216 137.411C238.018 136.756 237.919 135.953 237.919 135C237.919 133.369 238.291 132.172 239.035 131.41C239.791 130.648 240.925 130.267 242.436 130.267C243.006 130.267 243.471 130.315 243.831 130.41C244.192 130.493 244.506 130.606 244.773 130.749V132.428ZM246.797 138.251C246.937 138.298 247.088 138.322 247.251 138.322C247.367 138.322 247.489 138.304 247.617 138.269C247.745 138.233 247.867 138.15 247.983 138.019C248.1 137.876 248.21 137.667 248.315 137.393C248.431 137.108 248.53 136.721 248.611 136.233C248.704 135.744 248.78 135.131 248.838 134.393C248.896 133.643 248.942 132.738 248.977 131.678L249.012 130.446H255.151V139.912H253.703V131.874H250.32L250.303 132.446C250.245 134.125 250.128 135.47 249.954 136.483C249.791 137.483 249.582 138.257 249.326 138.805C249.082 139.34 248.803 139.692 248.489 139.858C248.175 140.025 247.844 140.108 247.495 140.108C247.355 140.108 247.233 140.102 247.129 140.091C247.036 140.091 246.925 140.067 246.797 140.019V138.251ZM259.536 141.841C259.699 141.841 259.844 141.817 259.972 141.769C260.112 141.734 260.239 141.65 260.356 141.519C260.484 141.388 260.606 141.198 260.722 140.948C260.85 140.698 260.983 140.364 261.123 139.948L257.374 130.446H259.048L261.873 138.001L264.227 130.446H265.779L262.588 139.59C262.286 140.472 261.995 141.156 261.716 141.644C261.449 142.133 261.193 142.496 260.949 142.734C260.704 142.972 260.466 143.115 260.234 143.163C260.001 143.222 259.774 143.252 259.553 143.252C259.181 143.252 258.908 143.204 258.734 143.109V141.627C258.978 141.769 259.245 141.841 259.536 141.841ZM267.806 130.446H273.648V131.839H269.253V139.912H267.806V130.446Z" fill="#262626" fill-opacity="0.7"/>
</g>
<g filter="url(#filter4_dd_43_1241)">
<path d="M280.664 168.936H21.9824C12.351 168.936 4.54321 176.933 4.54321 186.797C4.54321 196.662 12.351 204.658 21.9824 204.658H280.664C290.296 204.658 298.104 196.662 298.104 186.797C298.104 176.933 290.296 168.936 280.664 168.936Z" fill="white"/>
<path d="M22.1569 192.066H23.4474C23.7961 191.197 24.1159 190.048 24.4065 188.619C24.7088 187.19 24.8716 185.511 24.8948 183.582L24.9297 180.992H32.3239V192.066H33.8935V195.817H32.4286V193.495H23.6218V195.817H22.1569V192.066ZM30.7544 182.421H26.4469L26.4295 183.636C26.4178 184.457 26.3713 185.267 26.29 186.065C26.2202 186.851 26.1214 187.607 25.9935 188.333C25.8772 189.06 25.7377 189.738 25.575 190.37C25.4238 191.001 25.261 191.566 25.0867 192.066H30.7544V182.421ZM35.5463 188.726C35.5463 187.905 35.6567 187.19 35.8776 186.583C36.0985 185.976 36.4066 185.47 36.8019 185.065C37.1972 184.66 37.668 184.356 38.2145 184.154C38.7725 183.951 39.3829 183.85 40.0456 183.85C40.6734 183.85 41.2431 183.945 41.7546 184.136C42.2662 184.327 42.6964 184.624 43.0451 185.029C43.4055 185.434 43.6846 185.946 43.8822 186.565C44.0799 187.184 44.1787 187.923 44.1787 188.78C44.1787 189.673 44.0624 190.429 43.8299 191.048C43.609 191.667 43.3009 192.173 42.9056 192.566C42.522 192.959 42.0685 193.245 41.5454 193.424C41.0222 193.602 40.4583 193.692 39.8538 193.692C38.4702 193.692 37.4065 193.257 36.6624 192.388C35.9183 191.519 35.5463 190.298 35.5463 188.726ZM36.9937 188.78C36.9937 189.911 37.2437 190.792 37.7436 191.423C38.2552 192.043 38.9992 192.352 39.9758 192.352C40.8362 192.352 41.5105 192.072 41.9988 191.513C42.4871 190.941 42.7312 190.03 42.7312 188.78V188.726C42.7312 187.524 42.4813 186.631 41.9813 186.047C41.493 185.464 40.7839 185.172 39.8538 185.172C38.9353 185.172 38.2261 185.476 37.7262 186.083C37.2379 186.678 36.9937 187.559 36.9937 188.726V188.78ZM46.9033 184.029H54.2626V193.495H52.8152V185.422H48.3507V193.495H46.9033V184.029ZM57.0047 188.726C57.0047 187.905 57.1151 187.19 57.336 186.583C57.5569 185.976 57.865 185.47 58.2603 185.065C58.6556 184.66 59.1264 184.356 59.6729 184.154C60.2309 183.951 60.8413 183.85 61.504 183.85C62.1318 183.85 62.7015 183.945 63.213 184.136C63.7246 184.327 64.1547 184.624 64.5035 185.029C64.8639 185.434 65.143 185.946 65.3406 186.565C65.5383 187.184 65.6371 187.923 65.6371 188.78C65.6371 189.673 65.5208 190.429 65.2883 191.048C65.0674 191.667 64.7593 192.173 64.364 192.566C63.9804 192.959 63.5269 193.245 63.0038 193.424C62.4806 193.602 61.9167 193.692 61.3122 193.692C59.9286 193.692 58.8648 193.257 58.1208 192.388C57.3767 191.519 57.0047 190.298 57.0047 188.726ZM58.4521 188.78C58.4521 189.911 58.7021 190.792 59.202 191.423C59.7136 192.043 60.4576 192.352 61.4342 192.352C62.2946 192.352 62.9689 192.072 63.4572 191.513C63.9455 190.941 64.1896 190.03 64.1896 188.78V188.726C64.1896 187.524 63.9397 186.631 63.4397 186.047C62.9514 185.464 62.2422 185.172 61.3122 185.172C60.3937 185.172 59.6845 185.476 59.1846 186.083C58.6963 186.678 58.4521 187.559 58.4521 188.726V188.78ZM67.2107 191.834C67.3502 191.882 67.5013 191.906 67.6641 191.906C67.7804 191.906 67.9024 191.888 68.0303 191.852C68.1582 191.816 68.2803 191.733 68.3965 191.602C68.5128 191.459 68.6233 191.251 68.7279 190.977C68.8442 190.691 68.943 190.304 69.0244 189.816C69.1174 189.328 69.1929 188.714 69.2511 187.976C69.3092 187.226 69.3557 186.321 69.3906 185.261L69.4255 184.029H75.5638V193.495H74.1163V185.458H70.7334L70.716 186.029C70.6578 187.708 70.5416 189.054 70.3672 190.066C70.2044 191.066 69.9951 191.84 69.7394 192.388C69.4952 192.924 69.2162 193.275 68.9023 193.442C68.5884 193.608 68.257 193.692 67.9083 193.692C67.7687 193.692 67.6467 193.686 67.542 193.674C67.449 193.674 67.3386 193.65 67.2107 193.602V191.834ZM78.9376 184.029H80.385V187.994H84.989V184.029H86.4364V193.495H84.989V189.405H80.385V193.495H78.9376V184.029ZM89.7862 184.029H91.2337V188.637C91.2337 189.197 91.222 189.738 91.1988 190.262C91.1755 190.774 91.1523 191.149 91.129 191.388L91.1988 191.423C91.4197 191.042 91.6522 190.673 91.8964 190.316C92.1405 189.947 92.3905 189.584 92.6462 189.226L96.1515 184.029H97.4246V193.495H95.9771V189.673C95.9771 189.328 95.9771 188.982 95.9771 188.637C95.9888 188.28 96.0004 187.94 96.012 187.619C96.0236 187.297 96.0353 187.006 96.0469 186.744C96.0585 186.47 96.0701 186.25 96.0818 186.083L96.0295 186.065C95.8783 186.339 95.6807 186.684 95.4365 187.101C95.1924 187.506 94.9366 187.887 94.6692 188.244L91.0767 193.495H89.7862V184.029ZM102.41 185.422H99.4105V184.029H106.84V185.422H103.857V193.495H102.41V185.422ZM109.663 189.298C109.663 190.322 109.919 191.09 110.431 191.602C110.954 192.102 111.727 192.352 112.75 192.352C113.343 192.352 113.878 192.251 114.354 192.048C114.831 191.834 115.238 191.59 115.575 191.316V192.852C115.343 193.019 114.982 193.203 114.494 193.406C114.006 193.596 113.413 193.692 112.715 193.692C111.971 193.692 111.314 193.602 110.745 193.424C110.186 193.233 109.716 192.936 109.332 192.531C108.96 192.114 108.675 191.59 108.477 190.959C108.291 190.316 108.198 189.536 108.198 188.619C108.198 187.059 108.553 185.874 109.262 185.065C109.971 184.255 111.006 183.85 112.366 183.85C113.076 183.85 113.68 183.957 114.18 184.172C114.68 184.386 115.081 184.69 115.383 185.083C115.686 185.476 115.907 185.952 116.046 186.512C116.186 187.059 116.255 187.667 116.255 188.333V189.298H109.663ZM112.349 185.19C111.5 185.19 110.838 185.422 110.361 185.886C109.896 186.339 109.663 187.047 109.663 188.012H114.808C114.808 187.047 114.61 186.339 114.215 185.886C113.831 185.422 113.209 185.19 112.349 185.19ZM117.655 191.834C117.794 191.882 117.945 191.906 118.108 191.906C118.225 191.906 118.347 191.888 118.474 191.852C118.602 191.816 118.724 191.733 118.841 191.602C118.957 191.459 119.067 191.251 119.172 190.977C119.288 190.691 119.387 190.304 119.468 189.816C119.562 189.328 119.637 188.714 119.695 187.976C119.753 187.226 119.8 186.321 119.835 185.261L119.87 184.029H126.008V193.495H124.561V185.458H121.178L121.16 186.029C121.102 187.708 120.986 189.054 120.811 190.066C120.649 191.066 120.439 191.84 120.184 192.388C119.939 192.924 119.66 193.275 119.346 193.442C119.033 193.608 118.701 193.692 118.352 193.692C118.213 193.692 118.091 193.686 117.986 193.674C117.893 193.674 117.783 193.65 117.655 193.602V191.834ZM129.382 184.029H130.829V187.155C131.097 187.131 131.364 187.113 131.632 187.101C131.911 187.089 132.219 187.083 132.556 187.083C133.219 187.083 133.794 187.137 134.282 187.244C134.782 187.339 135.189 187.512 135.503 187.762C135.829 188 136.067 188.321 136.218 188.726C136.381 189.119 136.462 189.607 136.462 190.191C136.462 190.762 136.387 191.263 136.236 191.691C136.096 192.12 135.858 192.477 135.521 192.763C135.195 193.049 134.759 193.263 134.213 193.406C133.678 193.549 133.015 193.62 132.225 193.62C131.667 193.62 131.132 193.608 130.62 193.585C130.12 193.561 129.708 193.531 129.382 193.495V184.029ZM130.829 192.209C131.062 192.245 131.289 192.269 131.51 192.281C131.742 192.281 132.068 192.281 132.486 192.281C132.974 192.281 133.376 192.245 133.689 192.173C134.015 192.102 134.277 191.989 134.474 191.834C134.672 191.667 134.811 191.459 134.893 191.209C134.974 190.947 135.015 190.626 135.015 190.244C135.015 189.887 134.974 189.59 134.893 189.351C134.811 189.101 134.66 188.899 134.439 188.744C134.218 188.589 133.91 188.476 133.515 188.405C133.131 188.333 132.626 188.298 131.998 188.298C131.812 188.298 131.626 188.31 131.44 188.333C131.254 188.345 131.05 188.363 130.829 188.387V192.209ZM138.97 184.029H140.417V187.994H145.021V184.029H146.469V193.495H145.021V189.405H140.417V193.495H138.97V184.029ZM151.266 187.155C151.499 187.131 151.714 187.113 151.911 187.101C152.109 187.089 152.318 187.083 152.539 187.083C153.272 187.083 153.894 187.149 154.405 187.28C154.917 187.399 155.329 187.589 155.643 187.851C155.957 188.101 156.184 188.423 156.323 188.816C156.463 189.197 156.533 189.655 156.533 190.191C156.533 190.667 156.463 191.114 156.323 191.53C156.184 191.947 155.946 192.31 155.608 192.62C155.283 192.93 154.847 193.174 154.3 193.352C153.754 193.531 153.074 193.62 152.26 193.62C151.853 193.62 151.446 193.608 151.039 193.585C150.632 193.573 150.225 193.543 149.819 193.495V184.029H151.266V187.155ZM151.266 192.227C151.475 192.251 151.65 192.269 151.789 192.281C151.94 192.281 152.15 192.281 152.417 192.281C152.94 192.281 153.37 192.233 153.708 192.138C154.056 192.042 154.33 191.906 154.527 191.727C154.736 191.548 154.882 191.334 154.963 191.084C155.045 190.834 155.085 190.554 155.085 190.244C155.085 189.959 155.05 189.697 154.981 189.459C154.911 189.22 154.771 189.018 154.562 188.851C154.364 188.673 154.08 188.536 153.708 188.441C153.347 188.345 152.865 188.298 152.26 188.298C152.074 188.298 151.905 188.31 151.754 188.333C151.615 188.345 151.452 188.363 151.266 188.387V192.227ZM157.841 184.029H159.288V193.495H157.841V184.029ZM163.479 189.298C163.479 190.322 163.735 191.09 164.247 191.602C164.77 192.102 165.543 192.352 166.566 192.352C167.159 192.352 167.694 192.251 168.17 192.048C168.647 191.834 169.054 191.59 169.391 191.316V192.852C169.159 193.019 168.798 193.203 168.31 193.406C167.822 193.596 167.229 193.692 166.531 193.692C165.787 193.692 165.13 193.602 164.561 193.424C164.002 193.233 163.532 192.936 163.148 192.531C162.776 192.114 162.491 191.59 162.293 190.959C162.107 190.316 162.014 189.536 162.014 188.619C162.014 187.059 162.369 185.874 163.078 185.065C163.787 184.255 164.822 183.85 166.182 183.85C166.892 183.85 167.496 183.957 167.996 184.172C168.496 184.386 168.897 184.69 169.199 185.083C169.502 185.476 169.723 185.952 169.862 186.512C170.002 187.059 170.071 187.667 170.071 188.333V189.298H163.479ZM166.165 185.19C165.316 185.19 164.654 185.422 164.177 185.886C163.712 186.339 163.479 187.047 163.479 188.012H168.624C168.624 187.047 168.426 186.339 168.031 185.886C167.647 185.422 167.025 185.19 166.165 185.19ZM184.247 186.011C183.968 185.809 183.608 185.636 183.166 185.493C182.724 185.339 182.242 185.261 181.719 185.261C181.3 185.261 180.916 185.321 180.568 185.44C180.219 185.547 179.917 185.732 179.661 185.994C179.417 186.256 179.225 186.613 179.085 187.065C178.957 187.506 178.893 188.054 178.893 188.708C178.893 189.375 178.963 189.935 179.103 190.387C179.242 190.84 179.446 191.209 179.713 191.495C179.992 191.769 180.323 191.965 180.707 192.084C181.102 192.203 181.556 192.263 182.067 192.263C182.544 192.263 182.997 192.191 183.428 192.048C183.869 191.906 184.241 191.703 184.544 191.441V193.049C184.3 193.251 183.945 193.406 183.48 193.513C183.027 193.632 182.486 193.692 181.858 193.692C181.161 193.692 180.533 193.608 179.975 193.442C179.428 193.263 178.963 192.971 178.58 192.566C178.196 192.162 177.899 191.638 177.69 190.995C177.492 190.34 177.394 189.536 177.394 188.583C177.394 186.952 177.766 185.755 178.51 184.993C179.265 184.231 180.399 183.85 181.91 183.85C182.48 183.85 182.945 183.898 183.306 183.993C183.666 184.076 183.98 184.19 184.247 184.332V186.011ZM186.283 188.726C186.283 187.905 186.394 187.19 186.615 186.583C186.836 185.976 187.144 185.47 187.539 185.065C187.934 184.66 188.405 184.356 188.951 184.154C189.51 183.951 190.12 183.85 190.783 183.85C191.41 183.85 191.98 183.945 192.492 184.136C193.003 184.327 193.433 184.624 193.782 185.029C194.143 185.434 194.422 185.946 194.619 186.565C194.817 187.184 194.916 187.923 194.916 188.78C194.916 189.673 194.799 190.429 194.567 191.048C194.346 191.667 194.038 192.173 193.643 192.566C193.259 192.959 192.806 193.245 192.282 193.424C191.759 193.602 191.195 193.692 190.591 193.692C189.207 193.692 188.143 193.257 187.399 192.388C186.655 191.519 186.283 190.298 186.283 188.726ZM187.731 188.78C187.731 189.911 187.981 190.792 188.481 191.423C188.992 192.043 189.736 192.352 190.713 192.352C191.573 192.352 192.248 192.072 192.736 191.513C193.224 190.941 193.468 190.03 193.468 188.78V188.726C193.468 187.524 193.218 186.631 192.718 186.047C192.23 185.464 191.521 185.172 190.591 185.172C189.672 185.172 188.963 185.476 188.463 186.083C187.975 186.678 187.731 187.559 187.731 188.726V188.78ZM197.641 184.029H203.483V185.422H199.088V193.495H197.641V184.029ZM203.829 191.834C203.969 191.882 204.12 191.906 204.283 191.906C204.399 191.906 204.521 191.888 204.649 191.852C204.777 191.816 204.899 191.733 205.015 191.602C205.131 191.459 205.242 191.251 205.347 190.977C205.463 190.691 205.562 190.304 205.643 189.816C205.736 189.328 205.812 188.714 205.87 187.976C205.928 187.226 205.974 186.321 206.009 185.261L206.044 184.029H212.183V193.495H210.735V185.458H207.352L207.335 186.029C207.276 187.708 207.16 189.054 206.986 190.066C206.823 191.066 206.614 191.84 206.358 192.388C206.114 192.924 205.835 193.275 205.521 193.442C205.207 193.608 204.876 193.692 204.527 193.692C204.387 193.692 204.265 193.686 204.161 193.674C204.068 193.674 203.957 193.65 203.829 193.602V191.834ZM220.719 192.138C220.486 192.566 220.126 192.936 219.637 193.245C219.161 193.543 218.591 193.692 217.928 193.692C216.998 193.692 216.266 193.454 215.731 192.977C215.196 192.489 214.929 191.786 214.929 190.87C214.929 190.346 214.993 189.905 215.121 189.548C215.26 189.179 215.475 188.881 215.766 188.655C216.068 188.417 216.452 188.244 216.917 188.137C217.382 188.03 217.946 187.976 218.608 187.976H220.684V187.083C220.684 186.702 220.637 186.392 220.544 186.154C220.463 185.904 220.329 185.714 220.143 185.583C219.957 185.44 219.719 185.345 219.428 185.297C219.149 185.237 218.818 185.208 218.434 185.208C217.911 185.208 217.388 185.309 216.864 185.511C216.353 185.714 215.94 185.952 215.626 186.226V184.511C215.812 184.404 216.027 184.309 216.272 184.225C216.527 184.142 216.789 184.076 217.056 184.029C217.324 183.969 217.591 183.928 217.858 183.904C218.126 183.868 218.37 183.85 218.591 183.85C219.195 183.85 219.719 183.904 220.16 184.011C220.614 184.118 220.986 184.297 221.277 184.547C221.567 184.797 221.782 185.13 221.922 185.547C222.061 185.952 222.131 186.458 222.131 187.065V193.495H220.806L220.719 192.138ZM216.411 190.637C216.411 191.149 216.551 191.548 216.83 191.834C217.109 192.12 217.568 192.263 218.207 192.263C219.068 192.263 219.695 192.037 220.091 191.584C220.486 191.132 220.684 190.56 220.684 189.869V189.066H218.661C218.219 189.066 217.853 189.095 217.562 189.155C217.271 189.214 217.039 189.31 216.864 189.441C216.702 189.56 216.585 189.721 216.516 189.923C216.446 190.113 216.411 190.352 216.411 190.637ZM225.383 184.029H226.83V192.084H230.213V184.029H231.661V192.084H235.044V184.029H236.492V193.495H225.383V184.029ZM240.679 189.298C240.679 190.322 240.935 191.09 241.447 191.602C241.97 192.102 242.743 192.352 243.766 192.352C244.359 192.352 244.894 192.251 245.37 192.048C245.847 191.834 246.254 191.59 246.591 191.316V192.852C246.359 193.019 245.998 193.203 245.51 193.406C245.022 193.596 244.429 193.692 243.731 193.692C242.987 193.692 242.33 193.602 241.76 193.424C241.202 193.233 240.731 192.936 240.348 192.531C239.976 192.114 239.691 191.59 239.493 190.959C239.307 190.316 239.214 189.536 239.214 188.619C239.214 187.059 239.569 185.874 240.278 185.065C240.987 184.255 242.022 183.85 243.382 183.85C244.091 183.85 244.696 183.957 245.196 184.172C245.696 184.386 246.097 184.69 246.399 185.083C246.702 185.476 246.922 185.952 247.062 186.512C247.201 187.059 247.271 187.667 247.271 188.333V189.298H240.679ZM243.365 185.19C242.516 185.19 241.853 185.422 241.377 185.886C240.912 186.339 240.679 187.047 240.679 188.012H245.824C245.824 187.047 245.626 186.339 245.231 185.886C244.847 185.422 244.225 185.19 243.365 185.19ZM249.992 184.029H251.439V187.994H256.043V184.029H257.491V193.495H256.043V189.405H251.439V193.495H249.992V184.029ZM260.84 184.029H262.288V188.637C262.288 189.197 262.276 189.738 262.253 190.262C262.23 190.774 262.206 191.149 262.183 191.388L262.253 191.423C262.474 191.042 262.706 190.673 262.951 190.316C263.195 189.947 263.445 189.584 263.7 189.226L267.206 184.029H268.479V193.495H267.031V189.673C267.031 189.328 267.031 188.982 267.031 188.637C267.043 188.28 267.055 187.94 267.066 187.619C267.078 187.297 267.089 187.006 267.101 186.744C267.113 186.47 267.124 186.25 267.136 186.083L267.084 186.065C266.932 186.339 266.735 186.684 266.491 187.101C266.247 187.506 265.991 187.887 265.723 188.244L262.131 193.495H260.84V184.029ZM273.412 189.852C273.04 189.792 272.732 189.679 272.488 189.512C272.243 189.334 272.052 189.125 271.912 188.887C271.773 188.637 271.674 188.357 271.616 188.048C271.558 187.726 271.528 187.393 271.528 187.047C271.528 186.547 271.592 186.107 271.72 185.726C271.86 185.333 272.092 185.005 272.418 184.743C272.743 184.481 273.174 184.285 273.708 184.154C274.243 184.011 274.906 183.94 275.696 183.94C276.208 183.94 276.737 183.951 277.283 183.975C277.83 183.987 278.272 184.017 278.609 184.065V193.495H277.161V190.102H274.894L272.522 193.495H270.848L273.412 189.852ZM277.161 185.315C276.94 185.291 276.72 185.273 276.499 185.261C276.278 185.249 275.97 185.243 275.574 185.243C275.051 185.243 274.621 185.279 274.284 185.351C273.947 185.41 273.679 185.511 273.482 185.654C273.296 185.797 273.162 185.988 273.081 186.226C273.011 186.452 272.976 186.738 272.976 187.083C272.976 187.798 273.144 188.286 273.482 188.548C273.83 188.81 274.412 188.941 275.226 188.941H277.161V185.315Z" fill="#262626" fill-opacity="0.7"/>
</g>
<g filter="url(#filter5_dd_43_1241)">
<path d="M247.239 222.519H21.9824C12.351 222.519 4.54321 230.516 4.54321 240.381C4.54321 250.245 12.351 258.242 21.9824 258.242H247.239C256.871 258.242 264.678 250.245 264.678 240.381C264.678 230.516 256.871 222.519 247.239 222.519Z" fill="white"/>
<path d="M24.8599 240.059H26.6038C27.0689 240.059 27.4525 240 27.7548 239.88C28.0687 239.761 28.3187 239.607 28.5047 239.416C28.6907 239.214 28.8186 238.981 28.8884 238.719C28.9697 238.458 29.0104 238.184 29.0104 237.898C29.0104 237.16 28.7895 236.642 28.3477 236.344C27.9176 236.034 27.2491 235.88 26.3422 235.88C25.819 235.88 25.3133 235.975 24.825 236.165C24.3367 236.356 23.8891 236.612 23.4822 236.933V235.094C23.8193 234.963 24.2379 234.82 24.7378 234.665C25.2494 234.51 25.8946 234.433 26.6736 234.433C28.0106 234.433 29.0046 234.671 29.6557 235.147C30.3184 235.612 30.6497 236.386 30.6497 237.469C30.6497 238.255 30.4811 238.886 30.144 239.362C29.8068 239.839 29.2836 240.184 28.5744 240.398C29.4697 240.506 30.144 240.803 30.5974 241.291C31.0508 241.78 31.2775 242.524 31.2775 243.524C31.2775 244.727 30.9055 245.644 30.1614 246.275C29.4173 246.906 28.2315 247.221 26.6038 247.221C25.8249 247.221 25.1389 247.15 24.546 247.007C23.9531 246.852 23.4764 246.691 23.116 246.525V244.489C23.2671 244.643 23.4589 244.798 23.6915 244.953C23.9356 245.096 24.2146 245.233 24.5285 245.364C24.8425 245.483 25.1854 245.584 25.5575 245.667C25.9411 245.739 26.348 245.775 26.7782 245.775C27.8246 245.775 28.557 245.578 28.9755 245.185C29.4057 244.78 29.6208 244.185 29.6208 243.399C29.6208 242.661 29.3825 242.143 28.9058 241.845C28.4407 241.547 27.6792 241.399 26.6213 241.399H24.8599V240.059ZM39.2413 245.721C39.0088 246.15 38.6484 246.519 38.1601 246.828C37.6834 247.126 37.1137 247.275 36.451 247.275C35.5209 247.275 34.7885 247.037 34.2537 246.56C33.7189 246.072 33.4515 245.37 33.4515 244.453C33.4515 243.929 33.5154 243.488 33.6433 243.131C33.7828 242.762 33.9979 242.464 34.2886 242.238C34.5908 242 34.9745 241.827 35.4395 241.72C35.9046 241.613 36.4685 241.559 37.1312 241.559H39.2064V240.666C39.2064 240.285 39.1599 239.976 39.0669 239.738C38.9855 239.487 38.8518 239.297 38.6658 239.166C38.4798 239.023 38.2414 238.928 37.9508 238.88C37.6718 238.821 37.3404 238.791 36.9568 238.791C36.4336 238.791 35.9104 238.892 35.3872 239.095C34.8757 239.297 34.4629 239.535 34.149 239.809V238.094C34.3351 237.987 34.5501 237.892 34.7943 237.809C35.0501 237.725 35.3117 237.66 35.5791 237.612C35.8465 237.553 36.1139 237.511 36.3813 237.487C36.6487 237.451 36.8928 237.433 37.1137 237.433C37.7183 237.433 38.2414 237.487 38.6832 237.594C39.1367 237.701 39.5087 237.88 39.7994 238.13C40.09 238.38 40.3051 238.714 40.4446 239.13C40.5841 239.535 40.6539 240.041 40.6539 240.648V247.078H39.3285L39.2413 245.721ZM34.9338 244.221C34.9338 244.733 35.0733 245.132 35.3523 245.417C35.6314 245.703 36.0906 245.846 36.73 245.846C37.5904 245.846 38.2182 245.62 38.6135 245.167C39.0088 244.715 39.2064 244.143 39.2064 243.453V242.649H37.1835C36.7417 242.649 36.3754 242.679 36.0848 242.738C35.7941 242.798 35.5616 242.893 35.3872 243.024C35.2245 243.143 35.1082 243.304 35.0384 243.506C34.9687 243.697 34.9338 243.935 34.9338 244.221ZM46.8705 242.792H45.3533V247.078H43.9059V237.612H45.3533V241.631H46.888L49.9747 237.612H51.6314L48.1087 242.113L51.9977 247.078H50.2363L46.8705 242.792ZM54.0046 237.612H55.3299L55.4171 239.273C55.9054 238.047 56.9808 237.433 58.6434 237.433C59.8409 237.433 60.7361 237.803 61.329 238.541C61.922 239.267 62.2184 240.47 62.2184 242.149C62.2184 243.066 62.137 243.852 61.9743 244.506C61.8115 245.149 61.5674 245.679 61.2418 246.096C60.9279 246.501 60.5326 246.799 60.056 246.989C59.5793 247.18 59.0271 247.275 58.3992 247.275C57.6087 247.275 56.975 247.132 56.4984 246.846C56.0333 246.549 55.6845 246.203 55.452 245.81V250.293H54.0046V237.612ZM55.452 243.274C55.452 244.096 55.6787 244.745 56.1321 245.221C56.5972 245.697 57.2541 245.935 58.1028 245.935C58.5911 245.935 59.0038 245.87 59.341 245.739C59.6781 245.608 59.9513 245.394 60.1606 245.096C60.3699 244.798 60.521 244.417 60.614 243.953C60.7187 243.488 60.771 242.917 60.771 242.238C60.771 241.595 60.7128 241.053 60.5966 240.613C60.4803 240.16 60.3117 239.803 60.0908 239.541C59.8699 239.267 59.5909 239.071 59.2538 238.952C58.9282 238.833 58.5504 238.773 58.1202 238.773C57.6668 238.773 57.2715 238.839 56.9343 238.97C56.5972 239.101 56.3182 239.285 56.0973 239.523C55.8764 239.749 55.7136 240.023 55.609 240.345C55.5043 240.666 55.452 241.012 55.452 241.381V243.274ZM66.386 240.738C66.6185 240.714 66.8336 240.696 67.0312 240.684C67.2289 240.672 67.4381 240.666 67.659 240.666C68.3915 240.666 69.0135 240.732 69.525 240.863C70.0366 240.982 70.4493 241.172 70.7632 241.434C71.0771 241.684 71.3038 242.006 71.4433 242.399C71.5829 242.78 71.6526 243.238 71.6526 243.774C71.6526 244.25 71.5829 244.697 71.4433 245.114C71.3038 245.53 71.0655 245.894 70.7283 246.203C70.4028 246.513 69.9668 246.757 69.4204 246.936C68.874 247.114 68.1938 247.203 67.38 247.203C66.9731 247.203 66.5662 247.192 66.1593 247.168C65.7523 247.156 65.3454 247.126 64.9385 247.078V237.612H66.386V240.738ZM66.386 245.81C66.5952 245.834 66.7696 245.852 66.9091 245.864C67.0603 245.864 67.2696 245.864 67.537 245.864C68.0601 245.864 68.4903 245.816 68.8275 245.721C69.1762 245.626 69.4495 245.489 69.6471 245.31C69.8564 245.132 70.0017 244.917 70.0831 244.667C70.1645 244.417 70.2052 244.137 70.2052 243.828C70.2052 243.542 70.1703 243.28 70.1005 243.042C70.0308 242.804 69.8913 242.601 69.682 242.435C69.4843 242.256 69.1995 242.119 68.8275 242.024C68.4671 241.929 67.9846 241.881 67.38 241.881C67.194 241.881 67.0254 241.893 66.8743 241.917C66.7348 241.929 66.572 241.946 66.386 241.97V245.81ZM72.9609 237.612H74.4084V247.078H72.9609V237.612ZM77.7625 237.594C78.0997 237.57 78.524 237.547 79.0356 237.523C79.5588 237.499 80.1808 237.487 80.9016 237.487C81.6457 237.487 82.256 237.541 82.7327 237.648C83.2094 237.755 83.5872 237.904 83.8663 238.094C84.1453 238.285 84.3371 238.523 84.4418 238.809C84.558 239.083 84.6161 239.386 84.6161 239.72C84.6161 240.327 84.4824 240.815 84.215 241.184C83.9476 241.542 83.4826 241.815 82.8199 242.006C83.5989 242.077 84.1627 242.274 84.5115 242.595C84.8719 242.917 85.0521 243.471 85.0521 244.256C85.0521 244.697 84.9882 245.102 84.8603 245.471C84.7324 245.828 84.5115 246.138 84.1976 246.4C83.8953 246.662 83.4826 246.864 82.9594 247.007C82.4479 247.15 81.8084 247.221 81.0411 247.221C80.7388 247.221 80.4249 247.215 80.0994 247.203C79.7855 247.203 79.4832 247.198 79.1925 247.186C78.9019 247.174 78.6345 247.156 78.3903 247.132C78.1462 247.12 77.9369 247.108 77.7625 247.096V237.594ZM79.21 245.846C79.5123 245.87 79.8145 245.894 80.1168 245.917C80.4307 245.929 80.7563 245.935 81.0934 245.935C81.5701 245.935 81.9654 245.912 82.2793 245.864C82.6048 245.804 82.8664 245.709 83.064 245.578C83.2617 245.447 83.4012 245.274 83.4826 245.06C83.564 244.846 83.6047 244.584 83.6047 244.274C83.6047 243.738 83.4245 243.369 83.064 243.167C82.7153 242.953 82.1456 242.845 81.355 242.845H79.21V245.846ZM81.355 241.577C81.9014 241.577 82.3374 241.464 82.663 241.238C82.9885 241.012 83.1512 240.648 83.1512 240.148C83.1512 239.613 82.9885 239.249 82.663 239.059C82.349 238.868 81.7968 238.773 81.0062 238.773C80.5644 238.773 80.204 238.773 79.925 238.773C79.646 238.773 79.4076 238.779 79.21 238.791V241.577H81.355ZM92.9383 245.721C92.7058 246.15 92.3454 246.519 91.8571 246.828C91.3804 247.126 90.8107 247.275 90.148 247.275C89.2179 247.275 88.4855 247.037 87.9507 246.56C87.4159 246.072 87.1485 245.37 87.1485 244.453C87.1485 243.929 87.2124 243.488 87.3403 243.131C87.4798 242.762 87.6949 242.464 87.9855 242.238C88.2878 242 88.6715 241.827 89.1365 241.72C89.6016 241.613 90.1655 241.559 90.8281 241.559H92.9034V240.666C92.9034 240.285 92.8569 239.976 92.7639 239.738C92.6825 239.487 92.5488 239.297 92.3628 239.166C92.1768 239.023 91.9384 238.928 91.6478 238.88C91.3688 238.821 91.0374 238.791 90.6537 238.791C90.1306 238.791 89.6074 238.892 89.0842 239.095C88.5727 239.297 88.1599 239.535 87.846 239.809V238.094C88.0321 237.987 88.2471 237.892 88.4913 237.809C88.7471 237.725 89.0086 237.66 89.2761 237.612C89.5435 237.553 89.8109 237.511 90.0783 237.487C90.3457 237.451 90.5898 237.433 90.8107 237.433C91.4153 237.433 91.9384 237.487 92.3802 237.594C92.8337 237.701 93.2057 237.88 93.4963 238.13C93.787 238.38 94.0021 238.714 94.1416 239.13C94.2811 239.535 94.3509 240.041 94.3509 240.648V247.078H93.0255L92.9383 245.721ZM88.6308 244.221C88.6308 244.733 88.7703 245.132 89.0493 245.417C89.3284 245.703 89.7876 245.846 90.427 245.846C91.2874 245.846 91.9152 245.62 92.3105 245.167C92.7058 244.715 92.9034 244.143 92.9034 243.453V242.649H90.8805C90.4387 242.649 90.0724 242.679 89.7818 242.738C89.4911 242.798 89.2586 242.893 89.0842 243.024C88.9215 243.143 88.8052 243.304 88.7354 243.506C88.6657 243.697 88.6308 243.935 88.6308 244.221ZM105.189 237.433C105.852 237.433 106.433 237.523 106.933 237.701C107.445 237.868 107.875 238.148 108.224 238.541C108.573 238.934 108.834 239.446 109.009 240.077C109.195 240.696 109.288 241.452 109.288 242.345C109.288 243.262 109.195 244.036 109.009 244.667C108.823 245.286 108.549 245.792 108.189 246.185C107.828 246.566 107.381 246.846 106.846 247.025C106.323 247.192 105.718 247.275 105.032 247.275C104.312 247.275 103.695 247.174 103.184 246.971C102.672 246.769 102.248 246.483 101.911 246.114C101.574 245.733 101.318 245.269 101.143 244.721C100.969 244.173 100.87 243.56 100.847 242.881H99.0507V247.078H97.6033V237.612H99.0507V241.542H100.882C100.986 240.184 101.376 239.16 102.05 238.469C102.725 237.779 103.771 237.433 105.189 237.433ZM102.294 242.345C102.294 243.607 102.527 244.518 102.992 245.078C103.457 245.638 104.155 245.917 105.085 245.917C105.503 245.917 105.875 245.864 106.201 245.757C106.538 245.65 106.823 245.465 107.055 245.203C107.299 244.929 107.48 244.566 107.596 244.114C107.724 243.661 107.788 243.089 107.788 242.399C107.788 241.696 107.735 241.113 107.631 240.648C107.538 240.184 107.375 239.815 107.143 239.541C106.922 239.255 106.631 239.059 106.271 238.952C105.922 238.833 105.497 238.773 104.998 238.773C104.509 238.773 104.096 238.839 103.759 238.97C103.422 239.089 103.143 239.291 102.922 239.577C102.701 239.851 102.539 240.214 102.434 240.666C102.341 241.119 102.294 241.678 102.294 242.345ZM112.028 237.612H113.475V245.667H116.858V237.612H118.306V245.667H121.689V237.612H123.136V245.667H124.479V249.4H123.119V247.078H112.028V237.612ZM126.708 237.612H128.155V242.22C128.155 242.78 128.144 243.322 128.12 243.846C128.097 244.358 128.074 244.733 128.051 244.971L128.12 245.007C128.341 244.626 128.574 244.256 128.818 243.899C129.062 243.53 129.312 243.167 129.568 242.81L133.073 237.612H134.346V247.078H132.899V243.256C132.899 242.911 132.899 242.566 132.899 242.22C132.91 241.863 132.922 241.524 132.934 241.202C132.945 240.881 132.957 240.589 132.969 240.327C132.98 240.053 132.992 239.833 133.003 239.666L132.951 239.648C132.8 239.922 132.602 240.267 132.358 240.684C132.114 241.089 131.858 241.47 131.591 241.827L127.998 247.078H126.708V237.612ZM138.53 242.881C138.53 243.905 138.786 244.673 139.298 245.185C139.821 245.685 140.594 245.935 141.617 245.935C142.21 245.935 142.745 245.834 143.221 245.632C143.698 245.417 144.105 245.173 144.442 244.899V246.435C144.21 246.602 143.849 246.787 143.361 246.989C142.873 247.18 142.28 247.275 141.582 247.275C140.838 247.275 140.181 247.186 139.611 247.007C139.053 246.816 138.583 246.519 138.199 246.114C137.827 245.697 137.542 245.173 137.344 244.542C137.158 243.899 137.065 243.119 137.065 242.202C137.065 240.643 137.42 239.458 138.129 238.648C138.838 237.838 139.873 237.433 141.233 237.433C141.943 237.433 142.547 237.541 143.047 237.755C143.547 237.969 143.948 238.273 144.25 238.666C144.553 239.059 144.773 239.535 144.913 240.095C145.053 240.643 145.122 241.25 145.122 241.917V242.881H138.53ZM141.216 238.773C140.367 238.773 139.704 239.005 139.228 239.47C138.763 239.922 138.53 240.631 138.53 241.595H143.675C143.675 240.631 143.477 239.922 143.082 239.47C142.698 239.005 142.076 238.773 141.216 238.773ZM151.746 245.667H152.793C153.095 245.001 153.333 244.084 153.508 242.917C153.682 241.738 153.769 240.309 153.769 238.63V237.612H159.925V245.667H161.32V249.4H159.96V247.078H153.107V249.4H151.746V245.667ZM158.478 239.005H155.147L155.129 239.666C155.106 240.821 155.025 241.917 154.885 242.953C154.757 243.988 154.537 244.893 154.223 245.667H158.478V239.005ZM162.918 242.31C162.918 241.488 163.028 240.773 163.249 240.166C163.47 239.559 163.778 239.053 164.173 238.648C164.568 238.243 165.039 237.94 165.586 237.737C166.144 237.535 166.754 237.433 167.417 237.433C168.045 237.433 168.614 237.529 169.126 237.719C169.637 237.91 170.068 238.207 170.416 238.612C170.777 239.017 171.056 239.529 171.254 240.148C171.451 240.768 171.55 241.506 171.55 242.363C171.55 243.256 171.434 244.012 171.201 244.631C170.98 245.251 170.672 245.757 170.277 246.15C169.893 246.543 169.44 246.828 168.917 247.007C168.393 247.186 167.83 247.275 167.225 247.275C165.842 247.275 164.778 246.84 164.034 245.971C163.29 245.102 162.918 243.881 162.918 242.31ZM164.365 242.363C164.365 243.494 164.615 244.375 165.115 245.007C165.626 245.626 166.371 245.935 167.347 245.935C168.207 245.935 168.882 245.656 169.37 245.096C169.858 244.524 170.103 243.613 170.103 242.363V242.31C170.103 241.107 169.853 240.214 169.353 239.63C168.864 239.047 168.155 238.755 167.225 238.755C166.307 238.755 165.597 239.059 165.097 239.666C164.609 240.261 164.365 241.143 164.365 242.31V242.363ZM177.239 242.792H175.722V247.078H174.274V237.612H175.722V241.631H177.256L180.343 237.612H182L178.477 242.113L182.366 247.078H180.605L177.239 242.792ZM185.402 249.007C185.565 249.007 185.71 248.984 185.838 248.936C185.977 248.9 186.105 248.817 186.221 248.686C186.349 248.555 186.471 248.364 186.588 248.114C186.716 247.864 186.849 247.531 186.989 247.114L183.239 237.612H184.914L187.739 245.167L190.093 237.612H191.645L188.454 246.757C188.151 247.638 187.861 248.323 187.582 248.811C187.314 249.299 187.059 249.662 186.814 249.901C186.57 250.139 186.332 250.282 186.099 250.329C185.867 250.389 185.64 250.418 185.419 250.418C185.047 250.418 184.774 250.371 184.6 250.276V248.793C184.844 248.936 185.111 249.007 185.402 249.007ZM193.672 237.612H195.591L198.52 243.238L201.328 237.612H203.159V247.078H201.712V242.095C201.712 241.559 201.735 241.03 201.782 240.506C201.828 239.97 201.875 239.434 201.921 238.898C201.654 239.505 201.404 240.077 201.171 240.613C200.939 241.137 200.724 241.577 200.526 241.934L198.922 244.792H197.928L196.41 241.952C196.213 241.571 195.986 241.119 195.73 240.595C195.474 240.071 195.207 239.511 194.928 238.916C194.975 239.452 195.015 239.994 195.05 240.541C195.097 241.077 195.12 241.619 195.12 242.167V247.078H193.672V237.612ZM207.35 242.881C207.35 243.905 207.606 244.673 208.117 245.185C208.64 245.685 209.413 245.935 210.437 245.935C211.029 245.935 211.564 245.834 212.041 245.632C212.518 245.417 212.925 245.173 213.262 244.899V246.435C213.029 246.602 212.669 246.787 212.18 246.989C211.692 247.18 211.099 247.275 210.402 247.275C209.658 247.275 209.001 247.186 208.431 247.007C207.873 246.816 207.402 246.519 207.018 246.114C206.646 245.697 206.362 245.173 206.164 244.542C205.978 243.899 205.885 243.119 205.885 242.202C205.885 240.643 206.24 239.458 206.949 238.648C207.658 237.838 208.693 237.433 210.053 237.433C210.762 237.433 211.367 237.541 211.867 237.755C212.367 237.969 212.768 238.273 213.07 238.666C213.372 239.059 213.593 239.535 213.733 240.095C213.872 240.643 213.942 241.25 213.942 241.917V242.881H207.35ZM210.035 238.773C209.187 238.773 208.524 239.005 208.047 239.47C207.582 239.922 207.35 240.631 207.35 241.595H212.494C212.494 240.631 212.297 239.922 211.901 239.47C211.518 239.005 210.896 238.773 210.035 238.773ZM216.663 237.612H218.111V241.577H222.715V237.612H224.162V247.078H222.715V242.988H218.111V247.078H216.663V237.612ZM229.151 239.005H226.151V237.612H233.581V239.005H230.598V247.078H229.151V239.005ZM237.015 240.738C237.247 240.714 237.462 240.696 237.66 240.684C237.858 240.672 238.067 240.666 238.288 240.666C239.02 240.666 239.642 240.732 240.154 240.863C240.665 240.982 241.078 241.172 241.392 241.434C241.706 241.684 241.933 242.006 242.072 242.399C242.212 242.78 242.281 243.238 242.281 243.774C242.281 244.25 242.212 244.697 242.072 245.114C241.933 245.53 241.694 245.894 241.357 246.203C241.032 246.513 240.596 246.757 240.049 246.936C239.503 247.114 238.823 247.203 238.009 247.203C237.602 247.203 237.195 247.192 236.788 247.168C236.381 247.156 235.974 247.126 235.567 247.078V237.612H237.015V240.738ZM237.015 245.81C237.224 245.834 237.398 245.852 237.538 245.864C237.689 245.864 237.898 245.864 238.166 245.864C238.689 245.864 239.119 245.816 239.456 245.721C239.805 245.626 240.078 245.489 240.276 245.31C240.485 245.132 240.63 244.917 240.712 244.667C240.793 244.417 240.834 244.137 240.834 243.828C240.834 243.542 240.799 243.28 240.729 243.042C240.659 242.804 240.52 242.601 240.311 242.435C240.113 242.256 239.828 242.119 239.456 242.024C239.096 241.929 238.613 241.881 238.009 241.881C237.823 241.881 237.654 241.893 237.503 241.917C237.363 241.929 237.201 241.946 237.015 241.97V245.81ZM243.589 237.612H245.037V247.078H243.589V237.612Z" fill="#262626" fill-opacity="0.7"/>
</g>
</g>
<defs>
<filter id="filter0_dd_43_1241" x="-1.45679" y="-0.767334" width="190.026" height="53.6759" filterUnits="userSpaceOnUse" color-interpolation-filters="sRGB">
<feFlood flood-opacity="0" result="BackgroundImageFix"/>
<feColorMatrix in="SourceAlpha" type="matrix" values="0 0 0 0 0 0 0 0 0 0 0 0 0 0 0 0 0 0 127 0" result="hardAlpha"/>
<feOffset dy="3"/>
<feGaussianBlur stdDeviation="3"/>
<feColorMatrix type="matrix" values="0 0 0 0 0.14902 0 0 0 0 0.14902 0 0 0 0 0.14902 0 0 0 0.16 0"/>
<feBlend mode="normal" in2="BackgroundImageFix" result="effect1_dropShadow_43_1241"/>
<feColorMatrix in="SourceAlpha" type="matrix" values="0 0 0 0 0 0 0 0 0 0 0 0 0 0 0 0 0 0 127 0" result="hardAlpha"/>
<feOffset dy="1"/>
<feGaussianBlur stdDeviation="1"/>
<feColorMatrix type="matrix" values="0 0 0 0 0.14902 0 0 0 0 0.14902 0 0 0 0 0.14902 0 0 0 0.04 0"/>
<feBlend mode="normal" in2="effect1_dropShadow_43_1241" result="effect2_dropShadow_43_1241"/>
<feBlend mode="normal" in="SourceGraphic" in2="effect2_dropShadow_43_1241" result="shape"/>
</filter>
<filter id="filter1_dd_43_1241" x="-1.45679" y="58.7696" width="128.988" height="47.7222" filterUnits="userSpaceOnUse" color-interpolation-filters="sRGB">
<feFlood flood-opacity="0" result="BackgroundImageFix"/>
<feColorMatrix in="SourceAlpha" type="matrix" values="0 0 0 0 0 0 0 0 0 0 0 0 0 0 0 0 0 0 127 0" result="hardAlpha"/>
<feOffset dy="3"/>
<feGaussianBlur stdDeviation="3"/>
<feColorMatrix type="matrix" values="0 0 0 0 0.14902 0 0 0 0 0.14902 0 0 0 0 0.14902 0 0 0 0.16 0"/>
<feBlend mode="normal" in2="BackgroundImageFix" result="effect1_dropShadow_43_1241"/>
<feColorMatrix in="SourceAlpha" type="matrix" values="0 0 0 0 0 0 0 0 0 0 0 0 0 0 0 0 0 0 127 0" result="hardAlpha"/>
<feOffset dy="1"/>
<feGaussianBlur stdDeviation="1"/>
<feColorMatrix type="matrix" values="0 0 0 0 0.14902 0 0 0 0 0.14902 0 0 0 0 0.14902 0 0 0 0.04 0"/>
<feBlend mode="normal" in2="effect1_dropShadow_43_1241" result="effect2_dropShadow_43_1241"/>
<feBlend mode="normal" in="SourceGraphic" in2="effect2_dropShadow_43_1241" result="shape"/>
</filter>
<filter id="filter2_dd_43_1241" x="134.424" y="58.7696" width="90.4766" height="47.7222" filterUnits="userSpaceOnUse" color-interpolation-filters="sRGB">
<feFlood flood-opacity="0" result="BackgroundImageFix"/>
<feColorMatrix in="SourceAlpha" type="matrix" values="0 0 0 0 0 0 0 0 0 0 0 0 0 0 0 0 0 0 127 0" result="hardAlpha"/>
<feOffset dy="3"/>
<feGaussianBlur stdDeviation="3"/>
<feColorMatrix type="matrix" values="0 0 0 0 0.14902 0 0 0 0 0.14902 0 0 0 0 0.14902 0 0 0 0.16 0"/>
<feBlend mode="normal" in2="BackgroundImageFix" result="effect1_dropShadow_43_1241"/>
<feColorMatrix in="SourceAlpha" type="matrix" values="0 0 0 0 0 0 0 0 0 0 0 0 0 0 0 0 0 0 127 0" result="hardAlpha"/>
<feOffset dy="1"/>
<feGaussianBlur stdDeviation="1"/>
<feColorMatrix type="matrix" values="0 0 0 0 0.14902 0 0 0 0 0.14902 0 0 0 0 0.14902 0 0 0 0.04 0"/>
<feBlend mode="normal" in2="effect1_dropShadow_43_1241" result="effect2_dropShadow_43_1241"/>
<feBlend mode="normal" in="SourceGraphic" in2="effect2_dropShadow_43_1241" result="shape"/>
</filter>
<filter id="filter3_dd_43_1241" x="-1.45679" y="112.353" width="299.747" height="47.7222" filterUnits="userSpaceOnUse" color-interpolation-filters="sRGB">
<feFlood flood-opacity="0" result="BackgroundImageFix"/>
<feColorMatrix in="SourceAlpha" type="matrix" values="0 0 0 0 0 0 0 0 0 0 0 0 0 0 0 0 0 0 127 0" result="hardAlpha"/>
<feOffset dy="3"/>
<feGaussianBlur stdDeviation="3"/>
<feColorMatrix type="matrix" values="0 0 0 0 0.14902 0 0 0 0 0.14902 0 0 0 0 0.14902 0 0 0 0.16 0"/>
<feBlend mode="normal" in2="BackgroundImageFix" result="effect1_dropShadow_43_1241"/>
<feColorMatrix in="SourceAlpha" type="matrix" values="0 0 0 0 0 0 0 0 0 0 0 0 0 0 0 0 0 0 127 0" result="hardAlpha"/>
<feOffset dy="1"/>
<feGaussianBlur stdDeviation="1"/>
<feColorMatrix type="matrix" values="0 0 0 0 0.14902 0 0 0 0 0.14902 0 0 0 0 0.14902 0 0 0 0.04 0"/>
<feBlend mode="normal" in2="effect1_dropShadow_43_1241" result="effect2_dropShadow_43_1241"/>
<feBlend mode="normal" in="SourceGraphic" in2="effect2_dropShadow_43_1241" result="shape"/>
</filter>
<filter id="filter4_dd_43_1241" x="-1.45679" y="165.936" width="305.56" height="47.7222" filterUnits="userSpaceOnUse" color-interpolation-filters="sRGB">
<feFlood flood-opacity="0" result="BackgroundImageFix"/>
<feColorMatrix in="SourceAlpha" type="matrix" values="0 0 0 0 0 0 0 0 0 0 0 0 0 0 0 0 0 0 127 0" result="hardAlpha"/>
<feOffset dy="3"/>
<feGaussianBlur stdDeviation="3"/>
<feColorMatrix type="matrix" values="0 0 0 0 0.14902 0 0 0 0 0.14902 0 0 0 0 0.14902 0 0 0 0.16 0"/>
<feBlend mode="normal" in2="BackgroundImageFix" result="effect1_dropShadow_43_1241"/>
<feColorMatrix in="SourceAlpha" type="matrix" values="0 0 0 0 0 0 0 0 0 0 0 0 0 0 0 0 0 0 127 0" result="hardAlpha"/>
<feOffset dy="1"/>
<feGaussianBlur stdDeviation="1"/>
<feColorMatrix type="matrix" values="0 0 0 0 0.14902 0 0 0 0 0.14902 0 0 0 0 0.14902 0 0 0 0.04 0"/>
<feBlend mode="normal" in2="effect1_dropShadow_43_1241" result="effect2_dropShadow_43_1241"/>
<feBlend mode="normal" in="SourceGraphic" in2="effect2_dropShadow_43_1241" result="shape"/>
</filter>
<filter id="filter5_dd_43_1241" x="-1.45679" y="219.519" width="272.135" height="47.7222" filterUnits="userSpaceOnUse" color-interpolation-filters="sRGB">
<feFlood flood-opacity="0" result="BackgroundImageFix"/>
<feColorMatrix in="SourceAlpha" type="matrix" values="0 0 0 0 0 0 0 0 0 0 0 0 0 0 0 0 0 0 127 0" result="hardAlpha"/>
<feOffset dy="3"/>
<feGaussianBlur stdDeviation="3"/>
<feColorMatrix type="matrix" values="0 0 0 0 0.14902 0 0 0 0 0.14902 0 0 0 0 0.14902 0 0 0 0.16 0"/>
<feBlend mode="normal" in2="BackgroundImageFix" result="effect1_dropShadow_43_1241"/>
<feColorMatrix in="SourceAlpha" type="matrix" values="0 0 0 0 0 0 0 0 0 0 0 0 0 0 0 0 0 0 127 0" result="hardAlpha"/>
<feOffset dy="1"/>
<feGaussianBlur stdDeviation="1"/>
<feColorMatrix type="matrix" values="0 0 0 0 0.14902 0 0 0 0 0.14902 0 0 0 0 0.14902 0 0 0 0.04 0"/>
<feBlend mode="normal" in2="effect1_dropShadow_43_1241" result="effect2_dropShadow_43_1241"/>
<feBlend mode="normal" in="SourceGraphic" in2="effect2_dropShadow_43_1241" result="shape"/>
</filter>
<clipPath id="clip0_43_1241">
<rect width="302.28" height="264.94" fill="white" transform="translate(0.18335)"/>
</clipPath>
</defs>
</svg>
