<svg width="233" height="204" viewBox="0 0 233 204" fill="none" xmlns="http://www.w3.org/2000/svg">
<g clip-path="url(#clip0_43_1341)">
<g filter="url(#filter0_dd_43_1341)">
<path d="M126.824 1.71564H16.826C9.42493 1.71564 3.4252 7.8605 3.4252 15.4406V20.0156C3.4252 27.5956 9.42493 33.7405 16.826 33.7405H126.824C134.225 33.7405 140.225 27.5956 140.225 20.0156V15.4406C140.225 7.8605 134.225 1.71564 126.824 1.71564Z" fill="white"/>
<path d="M16.96 21.7769H17.9516C18.2196 21.109 18.4653 20.226 18.6887 19.128C18.921 18.03 19.046 16.7399 19.0639 15.2576L19.0907 13.2675H24.7726V21.7769H25.9787V24.6592H24.853V22.8749H18.0856V24.6592H16.96V21.7769ZM23.5666 14.3655H20.2566L20.2432 15.2988C20.2342 15.9301 20.1985 16.5523 20.136 17.1653C20.0824 17.7692 20.0064 18.3503 19.9081 18.9084C19.8188 19.4666 19.7116 19.9881 19.5865 20.4731C19.4704 20.958 19.3453 21.3926 19.2113 21.7769H23.5666V14.3655ZM27.0812 19.2104C27.0812 18.579 27.1661 18.03 27.3359 17.5634C27.5056 17.0967 27.7423 16.7079 28.0461 16.3968C28.3498 16.0857 28.7117 15.8523 29.1316 15.6968C29.5604 15.5412 30.0294 15.4635 30.5386 15.4635C31.0211 15.4635 31.4588 15.5367 31.8519 15.6831C32.245 15.8295 32.5756 16.0582 32.8436 16.3693C33.1205 16.6804 33.3349 17.0738 33.4868 17.5496C33.6387 18.0254 33.7146 18.5927 33.7146 19.2515C33.7146 19.9378 33.6253 20.5188 33.4466 20.9946C33.2769 21.4704 33.0401 21.8593 32.7364 22.1612C32.4415 22.4632 32.0931 22.6828 31.6911 22.82C31.2891 22.9573 30.8558 23.0259 30.3912 23.0259C29.3281 23.0259 28.5107 22.6919 27.9389 22.024C27.3671 21.356 27.0812 20.4182 27.0812 19.2104ZM28.1935 19.2515C28.1935 20.1208 28.3856 20.7979 28.7697 21.2828C29.1628 21.7586 29.7346 21.9965 30.485 21.9965C31.1461 21.9965 31.6643 21.7815 32.0395 21.3515C32.4147 20.9123 32.6024 20.2123 32.6024 19.2515V19.2104C32.6024 18.2862 32.4103 17.6 32.0261 17.1516C31.6509 16.7033 31.1059 16.4791 30.3912 16.4791C29.6855 16.4791 29.1405 16.7124 28.7563 17.1791C28.3811 17.6366 28.1935 18.3137 28.1935 19.2104V19.2515ZM35.6408 15.6007H40.13V16.6713H36.753V22.8749H35.6408V15.6007ZM41.0369 19.2104C41.0369 18.579 41.1217 18.03 41.2915 17.5634C41.4612 17.0967 41.698 16.7079 42.0017 16.3968C42.3055 16.0857 42.6673 15.8523 43.0872 15.6968C43.516 15.5412 43.985 15.4635 44.4943 15.4635C44.9767 15.4635 45.4144 15.5367 45.8075 15.6831C46.2006 15.8295 46.5312 16.0582 46.7992 16.3693C47.0761 16.6804 47.2906 17.0738 47.4424 17.5496C47.5943 18.0254 47.6702 18.5927 47.6702 19.2515C47.6702 19.9378 47.5809 20.5188 47.4022 20.9946C47.2325 21.4704 46.9957 21.8593 46.692 22.1612C46.3972 22.4632 46.0488 22.6828 45.6467 22.82C45.2447 22.9573 44.8114 23.0259 44.3469 23.0259C43.2837 23.0259 42.4663 22.6919 41.8945 22.024C41.3227 21.356 41.0369 20.4182 41.0369 19.2104ZM42.1491 19.2515C42.1491 20.1208 42.3412 20.7979 42.7254 21.2828C43.1184 21.7586 43.6902 21.9965 44.4407 21.9965C45.1018 21.9965 45.6199 21.7815 45.9951 21.3515C46.3704 20.9123 46.558 20.2123 46.558 19.2515V19.2104C46.558 18.2862 46.3659 17.6 45.9817 17.1516C45.6065 16.7033 45.0616 16.4791 44.3469 16.4791C43.6411 16.4791 43.0961 16.7124 42.712 17.1791C42.3367 17.6366 42.1491 18.3137 42.1491 19.2104V19.2515ZM49.5964 15.587C49.8555 15.5687 50.1815 15.5504 50.5746 15.5321C50.9767 15.5138 51.4546 15.5046 52.0085 15.5046C52.5803 15.5046 53.0493 15.5458 53.4156 15.6282C53.7819 15.7105 54.0722 15.8249 54.2866 15.9713C54.5011 16.1177 54.6485 16.3007 54.7289 16.5203C54.8182 16.7307 54.8629 16.964 54.8629 17.2202C54.8629 17.6869 54.7601 18.062 54.5547 18.3457C54.3492 18.6202 53.9918 18.8306 53.4826 18.977C54.0812 19.0319 54.5145 19.1829 54.7825 19.43C55.0594 19.677 55.1979 20.1025 55.1979 20.7064C55.1979 21.0449 55.1488 21.356 55.0505 21.6397C54.9522 21.9142 54.7825 22.1521 54.5413 22.3534C54.309 22.5547 53.9918 22.7102 53.5898 22.82C53.1967 22.9298 52.7054 22.9847 52.1157 22.9847C51.8834 22.9847 51.6422 22.9801 51.3921 22.971C51.1509 22.971 50.9186 22.9664 50.6952 22.9573C50.4719 22.9481 50.2664 22.9344 50.0788 22.9161C49.8912 22.9069 49.7304 22.8978 49.5964 22.8886V15.587ZM50.7086 21.9279C50.9409 21.9462 51.1732 21.9645 51.4055 21.9828C51.6467 21.992 51.8968 21.9965 52.1559 21.9965C52.5222 21.9965 52.826 21.9782 53.0672 21.9416C53.3173 21.8959 53.5183 21.8227 53.6702 21.722C53.8221 21.6214 53.9293 21.4887 53.9918 21.324C54.0544 21.1593 54.0856 20.958 54.0856 20.7201C54.0856 20.3084 53.9472 20.0247 53.6702 19.8692C53.4022 19.7045 52.9644 19.6221 52.3569 19.6221H50.7086V21.9279ZM52.3569 18.6476C52.7768 18.6476 53.1118 18.5607 53.362 18.3869C53.6121 18.213 53.7372 17.9339 53.7372 17.5496C53.7372 17.1379 53.6121 16.8588 53.362 16.7124C53.1208 16.566 52.6964 16.4928 52.0889 16.4928C51.7494 16.4928 51.4725 16.4928 51.2581 16.4928C51.0437 16.4928 50.8605 16.4974 50.7086 16.5066V18.6476H52.3569ZM56.6413 19.2104C56.6413 18.579 56.7262 18.03 56.8959 17.5634C57.0657 17.0967 57.3024 16.7079 57.6062 16.3968C57.9099 16.0857 58.2718 15.8523 58.6916 15.6968C59.1205 15.5412 59.5895 15.4635 60.0987 15.4635C60.5812 15.4635 61.0189 15.5367 61.412 15.6831C61.8051 15.8295 62.1356 16.0582 62.4037 16.3693C62.6806 16.6804 62.895 17.0738 63.0469 17.5496C63.1988 18.0254 63.2747 18.5927 63.2747 19.2515C63.2747 19.9378 63.1854 20.5188 63.0067 20.9946C62.837 21.4704 62.6002 21.8593 62.2965 22.1612C62.0016 22.4632 61.6532 22.6828 61.2512 22.82C60.8492 22.9573 60.4159 23.0259 59.9513 23.0259C58.8882 23.0259 58.0707 22.6919 57.499 22.024C56.9272 21.356 56.6413 20.4182 56.6413 19.2104ZM57.7536 19.2515C57.7536 20.1208 57.9457 20.7979 58.3298 21.2828C58.7229 21.7586 59.2947 21.9965 60.0451 21.9965C60.7062 21.9965 61.2244 21.7815 61.5996 21.3515C61.9748 20.9123 62.1624 20.2123 62.1624 19.2515V19.2104C62.1624 18.2862 61.9704 17.6 61.5862 17.1516C61.211 16.7033 60.666 16.4791 59.9513 16.4791C59.2455 16.4791 58.7006 16.7124 58.3164 17.1791C57.9412 17.6366 57.7536 18.3137 57.7536 19.2104V19.2515ZM65.1877 15.6007H66.2061L66.2731 16.8771C66.6484 15.9347 67.4747 15.4635 68.7523 15.4635C69.6725 15.4635 70.3604 15.7471 70.816 16.3144C71.2716 16.8725 71.4994 17.7967 71.4994 19.0868C71.4994 19.7914 71.4369 20.3953 71.3118 20.8985C71.1868 21.3926 70.9991 21.7998 70.749 22.1201C70.5078 22.4312 70.204 22.6599 69.8377 22.8063C69.4715 22.9527 69.0471 23.0259 68.5647 23.0259C67.9572 23.0259 67.4703 22.9161 67.104 22.6965C66.7466 22.4678 66.4786 22.2024 66.2999 21.9005V25.3454H65.1877V15.6007ZM66.2999 19.9515C66.2999 20.5829 66.4741 21.0815 66.8226 21.4475C67.1799 21.8135 67.6847 21.9965 68.3369 21.9965C68.7121 21.9965 69.0292 21.9462 69.2883 21.8456C69.5474 21.7449 69.7573 21.5802 69.9181 21.3515C70.079 21.1227 70.1951 20.8299 70.2666 20.4731C70.347 20.1162 70.3872 19.677 70.3872 19.1555C70.3872 18.6614 70.3425 18.245 70.2532 17.9065C70.1638 17.5588 70.0343 17.2843 69.8645 17.083C69.6948 16.8725 69.4804 16.7216 69.2213 16.6301C68.9712 16.5386 68.6808 16.4928 68.3503 16.4928C68.0018 16.4928 67.6981 16.5432 67.439 16.6438C67.1799 16.7445 66.9655 16.8863 66.7958 17.0693C66.626 17.2431 66.5009 17.4536 66.4205 17.7006C66.3401 17.9477 66.2999 18.213 66.2999 18.4967V19.9515ZM74.5342 18.0026C74.7128 17.9843 74.8781 17.9705 75.03 17.9614C75.1819 17.9522 75.3427 17.9477 75.5124 17.9477C76.0752 17.9477 76.5532 17.998 76.9463 18.0986C77.3394 18.1901 77.6565 18.3365 77.8977 18.5378C78.139 18.73 78.3132 18.977 78.4204 19.279C78.5276 19.5718 78.5812 19.9241 78.5812 20.3358C78.5812 20.7018 78.5276 21.0449 78.4204 21.3652C78.3132 21.6854 78.13 21.9645 77.8709 22.2024C77.6208 22.4403 77.2858 22.6279 76.8659 22.7651C76.446 22.9024 75.9234 22.971 75.298 22.971C74.9853 22.971 74.6726 22.9618 74.3599 22.9435C74.0473 22.9344 73.7346 22.9115 73.4219 22.8749V15.6007H74.5342V18.0026ZM74.5342 21.9005C74.695 21.9188 74.829 21.9325 74.9362 21.9416C75.0523 21.9416 75.2131 21.9416 75.4186 21.9416C75.8206 21.9416 76.1512 21.905 76.4103 21.8318C76.6783 21.7586 76.8882 21.6534 77.0401 21.5162C77.2009 21.3789 77.3126 21.2142 77.3751 21.0221C77.4377 20.8299 77.4689 20.6149 77.4689 20.377C77.4689 20.1574 77.4421 19.9561 77.3885 19.7731C77.3349 19.5901 77.2277 19.4345 77.0669 19.3064C76.915 19.1692 76.6961 19.064 76.4103 18.9908C76.1333 18.9176 75.7626 18.881 75.298 18.881C75.1551 18.881 75.0255 18.8901 74.9094 18.9084C74.8022 18.9176 74.6771 18.9313 74.5342 18.9496V21.9005ZM79.5862 15.6007H80.6985V22.8749H79.5862V15.6007ZM86.9589 15.6007H88.0712V18.6476H91.609V15.6007H92.7212V22.8749H91.609V19.7319H88.0712V22.8749H86.9589V15.6007ZM99.0944 21.8318C98.9157 22.1612 98.6388 22.4449 98.2636 22.6828C97.8973 22.9115 97.4595 23.0259 96.9503 23.0259C96.2356 23.0259 95.6727 22.8429 95.2618 22.4769C94.8508 22.1018 94.6453 21.5619 94.6453 20.8574C94.6453 20.4548 94.6945 20.1162 94.7928 19.8417C94.9 19.5581 95.0652 19.3293 95.2886 19.1555C95.5209 18.9725 95.8157 18.8398 96.173 18.7574C96.5304 18.6751 96.9637 18.6339 97.4729 18.6339H99.0676V17.9477C99.0676 17.6549 99.0319 17.417 98.9604 17.234C98.8979 17.0418 98.7951 16.8954 98.6522 16.7948C98.5092 16.685 98.3261 16.6118 98.1027 16.5752C97.8883 16.5294 97.6337 16.5066 97.3389 16.5066C96.9369 16.5066 96.5349 16.5843 96.1328 16.7399C95.7397 16.8954 95.4226 17.0784 95.1814 17.2889V15.9713C95.3243 15.8889 95.4896 15.8157 95.6772 15.7517C95.8738 15.6876 96.0748 15.6373 96.2802 15.6007C96.4857 15.555 96.6912 15.5229 96.8967 15.5046C97.1022 15.4772 97.2898 15.4635 97.4595 15.4635C97.9241 15.4635 98.3261 15.5046 98.6656 15.587C99.014 15.6693 99.2999 15.8066 99.5232 15.9987C99.7466 16.1909 99.9119 16.4471 100.019 16.7673C100.126 17.0784 100.18 17.4673 100.18 17.9339V22.8749H99.1614L99.0944 21.8318ZM95.7844 20.6789C95.7844 21.0724 95.8916 21.3789 96.106 21.5985C96.3204 21.8181 96.6733 21.9279 97.1647 21.9279C97.8258 21.9279 98.3082 21.7541 98.612 21.4064C98.9157 21.0587 99.0676 20.6195 99.0676 20.0888V19.4711H97.5131C97.1736 19.4711 96.8922 19.494 96.6689 19.5398C96.4455 19.5855 96.2668 19.6587 96.1328 19.7594C96.0078 19.8509 95.9184 19.9744 95.8648 20.1299C95.8112 20.2763 95.7844 20.4593 95.7844 20.6789ZM102.511 15.6007H103.623V19.1417C103.623 19.5718 103.614 19.9881 103.597 20.3907C103.579 20.7842 103.561 21.0724 103.543 21.2554L103.597 21.2828C103.766 20.99 103.945 20.7064 104.133 20.4319C104.32 20.1482 104.512 19.8692 104.709 19.5947L107.402 15.6007H108.381V22.8749H107.268V19.9378C107.268 19.6724 107.268 19.4071 107.268 19.1417C107.277 18.8672 107.286 18.6065 107.295 18.3594C107.304 18.1124 107.313 17.8882 107.322 17.6869C107.331 17.4764 107.34 17.3072 107.349 17.1791L107.309 17.1653C107.192 17.3758 107.041 17.6411 106.853 17.9614C106.665 18.2725 106.469 18.5653 106.263 18.8398L103.503 22.8749H102.511V15.6007ZM104.401 12.444C104.436 12.7917 104.526 13.0662 104.669 13.2675C104.82 13.4688 105.084 13.5694 105.459 13.5694C105.834 13.5694 106.098 13.4688 106.25 13.2675C106.411 13.0662 106.509 12.7917 106.545 12.444H107.536C107.465 13.1211 107.242 13.6106 106.866 13.9125C106.5 14.2145 106.031 14.3655 105.459 14.3655C104.887 14.3655 104.414 14.2145 104.039 13.9125C103.672 13.6106 103.454 13.1211 103.382 12.444H104.401ZM110.784 15.6007H112.258L114.51 19.9241L116.667 15.6007H118.074V22.8749H116.962V19.0457C116.962 18.6339 116.98 18.2267 117.016 17.8241C117.051 17.4124 117.087 17.0006 117.123 16.5889C116.917 17.0555 116.725 17.4947 116.547 17.9065C116.368 18.3091 116.203 18.6476 116.051 18.9221L114.818 21.1181H114.054L112.888 18.9359C112.736 18.6431 112.562 18.2954 112.366 17.8928C112.169 17.4902 111.964 17.0601 111.749 16.6026C111.785 17.0144 111.816 17.4307 111.843 17.8516C111.879 18.2633 111.897 18.6797 111.897 19.1006V22.8749H110.784V15.6007ZM124.451 21.8318C124.272 22.1612 123.995 22.4449 123.62 22.6828C123.254 22.9115 122.816 23.0259 122.307 23.0259C121.592 23.0259 121.029 22.8429 120.618 22.4769C120.207 22.1018 120.002 21.5619 120.002 20.8574C120.002 20.4548 120.051 20.1162 120.149 19.8417C120.256 19.5581 120.422 19.3293 120.645 19.1555C120.877 18.9725 121.172 18.8398 121.53 18.7574C121.887 18.6751 122.32 18.6339 122.829 18.6339H124.424V17.9477C124.424 17.6549 124.388 17.417 124.317 17.234C124.254 17.0418 124.152 16.8954 124.009 16.7948C123.866 16.685 123.683 16.6118 123.459 16.5752C123.245 16.5294 122.99 16.5066 122.695 16.5066C122.293 16.5066 121.891 16.5843 121.489 16.7399C121.096 16.8954 120.779 17.0784 120.538 17.2889V15.9713C120.681 15.8889 120.846 15.8157 121.034 15.7517C121.23 15.6876 121.431 15.6373 121.637 15.6007C121.842 15.555 122.048 15.5229 122.253 15.5046C122.459 15.4772 122.646 15.4635 122.816 15.4635C123.281 15.4635 123.683 15.5046 124.022 15.587C124.37 15.6693 124.656 15.8066 124.88 15.9987C125.103 16.1909 125.268 16.4471 125.376 16.7673C125.483 17.0784 125.536 17.4673 125.536 17.9339V22.8749H124.518L124.451 21.8318ZM121.141 20.6789C121.141 21.0724 121.248 21.3789 121.463 21.5985C121.677 21.8181 122.03 21.9279 122.521 21.9279C123.182 21.9279 123.665 21.7541 123.968 21.4064C124.272 21.0587 124.424 20.6195 124.424 20.0888V19.4711H122.87C122.53 19.4711 122.249 19.494 122.025 19.5398C121.802 19.5855 121.623 19.6587 121.489 19.7594C121.364 19.8509 121.275 19.9744 121.221 20.1299C121.168 20.2763 121.141 20.4593 121.141 20.6789Z" fill="#262626" fill-opacity="0.7"/>
</g>
<g filter="url(#filter1_dd_43_1341)">
<path d="M79.9213 47.4654H16.826C9.42493 47.4654 3.4252 53.6103 3.4252 61.1903C3.4252 68.7704 9.42493 74.9153 16.826 74.9153H79.9213C87.3223 74.9153 93.322 68.7704 93.322 61.1903C93.322 53.6103 87.3223 47.4654 79.9213 47.4654Z" fill="white"/>
<path d="M18.3269 56.8121C18.6127 56.7755 18.9701 56.7389 19.3989 56.7023C19.8367 56.6657 20.2834 56.6474 20.739 56.6474C21.4537 56.6474 22.0612 56.7114 22.5615 56.8395C23.0618 56.9676 23.4683 57.1644 23.781 57.4297C24.0937 57.6859 24.317 58.0107 24.451 58.4042C24.594 58.7885 24.6654 59.246 24.6654 59.7767C24.6654 60.9936 24.3572 61.8858 23.7408 62.453C23.1333 63.0203 22.1327 63.304 20.739 63.304C20.5603 63.304 20.3638 63.2994 20.1494 63.2903C19.935 63.2811 19.7295 63.2674 19.5329 63.2491V66.3372H18.3269V56.8121ZM19.5329 62.1648C19.7295 62.1831 19.926 62.1968 20.1226 62.206C20.328 62.2151 20.5335 62.2197 20.739 62.2197C21.2304 62.2197 21.6458 62.1831 21.9853 62.1099C22.3248 62.0276 22.5972 61.8949 22.8027 61.7119C23.0171 61.5289 23.169 61.291 23.2583 60.9982C23.3566 60.7054 23.4058 60.3394 23.4058 59.9002C23.4058 59.4976 23.3611 59.1591 23.2717 58.8846C23.1824 58.6101 23.0305 58.3905 22.8161 58.2258C22.6106 58.0519 22.3426 57.9284 22.0121 57.8552C21.6815 57.782 21.275 57.7454 20.7926 57.7454C20.5871 57.7454 20.3727 57.75 20.1494 57.7591C19.935 57.7683 19.7295 57.782 19.5329 57.8003V62.1648ZM30.5331 65.2941C30.3544 65.6235 30.0774 65.9072 29.7022 66.1451C29.3359 66.3738 28.8982 66.4882 28.3889 66.4882C27.6742 66.4882 27.1114 66.3052 26.7004 65.9392C26.2895 65.564 26.084 65.0242 26.084 64.3196C26.084 63.917 26.1331 63.5785 26.2314 63.304C26.3386 63.0203 26.5039 62.7916 26.7272 62.6177C26.9595 62.4347 27.2543 62.3021 27.6117 62.2197C27.969 62.1374 28.4023 62.0962 28.9116 62.0962H30.5063V61.41C30.5063 61.1172 30.4705 60.8793 30.3991 60.6963C30.3365 60.5041 30.2338 60.3577 30.0908 60.2571C29.9479 60.1473 29.7647 60.0741 29.5414 60.0375C29.327 59.9917 29.0724 59.9688 28.7776 59.9688C28.3755 59.9688 27.9735 60.0466 27.5715 60.2022C27.1784 60.3577 26.8613 60.5407 26.62 60.7512V59.4336C26.763 59.3512 26.9283 59.278 27.1159 59.214C27.3124 59.1499 27.5134 59.0996 27.7189 59.063C27.9244 59.0172 28.1299 58.9852 28.3353 58.9669C28.5408 58.9395 28.7284 58.9257 28.8982 58.9257C29.3627 58.9257 29.7648 58.9669 30.1042 59.0493C30.4527 59.1316 30.7385 59.2689 30.9619 59.461C31.1852 59.6532 31.3505 59.9094 31.4577 60.2296C31.5649 60.5407 31.6185 60.9296 31.6185 61.3962V66.3372H30.6001L30.5331 65.2941ZM27.2231 64.1412C27.2231 64.5347 27.3303 64.8412 27.5447 65.0608C27.7591 65.2804 28.112 65.3902 28.6034 65.3902C29.2645 65.3902 29.7469 65.2163 30.0506 64.8686C30.3544 64.5209 30.5063 64.0817 30.5063 63.551V62.9334H28.9518C28.6123 62.9334 28.3309 62.9563 28.1075 63.002C27.8842 63.0478 27.7055 63.121 27.5715 63.2216C27.4464 63.3131 27.3571 63.4367 27.3035 63.5922C27.2499 63.7386 27.2231 63.9216 27.2231 64.1412ZM38.9016 60.5865C38.6872 60.4309 38.4102 60.2982 38.0707 60.1884C37.7312 60.0695 37.3605 60.01 36.9585 60.01C36.6368 60.01 36.342 60.0558 36.074 60.1473C35.806 60.2296 35.5737 60.3714 35.3772 60.5727C35.1895 60.774 35.0421 61.0485 34.9349 61.3962C34.8367 61.7348 34.7875 62.1557 34.7875 62.6589C34.7875 63.1713 34.8411 63.6014 34.9483 63.9491C35.0555 64.2968 35.2119 64.5804 35.4174 64.8C35.6318 65.0105 35.8864 65.1614 36.1812 65.2529C36.485 65.3444 36.8334 65.3902 37.2265 65.3902C37.5928 65.3902 37.9412 65.3353 38.2717 65.2255C38.6112 65.1157 38.8971 64.9601 39.1294 64.7588V65.9941C38.9418 66.1496 38.6693 66.2686 38.3119 66.3509C37.9635 66.4424 37.5481 66.4882 37.0657 66.4882C36.5296 66.4882 36.0472 66.4241 35.6184 66.296C35.1985 66.1588 34.8411 65.9346 34.5463 65.6235C34.2515 65.3124 34.0237 64.9098 33.8629 64.4157C33.711 63.9125 33.6351 63.2948 33.6351 62.5628C33.6351 61.3093 33.9209 60.3897 34.4927 59.8041C35.0734 59.2185 35.9445 58.9257 37.1059 58.9257C37.5436 58.9257 37.901 58.9623 38.1779 59.0355C38.4549 59.0996 38.6961 59.1865 38.9016 59.2963V60.5865ZM41.145 59.063H46.8001V66.3372H45.6879V60.1335H42.2573V66.3372H41.145V59.063ZM49.3896 59.063H50.5019V62.604C50.5019 63.0341 50.493 63.4504 50.4751 63.853C50.4572 64.2464 50.4393 64.5347 50.4215 64.7177L50.4751 64.7451C50.6448 64.4523 50.8235 64.1687 51.0111 63.8942C51.1987 63.6105 51.3908 63.3314 51.5873 63.0569L54.2809 59.063H55.2592V66.3372H54.1469V63.4001C54.1469 63.1347 54.1469 62.8694 54.1469 62.604C54.1558 62.3295 54.1648 62.0687 54.1737 61.8217C54.1826 61.5746 54.1916 61.3505 54.2005 61.1492C54.2094 60.9387 54.2184 60.7695 54.2273 60.6414L54.1871 60.6276C54.071 60.8381 53.9191 61.1034 53.7315 61.4237C53.5439 61.7348 53.3473 62.0276 53.1418 62.3021L50.3813 66.3372H49.3896V59.063ZM62.6147 60.5865C62.4003 60.4309 62.1234 60.2982 61.7839 60.1884C61.4444 60.0695 61.0736 60.01 60.6716 60.01C60.35 60.01 60.0552 60.0558 59.7872 60.1473C59.5192 60.2296 59.2869 60.3714 59.0903 60.5727C58.9027 60.774 58.7553 61.0485 58.6481 61.3962C58.5498 61.7348 58.5007 62.1557 58.5007 62.6589C58.5007 63.1713 58.5543 63.6014 58.6615 63.9491C58.7687 64.2968 58.925 64.5804 59.1305 64.8C59.3449 65.0105 59.5996 65.1614 59.8944 65.2529C60.1981 65.3444 60.5465 65.3902 60.9396 65.3902C61.3059 65.3902 61.6543 65.3353 61.9849 65.2255C62.3244 65.1157 62.6103 64.9601 62.8425 64.7588V65.9941C62.6549 66.1496 62.3824 66.2686 62.0251 66.3509C61.6767 66.4424 61.2613 66.4882 60.7788 66.4882C60.2428 66.4882 59.7604 66.4241 59.3315 66.296C58.9116 66.1588 58.5543 65.9346 58.2595 65.6235C57.9647 65.3124 57.7368 64.9098 57.576 64.4157C57.4242 63.9125 57.3482 63.2948 57.3482 62.5628C57.3482 61.3093 57.6341 60.3897 58.2059 59.8041C58.7866 59.2185 59.6576 58.9257 60.819 58.9257C61.2568 58.9257 61.6141 58.9623 61.8911 59.0355C62.168 59.0996 62.4092 59.1865 62.6147 59.2963V60.5865ZM67.1364 63.0432H65.9705V66.3372H64.8582V59.063H65.9705V62.1511H67.1498L69.5217 59.063H70.7948L68.0878 62.5217L71.0762 66.3372H69.7227L67.1364 63.0432ZM72.6318 59.063H73.7441V62.604C73.7441 63.0341 73.7351 63.4504 73.7173 63.853C73.6994 64.2464 73.6815 64.5347 73.6637 64.7177L73.7173 64.7451C73.887 64.4523 74.0657 64.1687 74.2533 63.8942C74.4409 63.6105 74.633 63.3314 74.8295 63.0569L77.5231 59.063H78.5013V66.3372H77.3891V63.4001C77.3891 63.1347 77.3891 62.8694 77.3891 62.604C77.398 62.3295 77.4069 62.0687 77.4159 61.8217C77.4248 61.5746 77.4337 61.3505 77.4427 61.1492C77.4516 60.9387 77.4605 60.7695 77.4695 60.6414L77.4293 60.6276C77.3131 60.8381 77.1613 61.1034 76.9736 61.4237C76.786 61.7348 76.5895 62.0276 76.384 62.3021L73.6235 66.3372H72.6318V59.063Z" fill="#262626" fill-opacity="0.7"/>
</g>
<g filter="url(#filter2_dd_43_1341)">
<path d="M154.742 47.4654H121.24C113.839 47.4654 107.84 53.6103 107.84 61.1903C107.84 68.7704 113.839 74.9153 121.24 74.9153H154.742C162.143 74.9153 168.143 68.7704 168.143 61.1903C168.143 53.6103 162.143 47.4654 154.742 47.4654Z" fill="white"/>
<path d="M127.74 63.7706H123.733L122.808 66.3372H121.575L125.153 56.7297H126.373L130.004 66.3372H128.678L127.74 63.7706ZM124.135 62.6726H127.338L125.73 58.2669L124.135 62.6726ZM133.9 63.0432H132.734V66.3372H131.622V59.063H132.734V62.1511H133.914L136.285 59.063H137.559L134.852 62.5217L137.84 66.3372H136.486L133.9 63.0432ZM140.786 60.1335H138.481V59.063H144.19V60.1335H141.898V66.3372H140.786V60.1335ZM146.829 61.4648C147.007 61.4465 147.172 61.4328 147.324 61.4237C147.476 61.4145 147.637 61.4099 147.807 61.4099C148.37 61.4099 148.848 61.4603 149.241 61.5609C149.634 61.6524 149.951 61.7988 150.192 62.0001C150.433 62.1923 150.608 62.4393 150.715 62.7413C150.822 63.0341 150.876 63.3863 150.876 63.7981C150.876 64.1641 150.822 64.5072 150.715 64.8274C150.608 65.1477 150.424 65.4268 150.165 65.6647C149.915 65.9026 149.58 66.0901 149.16 66.2274C148.74 66.3646 148.218 66.4333 147.592 66.4333C147.28 66.4333 146.967 66.4241 146.654 66.4058C146.342 66.3967 146.029 66.3738 145.716 66.3372V59.063H146.829V61.4648ZM146.829 65.3627C146.989 65.381 147.123 65.3947 147.231 65.4039C147.347 65.4039 147.507 65.4039 147.713 65.4039C148.115 65.4039 148.446 65.3673 148.705 65.2941C148.973 65.2209 149.183 65.1157 149.334 64.9784C149.495 64.8412 149.607 64.6765 149.669 64.4843C149.732 64.2922 149.763 64.0772 149.763 63.8393C149.763 63.6197 149.736 63.4184 149.683 63.2354C149.629 63.0524 149.522 62.8968 149.361 62.7687C149.209 62.6315 148.991 62.5262 148.705 62.453C148.428 62.3798 148.057 62.3432 147.592 62.3432C147.449 62.3432 147.32 62.3524 147.204 62.3707C147.097 62.3798 146.971 62.3936 146.829 62.4119V65.3627ZM151.881 59.063H152.993V66.3372H151.881V59.063Z" fill="#262626" fill-opacity="0.7"/>
</g>
<g filter="url(#filter3_dd_43_1341)">
<path d="M211.137 88.6403H16.826C9.42493 88.6403 3.4252 94.7851 3.4252 102.365C3.4252 109.945 9.42493 116.09 16.826 116.09H211.137C218.538 116.09 224.538 109.945 224.538 102.365C224.538 94.7851 218.538 88.6403 211.137 88.6403Z" fill="white"/>
<path d="M16.96 106.414H17.9516C18.2196 105.746 18.4653 104.863 18.6887 103.765C18.921 102.667 19.046 101.377 19.0639 99.8947L19.0907 97.9046H24.7726V106.414H25.9787V109.296H24.853V107.512H18.0856V109.296H16.96V106.414ZM23.5666 99.0026H20.2566L20.2432 99.9359C20.2342 100.567 20.1985 101.189 20.136 101.802C20.0824 102.406 20.0064 102.987 19.9081 103.546C19.8188 104.104 19.7116 104.625 19.5865 105.11C19.4704 105.595 19.3453 106.03 19.2113 106.414H23.5666V99.0026ZM27.2488 103.847C27.2488 103.216 27.3336 102.667 27.5034 102.2C27.6731 101.734 27.9099 101.345 28.2136 101.034C28.5174 100.723 28.8792 100.489 29.2991 100.334C29.7279 100.178 30.1969 100.101 30.7062 100.101C31.1886 100.101 31.6263 100.174 32.0194 100.32C32.4125 100.467 32.7431 100.695 33.0111 101.006C33.288 101.318 33.5024 101.711 33.6543 102.187C33.8062 102.663 33.8821 103.23 33.8821 103.889C33.8821 104.575 33.7928 105.156 33.6141 105.632C33.4444 106.108 33.2076 106.496 32.9039 106.798C32.6091 107.1 32.2606 107.32 31.8586 107.457C31.4566 107.594 31.0233 107.663 30.5587 107.663C29.4956 107.663 28.6782 107.329 28.1064 106.661C27.5346 105.993 27.2488 105.055 27.2488 103.847ZM28.361 103.889C28.361 104.758 28.5531 105.435 28.9373 105.92C29.3303 106.396 29.9021 106.634 30.6525 106.634C31.3137 106.634 31.8318 106.419 32.207 105.989C32.5823 105.549 32.7699 104.849 32.7699 103.889V103.847C32.7699 102.923 32.5778 102.237 32.1936 101.789C31.8184 101.34 31.2735 101.116 30.5587 101.116C29.853 101.116 29.308 101.35 28.9238 101.816C28.5486 102.274 28.361 102.951 28.361 103.847V103.889ZM35.9758 100.238H40.465V101.308H37.088V107.512H35.9758V100.238ZM41.5394 103.847C41.5394 103.216 41.6243 102.667 41.794 102.2C41.9637 101.734 42.2005 101.345 42.5042 101.034C42.808 100.723 43.1698 100.489 43.5897 100.334C44.0185 100.178 44.4876 100.101 44.9968 100.101C45.4792 100.101 45.917 100.174 46.3101 100.32C46.7032 100.467 47.0337 100.695 47.3017 101.006C47.5787 101.318 47.7931 101.711 47.945 102.187C48.0968 102.663 48.1728 103.23 48.1728 103.889C48.1728 104.575 48.0834 105.156 47.9048 105.632C47.735 106.108 47.4983 106.496 47.1945 106.798C46.8997 107.1 46.5513 107.32 46.1493 107.457C45.7472 107.594 45.3139 107.663 44.8494 107.663C43.7863 107.663 42.9688 107.329 42.397 106.661C41.8253 105.993 41.5394 105.055 41.5394 103.847ZM42.6517 103.889C42.6517 104.758 42.8437 105.435 43.2279 105.92C43.621 106.396 44.1927 106.634 44.9432 106.634C45.6043 106.634 46.1225 106.419 46.4977 105.989C46.8729 105.549 47.0605 104.849 47.0605 103.889V103.847C47.0605 102.923 46.8684 102.237 46.4843 101.789C46.1091 101.34 45.5641 101.116 44.8494 101.116C44.1436 101.116 43.5986 101.35 43.2145 101.816C42.8393 102.274 42.6517 102.951 42.6517 103.847V103.889ZM50.2664 100.224C50.5255 100.206 50.8516 100.188 51.2447 100.169C51.6467 100.151 52.1247 100.142 52.6786 100.142C53.2503 100.142 53.7193 100.183 54.0856 100.265C54.4519 100.348 54.7423 100.462 54.9567 100.608C55.1711 100.755 55.3185 100.938 55.3989 101.157C55.4883 101.368 55.5329 101.601 55.5329 101.857C55.5329 102.324 55.4302 102.699 55.2247 102.983C55.0192 103.257 54.6619 103.468 54.1526 103.614C54.7512 103.669 55.1845 103.82 55.4525 104.067C55.7295 104.314 55.8679 104.74 55.8679 105.343C55.8679 105.682 55.8188 105.993 55.7205 106.277C55.6223 106.551 55.4525 106.789 55.2113 106.99C54.979 107.192 54.6619 107.347 54.2598 107.457C53.8668 107.567 53.3754 107.622 52.7858 107.622C52.5535 107.622 52.3123 107.617 52.0621 107.608C51.8209 107.608 51.5886 107.604 51.3653 107.594C51.1419 107.585 50.9365 107.572 50.7488 107.553C50.5612 107.544 50.4004 107.535 50.2664 107.526V100.224ZM51.3787 106.565C51.611 106.583 51.8432 106.602 52.0755 106.62C52.3167 106.629 52.5669 106.634 52.826 106.634C53.1923 106.634 53.496 106.615 53.7372 106.579C53.9874 106.533 54.1884 106.46 54.3403 106.359C54.4921 106.258 54.5993 106.126 54.6619 105.961C54.7244 105.796 54.7557 105.595 54.7557 105.357C54.7557 104.945 54.6172 104.662 54.3403 104.506C54.0722 104.342 53.6345 104.259 53.027 104.259H51.3787V106.565ZM53.027 103.285C53.4469 103.285 53.7819 103.198 54.032 103.024C54.2822 102.85 54.4073 102.571 54.4073 102.187C54.4073 101.775 54.2822 101.496 54.032 101.35C53.7908 101.203 53.3665 101.13 52.759 101.13C52.4195 101.13 52.1425 101.13 51.9281 101.13C51.7137 101.13 51.5306 101.135 51.3787 101.144V103.285H53.027ZM57.4789 103.847C57.4789 103.216 57.5638 102.667 57.7335 102.2C57.9032 101.734 58.14 101.345 58.4437 101.034C58.7475 100.723 59.1093 100.489 59.5292 100.334C59.958 100.178 60.427 100.101 60.9363 100.101C61.4187 100.101 61.8565 100.174 62.2496 100.32C62.6426 100.467 62.9732 100.695 63.2412 101.006C63.5182 101.318 63.7326 101.711 63.8844 102.187C64.0363 102.663 64.1123 103.23 64.1123 103.889C64.1123 104.575 64.0229 105.156 63.8442 105.632C63.6745 106.108 63.4378 106.496 63.134 106.798C62.8392 107.1 62.4908 107.32 62.0887 107.457C61.6867 107.594 61.2534 107.663 60.7889 107.663C59.7257 107.663 58.9083 107.329 58.3365 106.661C57.7648 105.993 57.4789 105.055 57.4789 103.847ZM58.5911 103.889C58.5911 104.758 58.7832 105.435 59.1674 105.92C59.5605 106.396 60.1322 106.634 60.8827 106.634C61.5438 106.634 62.0619 106.419 62.4372 105.989C62.8124 105.549 63 104.849 63 103.889V103.847C63 102.923 62.8079 102.237 62.4238 101.789C62.0485 101.34 61.5036 101.116 60.7889 101.116C60.0831 101.116 59.5381 101.35 59.154 101.816C58.7788 102.274 58.5911 102.951 58.5911 103.847V103.889ZM66.1927 100.238H67.2112L67.2782 101.514C67.6534 100.572 68.4798 100.101 69.7573 100.101C70.6775 100.101 71.3654 100.384 71.8211 100.952C72.2767 101.51 72.5045 102.434 72.5045 103.724C72.5045 104.429 72.442 105.032 72.3169 105.536C72.1918 106.03 72.0042 106.437 71.7541 106.757C71.5128 107.068 71.2091 107.297 70.8428 107.443C70.4765 107.59 70.0522 107.663 69.5697 107.663C68.9622 107.663 68.4753 107.553 68.109 107.334C67.7517 107.105 67.4837 106.84 67.305 106.538V109.983H66.1927V100.238ZM67.305 104.589C67.305 105.22 67.4792 105.719 67.8276 106.085C68.185 106.451 68.6897 106.634 69.3419 106.634C69.7171 106.634 70.0343 106.583 70.2934 106.483C70.5524 106.382 70.7624 106.217 70.9232 105.989C71.084 105.76 71.2002 105.467 71.2716 105.11C71.352 104.753 71.3922 104.314 71.3922 103.793C71.3922 103.298 71.3476 102.882 71.2582 102.544C71.1689 102.196 71.0393 101.921 70.8696 101.72C70.6999 101.51 70.4854 101.359 70.2264 101.267C69.9762 101.176 69.6859 101.13 69.3553 101.13C69.0069 101.13 68.7031 101.18 68.4441 101.281C68.185 101.382 67.9706 101.523 67.8008 101.706C67.6311 101.88 67.506 102.091 67.4256 102.338C67.3452 102.585 67.305 102.85 67.305 103.134V104.589ZM75.7067 102.64C75.8854 102.621 76.0507 102.608 76.2025 102.599C76.3544 102.589 76.5152 102.585 76.685 102.585C77.2478 102.585 77.7258 102.635 78.1189 102.736C78.5119 102.827 78.8291 102.974 79.0703 103.175C79.3115 103.367 79.4857 103.614 79.5929 103.916C79.7001 104.209 79.7537 104.561 79.7537 104.973C79.7537 105.339 79.7001 105.682 79.5929 106.002C79.4857 106.323 79.3026 106.602 79.0435 106.84C78.7934 107.077 78.4583 107.265 78.0385 107.402C77.6186 107.539 77.0959 107.608 76.4706 107.608C76.1579 107.608 75.8452 107.599 75.5325 107.581C75.2198 107.572 74.9071 107.549 74.5945 107.512V100.238H75.7067V102.64ZM75.7067 106.538C75.8675 106.556 76.0015 106.57 76.1087 106.579C76.2249 106.579 76.3857 106.579 76.5912 106.579C76.9932 106.579 77.3237 106.542 77.5828 106.469C77.8508 106.396 78.0608 106.291 78.2127 106.153C78.3735 106.016 78.4851 105.851 78.5477 105.659C78.6102 105.467 78.6415 105.252 78.6415 105.014C78.6415 104.795 78.6147 104.593 78.5611 104.41C78.5075 104.227 78.4003 104.072 78.2395 103.944C78.0876 103.806 77.8687 103.701 77.5828 103.628C77.3059 103.555 76.9351 103.518 76.4706 103.518C76.3276 103.518 76.1981 103.527 76.0819 103.546C75.9747 103.555 75.8497 103.568 75.7067 103.587V106.538ZM80.7588 100.238H81.8711V107.512H80.7588V100.238ZM87.9841 103.847C87.9841 103.216 88.0689 102.667 88.2387 102.2C88.4084 101.734 88.6452 101.345 88.9489 101.034C89.2527 100.723 89.6145 100.489 90.0344 100.334C90.4632 100.178 90.9322 100.101 91.4415 100.101C91.9239 100.101 92.3616 100.174 92.7547 100.32C93.1478 100.467 93.4784 100.695 93.7464 101.006C94.0233 101.318 94.2377 101.711 94.3896 102.187C94.5415 102.663 94.6174 103.23 94.6174 103.889C94.6174 104.575 94.5281 105.156 94.3494 105.632C94.1797 106.108 93.9429 106.496 93.6392 106.798C93.3444 107.1 92.9959 107.32 92.5939 107.457C92.1919 107.594 91.7586 107.663 91.294 107.663C90.2309 107.663 89.4135 107.329 88.8417 106.661C88.2699 105.993 87.9841 105.055 87.9841 103.847ZM89.0963 103.889C89.0963 104.758 89.2884 105.435 89.6726 105.92C90.0656 106.396 90.6374 106.634 91.3878 106.634C92.049 106.634 92.5671 106.419 92.9423 105.989C93.3176 105.549 93.5052 104.849 93.5052 103.889V103.847C93.5052 102.923 93.3131 102.237 92.9289 101.789C92.5537 101.34 92.0087 101.116 91.294 101.116C90.5883 101.116 90.0433 101.35 89.6592 101.816C89.2839 102.274 89.0963 102.951 89.0963 103.847V103.889ZM102.353 98.2614C102.219 98.3346 101.969 98.3941 101.603 98.4399C101.236 98.4856 100.682 98.5314 99.9409 98.5771C99.4585 98.6046 99.0609 98.6823 98.7482 98.8104C98.4355 98.9294 98.1854 99.1124 97.9978 99.3594C97.8102 99.6065 97.6717 99.9221 97.5824 100.306C97.493 100.691 97.426 101.157 97.3813 101.706L97.4215 101.72C97.7342 101.253 98.1228 100.906 98.5874 100.677C99.0609 100.448 99.5657 100.334 100.102 100.334C100.539 100.334 100.933 100.389 101.281 100.499C101.638 100.599 101.942 100.778 102.192 101.034C102.442 101.29 102.634 101.638 102.768 102.077C102.902 102.507 102.969 103.051 102.969 103.71C102.969 104.406 102.898 105.005 102.755 105.508C102.612 106.002 102.398 106.409 102.112 106.73C101.835 107.041 101.491 107.274 101.08 107.43C100.669 107.576 100.2 107.649 99.6729 107.649C98.5293 107.649 97.6806 107.288 97.1267 106.565C96.5728 105.833 96.2959 104.676 96.2959 103.093C96.2959 102.15 96.354 101.34 96.4701 100.663C96.5862 99.9771 96.7694 99.4052 97.0195 98.9477C97.2786 98.4902 97.6092 98.1379 98.0112 97.8909C98.4221 97.6438 98.918 97.4791 99.4987 97.3968C99.6684 97.3693 99.8873 97.3464 100.155 97.3281C100.423 97.3007 100.696 97.2732 100.973 97.2458C101.259 97.2092 101.527 97.168 101.777 97.1223C102.027 97.0674 102.219 97.0033 102.353 96.9301V98.2614ZM99.6997 106.565C100.405 106.565 100.928 106.355 101.268 105.934C101.616 105.504 101.79 104.808 101.79 103.847C101.79 103.363 101.746 102.965 101.656 102.653C101.567 102.333 101.433 102.082 101.254 101.899C101.084 101.706 100.87 101.574 100.611 101.501C100.361 101.418 100.075 101.377 99.7533 101.377C99.0654 101.377 98.507 101.569 98.0782 101.953C97.6583 102.329 97.4483 102.873 97.4483 103.587C97.4483 104.127 97.4975 104.589 97.5958 104.973C97.694 105.348 97.837 105.655 98.0246 105.893C98.2211 106.13 98.4579 106.304 98.7348 106.414C99.0207 106.515 99.3423 106.565 99.6997 106.565ZM108.596 103.847C108.596 103.216 108.68 102.667 108.85 102.2C109.02 101.734 109.257 101.345 109.56 101.034C109.864 100.723 110.226 100.489 110.646 100.334C111.075 100.178 111.544 100.101 112.053 100.101C112.535 100.101 112.973 100.174 113.366 100.32C113.759 100.467 114.09 100.695 114.358 101.006C114.635 101.318 114.849 101.711 115.001 102.187C115.153 102.663 115.229 103.23 115.229 103.889C115.229 104.575 115.14 105.156 114.961 105.632C114.791 106.108 114.554 106.496 114.251 106.798C113.956 107.1 113.607 107.32 113.205 107.457C112.803 107.594 112.37 107.663 111.906 107.663C110.842 107.663 110.025 107.329 109.453 106.661C108.881 105.993 108.596 105.055 108.596 103.847ZM109.708 103.889C109.708 104.758 109.9 105.435 110.284 105.92C110.677 106.396 111.249 106.634 111.999 106.634C112.66 106.634 113.179 106.419 113.554 105.989C113.929 105.549 114.117 104.849 114.117 103.889V103.847C114.117 102.923 113.925 102.237 113.54 101.789C113.165 101.34 112.62 101.116 111.906 101.116C111.2 101.116 110.655 101.35 110.271 101.816C109.895 102.274 109.708 102.951 109.708 103.847V103.889ZM119.601 104.218H118.435V107.512H117.323V100.238H118.435V103.326H119.614L121.986 100.238H123.259L120.552 103.697L123.541 107.512H122.187L119.601 104.218ZM129.063 106.469C128.884 106.798 128.607 107.082 128.232 107.32C127.866 107.549 127.428 107.663 126.919 107.663C126.204 107.663 125.641 107.48 125.23 107.114C124.819 106.739 124.614 106.199 124.614 105.494C124.614 105.092 124.663 104.753 124.761 104.479C124.869 104.195 125.034 103.966 125.257 103.793C125.489 103.61 125.784 103.477 126.142 103.395C126.499 103.312 126.932 103.271 127.442 103.271H129.036V102.585C129.036 102.292 129 102.054 128.929 101.871C128.866 101.679 128.764 101.533 128.621 101.432C128.478 101.322 128.295 101.249 128.071 101.212C127.857 101.167 127.602 101.144 127.307 101.144C126.905 101.144 126.503 101.221 126.101 101.377C125.708 101.533 125.391 101.716 125.15 101.926V100.608C125.293 100.526 125.458 100.453 125.646 100.389C125.842 100.325 126.043 100.274 126.249 100.238C126.454 100.192 126.66 100.16 126.865 100.142C127.071 100.114 127.258 100.101 127.428 100.101C127.893 100.101 128.295 100.142 128.634 100.224C128.983 100.306 129.268 100.444 129.492 100.636C129.715 100.828 129.88 101.084 129.988 101.404C130.095 101.716 130.148 102.104 130.148 102.571V107.512H129.13L129.063 106.469ZM125.753 105.316C125.753 105.71 125.86 106.016 126.075 106.236C126.289 106.455 126.642 106.565 127.133 106.565C127.794 106.565 128.277 106.391 128.581 106.043C128.884 105.696 129.036 105.257 129.036 104.726V104.108H127.482C127.142 104.108 126.861 104.131 126.637 104.177C126.414 104.223 126.235 104.296 126.101 104.396C125.976 104.488 125.887 104.612 125.833 104.767C125.78 104.913 125.753 105.096 125.753 105.316ZM132.165 105.824C132.397 106.016 132.723 106.199 133.143 106.373C133.572 106.547 134.072 106.634 134.644 106.634C135.189 106.634 135.595 106.538 135.863 106.345C136.14 106.153 136.279 105.824 136.279 105.357C136.279 105.156 136.247 104.987 136.185 104.849C136.122 104.712 136.015 104.602 135.863 104.52C135.711 104.438 135.51 104.383 135.26 104.355C135.019 104.319 134.711 104.3 134.336 104.3H133.411V103.395H134.483C134.992 103.395 135.359 103.298 135.582 103.106C135.814 102.905 135.93 102.603 135.93 102.2C135.93 101.825 135.832 101.551 135.636 101.377C135.439 101.203 135.055 101.116 134.483 101.116C133.956 101.116 133.527 101.189 133.197 101.336C132.875 101.473 132.576 101.651 132.299 101.871V100.54C132.424 100.485 132.558 100.435 132.701 100.389C132.844 100.334 133.009 100.288 133.197 100.252C133.384 100.206 133.599 100.169 133.84 100.142C134.081 100.114 134.362 100.101 134.684 100.101C135.56 100.101 136.172 100.261 136.52 100.581C136.877 100.892 137.056 101.322 137.056 101.871C137.056 102.383 136.98 102.791 136.828 103.093C136.676 103.385 136.377 103.596 135.93 103.724C136.368 103.751 136.721 103.898 136.989 104.163C137.257 104.419 137.391 104.795 137.391 105.289C137.391 106.112 137.154 106.716 136.681 107.1C136.216 107.475 135.43 107.663 134.322 107.663C134.161 107.663 133.983 107.654 133.786 107.636C133.59 107.617 133.393 107.585 133.197 107.539C133.009 107.503 132.821 107.462 132.634 107.416C132.455 107.361 132.299 107.297 132.165 107.224V105.824ZM143.445 106.469C143.266 106.798 142.989 107.082 142.614 107.32C142.248 107.549 141.81 107.663 141.301 107.663C140.586 107.663 140.023 107.48 139.612 107.114C139.201 106.739 138.996 106.199 138.996 105.494C138.996 105.092 139.045 104.753 139.143 104.479C139.25 104.195 139.416 103.966 139.639 103.793C139.871 103.61 140.166 103.477 140.523 103.395C140.881 103.312 141.314 103.271 141.823 103.271H143.418V102.585C143.418 102.292 143.382 102.054 143.311 101.871C143.248 101.679 143.146 101.533 143.003 101.432C142.86 101.322 142.677 101.249 142.453 101.212C142.239 101.167 141.984 101.144 141.689 101.144C141.287 101.144 140.885 101.221 140.483 101.377C140.09 101.533 139.773 101.716 139.532 101.926V100.608C139.675 100.526 139.84 100.453 140.028 100.389C140.224 100.325 140.425 100.274 140.631 100.238C140.836 100.192 141.042 100.16 141.247 100.142C141.453 100.114 141.64 100.101 141.81 100.101C142.274 100.101 142.676 100.142 143.016 100.224C143.364 100.306 143.65 100.444 143.874 100.636C144.097 100.828 144.262 101.084 144.369 101.404C144.477 101.716 144.53 102.104 144.53 102.571V107.512H143.512L143.445 106.469ZM140.135 105.316C140.135 105.71 140.242 106.016 140.456 106.236C140.671 106.455 141.024 106.565 141.515 106.565C142.176 106.565 142.659 106.391 142.962 106.043C143.266 105.696 143.418 105.257 143.418 104.726V104.108H141.864C141.524 104.108 141.243 104.131 141.019 104.177C140.796 104.223 140.617 104.296 140.483 104.396C140.358 104.488 140.269 104.612 140.215 104.767C140.162 104.913 140.135 105.096 140.135 105.316ZM147.03 100.238H148.142V103.285H151.68V100.238H152.792V107.512H151.68V104.369H148.142V107.512H147.03V100.238ZM155.366 100.238H156.478V103.779C156.478 104.209 156.469 104.625 156.451 105.028C156.434 105.421 156.416 105.71 156.398 105.893L156.451 105.92C156.621 105.627 156.8 105.344 156.987 105.069C157.175 104.785 157.367 104.506 157.564 104.232L160.257 100.238H161.235V107.512H160.123V104.575C160.123 104.31 160.123 104.044 160.123 103.779C160.132 103.504 160.141 103.244 160.15 102.997C160.159 102.749 160.168 102.525 160.177 102.324C160.186 102.114 160.195 101.944 160.204 101.816L160.163 101.802C160.047 102.013 159.895 102.278 159.708 102.599C159.52 102.91 159.324 103.202 159.118 103.477L156.358 107.512H155.366V100.238ZM163.807 100.238H164.919V103.779C164.919 104.209 164.91 104.625 164.892 105.028C164.874 105.421 164.856 105.71 164.839 105.893L164.892 105.92C165.062 105.627 165.241 105.344 165.428 105.069C165.616 104.785 165.808 104.506 166.004 104.232L168.698 100.238H169.676V107.512H168.564V104.575C168.564 104.31 168.564 104.044 168.564 103.779C168.573 103.504 168.582 103.244 168.591 102.997C168.6 102.749 168.609 102.525 168.618 102.324C168.627 102.114 168.635 101.944 168.644 101.816L168.604 101.802C168.488 102.013 168.336 102.278 168.149 102.599C167.961 102.91 167.764 103.202 167.559 103.477L164.798 107.512H163.807V100.238ZM177.042 108.994C177.167 108.994 177.279 108.976 177.377 108.939C177.484 108.912 177.583 108.848 177.672 108.747C177.77 108.647 177.864 108.5 177.953 108.308C178.052 108.116 178.154 107.86 178.262 107.539L175.381 100.238H176.667L178.838 106.043L180.647 100.238H181.84L179.387 107.265C179.155 107.942 178.932 108.468 178.717 108.843C178.512 109.219 178.315 109.498 178.128 109.681C177.94 109.864 177.757 109.973 177.578 110.01C177.4 110.056 177.225 110.079 177.056 110.079C176.77 110.079 176.56 110.042 176.426 109.969V108.83C176.613 108.939 176.819 108.994 177.042 108.994ZM188.024 101.761C187.81 101.606 187.533 101.473 187.193 101.363C186.854 101.244 186.483 101.185 186.081 101.185C185.759 101.185 185.465 101.231 185.197 101.322C184.929 101.404 184.696 101.546 184.5 101.748C184.312 101.949 184.165 102.223 184.058 102.571C183.959 102.91 183.91 103.331 183.91 103.834C183.91 104.346 183.964 104.776 184.071 105.124C184.178 105.472 184.334 105.755 184.54 105.975C184.754 106.185 185.009 106.336 185.304 106.428C185.608 106.519 185.956 106.565 186.349 106.565C186.715 106.565 187.064 106.51 187.394 106.4C187.734 106.291 188.02 106.135 188.252 105.934V107.169C188.064 107.324 187.792 107.443 187.435 107.526C187.086 107.617 186.671 107.663 186.188 107.663C185.652 107.663 185.17 107.599 184.741 107.471C184.321 107.334 183.964 107.109 183.669 106.798C183.374 106.487 183.146 106.085 182.985 105.591C182.834 105.087 182.758 104.47 182.758 103.738C182.758 102.484 183.044 101.565 183.615 100.979C184.196 100.393 185.067 100.101 186.228 100.101C186.666 100.101 187.024 100.137 187.301 100.21C187.577 100.274 187.819 100.361 188.024 100.471V101.761ZM189.58 106.236C189.687 106.272 189.803 106.291 189.928 106.291C190.018 106.291 190.111 106.277 190.21 106.249C190.308 106.222 190.402 106.158 190.491 106.057C190.58 105.947 190.665 105.787 190.746 105.577C190.835 105.357 190.911 105.06 190.973 104.685C191.045 104.31 191.103 103.838 191.148 103.271C191.192 102.695 191.228 101.999 191.255 101.185L191.282 100.238H195.999V107.512H194.886V101.336H192.287L192.273 101.775C192.229 103.065 192.139 104.099 192.005 104.877C191.88 105.645 191.719 106.24 191.523 106.661C191.335 107.073 191.121 107.343 190.88 107.471C190.638 107.599 190.384 107.663 190.116 107.663C190.009 107.663 189.915 107.658 189.834 107.649C189.763 107.649 189.678 107.631 189.58 107.594V106.236ZM199.368 108.994C199.494 108.994 199.605 108.976 199.703 108.939C199.811 108.912 199.909 108.848 199.998 108.747C200.097 108.647 200.19 108.5 200.28 108.308C200.378 108.116 200.481 107.86 200.588 107.539L197.707 100.238H198.993L201.164 106.043L202.973 100.238H204.166L201.714 107.265C201.481 107.942 201.258 108.468 201.044 108.843C200.838 109.219 200.642 109.498 200.454 109.681C200.266 109.864 200.083 109.973 199.904 110.01C199.726 110.056 199.552 110.079 199.382 110.079C199.096 110.079 198.886 110.042 198.752 109.969V108.83C198.94 108.939 199.145 108.994 199.368 108.994ZM205.723 100.238H210.212V101.308H206.835V107.512H205.723V100.238Z" fill="#262626" fill-opacity="0.7"/>
</g>
<g filter="url(#filter4_dd_43_1341)">
<path d="M215.604 129.815H16.826C9.42493 129.815 3.4252 135.96 3.4252 143.54C3.4252 151.12 9.42493 157.265 16.826 157.265H215.604C223.005 157.265 229.005 151.12 229.005 143.54C229.005 135.96 223.005 129.815 215.604 129.815Z" fill="white"/>
<path d="M16.96 147.589H17.9516C18.2196 146.921 18.4653 146.038 18.6887 144.94C18.921 143.842 19.046 142.552 19.0639 141.07L19.0907 139.079H24.7726V147.589H25.9787V150.471H24.853V148.687H18.0856V150.471H16.96V147.589ZM23.5666 140.177H20.2566L20.2432 141.111C20.2342 141.742 20.1985 142.364 20.136 142.977C20.0824 143.581 20.0064 144.162 19.9081 144.72C19.8188 145.279 19.7116 145.8 19.5865 146.285C19.4704 146.77 19.3453 147.205 19.2113 147.589H23.5666V140.177ZM27.2488 145.022C27.2488 144.391 27.3336 143.842 27.5034 143.375C27.6731 142.909 27.9099 142.52 28.2136 142.209C28.5174 141.898 28.8792 141.664 29.2991 141.509C29.7279 141.353 30.1969 141.275 30.7062 141.275C31.1886 141.275 31.6263 141.349 32.0194 141.495C32.4125 141.641 32.7431 141.87 33.0111 142.181C33.288 142.492 33.5024 142.886 33.6543 143.362C33.8062 143.837 33.8821 144.405 33.8821 145.063C33.8821 145.75 33.7928 146.331 33.6141 146.807C33.4444 147.282 33.2076 147.671 32.9039 147.973C32.6091 148.275 32.2606 148.495 31.8586 148.632C31.4566 148.769 31.0233 148.838 30.5587 148.838C29.4956 148.838 28.6782 148.504 28.1064 147.836C27.5346 147.168 27.2488 146.23 27.2488 145.022ZM28.361 145.063C28.361 145.933 28.5531 146.61 28.9373 147.095C29.3303 147.571 29.9021 147.808 30.6525 147.808C31.3137 147.808 31.8318 147.593 32.207 147.163C32.5823 146.724 32.7699 146.024 32.7699 145.063V145.022C32.7699 144.098 32.5778 143.412 32.1936 142.964C31.8184 142.515 31.2735 142.291 30.5587 142.291C29.853 142.291 29.308 142.524 28.9238 142.991C28.5486 143.449 28.361 144.126 28.361 145.022V145.063ZM35.9758 141.413H41.6309V148.687H40.5186V142.483H37.088V148.687H35.9758V141.413ZM43.738 145.022C43.738 144.391 43.8228 143.842 43.9926 143.375C44.1623 142.909 44.3991 142.52 44.7028 142.209C45.0066 141.898 45.3684 141.664 45.7883 141.509C46.2171 141.353 46.6861 141.275 47.1954 141.275C47.6778 141.275 48.1155 141.349 48.5086 141.495C48.9017 141.641 49.2323 141.87 49.5003 142.181C49.7772 142.492 49.9916 142.886 50.1435 143.362C50.2954 143.837 50.3713 144.405 50.3713 145.063C50.3713 145.75 50.282 146.331 50.1033 146.807C49.9336 147.282 49.6968 147.671 49.3931 147.973C49.0983 148.275 48.7498 148.495 48.3478 148.632C47.9458 148.769 47.5125 148.838 47.0479 148.838C45.9848 148.838 45.1674 148.504 44.5956 147.836C44.0238 147.168 43.738 146.23 43.738 145.022ZM44.8502 145.063C44.8502 145.933 45.0423 146.61 45.4265 147.095C45.8195 147.571 46.3913 147.808 47.1417 147.808C47.8029 147.808 48.321 147.593 48.6962 147.163C49.0715 146.724 49.2591 146.024 49.2591 145.063V145.022C49.2591 144.098 49.067 143.412 48.6828 142.964C48.3076 142.515 47.7627 142.291 47.0479 142.291C46.3422 142.291 45.7972 142.524 45.413 142.991C45.0378 143.449 44.8502 144.126 44.8502 145.022V145.063ZM51.5805 147.41C51.6877 147.447 51.8039 147.465 51.929 147.465C52.0183 147.465 52.1121 147.452 52.2104 147.424C52.3086 147.397 52.4024 147.333 52.4918 147.232C52.5811 147.122 52.666 146.962 52.7464 146.752C52.8357 146.532 52.9117 146.235 52.9742 145.86C53.0457 145.484 53.1038 145.013 53.1484 144.446C53.1931 143.869 53.2288 143.174 53.2556 142.36L53.2824 141.413H57.9993V148.687H56.887V142.511H54.2875L54.2741 142.95C54.2294 144.24 54.1401 145.274 54.0061 146.052C53.881 146.82 53.7202 147.415 53.5236 147.836C53.336 148.248 53.1216 148.518 52.8804 148.646C52.6392 148.774 52.3846 148.838 52.1166 148.838C52.0094 148.838 51.9156 148.833 51.8351 148.824C51.7637 148.824 51.6788 148.806 51.5805 148.769V147.41ZM60.5918 141.413H61.704V144.46H65.2418V141.413H66.3541V148.687H65.2418V145.544H61.704V148.687H60.5918V141.413ZM68.9282 141.413H70.0404V144.954C70.0404 145.384 70.0315 145.8 70.0136 146.203C69.9958 146.596 69.9779 146.884 69.96 147.067L70.0136 147.095C70.1834 146.802 70.362 146.518 70.5497 146.244C70.7373 145.96 70.9293 145.681 71.1259 145.407L73.8194 141.413H74.7977V148.687H73.6854V145.75C73.6854 145.484 73.6854 145.219 73.6854 144.954C73.6944 144.679 73.7033 144.418 73.7122 144.171C73.7212 143.924 73.7301 143.7 73.739 143.499C73.748 143.288 73.7569 143.119 73.7658 142.991L73.7256 142.977C73.6095 143.188 73.4576 143.453 73.27 143.773C73.0824 144.084 72.8859 144.377 72.6804 144.652L69.9198 148.687H68.9282V141.413ZM78.6286 142.483H76.3237V141.413H82.0324V142.483H79.7409V148.687H78.6286V142.483ZM84.2023 145.462C84.2023 146.248 84.3988 146.839 84.7919 147.232C85.1939 147.616 85.788 147.808 86.5742 147.808C87.0298 147.808 87.4408 147.731 87.8071 147.575C88.1733 147.41 88.486 147.223 88.7451 147.012V148.193C88.5664 148.321 88.2895 148.463 87.9143 148.618C87.539 148.765 87.0834 148.838 86.5474 148.838C85.9756 148.838 85.4709 148.769 85.0331 148.632C84.6043 148.486 84.2424 148.257 83.9476 147.946C83.6617 147.625 83.4429 147.223 83.291 146.738C83.1481 146.244 83.0766 145.644 83.0766 144.94C83.0766 143.741 83.3491 142.831 83.894 142.209C84.439 141.586 85.2341 141.275 86.2794 141.275C86.8243 141.275 87.2889 141.358 87.673 141.522C88.0572 141.687 88.3654 141.92 88.5977 142.222C88.83 142.524 88.9997 142.89 89.1069 143.32C89.2141 143.741 89.2677 144.208 89.2677 144.72V145.462H84.2023ZM86.266 142.305C85.6138 142.305 85.1046 142.483 84.7383 142.84C84.3809 143.188 84.2023 143.732 84.2023 144.473H88.1555C88.1555 143.732 88.0036 143.188 87.6998 142.84C87.405 142.483 86.9271 142.305 86.266 142.305ZM90.3431 147.41C90.4503 147.447 90.5665 147.465 90.6916 147.465C90.7809 147.465 90.8747 147.452 90.973 147.424C91.0713 147.397 91.1651 147.333 91.2544 147.232C91.3437 147.122 91.4286 146.962 91.509 146.752C91.5984 146.532 91.6743 146.235 91.7368 145.86C91.8083 145.484 91.8664 145.013 91.911 144.446C91.9557 143.869 91.9914 143.174 92.0182 142.36L92.045 141.413H96.7621V148.687H95.6499V142.511H93.0501L93.0367 142.95C92.992 144.24 92.9027 145.274 92.7687 146.052C92.6436 146.82 92.4828 147.415 92.2863 147.836C92.0986 148.248 91.8842 148.518 91.643 148.646C91.4018 148.774 91.1472 148.838 90.8792 148.838C90.772 148.838 90.6782 148.833 90.5978 148.824C90.5263 148.824 90.4414 148.806 90.3431 148.769V147.41ZM99.3546 141.413H100.467V143.815C100.672 143.796 100.878 143.782 101.083 143.773C101.298 143.764 101.534 143.76 101.794 143.76C102.303 143.76 102.745 143.801 103.12 143.883C103.504 143.956 103.817 144.089 104.058 144.281C104.308 144.464 104.492 144.711 104.608 145.022C104.733 145.324 104.795 145.699 104.795 146.148C104.795 146.587 104.737 146.971 104.621 147.301C104.514 147.63 104.331 147.905 104.072 148.124C103.822 148.344 103.487 148.508 103.067 148.618C102.656 148.728 102.146 148.783 101.539 148.783C101.11 148.783 100.699 148.774 100.306 148.755C99.9219 148.737 99.6048 148.714 99.3546 148.687V141.413ZM100.467 147.699C100.646 147.726 100.82 147.744 100.989 147.754C101.168 147.754 101.418 147.754 101.74 147.754C102.115 147.754 102.423 147.726 102.665 147.671C102.915 147.616 103.116 147.529 103.268 147.41C103.42 147.282 103.527 147.122 103.589 146.93C103.652 146.729 103.683 146.482 103.683 146.189C103.683 145.914 103.652 145.686 103.589 145.503C103.527 145.311 103.411 145.155 103.241 145.036C103.071 144.917 102.834 144.83 102.531 144.775C102.236 144.72 101.847 144.693 101.365 144.693C101.222 144.693 101.079 144.702 100.936 144.72C100.793 144.73 100.637 144.743 100.467 144.762V147.699ZM106.722 141.413H107.834V144.46H111.372V141.413H112.485V148.687H111.372V145.544H107.834V148.687H106.722V141.413ZM116.171 143.815C116.35 143.796 116.515 143.782 116.667 143.773C116.819 143.764 116.979 143.76 117.149 143.76C117.712 143.76 118.19 143.81 118.583 143.911C118.976 144.002 119.293 144.148 119.534 144.35C119.776 144.542 119.95 144.789 120.057 145.091C120.164 145.384 120.218 145.736 120.218 146.148C120.218 146.514 120.164 146.857 120.057 147.177C119.95 147.497 119.767 147.776 119.508 148.014C119.258 148.252 118.923 148.44 118.503 148.577C118.083 148.714 117.56 148.783 116.935 148.783C116.622 148.783 116.309 148.774 115.997 148.755C115.684 148.746 115.371 148.723 115.059 148.687V141.413H116.171V143.815ZM116.171 147.712C116.332 147.731 116.466 147.744 116.573 147.754C116.689 147.754 116.85 147.754 117.055 147.754C117.457 147.754 117.788 147.717 118.047 147.644C118.315 147.571 118.525 147.465 118.677 147.328C118.838 147.191 118.949 147.026 119.012 146.834C119.074 146.642 119.106 146.427 119.106 146.189C119.106 145.969 119.079 145.768 119.025 145.585C118.972 145.402 118.864 145.246 118.704 145.118C118.552 144.981 118.333 144.876 118.047 144.803C117.77 144.73 117.399 144.693 116.935 144.693C116.792 144.693 116.662 144.702 116.546 144.72C116.439 144.73 116.314 144.743 116.171 144.762V147.712ZM121.223 141.413H122.335V148.687H121.223V141.413ZM125.556 145.462C125.556 146.248 125.752 146.839 126.146 147.232C126.548 147.616 127.142 147.808 127.928 147.808C128.383 147.808 128.794 147.731 129.161 147.575C129.527 147.41 129.84 147.223 130.099 147.012V148.193C129.92 148.321 129.643 148.463 129.268 148.618C128.893 148.765 128.437 148.838 127.901 148.838C127.329 148.838 126.825 148.769 126.387 148.632C125.958 148.486 125.596 148.257 125.301 147.946C125.015 147.625 124.797 147.223 124.645 146.738C124.502 146.244 124.43 145.644 124.43 144.94C124.43 143.741 124.703 142.831 125.248 142.209C125.793 141.586 126.588 141.275 127.633 141.275C128.178 141.275 128.643 141.358 129.027 141.522C129.411 141.687 129.719 141.92 129.951 142.222C130.184 142.524 130.353 142.89 130.461 143.32C130.568 143.741 130.621 144.208 130.621 144.72V145.462H125.556ZM127.62 142.305C126.967 142.305 126.458 142.483 126.092 142.84C125.735 143.188 125.556 143.732 125.556 144.473H129.509C129.509 143.732 129.357 143.188 129.054 142.84C128.759 142.483 128.281 142.305 127.62 142.305ZM141.515 142.936C141.3 142.781 141.023 142.648 140.684 142.538C140.344 142.419 139.973 142.36 139.571 142.36C139.25 142.36 138.955 142.405 138.687 142.497C138.419 142.579 138.187 142.721 137.99 142.922C137.803 143.124 137.655 143.398 137.548 143.746C137.45 144.084 137.401 144.505 137.401 145.009C137.401 145.521 137.454 145.951 137.561 146.299C137.669 146.646 137.825 146.93 138.03 147.15C138.245 147.36 138.499 147.511 138.794 147.603C139.098 147.694 139.446 147.74 139.839 147.74C140.206 147.74 140.554 147.685 140.885 147.575C141.224 147.465 141.51 147.31 141.742 147.108V148.344C141.555 148.499 141.282 148.618 140.925 148.701C140.576 148.792 140.161 148.838 139.679 148.838C139.143 148.838 138.66 148.774 138.231 148.646C137.811 148.508 137.454 148.284 137.159 147.973C136.864 147.662 136.637 147.259 136.476 146.765C136.324 146.262 136.248 145.644 136.248 144.913C136.248 143.659 136.534 142.739 137.106 142.154C137.686 141.568 138.557 141.275 139.719 141.275C140.157 141.275 140.514 141.312 140.791 141.385C141.068 141.449 141.309 141.536 141.515 141.646V142.936ZM143.079 145.022C143.079 144.391 143.164 143.842 143.334 143.375C143.503 142.909 143.74 142.52 144.044 142.209C144.348 141.898 144.71 141.664 145.129 141.509C145.558 141.353 146.027 141.275 146.536 141.275C147.019 141.275 147.457 141.349 147.85 141.495C148.243 141.641 148.573 141.87 148.841 142.181C149.118 142.492 149.333 142.886 149.485 143.362C149.637 143.837 149.712 144.405 149.712 145.063C149.712 145.75 149.623 146.331 149.444 146.807C149.275 147.282 149.038 147.671 148.734 147.973C148.439 148.275 148.091 148.495 147.689 148.632C147.287 148.769 146.854 148.838 146.389 148.838C145.326 148.838 144.509 148.504 143.937 147.836C143.365 147.168 143.079 146.23 143.079 145.022ZM144.191 145.063C144.191 145.933 144.383 146.61 144.768 147.095C145.161 147.571 145.732 147.808 146.483 147.808C147.144 147.808 147.662 147.593 148.037 147.163C148.413 146.724 148.6 146.024 148.6 145.063V145.022C148.6 144.098 148.408 143.412 148.024 142.964C147.649 142.515 147.104 142.291 146.389 142.291C145.683 142.291 145.138 142.524 144.754 142.991C144.379 143.449 144.191 144.126 144.191 145.022V145.063ZM151.806 141.413H156.296V142.483H152.919V148.687H151.806V141.413ZM156.562 147.41C156.669 147.447 156.785 147.465 156.91 147.465C157 147.465 157.093 147.452 157.192 147.424C157.29 147.397 157.384 147.333 157.473 147.232C157.563 147.122 157.647 146.962 157.728 146.752C157.817 146.532 157.893 146.235 157.956 145.86C158.027 145.484 158.085 145.013 158.13 144.446C158.174 143.869 158.21 143.174 158.237 142.36L158.264 141.413H162.981V148.687H161.869V142.511H159.269L159.255 142.95C159.211 144.24 159.121 145.274 158.987 146.052C158.862 146.82 158.702 147.415 158.505 147.836C158.317 148.248 158.103 148.518 157.862 148.646C157.621 148.774 157.366 148.838 157.098 148.838C156.991 148.838 156.897 148.833 156.817 148.824C156.745 148.824 156.66 148.806 156.562 148.769V147.41ZM169.54 147.644C169.361 147.973 169.084 148.257 168.709 148.495C168.343 148.723 167.905 148.838 167.396 148.838C166.681 148.838 166.118 148.655 165.707 148.289C165.296 147.914 165.091 147.374 165.091 146.669C165.091 146.267 165.14 145.928 165.238 145.654C165.346 145.37 165.511 145.141 165.734 144.967C165.966 144.784 166.261 144.652 166.619 144.569C166.976 144.487 167.409 144.446 167.919 144.446H169.513V143.76C169.513 143.467 169.477 143.229 169.406 143.046C169.343 142.854 169.241 142.707 169.098 142.607C168.955 142.497 168.772 142.424 168.548 142.387C168.334 142.341 168.079 142.318 167.785 142.318C167.383 142.318 166.98 142.396 166.578 142.552C166.185 142.707 165.868 142.89 165.627 143.101V141.783C165.77 141.701 165.935 141.628 166.123 141.564C166.319 141.5 166.52 141.449 166.726 141.413C166.931 141.367 167.137 141.335 167.342 141.317C167.548 141.289 167.735 141.275 167.905 141.275C168.37 141.275 168.772 141.317 169.111 141.399C169.46 141.481 169.746 141.619 169.969 141.811C170.192 142.003 170.357 142.259 170.465 142.579C170.572 142.89 170.625 143.279 170.625 143.746V148.687H169.607L169.54 147.644ZM166.23 146.491C166.23 146.884 166.337 147.191 166.552 147.41C166.766 147.63 167.119 147.74 167.61 147.74C168.271 147.74 168.754 147.566 169.058 147.218C169.361 146.871 169.513 146.431 169.513 145.901V145.283H167.959C167.619 145.283 167.338 145.306 167.114 145.352C166.891 145.397 166.712 145.471 166.578 145.571C166.453 145.663 166.364 145.786 166.31 145.942C166.257 146.088 166.23 146.271 166.23 146.491ZM173.124 141.413H174.236V147.603H176.836V141.413H177.948V147.603H180.548V141.413H181.66V148.687H173.124V141.413ZM184.878 145.462C184.878 146.248 185.075 146.839 185.468 147.232C185.87 147.616 186.464 147.808 187.25 147.808C187.706 147.808 188.117 147.731 188.483 147.575C188.849 147.41 189.162 147.223 189.421 147.012V148.193C189.243 148.321 188.966 148.463 188.59 148.618C188.215 148.765 187.759 148.838 187.223 148.838C186.652 148.838 186.147 148.769 185.709 148.632C185.28 148.486 184.919 148.257 184.624 147.946C184.338 147.625 184.119 147.223 183.967 146.738C183.824 146.244 183.753 145.644 183.753 144.94C183.753 143.741 184.025 142.831 184.57 142.209C185.115 141.586 185.91 141.275 186.955 141.275C187.5 141.275 187.965 141.358 188.349 141.522C188.733 141.687 189.041 141.92 189.274 142.222C189.506 142.524 189.676 142.89 189.783 143.32C189.89 143.741 189.944 144.208 189.944 144.72V145.462H184.878ZM186.942 142.305C186.29 142.305 185.781 142.483 185.414 142.84C185.057 143.188 184.878 143.732 184.878 144.473H188.832C188.832 143.732 188.68 143.188 188.376 142.84C188.081 142.483 187.603 142.305 186.942 142.305ZM192.034 141.413H193.147V144.46H196.684V141.413H197.797V148.687H196.684V145.544H193.147V148.687H192.034V141.413ZM200.371 141.413H201.483V144.954C201.483 145.384 201.474 145.8 201.456 146.203C201.438 146.596 201.42 146.884 201.403 147.067L201.456 147.095C201.626 146.802 201.805 146.518 201.992 146.244C202.18 145.96 202.372 145.681 202.568 145.407L205.262 141.413H206.24V148.687H205.128V145.75C205.128 145.484 205.128 145.219 205.128 144.954C205.137 144.679 205.146 144.418 205.155 144.171C205.164 143.924 205.173 143.7 205.182 143.499C205.191 143.288 205.199 143.119 205.208 142.991L205.168 142.977C205.052 143.188 204.9 143.453 204.713 143.773C204.525 144.084 204.328 144.377 204.123 144.652L201.362 148.687H200.371V141.413ZM210.031 145.887C209.745 145.841 209.508 145.754 209.321 145.626C209.133 145.489 208.986 145.329 208.879 145.146C208.771 144.954 208.695 144.739 208.651 144.501C208.606 144.254 208.584 143.998 208.584 143.732C208.584 143.348 208.633 143.009 208.731 142.717C208.838 142.415 209.017 142.163 209.267 141.962C209.517 141.76 209.848 141.609 210.259 141.509C210.67 141.399 211.179 141.344 211.787 141.344C212.18 141.344 212.586 141.353 213.006 141.371C213.426 141.381 213.765 141.403 214.024 141.44V148.687H212.912V146.079H211.17L209.348 148.687H208.061L210.031 145.887ZM212.912 142.401C212.742 142.383 212.573 142.369 212.403 142.36C212.233 142.351 211.996 142.346 211.693 142.346C211.291 142.346 210.96 142.373 210.701 142.428C210.442 142.474 210.236 142.552 210.085 142.662C209.942 142.771 209.839 142.918 209.776 143.101C209.723 143.275 209.696 143.494 209.696 143.76C209.696 144.309 209.826 144.684 210.085 144.885C210.353 145.086 210.799 145.187 211.425 145.187H212.912V142.401Z" fill="#262626" fill-opacity="0.7"/>
</g>
<g filter="url(#filter5_dd_43_1341)">
<path d="M189.919 170.99H16.826C9.42493 170.99 3.4252 177.135 3.4252 184.715C3.4252 192.295 9.42493 198.44 16.826 198.44H189.919C197.32 198.44 203.32 192.295 203.32 184.715C203.32 177.135 197.32 170.99 189.919 170.99Z" fill="white"/>
<path d="M19.0371 184.468H20.3772C20.7345 184.468 21.0293 184.422 21.2616 184.331C21.5028 184.239 21.6949 184.12 21.8379 183.974C21.9808 183.818 22.0791 183.64 22.1327 183.438C22.1952 183.237 22.2265 183.027 22.2265 182.807C22.2265 182.24 22.0567 181.842 21.7173 181.613C21.3867 181.375 20.873 181.256 20.1762 181.256C19.7741 181.256 19.3855 181.329 19.0103 181.476C18.6351 181.622 18.2911 181.819 17.9784 182.066V180.652C18.2375 180.552 18.5591 180.442 18.9433 180.323C19.3364 180.204 19.8322 180.144 20.4308 180.144C21.4582 180.144 22.222 180.327 22.7223 180.693C23.2315 181.05 23.4862 181.645 23.4862 182.478C23.4862 183.082 23.3566 183.566 23.0975 183.932C22.8384 184.298 22.4364 184.564 21.8915 184.729C22.5794 184.811 23.0975 185.04 23.446 185.415C23.7944 185.79 23.9686 186.362 23.9686 187.13C23.9686 188.055 23.6827 188.759 23.1109 189.244C22.5392 189.729 21.6279 189.971 20.3772 189.971C19.7786 189.971 19.2515 189.917 18.7959 189.807C18.3403 189.688 17.974 189.564 17.697 189.436V187.872C17.8132 187.99 17.9606 188.109 18.1392 188.228C18.3269 188.338 18.5413 188.443 18.7825 188.544C19.0237 188.636 19.2872 188.713 19.5731 188.777C19.8679 188.832 20.1806 188.86 20.5112 188.86C21.3152 188.86 21.8781 188.709 22.1997 188.407C22.5302 188.096 22.6955 187.638 22.6955 187.034C22.6955 186.467 22.5124 186.069 22.1461 185.84C21.7887 185.612 21.2036 185.497 20.3906 185.497H19.0371V184.468ZM30.0882 188.819C29.9095 189.148 29.6325 189.432 29.2573 189.67C28.891 189.898 28.4533 190.013 27.944 190.013C27.2293 190.013 26.6665 189.83 26.2555 189.464C25.8446 189.088 25.6391 188.549 25.6391 187.844C25.6391 187.441 25.6882 187.103 25.7865 186.828C25.8937 186.545 26.059 186.316 26.2823 186.142C26.5146 185.959 26.8094 185.827 27.1668 185.744C27.5241 185.662 27.9574 185.621 28.4667 185.621H30.0614V184.934C30.0614 184.642 30.0256 184.404 29.9541 184.221C29.8916 184.029 29.7889 183.882 29.6459 183.782C29.503 183.672 29.3198 183.599 29.0965 183.562C28.8821 183.516 28.6275 183.493 28.3327 183.493C27.9306 183.493 27.5286 183.571 27.1266 183.727C26.7335 183.882 26.4163 184.065 26.1751 184.276V182.958C26.3181 182.876 26.4833 182.802 26.671 182.738C26.8675 182.674 27.0685 182.624 27.274 182.587C27.4795 182.542 27.685 182.51 27.8904 182.491C28.0959 182.464 28.2835 182.45 28.4533 182.45C28.9178 182.45 29.3198 182.491 29.6593 182.574C30.0077 182.656 30.2936 182.793 30.517 182.985C30.7403 183.178 30.9056 183.434 31.0128 183.754C31.12 184.065 31.1736 184.454 31.1736 184.921V189.862H30.1552L30.0882 188.819ZM26.7782 187.666C26.7782 188.059 26.8854 188.366 27.0998 188.585C27.3142 188.805 27.6671 188.915 28.1584 188.915C28.8195 188.915 29.302 188.741 29.6057 188.393C29.9095 188.045 30.0614 187.606 30.0614 187.076V186.458H28.5069C28.1674 186.458 27.886 186.481 27.6626 186.527C27.4393 186.572 27.2606 186.645 27.1266 186.746C27.0015 186.838 26.9122 186.961 26.8586 187.117C26.805 187.263 26.7782 187.446 26.7782 187.666ZM35.9507 186.568H34.7848V189.862H33.6725V182.587H34.7848V185.676H35.9641L38.336 182.587H39.6091L36.9021 186.046L39.8905 189.862H38.537L35.9507 186.568ZM41.4326 182.587H42.4511L42.5181 183.864C42.8933 182.921 43.7197 182.45 44.9972 182.45C45.9174 182.45 46.6053 182.734 47.061 183.301C47.5166 183.859 47.7444 184.783 47.7444 186.074C47.7444 186.778 47.6819 187.382 47.5568 187.885C47.4317 188.379 47.2441 188.787 46.994 189.107C46.7527 189.418 46.449 189.647 46.0827 189.793C45.7164 189.939 45.2921 190.013 44.8096 190.013C44.2021 190.013 43.7152 189.903 43.3489 189.683C42.9916 189.454 42.7236 189.189 42.5449 188.887V192.332H41.4326V182.587ZM42.5449 186.938C42.5449 187.57 42.7191 188.068 43.0675 188.434C43.4249 188.8 43.9296 188.983 44.5818 188.983C44.957 188.983 45.2742 188.933 45.5333 188.832C45.7924 188.732 46.0023 188.567 46.1631 188.338C46.3239 188.109 46.4401 187.817 46.5115 187.46C46.5919 187.103 46.6321 186.664 46.6321 186.142C46.6321 185.648 46.5875 185.232 46.4981 184.893C46.4088 184.546 46.2792 184.271 46.1095 184.07C45.9398 183.859 45.7253 183.708 45.4663 183.617C45.2161 183.525 44.9258 183.48 44.5952 183.48C44.2468 183.48 43.943 183.53 43.684 183.631C43.4249 183.731 43.2105 183.873 43.0407 184.056C42.871 184.23 42.7459 184.44 42.6655 184.687C42.5851 184.934 42.5449 185.2 42.5449 185.483V186.938ZM50.9468 184.989C51.1255 184.971 51.2908 184.957 51.4427 184.948C51.5945 184.939 51.7554 184.934 51.9251 184.934C52.4879 184.934 52.9659 184.985 53.359 185.085C53.7521 185.177 54.0692 185.323 54.3104 185.525C54.5517 185.717 54.7259 185.964 54.8331 186.266C54.9403 186.559 54.9939 186.911 54.9939 187.323C54.9939 187.689 54.9403 188.032 54.8331 188.352C54.7259 188.672 54.5427 188.951 54.2836 189.189C54.0335 189.427 53.6985 189.615 53.2786 189.752C52.8587 189.889 52.3361 189.958 51.7107 189.958C51.398 189.958 51.0853 189.949 50.7726 189.93C50.46 189.921 50.1473 189.898 49.8346 189.862V182.587H50.9468V184.989ZM50.9468 188.887C51.1077 188.905 51.2417 188.919 51.3489 188.928C51.465 188.928 51.6258 188.928 51.8313 188.928C52.2333 188.928 52.5639 188.892 52.823 188.819C53.091 188.745 53.3009 188.64 53.4528 188.503C53.6136 188.366 53.7253 188.201 53.7878 188.009C53.8503 187.817 53.8816 187.602 53.8816 187.364C53.8816 187.144 53.8548 186.943 53.8012 186.76C53.7476 186.577 53.6404 186.421 53.4796 186.293C53.3277 186.156 53.1088 186.051 52.823 185.978C52.546 185.904 52.1752 185.868 51.7107 185.868C51.5677 185.868 51.4382 185.877 51.3221 185.895C51.2149 185.904 51.0898 185.918 50.9468 185.936V188.887ZM55.9992 182.587H57.1115V189.862H55.9992V182.587ZM59.6889 182.574C59.948 182.555 60.2741 182.537 60.6671 182.519C61.0692 182.501 61.5471 182.491 62.101 182.491C62.6728 182.491 63.1418 182.533 63.5081 182.615C63.8744 182.697 64.1648 182.812 64.3792 182.958C64.5936 183.104 64.741 183.287 64.8214 183.507C64.9107 183.717 64.9554 183.951 64.9554 184.207C64.9554 184.674 64.8527 185.049 64.6472 185.332C64.4417 185.607 64.0843 185.817 63.5751 185.964C64.1737 186.019 64.607 186.17 64.875 186.417C65.1519 186.664 65.2904 187.089 65.2904 187.693C65.2904 188.032 65.2413 188.343 65.143 188.626C65.0447 188.901 64.875 189.139 64.6338 189.34C64.4015 189.541 64.0843 189.697 63.6823 189.807C63.2892 189.917 62.7979 189.971 62.2082 189.971C61.976 189.971 61.7347 189.967 61.4846 189.958C61.2434 189.958 61.0111 189.953 60.7878 189.944C60.5644 189.935 60.3589 189.921 60.1713 189.903C59.9837 189.894 59.8229 189.885 59.6889 189.875V182.574ZM60.8012 188.915C61.0334 188.933 61.2657 188.951 61.498 188.97C61.7392 188.979 61.9894 188.983 62.2484 188.983C62.6147 188.983 62.9185 188.965 63.1597 188.928C63.4098 188.883 63.6109 188.809 63.7627 188.709C63.9146 188.608 64.0218 188.475 64.0843 188.311C64.1469 188.146 64.1782 187.945 64.1782 187.707C64.1782 187.295 64.0397 187.011 63.7627 186.856C63.4947 186.691 63.057 186.609 62.4495 186.609H60.8012V188.915ZM62.4495 185.634C62.8693 185.634 63.2044 185.547 63.4545 185.374C63.7047 185.2 63.8297 184.921 63.8297 184.536C63.8297 184.125 63.7047 183.846 63.4545 183.699C63.2133 183.553 62.7889 183.48 62.1814 183.48C61.8419 183.48 61.565 183.48 61.3506 183.48C61.1362 183.48 60.953 183.484 60.8012 183.493V185.634H62.4495ZM71.3504 188.819C71.1717 189.148 70.8947 189.432 70.5195 189.67C70.1532 189.898 69.7155 190.013 69.2062 190.013C68.4915 190.013 67.9287 189.83 67.5177 189.464C67.1068 189.088 66.9013 188.549 66.9013 187.844C66.9013 187.441 66.9504 187.103 67.0487 186.828C67.1559 186.545 67.3212 186.316 67.5445 186.142C67.7768 185.959 68.0716 185.827 68.429 185.744C68.7863 185.662 69.2196 185.621 69.7289 185.621H71.3236V184.934C71.3236 184.642 71.2878 184.404 71.2163 184.221C71.1538 184.029 71.0511 183.882 70.9081 183.782C70.7652 183.672 70.582 183.599 70.3587 183.562C70.1443 183.516 69.8897 183.493 69.5949 183.493C69.1928 183.493 68.7908 183.571 68.3888 183.727C67.9957 183.882 67.6785 184.065 67.4373 184.276V182.958C67.5803 182.876 67.7455 182.802 67.9332 182.738C68.1297 182.674 68.3307 182.624 68.5362 182.587C68.7417 182.542 68.9471 182.51 69.1526 182.491C69.3581 182.464 69.5457 182.45 69.7155 182.45C70.18 182.45 70.582 182.491 70.9215 182.574C71.27 182.656 71.5558 182.793 71.7792 182.985C72.0025 183.178 72.1678 183.434 72.275 183.754C72.3822 184.065 72.4358 184.454 72.4358 184.921V189.862H71.4174L71.3504 188.819ZM68.0404 187.666C68.0404 188.059 68.1476 188.366 68.362 188.585C68.5764 188.805 68.9293 188.915 69.4206 188.915C70.0817 188.915 70.5642 188.741 70.8679 188.393C71.1717 188.045 71.3236 187.606 71.3236 187.076V186.458H69.7691C69.4296 186.458 69.1482 186.481 68.9248 186.527C68.7015 186.572 68.5228 186.645 68.3888 186.746C68.2637 186.838 68.1744 186.961 68.1208 187.117C68.0672 187.263 68.0404 187.446 68.0404 187.666ZM80.7644 182.45C81.2736 182.45 81.7203 182.519 82.1045 182.656C82.4976 182.784 82.8281 182.999 83.0961 183.301C83.3641 183.603 83.5652 183.997 83.6992 184.481C83.8421 184.957 83.9136 185.538 83.9136 186.225C83.9136 186.929 83.8421 187.524 83.6992 188.009C83.5562 188.485 83.3463 188.873 83.0693 189.175C82.7924 189.468 82.4484 189.683 82.0375 189.821C81.6354 189.949 81.1709 190.013 80.6438 190.013C80.0899 190.013 79.6164 189.935 79.2233 189.779C78.8302 189.624 78.5041 189.404 78.2451 189.121C77.986 188.828 77.7894 188.471 77.6554 188.05C77.5214 187.629 77.4455 187.158 77.4276 186.636H76.0473V189.862H74.9351V182.587H76.0473V185.607H77.4544C77.5348 184.564 77.8341 183.777 78.3523 183.246C78.8704 182.716 79.6745 182.45 80.7644 182.45ZM78.5399 186.225C78.5399 187.194 78.7185 187.894 79.0759 188.324C79.4332 188.755 79.9693 188.97 80.684 188.97C81.0056 188.97 81.2915 188.928 81.5416 188.846C81.8007 188.764 82.0196 188.622 82.1983 188.421C82.3859 188.21 82.5244 187.931 82.6137 187.583C82.712 187.236 82.7611 186.796 82.7611 186.266C82.7611 185.726 82.7209 185.278 82.6405 184.921C82.569 184.564 82.444 184.28 82.2653 184.07C82.0955 183.85 81.8722 183.699 81.5952 183.617C81.3272 183.525 81.0011 183.48 80.617 183.48C80.2418 183.48 79.9246 183.53 79.6655 183.631C79.4065 183.722 79.192 183.878 79.0223 184.097C78.8526 184.308 78.7275 184.587 78.6471 184.934C78.5756 185.282 78.5399 185.712 78.5399 186.225ZM86.0192 182.587H87.1314V188.777H89.7312V182.587H90.8435V188.777H93.4432V182.587H94.5555V188.777H95.5873V191.646H94.5421V189.862H86.0192V182.587ZM97.2998 182.587H98.4121V186.128C98.4121 186.559 98.4032 186.975 98.3853 187.377C98.3674 187.771 98.3496 188.059 98.3317 188.242L98.3853 188.27C98.555 187.977 98.7337 187.693 98.9213 187.419C99.1089 187.135 99.301 186.856 99.4976 186.581L102.191 182.587H103.169V189.862H102.057V186.925C102.057 186.659 102.057 186.394 102.057 186.128C102.066 185.854 102.075 185.593 102.084 185.346C102.093 185.099 102.102 184.875 102.111 184.674C102.12 184.463 102.129 184.294 102.138 184.166L102.097 184.152C101.981 184.363 101.829 184.628 101.642 184.948C101.454 185.259 101.258 185.552 101.052 185.827L98.2915 189.862H97.2998V182.587ZM106.384 186.636C106.384 187.423 106.581 188.013 106.974 188.407C107.376 188.791 107.97 188.983 108.756 188.983C109.212 188.983 109.623 188.905 109.989 188.75C110.356 188.585 110.668 188.398 110.927 188.187V189.368C110.749 189.496 110.472 189.637 110.096 189.793C109.721 189.939 109.266 190.013 108.73 190.013C108.158 190.013 107.653 189.944 107.215 189.807C106.786 189.66 106.425 189.432 106.13 189.121C105.844 188.8 105.625 188.398 105.473 187.913C105.33 187.419 105.259 186.819 105.259 186.115C105.259 184.916 105.531 184.006 106.076 183.383C106.621 182.761 107.416 182.45 108.462 182.45C109.007 182.45 109.471 182.533 109.855 182.697C110.239 182.862 110.548 183.095 110.78 183.397C111.012 183.699 111.182 184.065 111.289 184.495C111.396 184.916 111.45 185.383 111.45 185.895V186.636H106.384ZM108.448 183.48C107.796 183.48 107.287 183.658 106.92 184.015C106.563 184.363 106.384 184.907 106.384 185.648H110.338C110.338 184.907 110.186 184.363 109.882 184.015C109.587 183.658 109.109 183.48 108.448 183.48ZM116.54 188.777H117.344C117.576 188.265 117.759 187.56 117.893 186.664C118.027 185.758 118.094 184.66 118.094 183.37V182.587H122.825V188.777H123.897V191.646H122.852V189.862H117.585V191.646H116.54V188.777ZM121.713 183.658H119.153L119.14 184.166C119.122 185.053 119.059 185.895 118.952 186.691C118.854 187.487 118.684 188.183 118.443 188.777H121.713V183.658ZM125.124 186.197C125.124 185.566 125.209 185.017 125.379 184.55C125.549 184.083 125.785 183.695 126.089 183.383C126.393 183.072 126.755 182.839 127.175 182.684C127.603 182.528 128.072 182.45 128.582 182.45C129.064 182.45 129.502 182.523 129.895 182.67C130.288 182.816 130.619 183.045 130.887 183.356C131.164 183.667 131.378 184.061 131.53 184.536C131.682 185.012 131.758 185.579 131.758 186.238C131.758 186.925 131.668 187.506 131.49 187.981C131.32 188.457 131.083 188.846 130.779 189.148C130.485 189.45 130.136 189.67 129.734 189.807C129.332 189.944 128.899 190.013 128.434 190.013C127.371 190.013 126.554 189.679 125.982 189.011C125.41 188.343 125.124 187.405 125.124 186.197ZM126.237 186.238C126.237 187.108 126.429 187.785 126.813 188.27C127.206 188.745 127.778 188.983 128.528 188.983C129.189 188.983 129.707 188.768 130.083 188.338C130.458 187.899 130.645 187.199 130.645 186.238V186.197C130.645 185.273 130.453 184.587 130.069 184.138C129.694 183.69 129.149 183.466 128.434 183.466C127.729 183.466 127.184 183.699 126.799 184.166C126.424 184.623 126.237 185.3 126.237 186.197V186.238ZM136.129 186.568H134.963V189.862H133.851V182.587H134.963V185.676H136.143L138.514 182.587H139.788L137.081 186.046L140.069 189.862H138.715L136.129 186.568ZM142.402 191.344C142.527 191.344 142.639 191.326 142.737 191.289C142.844 191.262 142.942 191.198 143.032 191.097C143.13 190.996 143.224 190.85 143.313 190.658C143.411 190.466 143.514 190.209 143.621 189.889L140.74 182.587H142.027L144.197 188.393L146.007 182.587H147.199L144.747 189.615C144.515 190.292 144.291 190.818 144.077 191.193C143.871 191.568 143.675 191.847 143.487 192.03C143.3 192.213 143.116 192.323 142.938 192.36C142.759 192.405 142.585 192.428 142.415 192.428C142.129 192.428 141.919 192.392 141.785 192.318V191.179C141.973 191.289 142.178 191.344 142.402 191.344ZM148.757 182.587H150.231L152.483 186.911L154.64 182.587H156.047V189.862H154.935V186.032C154.935 185.621 154.953 185.213 154.988 184.811C155.024 184.399 155.06 183.987 155.096 183.576C154.89 184.042 154.698 184.481 154.519 184.893C154.341 185.296 154.175 185.634 154.024 185.909L152.791 188.105H152.027L150.861 185.923C150.709 185.63 150.535 185.282 150.338 184.88C150.142 184.477 149.936 184.047 149.722 183.589C149.758 184.001 149.789 184.417 149.816 184.838C149.852 185.25 149.869 185.666 149.869 186.087V189.862H148.757V182.587ZM159.267 186.636C159.267 187.423 159.464 188.013 159.857 188.407C160.259 188.791 160.853 188.983 161.639 188.983C162.095 188.983 162.506 188.905 162.872 188.75C163.238 188.585 163.551 188.398 163.81 188.187V189.368C163.631 189.496 163.354 189.637 162.979 189.793C162.604 189.939 162.148 190.013 161.612 190.013C161.041 190.013 160.536 189.944 160.098 189.807C159.669 189.66 159.307 189.432 159.013 189.121C158.727 188.8 158.508 188.398 158.356 187.913C158.213 187.419 158.142 186.819 158.142 186.115C158.142 184.916 158.414 184.006 158.959 183.383C159.504 182.761 160.299 182.45 161.344 182.45C161.889 182.45 162.354 182.533 162.738 182.697C163.122 182.862 163.43 183.095 163.663 183.397C163.895 183.699 164.065 184.065 164.172 184.495C164.279 184.916 164.333 185.383 164.333 185.895V186.636H159.267ZM161.331 183.48C160.679 183.48 160.17 183.658 159.803 184.015C159.446 184.363 159.267 184.907 159.267 185.648H163.22C163.22 184.907 163.069 184.363 162.765 184.015C162.47 183.658 161.992 183.48 161.331 183.48ZM166.424 182.587H167.536V185.634H171.074V182.587H172.186V189.862H171.074V186.719H167.536V189.862H166.424V182.587ZM176.02 183.658H173.715V182.587H179.424V183.658H177.132V189.862H176.02V183.658ZM182.062 184.989C182.241 184.971 182.406 184.957 182.558 184.948C182.71 184.939 182.871 184.934 183.041 184.934C183.604 184.934 184.082 184.985 184.475 185.085C184.868 185.177 185.185 185.323 185.426 185.525C185.667 185.717 185.842 185.964 185.949 186.266C186.056 186.559 186.11 186.911 186.11 187.323C186.11 187.689 186.056 188.032 185.949 188.352C185.842 188.672 185.658 188.951 185.399 189.189C185.149 189.427 184.814 189.615 184.394 189.752C183.974 189.889 183.452 189.958 182.826 189.958C182.514 189.958 182.201 189.949 181.888 189.93C181.576 189.921 181.263 189.898 180.95 189.862V182.587H182.062V184.989ZM182.062 188.887C182.223 188.905 182.357 188.919 182.465 188.928C182.581 188.928 182.741 188.928 182.947 188.928C183.349 188.928 183.68 188.892 183.939 188.819C184.207 188.745 184.417 188.64 184.568 188.503C184.729 188.366 184.841 188.201 184.903 188.009C184.966 187.817 184.997 187.602 184.997 187.364C184.997 187.144 184.97 186.943 184.917 186.76C184.863 186.577 184.756 186.421 184.595 186.293C184.443 186.156 184.224 186.051 183.939 185.978C183.662 185.904 183.291 185.868 182.826 185.868C182.683 185.868 182.554 185.877 182.438 185.895C182.331 185.904 182.205 185.918 182.062 185.936V188.887ZM187.115 182.587H188.227V189.862H187.115V182.587Z" fill="#262626" fill-opacity="0.7"/>
</g>
</g>
<defs>
<filter id="filter0_dd_43_1341" x="-2.5748" y="-1.28436" width="148.8" height="44.0248" filterUnits="userSpaceOnUse" color-interpolation-filters="sRGB">
<feFlood flood-opacity="0" result="BackgroundImageFix"/>
<feColorMatrix in="SourceAlpha" type="matrix" values="0 0 0 0 0 0 0 0 0 0 0 0 0 0 0 0 0 0 127 0" result="hardAlpha"/>
<feOffset dy="3"/>
<feGaussianBlur stdDeviation="3"/>
<feColorMatrix type="matrix" values="0 0 0 0 0.14902 0 0 0 0 0.14902 0 0 0 0 0.14902 0 0 0 0.16 0"/>
<feBlend mode="normal" in2="BackgroundImageFix" result="effect1_dropShadow_43_1341"/>
<feColorMatrix in="SourceAlpha" type="matrix" values="0 0 0 0 0 0 0 0 0 0 0 0 0 0 0 0 0 0 127 0" result="hardAlpha"/>
<feOffset dy="1"/>
<feGaussianBlur stdDeviation="1"/>
<feColorMatrix type="matrix" values="0 0 0 0 0.14902 0 0 0 0 0.14902 0 0 0 0 0.14902 0 0 0 0.04 0"/>
<feBlend mode="normal" in2="effect1_dropShadow_43_1341" result="effect2_dropShadow_43_1341"/>
<feBlend mode="normal" in="SourceGraphic" in2="effect2_dropShadow_43_1341" result="shape"/>
</filter>
<filter id="filter1_dd_43_1341" x="-2.5748" y="44.4654" width="101.897" height="39.4499" filterUnits="userSpaceOnUse" color-interpolation-filters="sRGB">
<feFlood flood-opacity="0" result="BackgroundImageFix"/>
<feColorMatrix in="SourceAlpha" type="matrix" values="0 0 0 0 0 0 0 0 0 0 0 0 0 0 0 0 0 0 127 0" result="hardAlpha"/>
<feOffset dy="3"/>
<feGaussianBlur stdDeviation="3"/>
<feColorMatrix type="matrix" values="0 0 0 0 0.14902 0 0 0 0 0.14902 0 0 0 0 0.14902 0 0 0 0.16 0"/>
<feBlend mode="normal" in2="BackgroundImageFix" result="effect1_dropShadow_43_1341"/>
<feColorMatrix in="SourceAlpha" type="matrix" values="0 0 0 0 0 0 0 0 0 0 0 0 0 0 0 0 0 0 127 0" result="hardAlpha"/>
<feOffset dy="1"/>
<feGaussianBlur stdDeviation="1"/>
<feColorMatrix type="matrix" values="0 0 0 0 0.14902 0 0 0 0 0.14902 0 0 0 0 0.14902 0 0 0 0.04 0"/>
<feBlend mode="normal" in2="effect1_dropShadow_43_1341" result="effect2_dropShadow_43_1341"/>
<feBlend mode="normal" in="SourceGraphic" in2="effect2_dropShadow_43_1341" result="shape"/>
</filter>
<filter id="filter2_dd_43_1341" x="101.84" y="44.4654" width="72.3035" height="39.4499" filterUnits="userSpaceOnUse" color-interpolation-filters="sRGB">
<feFlood flood-opacity="0" result="BackgroundImageFix"/>
<feColorMatrix in="SourceAlpha" type="matrix" values="0 0 0 0 0 0 0 0 0 0 0 0 0 0 0 0 0 0 127 0" result="hardAlpha"/>
<feOffset dy="3"/>
<feGaussianBlur stdDeviation="3"/>
<feColorMatrix type="matrix" values="0 0 0 0 0.14902 0 0 0 0 0.14902 0 0 0 0 0.14902 0 0 0 0.16 0"/>
<feBlend mode="normal" in2="BackgroundImageFix" result="effect1_dropShadow_43_1341"/>
<feColorMatrix in="SourceAlpha" type="matrix" values="0 0 0 0 0 0 0 0 0 0 0 0 0 0 0 0 0 0 127 0" result="hardAlpha"/>
<feOffset dy="1"/>
<feGaussianBlur stdDeviation="1"/>
<feColorMatrix type="matrix" values="0 0 0 0 0.14902 0 0 0 0 0.14902 0 0 0 0 0.14902 0 0 0 0.04 0"/>
<feBlend mode="normal" in2="effect1_dropShadow_43_1341" result="effect2_dropShadow_43_1341"/>
<feBlend mode="normal" in="SourceGraphic" in2="effect2_dropShadow_43_1341" result="shape"/>
</filter>
<filter id="filter3_dd_43_1341" x="-2.5748" y="85.6403" width="233.113" height="39.4499" filterUnits="userSpaceOnUse" color-interpolation-filters="sRGB">
<feFlood flood-opacity="0" result="BackgroundImageFix"/>
<feColorMatrix in="SourceAlpha" type="matrix" values="0 0 0 0 0 0 0 0 0 0 0 0 0 0 0 0 0 0 127 0" result="hardAlpha"/>
<feOffset dy="3"/>
<feGaussianBlur stdDeviation="3"/>
<feColorMatrix type="matrix" values="0 0 0 0 0.14902 0 0 0 0 0.14902 0 0 0 0 0.14902 0 0 0 0.16 0"/>
<feBlend mode="normal" in2="BackgroundImageFix" result="effect1_dropShadow_43_1341"/>
<feColorMatrix in="SourceAlpha" type="matrix" values="0 0 0 0 0 0 0 0 0 0 0 0 0 0 0 0 0 0 127 0" result="hardAlpha"/>
<feOffset dy="1"/>
<feGaussianBlur stdDeviation="1"/>
<feColorMatrix type="matrix" values="0 0 0 0 0.14902 0 0 0 0 0.14902 0 0 0 0 0.14902 0 0 0 0.04 0"/>
<feBlend mode="normal" in2="effect1_dropShadow_43_1341" result="effect2_dropShadow_43_1341"/>
<feBlend mode="normal" in="SourceGraphic" in2="effect2_dropShadow_43_1341" result="shape"/>
</filter>
<filter id="filter4_dd_43_1341" x="-2.5748" y="126.815" width="237.58" height="39.4499" filterUnits="userSpaceOnUse" color-interpolation-filters="sRGB">
<feFlood flood-opacity="0" result="BackgroundImageFix"/>
<feColorMatrix in="SourceAlpha" type="matrix" values="0 0 0 0 0 0 0 0 0 0 0 0 0 0 0 0 0 0 127 0" result="hardAlpha"/>
<feOffset dy="3"/>
<feGaussianBlur stdDeviation="3"/>
<feColorMatrix type="matrix" values="0 0 0 0 0.14902 0 0 0 0 0.14902 0 0 0 0 0.14902 0 0 0 0.16 0"/>
<feBlend mode="normal" in2="BackgroundImageFix" result="effect1_dropShadow_43_1341"/>
<feColorMatrix in="SourceAlpha" type="matrix" values="0 0 0 0 0 0 0 0 0 0 0 0 0 0 0 0 0 0 127 0" result="hardAlpha"/>
<feOffset dy="1"/>
<feGaussianBlur stdDeviation="1"/>
<feColorMatrix type="matrix" values="0 0 0 0 0.14902 0 0 0 0 0.14902 0 0 0 0 0.14902 0 0 0 0.04 0"/>
<feBlend mode="normal" in2="effect1_dropShadow_43_1341" result="effect2_dropShadow_43_1341"/>
<feBlend mode="normal" in="SourceGraphic" in2="effect2_dropShadow_43_1341" result="shape"/>
</filter>
<filter id="filter5_dd_43_1341" x="-2.5748" y="167.99" width="211.895" height="39.4499" filterUnits="userSpaceOnUse" color-interpolation-filters="sRGB">
<feFlood flood-opacity="0" result="BackgroundImageFix"/>
<feColorMatrix in="SourceAlpha" type="matrix" values="0 0 0 0 0 0 0 0 0 0 0 0 0 0 0 0 0 0 127 0" result="hardAlpha"/>
<feOffset dy="3"/>
<feGaussianBlur stdDeviation="3"/>
<feColorMatrix type="matrix" values="0 0 0 0 0.14902 0 0 0 0 0.14902 0 0 0 0 0.14902 0 0 0 0.16 0"/>
<feBlend mode="normal" in2="BackgroundImageFix" result="effect1_dropShadow_43_1341"/>
<feColorMatrix in="SourceAlpha" type="matrix" values="0 0 0 0 0 0 0 0 0 0 0 0 0 0 0 0 0 0 127 0" result="hardAlpha"/>
<feOffset dy="1"/>
<feGaussianBlur stdDeviation="1"/>
<feColorMatrix type="matrix" values="0 0 0 0 0.14902 0 0 0 0 0.14902 0 0 0 0 0.14902 0 0 0 0.04 0"/>
<feBlend mode="normal" in2="effect1_dropShadow_43_1341" result="effect2_dropShadow_43_1341"/>
<feBlend mode="normal" in="SourceGraphic" in2="effect2_dropShadow_43_1341" result="shape"/>
</filter>
<clipPath id="clip0_43_1341">
<rect width="232.28" height="203.587" fill="white" transform="translate(0.0750122)"/>
</clipPath>
</defs>
</svg>
