<svg width="416" height="356" viewBox="0 0 416 356" fill="none" xmlns="http://www.w3.org/2000/svg">
<g clip-path="url(#clip0_43_1601)">
<g filter="url(#filter0_dd_43_1601)">
<path d="M227 3H30C16.7452 3 6 13.7452 6 27V35C6 48.2548 16.7452 59 30 59H227C240.255 59 251 48.2548 251 35V27C251 13.7452 240.255 3 227 3Z" fill="white"/>
<path d="M30.24 38.08H32.016C32.496 36.912 32.936 35.368 33.336 33.448C33.752 31.528 33.976 29.272 34.008 26.68L34.056 23.2H44.232V38.08H46.392V43.12H44.376V40H32.256V43.12H30.24V38.08ZM42.072 25.12H36.144L36.12 26.752C36.104 27.856 36.04 28.944 35.928 30.016C35.832 31.072 35.696 32.088 35.52 33.064C35.36 34.04 35.168 34.952 34.944 35.8C34.736 36.648 34.512 37.408 34.272 38.08H42.072V25.12ZM48.3666 33.592C48.3666 32.488 48.5186 31.528 48.8226 30.712C49.1266 29.896 49.5506 29.216 50.0946 28.672C50.6386 28.128 51.2866 27.72 52.0386 27.448C52.8066 27.176 53.6466 27.04 54.5586 27.04C55.4226 27.04 56.2066 27.168 56.9106 27.424C57.6146 27.68 58.2066 28.08 58.6866 28.624C59.1826 29.168 59.5666 29.856 59.8386 30.688C60.1106 31.52 60.2466 32.512 60.2466 33.664C60.2466 34.864 60.0866 35.88 59.7666 36.712C59.4626 37.544 59.0386 38.224 58.4946 38.752C57.9666 39.28 57.3426 39.664 56.6226 39.904C55.9026 40.144 55.1266 40.264 54.2946 40.264C52.3906 40.264 50.9266 39.68 49.9026 38.512C48.8786 37.344 48.3666 35.704 48.3666 33.592ZM50.3586 33.664C50.3586 35.184 50.7026 36.368 51.3906 37.216C52.0946 38.048 53.1186 38.464 54.4626 38.464C55.6466 38.464 56.5746 38.088 57.2466 37.336C57.9186 36.568 58.2546 35.344 58.2546 33.664V33.592C58.2546 31.976 57.9106 30.776 57.2226 29.992C56.5506 29.208 55.5746 28.816 54.2946 28.816C53.0306 28.816 52.0546 29.224 51.3666 30.04C50.6946 30.84 50.3586 32.024 50.3586 33.592V33.664ZM63.6962 27.28H71.7362V29.152H65.6882V40H63.6962V27.28ZM73.3603 33.592C73.3603 32.488 73.5123 31.528 73.8163 30.712C74.1203 29.896 74.5443 29.216 75.0883 28.672C75.6323 28.128 76.2803 27.72 77.0323 27.448C77.8003 27.176 78.6403 27.04 79.5523 27.04C80.4163 27.04 81.2003 27.168 81.9043 27.424C82.6083 27.68 83.2003 28.08 83.6803 28.624C84.1763 29.168 84.5603 29.856 84.8323 30.688C85.1043 31.52 85.2403 32.512 85.2403 33.664C85.2403 34.864 85.0803 35.88 84.7603 36.712C84.4563 37.544 84.0323 38.224 83.4883 38.752C82.9603 39.28 82.3363 39.664 81.6163 39.904C80.8963 40.144 80.1203 40.264 79.2883 40.264C77.3843 40.264 75.9203 39.68 74.8963 38.512C73.8723 37.344 73.3603 35.704 73.3603 33.592ZM75.3523 33.664C75.3523 35.184 75.6963 36.368 76.3843 37.216C77.0883 38.048 78.1123 38.464 79.4563 38.464C80.6403 38.464 81.5683 38.088 82.2403 37.336C82.9123 36.568 83.2483 35.344 83.2483 33.664V33.592C83.2483 31.976 82.9043 30.776 82.2163 29.992C81.5443 29.208 80.5683 28.816 79.2883 28.816C78.0243 28.816 77.0483 29.224 76.3603 30.04C75.6883 30.84 75.3523 32.024 75.3523 33.592V33.664ZM88.6899 27.256C89.1539 27.224 89.7379 27.192 90.4419 27.16C91.1619 27.128 92.0179 27.112 93.0099 27.112C94.0339 27.112 94.8739 27.184 95.5299 27.328C96.1859 27.472 96.7059 27.672 97.0899 27.928C97.4739 28.184 97.7379 28.504 97.8819 28.888C98.0419 29.256 98.1219 29.664 98.1219 30.112C98.1219 30.928 97.9379 31.584 97.5699 32.08C97.2019 32.56 96.5619 32.928 95.6499 33.184C96.7219 33.28 97.4979 33.544 97.9779 33.976C98.4739 34.408 98.7219 35.152 98.7219 36.208C98.7219 36.8 98.6339 37.344 98.4579 37.84C98.2819 38.32 97.9779 38.736 97.5459 39.088C97.1299 39.44 96.5619 39.712 95.8419 39.904C95.1379 40.096 94.2579 40.192 93.2019 40.192C92.7859 40.192 92.3539 40.184 91.9059 40.168C91.4739 40.168 91.0579 40.16 90.6579 40.144C90.2579 40.128 89.8899 40.104 89.5539 40.072C89.2179 40.056 88.9299 40.04 88.6899 40.024V27.256ZM90.6819 38.344C91.0979 38.376 91.5139 38.408 91.9299 38.44C92.3619 38.456 92.8099 38.464 93.2739 38.464C93.9299 38.464 94.4739 38.432 94.9059 38.368C95.3539 38.288 95.7139 38.16 95.9859 37.984C96.2579 37.808 96.4499 37.576 96.5619 37.288C96.6739 37 96.7299 36.648 96.7299 36.232C96.7299 35.512 96.4819 35.016 95.9859 34.744C95.5059 34.456 94.7219 34.312 93.6339 34.312H90.6819V38.344ZM93.6339 32.608C94.3859 32.608 94.9859 32.456 95.4339 32.152C95.8819 31.848 96.1059 31.36 96.1059 30.688C96.1059 29.968 95.8819 29.48 95.4339 29.224C95.0019 28.968 94.2419 28.84 93.1539 28.84C92.5459 28.84 92.0499 28.84 91.6659 28.84C91.2819 28.84 90.9539 28.848 90.6819 28.864V32.608H93.6339ZM101.307 33.592C101.307 32.488 101.459 31.528 101.763 30.712C102.067 29.896 102.491 29.216 103.035 28.672C103.579 28.128 104.227 27.72 104.979 27.448C105.747 27.176 106.587 27.04 107.499 27.04C108.363 27.04 109.147 27.168 109.851 27.424C110.555 27.68 111.147 28.08 111.627 28.624C112.123 29.168 112.507 29.856 112.779 30.688C113.051 31.52 113.187 32.512 113.187 33.664C113.187 34.864 113.027 35.88 112.707 36.712C112.403 37.544 111.979 38.224 111.435 38.752C110.907 39.28 110.283 39.664 109.563 39.904C108.843 40.144 108.067 40.264 107.235 40.264C105.331 40.264 103.867 39.68 102.843 38.512C101.819 37.344 101.307 35.704 101.307 33.592ZM103.299 33.664C103.299 35.184 103.643 36.368 104.331 37.216C105.035 38.048 106.059 38.464 107.403 38.464C108.587 38.464 109.515 38.088 110.187 37.336C110.859 36.568 111.195 35.344 111.195 33.664V33.592C111.195 31.976 110.851 30.776 110.163 29.992C109.491 29.208 108.515 28.816 107.235 28.816C105.971 28.816 104.995 29.224 104.307 30.04C103.635 30.84 103.299 32.024 103.299 33.592V33.664ZM116.613 27.28H118.437L118.557 29.512C119.229 27.864 120.709 27.04 122.997 27.04C124.645 27.04 125.877 27.536 126.693 28.528C127.509 29.504 127.917 31.12 127.917 33.376C127.917 34.608 127.805 35.664 127.581 36.544C127.357 37.408 127.021 38.12 126.573 38.68C126.141 39.224 125.597 39.624 124.941 39.88C124.285 40.136 123.525 40.264 122.661 40.264C121.573 40.264 120.701 40.072 120.045 39.688C119.405 39.288 118.925 38.824 118.605 38.296V44.32H116.613V27.28ZM118.605 34.888C118.605 35.992 118.917 36.864 119.541 37.504C120.181 38.144 121.085 38.464 122.253 38.464C122.925 38.464 123.493 38.376 123.957 38.2C124.421 38.024 124.797 37.736 125.085 37.336C125.373 36.936 125.581 36.424 125.709 35.8C125.853 35.176 125.925 34.408 125.925 33.496C125.925 32.632 125.845 31.904 125.685 31.312C125.525 30.704 125.293 30.224 124.989 29.872C124.685 29.504 124.301 29.24 123.837 29.08C123.389 28.92 122.869 28.84 122.277 28.84C121.653 28.84 121.109 28.928 120.645 29.104C120.181 29.28 119.797 29.528 119.493 29.848C119.189 30.152 118.965 30.52 118.821 30.952C118.677 31.384 118.605 31.848 118.605 32.344V34.888ZM133.352 31.48C133.672 31.448 133.968 31.424 134.24 31.408C134.512 31.392 134.8 31.384 135.104 31.384C136.112 31.384 136.968 31.472 137.672 31.648C138.376 31.808 138.944 32.064 139.376 32.416C139.808 32.752 140.12 33.184 140.312 33.712C140.504 34.224 140.6 34.84 140.6 35.56C140.6 36.2 140.504 36.8 140.312 37.36C140.12 37.92 139.792 38.408 139.328 38.824C138.88 39.24 138.28 39.568 137.528 39.808C136.776 40.048 135.84 40.168 134.72 40.168C134.16 40.168 133.6 40.152 133.04 40.12C132.48 40.104 131.92 40.064 131.36 40V27.28H133.352V31.48ZM133.352 38.296C133.64 38.328 133.88 38.352 134.072 38.368C134.28 38.368 134.568 38.368 134.936 38.368C135.656 38.368 136.248 38.304 136.712 38.176C137.192 38.048 137.568 37.864 137.84 37.624C138.128 37.384 138.328 37.096 138.44 36.76C138.552 36.424 138.608 36.048 138.608 35.632C138.608 35.248 138.56 34.896 138.464 34.576C138.368 34.256 138.176 33.984 137.888 33.76C137.616 33.52 137.224 33.336 136.712 33.208C136.216 33.08 135.552 33.016 134.72 33.016C134.464 33.016 134.232 33.032 134.024 33.064C133.832 33.08 133.608 33.104 133.352 33.136V38.296ZM142.4 27.28H144.392V40H142.4V27.28ZM155.604 27.28H157.596V32.608H163.932V27.28H165.924V40H163.932V34.504H157.596V40H155.604V27.28ZM177.338 38.176C177.018 38.752 176.522 39.248 175.85 39.664C175.194 40.064 174.41 40.264 173.498 40.264C172.218 40.264 171.21 39.944 170.474 39.304C169.738 38.648 169.37 37.704 169.37 36.472C169.37 35.768 169.458 35.176 169.634 34.696C169.826 34.2 170.122 33.8 170.522 33.496C170.938 33.176 171.466 32.944 172.106 32.8C172.746 32.656 173.522 32.584 174.434 32.584H177.29V31.384C177.29 30.872 177.226 30.456 177.098 30.136C176.986 29.8 176.802 29.544 176.546 29.368C176.29 29.176 175.962 29.048 175.562 28.984C175.178 28.904 174.722 28.864 174.194 28.864C173.474 28.864 172.754 29 172.034 29.272C171.33 29.544 170.762 29.864 170.33 30.232V27.928C170.586 27.784 170.882 27.656 171.218 27.544C171.57 27.432 171.93 27.344 172.298 27.28C172.666 27.2 173.034 27.144 173.402 27.112C173.77 27.064 174.106 27.04 174.41 27.04C175.242 27.04 175.962 27.112 176.57 27.256C177.194 27.4 177.706 27.64 178.106 27.976C178.506 28.312 178.802 28.76 178.994 29.32C179.186 29.864 179.282 30.544 179.282 31.36V40H177.458L177.338 38.176ZM171.41 36.16C171.41 36.848 171.602 37.384 171.986 37.768C172.37 38.152 173.002 38.344 173.882 38.344C175.066 38.344 175.93 38.04 176.474 37.432C177.018 36.824 177.29 36.056 177.29 35.128V34.048H174.506C173.898 34.048 173.394 34.088 172.994 34.168C172.594 34.248 172.274 34.376 172.034 34.552C171.81 34.712 171.65 34.928 171.554 35.2C171.458 35.456 171.41 35.776 171.41 36.16ZM183.457 27.28H185.449V33.472C185.449 34.224 185.433 34.952 185.401 35.656C185.369 36.344 185.337 36.848 185.305 37.168L185.401 37.216C185.705 36.704 186.025 36.208 186.361 35.728C186.697 35.232 187.041 34.744 187.393 34.264L192.217 27.28H193.969V40H191.977V34.864C191.977 34.4 191.977 33.936 191.977 33.472C191.993 32.992 192.009 32.536 192.025 32.104C192.041 31.672 192.057 31.28 192.073 30.928C192.089 30.56 192.105 30.264 192.121 30.04L192.049 30.016C191.841 30.384 191.569 30.848 191.233 31.408C190.897 31.952 190.545 32.464 190.177 32.944L185.233 40H183.457V27.28ZM186.841 21.76C186.905 22.368 187.065 22.848 187.321 23.2C187.593 23.552 188.065 23.728 188.737 23.728C189.409 23.728 189.881 23.552 190.153 23.2C190.441 22.848 190.617 22.368 190.681 21.76H192.457C192.329 22.944 191.929 23.8 191.257 24.328C190.601 24.856 189.761 25.12 188.737 25.12C187.713 25.12 186.865 24.856 186.193 24.328C185.537 23.8 185.145 22.944 185.017 21.76H186.841ZM198.274 27.28H200.914L204.946 34.84L208.81 27.28H211.33V40H209.338V33.304C209.338 32.584 209.37 31.872 209.434 31.168C209.498 30.448 209.562 29.728 209.626 29.008C209.258 29.824 208.914 30.592 208.594 31.312C208.274 32.016 207.978 32.608 207.706 33.088L205.498 36.928H204.13L202.042 33.112C201.77 32.6 201.458 31.992 201.106 31.288C200.754 30.584 200.386 29.832 200.002 29.032C200.066 29.752 200.122 30.48 200.17 31.216C200.234 31.936 200.266 32.664 200.266 33.4V40H198.274V27.28ZM222.75 38.176C222.43 38.752 221.934 39.248 221.262 39.664C220.606 40.064 219.822 40.264 218.91 40.264C217.63 40.264 216.622 39.944 215.886 39.304C215.15 38.648 214.782 37.704 214.782 36.472C214.782 35.768 214.87 35.176 215.046 34.696C215.238 34.2 215.534 33.8 215.934 33.496C216.35 33.176 216.878 32.944 217.518 32.8C218.158 32.656 218.934 32.584 219.846 32.584H222.702V31.384C222.702 30.872 222.638 30.456 222.51 30.136C222.398 29.8 222.214 29.544 221.958 29.368C221.702 29.176 221.374 29.048 220.974 28.984C220.59 28.904 220.134 28.864 219.606 28.864C218.886 28.864 218.166 29 217.446 29.272C216.742 29.544 216.174 29.864 215.742 30.232V27.928C215.998 27.784 216.294 27.656 216.63 27.544C216.982 27.432 217.342 27.344 217.71 27.28C218.078 27.2 218.446 27.144 218.814 27.112C219.182 27.064 219.518 27.04 219.822 27.04C220.654 27.04 221.374 27.112 221.982 27.256C222.606 27.4 223.118 27.64 223.518 27.976C223.918 28.312 224.214 28.76 224.406 29.32C224.598 29.864 224.694 30.544 224.694 31.36V40H222.87L222.75 38.176ZM216.822 36.16C216.822 36.848 217.014 37.384 217.398 37.768C217.782 38.152 218.414 38.344 219.294 38.344C220.478 38.344 221.342 38.04 221.886 37.432C222.43 36.824 222.702 36.056 222.702 35.128V34.048H219.918C219.31 34.048 218.806 34.088 218.406 34.168C218.006 34.248 217.686 34.376 217.446 34.552C217.222 34.712 217.062 34.928 216.966 35.2C216.87 35.456 216.822 35.776 216.822 36.16Z" fill="#262626" fill-opacity="0.7"/>
</g>
<g filter="url(#filter1_dd_43_1601)">
<path d="M143 83H30C16.7452 83 6 93.7452 6 107C6 120.255 16.7452 131 30 131H143C156.255 131 167 120.255 167 107C167 93.7452 156.255 83 143 83Z" fill="white"/>
<path d="M32.688 99.344C33.2 99.28 33.84 99.216 34.608 99.152C35.392 99.088 36.192 99.056 37.008 99.056C38.288 99.056 39.376 99.168 40.272 99.392C41.168 99.616 41.896 99.96 42.456 100.424C43.016 100.872 43.416 101.44 43.656 102.128C43.912 102.8 44.04 103.6 44.04 104.528C44.04 106.656 43.488 108.216 42.384 109.208C41.296 110.2 39.504 110.696 37.008 110.696C36.688 110.696 36.336 110.688 35.952 110.672C35.568 110.656 35.2 110.632 34.848 110.6V116H32.688V99.344ZM34.848 108.704C35.2 108.736 35.552 108.76 35.904 108.776C36.272 108.792 36.64 108.8 37.008 108.8C37.888 108.8 38.632 108.736 39.24 108.608C39.848 108.464 40.336 108.232 40.704 107.912C41.088 107.592 41.36 107.176 41.52 106.664C41.696 106.152 41.784 105.512 41.784 104.744C41.784 104.04 41.704 103.448 41.544 102.968C41.384 102.488 41.112 102.104 40.728 101.816C40.36 101.512 39.88 101.296 39.288 101.168C38.696 101.04 37.968 100.976 37.104 100.976C36.736 100.976 36.352 100.984 35.952 101C35.568 101.016 35.2 101.04 34.848 101.072V108.704ZM54.5486 114.176C54.2286 114.752 53.7326 115.248 53.0606 115.664C52.4046 116.064 51.6206 116.264 50.7086 116.264C49.4286 116.264 48.4206 115.944 47.6846 115.304C46.9486 114.648 46.5806 113.704 46.5806 112.472C46.5806 111.768 46.6686 111.176 46.8446 110.696C47.0366 110.2 47.3326 109.8 47.7326 109.496C48.1486 109.176 48.6766 108.944 49.3166 108.8C49.9566 108.656 50.7326 108.584 51.6446 108.584H54.5006V107.384C54.5006 106.872 54.4366 106.456 54.3086 106.136C54.1966 105.8 54.0126 105.544 53.7566 105.368C53.5006 105.176 53.1726 105.048 52.7726 104.984C52.3886 104.904 51.9326 104.864 51.4046 104.864C50.6846 104.864 49.9646 105 49.2446 105.272C48.5406 105.544 47.9726 105.864 47.5406 106.232V103.928C47.7966 103.784 48.0926 103.656 48.4286 103.544C48.7806 103.432 49.1406 103.344 49.5086 103.28C49.8766 103.2 50.2446 103.144 50.6126 103.112C50.9806 103.064 51.3166 103.04 51.6206 103.04C52.4526 103.04 53.1726 103.112 53.7806 103.256C54.4046 103.4 54.9166 103.64 55.3166 103.976C55.7166 104.312 56.0126 104.76 56.2046 105.32C56.3966 105.864 56.4926 106.544 56.4926 107.36V116H54.6686L54.5486 114.176ZM48.6206 112.16C48.6206 112.848 48.8126 113.384 49.1966 113.768C49.5806 114.152 50.2126 114.344 51.0926 114.344C52.2766 114.344 53.1406 114.04 53.6846 113.432C54.2286 112.824 54.5006 112.056 54.5006 111.128V110.048H51.7166C51.1086 110.048 50.6046 110.088 50.2046 110.168C49.8046 110.248 49.4846 110.376 49.2446 110.552C49.0206 110.712 48.8606 110.928 48.7646 111.2C48.6686 111.456 48.6206 111.776 48.6206 112.16ZM69.5361 105.944C69.1521 105.672 68.6561 105.44 68.0481 105.248C67.4401 105.04 66.7761 104.936 66.0561 104.936C65.4801 104.936 64.9521 105.016 64.4721 105.176C63.9921 105.32 63.5761 105.568 63.2241 105.92C62.8881 106.272 62.6241 106.752 62.4321 107.36C62.2561 107.952 62.1681 108.688 62.1681 109.568C62.1681 110.464 62.2641 111.216 62.4561 111.824C62.6481 112.432 62.9281 112.928 63.2961 113.312C63.6801 113.68 64.1361 113.944 64.6641 114.104C65.2081 114.264 65.8321 114.344 66.5361 114.344C67.1921 114.344 67.8161 114.248 68.4081 114.056C69.0161 113.864 69.5281 113.592 69.9441 113.24V115.4C69.6081 115.672 69.1201 115.88 68.4801 116.024C67.8561 116.184 67.1121 116.264 66.2481 116.264C65.2881 116.264 64.4241 116.152 63.6561 115.928C62.9041 115.688 62.2641 115.296 61.7361 114.752C61.2081 114.208 60.8001 113.504 60.5121 112.64C60.2401 111.76 60.1041 110.68 60.1041 109.4C60.1041 107.208 60.6161 105.6 61.6401 104.576C62.6801 103.552 64.2401 103.04 66.3201 103.04C67.1041 103.04 67.7441 103.104 68.2401 103.232C68.7361 103.344 69.1681 103.496 69.5361 103.688V105.944ZM73.554 103.28H83.682V116H81.69V105.152H75.546V116H73.554V103.28ZM88.3196 103.28H90.3116V109.472C90.3116 110.224 90.2956 110.952 90.2636 111.656C90.2316 112.344 90.1996 112.848 90.1676 113.168L90.2636 113.216C90.5676 112.704 90.8876 112.208 91.2236 111.728C91.5596 111.232 91.9036 110.744 92.2556 110.264L97.0796 103.28H98.8316V116H96.8396V110.864C96.8396 110.4 96.8396 109.936 96.8396 109.472C96.8556 108.992 96.8716 108.536 96.8876 108.104C96.9036 107.672 96.9196 107.28 96.9356 106.928C96.9516 106.56 96.9676 106.264 96.9836 106.04L96.9116 106.016C96.7036 106.384 96.4316 106.848 96.0956 107.408C95.7596 107.952 95.4076 108.464 95.0396 108.944L90.0956 116H88.3196V103.28ZM112.005 105.944C111.621 105.672 111.125 105.44 110.517 105.248C109.909 105.04 109.245 104.936 108.525 104.936C107.949 104.936 107.421 105.016 106.941 105.176C106.461 105.32 106.045 105.568 105.693 105.92C105.357 106.272 105.093 106.752 104.901 107.36C104.725 107.952 104.637 108.688 104.637 109.568C104.637 110.464 104.733 111.216 104.925 111.824C105.117 112.432 105.397 112.928 105.765 113.312C106.149 113.68 106.605 113.944 107.133 114.104C107.677 114.264 108.301 114.344 109.005 114.344C109.661 114.344 110.285 114.248 110.877 114.056C111.485 113.864 111.997 113.592 112.413 113.24V115.4C112.077 115.672 111.589 115.88 110.949 116.024C110.325 116.184 109.581 116.264 108.717 116.264C107.757 116.264 106.893 116.152 106.125 115.928C105.373 115.688 104.733 115.296 104.205 114.752C103.677 114.208 103.269 113.504 102.981 112.64C102.709 111.76 102.573 110.68 102.573 109.4C102.573 107.208 103.085 105.6 104.109 104.576C105.149 103.552 106.709 103.04 108.789 103.04C109.573 103.04 110.213 103.104 110.709 103.232C111.205 103.344 111.637 103.496 112.005 103.688V105.944ZM120.103 110.24H118.015V116H116.023V103.28H118.015V108.68H120.127L124.375 103.28H126.655L121.807 109.328L127.159 116H124.735L120.103 110.24ZM129.945 103.28H131.937V109.472C131.937 110.224 131.921 110.952 131.889 111.656C131.857 112.344 131.825 112.848 131.793 113.168L131.889 113.216C132.193 112.704 132.513 112.208 132.849 111.728C133.185 111.232 133.529 110.744 133.881 110.264L138.705 103.28H140.457V116H138.465V110.864C138.465 110.4 138.465 109.936 138.465 109.472C138.481 108.992 138.497 108.536 138.513 108.104C138.529 107.672 138.545 107.28 138.561 106.928C138.577 106.56 138.593 106.264 138.609 106.04L138.537 106.016C138.329 106.384 138.057 106.848 137.721 107.408C137.385 107.952 137.033 108.464 136.665 108.944L131.721 116H129.945V103.28Z" fill="#262626" fill-opacity="0.7"/>
</g>
<g filter="url(#filter2_dd_43_1601)">
<path d="M277 83H217C203.745 83 193 93.7452 193 107C193 120.255 203.745 131 217 131H277C290.255 131 301 120.255 301 107C301 93.7452 290.255 83 277 83Z" fill="white"/>
<path d="M228.64 111.512H221.464L219.808 116H217.6L224.008 99.2H226.192L232.696 116H230.32L228.64 111.512ZM222.184 109.592H227.92L225.04 101.888L222.184 109.592ZM239.673 110.24H237.585V116H235.593V103.28H237.585V108.68H239.697L243.945 103.28H246.225L241.377 109.328L246.729 116H244.305L239.673 110.24ZM252.005 105.152H247.877V103.28H258.101V105.152H253.997V116H252.005V105.152ZM262.827 107.48C263.147 107.448 263.443 107.424 263.715 107.408C263.987 107.392 264.275 107.384 264.579 107.384C265.587 107.384 266.443 107.472 267.147 107.648C267.851 107.808 268.419 108.064 268.851 108.416C269.283 108.752 269.595 109.184 269.787 109.712C269.979 110.224 270.075 110.84 270.075 111.56C270.075 112.2 269.979 112.8 269.787 113.36C269.595 113.92 269.267 114.408 268.803 114.824C268.355 115.24 267.755 115.568 267.003 115.808C266.251 116.048 265.315 116.168 264.195 116.168C263.635 116.168 263.075 116.152 262.515 116.12C261.955 116.104 261.395 116.064 260.835 116V103.28H262.827V107.48ZM262.827 114.296C263.115 114.328 263.355 114.352 263.547 114.368C263.755 114.368 264.043 114.368 264.411 114.368C265.131 114.368 265.723 114.304 266.187 114.176C266.667 114.048 267.043 113.864 267.315 113.624C267.603 113.384 267.803 113.096 267.915 112.76C268.027 112.424 268.083 112.048 268.083 111.632C268.083 111.248 268.035 110.896 267.939 110.576C267.843 110.256 267.651 109.984 267.363 109.76C267.091 109.52 266.699 109.336 266.187 109.208C265.691 109.08 265.027 109.016 264.195 109.016C263.939 109.016 263.707 109.032 263.499 109.064C263.307 109.08 263.083 109.104 262.827 109.136V114.296ZM271.875 103.28H273.867V116H271.875V103.28Z" fill="#262626" fill-opacity="0.7"/>
</g>
<g filter="url(#filter3_dd_43_1601)">
<path d="M378 155H30C16.7452 155 6 165.745 6 179C6 192.255 16.7452 203 30 203H378C391.255 203 402 192.255 402 179C402 165.745 391.255 155 378 155Z" fill="white"/>
<path d="M30.24 186.08H32.016C32.496 184.912 32.936 183.368 33.336 181.448C33.752 179.528 33.976 177.272 34.008 174.68L34.056 171.2H44.232V186.08H46.392V191.12H44.376V188H32.256V191.12H30.24V186.08ZM42.072 173.12H36.144L36.12 174.752C36.104 175.856 36.04 176.944 35.928 178.016C35.832 179.072 35.696 180.088 35.52 181.064C35.36 182.04 35.168 182.952 34.944 183.8C34.736 184.648 34.512 185.408 34.272 186.08H42.072V173.12ZM48.6666 181.592C48.6666 180.488 48.8186 179.528 49.1226 178.712C49.4266 177.896 49.8506 177.216 50.3946 176.672C50.9386 176.128 51.5866 175.72 52.3386 175.448C53.1066 175.176 53.9466 175.04 54.8586 175.04C55.7226 175.04 56.5066 175.168 57.2106 175.424C57.9146 175.68 58.5066 176.08 58.9866 176.624C59.4826 177.168 59.8666 177.856 60.1386 178.688C60.4106 179.52 60.5466 180.512 60.5466 181.664C60.5466 182.864 60.3866 183.88 60.0666 184.712C59.7626 185.544 59.3386 186.224 58.7946 186.752C58.2666 187.28 57.6426 187.664 56.9226 187.904C56.2026 188.144 55.4266 188.264 54.5946 188.264C52.6906 188.264 51.2266 187.68 50.2026 186.512C49.1786 185.344 48.6666 183.704 48.6666 181.592ZM50.6586 181.664C50.6586 183.184 51.0026 184.368 51.6906 185.216C52.3946 186.048 53.4186 186.464 54.7626 186.464C55.9466 186.464 56.8746 186.088 57.5466 185.336C58.2186 184.568 58.5546 183.344 58.5546 181.664V181.592C58.5546 179.976 58.2106 178.776 57.5226 177.992C56.8506 177.208 55.8746 176.816 54.5946 176.816C53.3306 176.816 52.3546 177.224 51.6666 178.04C50.9946 178.84 50.6586 180.024 50.6586 181.592V181.664ZM64.2962 175.28H72.3362V177.152H66.2882V188H64.2962V175.28ZM74.2603 181.592C74.2603 180.488 74.4123 179.528 74.7163 178.712C75.0203 177.896 75.4443 177.216 75.9883 176.672C76.5323 176.128 77.1803 175.72 77.9323 175.448C78.7003 175.176 79.5403 175.04 80.4523 175.04C81.3163 175.04 82.1003 175.168 82.8043 175.424C83.5083 175.68 84.1003 176.08 84.5803 176.624C85.0763 177.168 85.4603 177.856 85.7323 178.688C86.0043 179.52 86.1403 180.512 86.1403 181.664C86.1403 182.864 85.9803 183.88 85.6603 184.712C85.3563 185.544 84.9323 186.224 84.3883 186.752C83.8603 187.28 83.2363 187.664 82.5163 187.904C81.7963 188.144 81.0203 188.264 80.1883 188.264C78.2843 188.264 76.8203 187.68 75.7963 186.512C74.7723 185.344 74.2603 183.704 74.2603 181.592ZM76.2523 181.664C76.2523 183.184 76.5963 184.368 77.2843 185.216C77.9883 186.048 79.0123 186.464 80.3563 186.464C81.5403 186.464 82.4683 186.088 83.1403 185.336C83.8123 184.568 84.1483 183.344 84.1483 181.664V181.592C84.1483 179.976 83.8043 178.776 83.1163 177.992C82.4443 177.208 81.4683 176.816 80.1883 176.816C78.9243 176.816 77.9483 177.224 77.2603 178.04C76.5883 178.84 76.2523 180.024 76.2523 181.592V181.664ZM89.8899 175.256C90.3539 175.224 90.9379 175.192 91.6419 175.16C92.3619 175.128 93.2179 175.112 94.2099 175.112C95.2339 175.112 96.0739 175.184 96.7299 175.328C97.3859 175.472 97.9059 175.672 98.2899 175.928C98.6739 176.184 98.9379 176.504 99.0819 176.888C99.2419 177.256 99.3219 177.664 99.3219 178.112C99.3219 178.928 99.1379 179.584 98.7699 180.08C98.4019 180.56 97.7619 180.928 96.8499 181.184C97.9219 181.28 98.6979 181.544 99.1779 181.976C99.6739 182.408 99.9219 183.152 99.9219 184.208C99.9219 184.8 99.8339 185.344 99.6579 185.84C99.4819 186.32 99.1779 186.736 98.7459 187.088C98.3299 187.44 97.7619 187.712 97.0419 187.904C96.3379 188.096 95.4579 188.192 94.4019 188.192C93.9859 188.192 93.5539 188.184 93.1059 188.168C92.6739 188.168 92.2579 188.16 91.8579 188.144C91.4579 188.128 91.0899 188.104 90.7539 188.072C90.4179 188.056 90.1299 188.04 89.8899 188.024V175.256ZM91.8819 186.344C92.2979 186.376 92.7139 186.408 93.1299 186.44C93.5619 186.456 94.0099 186.464 94.4739 186.464C95.1299 186.464 95.6739 186.432 96.1059 186.368C96.5539 186.288 96.9139 186.16 97.1859 185.984C97.4579 185.808 97.6499 185.576 97.7619 185.288C97.8739 185 97.9299 184.648 97.9299 184.232C97.9299 183.512 97.6819 183.016 97.1859 182.744C96.7059 182.456 95.9219 182.312 94.8339 182.312H91.8819V186.344ZM94.8339 180.608C95.5859 180.608 96.1859 180.456 96.6339 180.152C97.0819 179.848 97.3059 179.36 97.3059 178.688C97.3059 177.968 97.0819 177.48 96.6339 177.224C96.2019 176.968 95.4419 176.84 94.3539 176.84C93.7459 176.84 93.2499 176.84 92.8659 176.84C92.4819 176.84 92.1539 176.848 91.8819 176.864V180.608H94.8339ZM102.807 181.592C102.807 180.488 102.959 179.528 103.263 178.712C103.567 177.896 103.991 177.216 104.535 176.672C105.079 176.128 105.727 175.72 106.479 175.448C107.247 175.176 108.087 175.04 108.999 175.04C109.863 175.04 110.647 175.168 111.351 175.424C112.055 175.68 112.647 176.08 113.127 176.624C113.623 177.168 114.007 177.856 114.279 178.688C114.551 179.52 114.687 180.512 114.687 181.664C114.687 182.864 114.527 183.88 114.207 184.712C113.903 185.544 113.479 186.224 112.935 186.752C112.407 187.28 111.783 187.664 111.063 187.904C110.343 188.144 109.567 188.264 108.735 188.264C106.831 188.264 105.367 187.68 104.343 186.512C103.319 185.344 102.807 183.704 102.807 181.592ZM104.799 181.664C104.799 183.184 105.143 184.368 105.831 185.216C106.535 186.048 107.559 186.464 108.903 186.464C110.087 186.464 111.015 186.088 111.687 185.336C112.359 184.568 112.695 183.344 112.695 181.664V181.592C112.695 179.976 112.351 178.776 111.663 177.992C110.991 177.208 110.015 176.816 108.735 176.816C107.471 176.816 106.495 177.224 105.807 178.04C105.135 178.84 104.799 180.024 104.799 181.592V181.664ZM118.413 175.28H120.237L120.357 177.512C121.029 175.864 122.509 175.04 124.797 175.04C126.445 175.04 127.677 175.536 128.493 176.528C129.309 177.504 129.717 179.12 129.717 181.376C129.717 182.608 129.605 183.664 129.381 184.544C129.157 185.408 128.821 186.12 128.373 186.68C127.941 187.224 127.397 187.624 126.741 187.88C126.085 188.136 125.325 188.264 124.461 188.264C123.373 188.264 122.501 188.072 121.845 187.688C121.205 187.288 120.725 186.824 120.405 186.296V192.32H118.413V175.28ZM120.405 182.888C120.405 183.992 120.717 184.864 121.341 185.504C121.981 186.144 122.885 186.464 124.053 186.464C124.725 186.464 125.293 186.376 125.757 186.2C126.221 186.024 126.597 185.736 126.885 185.336C127.173 184.936 127.381 184.424 127.509 183.8C127.653 183.176 127.725 182.408 127.725 181.496C127.725 180.632 127.645 179.904 127.485 179.312C127.325 178.704 127.093 178.224 126.789 177.872C126.485 177.504 126.101 177.24 125.637 177.08C125.189 176.92 124.669 176.84 124.077 176.84C123.453 176.84 122.909 176.928 122.445 177.104C121.981 177.28 121.597 177.528 121.293 177.848C120.989 178.152 120.765 178.52 120.621 178.952C120.477 179.384 120.405 179.848 120.405 180.344V182.888ZM135.452 179.48C135.772 179.448 136.068 179.424 136.34 179.408C136.612 179.392 136.9 179.384 137.204 179.384C138.212 179.384 139.068 179.472 139.772 179.648C140.476 179.808 141.044 180.064 141.476 180.416C141.908 180.752 142.22 181.184 142.412 181.712C142.604 182.224 142.7 182.84 142.7 183.56C142.7 184.2 142.604 184.8 142.412 185.36C142.22 185.92 141.892 186.408 141.428 186.824C140.98 187.24 140.38 187.568 139.628 187.808C138.876 188.048 137.94 188.168 136.82 188.168C136.26 188.168 135.7 188.152 135.14 188.12C134.58 188.104 134.02 188.064 133.46 188V175.28H135.452V179.48ZM135.452 186.296C135.74 186.328 135.98 186.352 136.172 186.368C136.38 186.368 136.668 186.368 137.036 186.368C137.756 186.368 138.348 186.304 138.812 186.176C139.292 186.048 139.668 185.864 139.94 185.624C140.228 185.384 140.428 185.096 140.54 184.76C140.652 184.424 140.708 184.048 140.708 183.632C140.708 183.248 140.66 182.896 140.564 182.576C140.468 182.256 140.276 181.984 139.988 181.76C139.716 181.52 139.324 181.336 138.812 181.208C138.316 181.08 137.652 181.016 136.82 181.016C136.564 181.016 136.332 181.032 136.124 181.064C135.932 181.08 135.708 181.104 135.452 181.136V186.296ZM144.5 175.28H146.492V188H144.5V175.28ZM157.44 181.592C157.44 180.488 157.592 179.528 157.896 178.712C158.2 177.896 158.624 177.216 159.168 176.672C159.712 176.128 160.36 175.72 161.112 175.448C161.88 175.176 162.72 175.04 163.632 175.04C164.496 175.04 165.28 175.168 165.984 175.424C166.688 175.68 167.28 176.08 167.76 176.624C168.256 177.168 168.64 177.856 168.912 178.688C169.184 179.52 169.32 180.512 169.32 181.664C169.32 182.864 169.16 183.88 168.84 184.712C168.536 185.544 168.112 186.224 167.568 186.752C167.04 187.28 166.416 187.664 165.696 187.904C164.976 188.144 164.2 188.264 163.368 188.264C161.464 188.264 160 187.68 158.976 186.512C157.952 185.344 157.44 183.704 157.44 181.592ZM159.432 181.664C159.432 183.184 159.776 184.368 160.464 185.216C161.168 186.048 162.192 186.464 163.536 186.464C164.72 186.464 165.648 186.088 166.32 185.336C166.992 184.568 167.328 183.344 167.328 181.664V181.592C167.328 179.976 166.984 178.776 166.296 177.992C165.624 177.208 164.648 176.816 163.368 176.816C162.104 176.816 161.128 177.224 160.44 178.04C159.768 178.84 159.432 180.024 159.432 181.592V181.664ZM183.174 171.824C182.934 171.952 182.486 172.056 181.83 172.136C181.174 172.216 180.182 172.296 178.854 172.376C177.99 172.424 177.278 172.56 176.718 172.784C176.158 172.992 175.71 173.312 175.374 173.744C175.038 174.176 174.79 174.728 174.63 175.4C174.47 176.072 174.35 176.888 174.27 177.848L174.342 177.872C174.902 177.056 175.598 176.448 176.43 176.048C177.278 175.648 178.182 175.448 179.142 175.448C179.926 175.448 180.63 175.544 181.254 175.736C181.894 175.912 182.438 176.224 182.886 176.672C183.334 177.12 183.678 177.728 183.918 178.496C184.158 179.248 184.278 180.2 184.278 181.352C184.278 182.568 184.15 183.616 183.894 184.496C183.638 185.36 183.254 186.072 182.742 186.632C182.246 187.176 181.63 187.584 180.894 187.856C180.158 188.112 179.318 188.24 178.374 188.24C176.326 188.24 174.806 187.608 173.814 186.344C172.822 185.064 172.326 183.04 172.326 180.272C172.326 178.624 172.43 177.208 172.638 176.024C172.846 174.824 173.174 173.824 173.622 173.024C174.086 172.224 174.678 171.608 175.398 171.176C176.134 170.744 177.022 170.456 178.062 170.312C178.366 170.264 178.758 170.224 179.238 170.192C179.718 170.144 180.206 170.096 180.702 170.048C181.214 169.984 181.694 169.912 182.142 169.832C182.59 169.736 182.934 169.624 183.174 169.496V171.824ZM178.422 186.344C179.686 186.344 180.622 185.976 181.23 185.24C181.854 184.488 182.166 183.272 182.166 181.592C182.166 180.744 182.086 180.048 181.926 179.504C181.766 178.944 181.526 178.504 181.206 178.184C180.902 177.848 180.518 177.616 180.054 177.488C179.606 177.344 179.094 177.272 178.518 177.272C177.286 177.272 176.286 177.608 175.518 178.28C174.766 178.936 174.39 179.888 174.39 181.136C174.39 182.08 174.478 182.888 174.654 183.56C174.83 184.216 175.086 184.752 175.422 185.168C175.774 185.584 176.198 185.888 176.694 186.08C177.206 186.256 177.782 186.344 178.422 186.344ZM194.354 181.592C194.354 180.488 194.506 179.528 194.81 178.712C195.114 177.896 195.538 177.216 196.082 176.672C196.626 176.128 197.274 175.72 198.026 175.448C198.794 175.176 199.634 175.04 200.546 175.04C201.41 175.04 202.194 175.168 202.898 175.424C203.602 175.68 204.194 176.08 204.674 176.624C205.17 177.168 205.554 177.856 205.826 178.688C206.098 179.52 206.234 180.512 206.234 181.664C206.234 182.864 206.074 183.88 205.754 184.712C205.45 185.544 205.026 186.224 204.482 186.752C203.954 187.28 203.33 187.664 202.61 187.904C201.89 188.144 201.114 188.264 200.282 188.264C198.378 188.264 196.914 187.68 195.89 186.512C194.866 185.344 194.354 183.704 194.354 181.592ZM196.346 181.664C196.346 183.184 196.69 184.368 197.378 185.216C198.082 186.048 199.106 186.464 200.45 186.464C201.634 186.464 202.562 186.088 203.234 185.336C203.906 184.568 204.242 183.344 204.242 181.664V181.592C204.242 179.976 203.898 178.776 203.21 177.992C202.538 177.208 201.562 176.816 200.282 176.816C199.018 176.816 198.042 177.224 197.354 178.04C196.682 178.84 196.346 180.024 196.346 181.592V181.664ZM214.064 182.24H211.976V188H209.984V175.28H211.976V180.68H214.088L218.336 175.28H220.616L215.768 181.328L221.12 188H218.696L214.064 182.24ZM231.01 186.176C230.69 186.752 230.194 187.248 229.522 187.664C228.866 188.064 228.082 188.264 227.17 188.264C225.89 188.264 224.882 187.944 224.146 187.304C223.41 186.648 223.042 185.704 223.042 184.472C223.042 183.768 223.13 183.176 223.306 182.696C223.498 182.2 223.794 181.8 224.194 181.496C224.61 181.176 225.138 180.944 225.778 180.8C226.418 180.656 227.194 180.584 228.106 180.584H230.962V179.384C230.962 178.872 230.898 178.456 230.77 178.136C230.658 177.8 230.474 177.544 230.218 177.368C229.962 177.176 229.634 177.048 229.234 176.984C228.85 176.904 228.394 176.864 227.866 176.864C227.146 176.864 226.426 177 225.706 177.272C225.002 177.544 224.434 177.864 224.002 178.232V175.928C224.258 175.784 224.554 175.656 224.89 175.544C225.242 175.432 225.602 175.344 225.97 175.28C226.338 175.2 226.706 175.144 227.074 175.112C227.442 175.064 227.778 175.04 228.082 175.04C228.914 175.04 229.634 175.112 230.242 175.256C230.866 175.4 231.378 175.64 231.778 175.976C232.178 176.312 232.474 176.76 232.666 177.32C232.858 177.864 232.954 178.544 232.954 179.36V188H231.13L231.01 186.176ZM225.082 184.16C225.082 184.848 225.274 185.384 225.658 185.768C226.042 186.152 226.674 186.344 227.554 186.344C228.738 186.344 229.602 186.04 230.146 185.432C230.69 184.824 230.962 184.056 230.962 183.128V182.048H228.178C227.57 182.048 227.066 182.088 226.666 182.168C226.266 182.248 225.946 182.376 225.706 182.552C225.482 182.712 225.322 182.928 225.226 183.2C225.13 183.456 225.082 183.776 225.082 184.16ZM236.565 185.048C236.981 185.384 237.565 185.704 238.317 186.008C239.085 186.312 239.981 186.464 241.005 186.464C241.981 186.464 242.709 186.296 243.189 185.96C243.685 185.624 243.933 185.048 243.933 184.232C243.933 183.88 243.877 183.584 243.765 183.344C243.653 183.104 243.461 182.912 243.189 182.768C242.917 182.624 242.557 182.528 242.109 182.48C241.677 182.416 241.125 182.384 240.453 182.384H238.797V180.8H240.717C241.629 180.8 242.285 180.632 242.685 180.296C243.101 179.944 243.309 179.416 243.309 178.712C243.309 178.056 243.133 177.576 242.781 177.272C242.429 176.968 241.741 176.816 240.717 176.816C239.773 176.816 239.005 176.944 238.413 177.2C237.837 177.44 237.301 177.752 236.805 178.136V175.808C237.029 175.712 237.269 175.624 237.525 175.544C237.781 175.448 238.077 175.368 238.413 175.304C238.749 175.224 239.133 175.16 239.565 175.112C239.997 175.064 240.501 175.04 241.077 175.04C242.645 175.04 243.741 175.32 244.365 175.88C245.005 176.424 245.325 177.176 245.325 178.136C245.325 179.032 245.189 179.744 244.917 180.272C244.645 180.784 244.109 181.152 243.309 181.376C244.093 181.424 244.725 181.68 245.205 182.144C245.685 182.592 245.925 183.248 245.925 184.112C245.925 185.552 245.501 186.608 244.653 187.28C243.821 187.936 242.413 188.264 240.429 188.264C240.141 188.264 239.821 188.248 239.469 188.216C239.117 188.184 238.765 188.128 238.413 188.048C238.077 187.984 237.741 187.912 237.405 187.832C237.085 187.736 236.805 187.624 236.565 187.496V185.048ZM256.767 186.176C256.447 186.752 255.951 187.248 255.279 187.664C254.623 188.064 253.839 188.264 252.927 188.264C251.647 188.264 250.639 187.944 249.903 187.304C249.167 186.648 248.799 185.704 248.799 184.472C248.799 183.768 248.887 183.176 249.063 182.696C249.255 182.2 249.551 181.8 249.951 181.496C250.367 181.176 250.895 180.944 251.535 180.8C252.175 180.656 252.951 180.584 253.863 180.584H256.719V179.384C256.719 178.872 256.655 178.456 256.527 178.136C256.415 177.8 256.231 177.544 255.975 177.368C255.719 177.176 255.391 177.048 254.991 176.984C254.607 176.904 254.151 176.864 253.623 176.864C252.903 176.864 252.183 177 251.463 177.272C250.759 177.544 250.191 177.864 249.759 178.232V175.928C250.015 175.784 250.311 175.656 250.647 175.544C250.999 175.432 251.359 175.344 251.727 175.28C252.095 175.2 252.463 175.144 252.831 175.112C253.199 175.064 253.535 175.04 253.839 175.04C254.671 175.04 255.391 175.112 255.999 175.256C256.623 175.4 257.135 175.64 257.535 175.976C257.935 176.312 258.231 176.76 258.423 177.32C258.615 177.864 258.711 178.544 258.711 179.36V188H256.887L256.767 186.176ZM250.839 184.16C250.839 184.848 251.031 185.384 251.415 185.768C251.799 186.152 252.431 186.344 253.311 186.344C254.495 186.344 255.359 186.04 255.903 185.432C256.447 184.824 256.719 184.056 256.719 183.128V182.048H253.935C253.327 182.048 252.823 182.088 252.423 182.168C252.023 182.248 251.703 182.376 251.463 182.552C251.239 182.712 251.079 182.928 250.983 183.2C250.887 183.456 250.839 183.776 250.839 184.16ZM263.187 175.28H265.179V180.608H271.515V175.28H273.507V188H271.515V182.504H265.179V188H263.187V175.28ZM278.117 175.28H280.109V181.472C280.109 182.224 280.093 182.952 280.061 183.656C280.029 184.344 279.997 184.848 279.965 185.168L280.061 185.216C280.365 184.704 280.685 184.208 281.021 183.728C281.357 183.232 281.701 182.744 282.053 182.264L286.877 175.28H288.629V188H286.637V182.864C286.637 182.4 286.637 181.936 286.637 181.472C286.653 180.992 286.669 180.536 286.685 180.104C286.701 179.672 286.717 179.28 286.733 178.928C286.749 178.56 286.765 178.264 286.781 178.04L286.709 178.016C286.501 178.384 286.229 178.848 285.893 179.408C285.557 179.952 285.205 180.464 284.837 180.944L279.893 188H278.117V175.28ZM293.234 175.28H295.226V181.472C295.226 182.224 295.21 182.952 295.178 183.656C295.146 184.344 295.114 184.848 295.082 185.168L295.178 185.216C295.482 184.704 295.802 184.208 296.138 183.728C296.474 183.232 296.818 182.744 297.17 182.264L301.994 175.28H303.746V188H301.754V182.864C301.754 182.4 301.754 181.936 301.754 181.472C301.77 180.992 301.786 180.536 301.802 180.104C301.818 179.672 301.834 179.28 301.85 178.928C301.866 178.56 301.882 178.264 301.898 178.04L301.826 178.016C301.618 178.384 301.346 178.848 301.01 179.408C300.674 179.952 300.322 180.464 299.954 180.944L295.01 188H293.234V175.28ZM316.938 190.592C317.162 190.592 317.362 190.56 317.538 190.496C317.73 190.448 317.906 190.336 318.066 190.16C318.242 189.984 318.41 189.728 318.57 189.392C318.746 189.056 318.93 188.608 319.122 188.048L313.962 175.28H316.266L320.154 185.432L323.394 175.28H325.53L321.138 187.568C320.722 188.752 320.322 189.672 319.938 190.328C319.57 190.984 319.218 191.472 318.882 191.792C318.546 192.112 318.218 192.304 317.898 192.368C317.578 192.448 317.266 192.488 316.962 192.488C316.45 192.488 316.074 192.424 315.834 192.296V190.304C316.17 190.496 316.538 190.592 316.938 190.592ZM336.606 177.944C336.222 177.672 335.726 177.44 335.118 177.248C334.51 177.04 333.846 176.936 333.126 176.936C332.55 176.936 332.022 177.016 331.542 177.176C331.062 177.32 330.646 177.568 330.294 177.92C329.958 178.272 329.694 178.752 329.502 179.36C329.326 179.952 329.238 180.688 329.238 181.568C329.238 182.464 329.334 183.216 329.526 183.824C329.718 184.432 329.998 184.928 330.366 185.312C330.75 185.68 331.206 185.944 331.734 186.104C332.278 186.264 332.902 186.344 333.606 186.344C334.262 186.344 334.886 186.248 335.478 186.056C336.086 185.864 336.598 185.592 337.014 185.24V187.4C336.678 187.672 336.19 187.88 335.55 188.024C334.926 188.184 334.182 188.264 333.318 188.264C332.358 188.264 331.494 188.152 330.726 187.928C329.974 187.688 329.334 187.296 328.806 186.752C328.278 186.208 327.87 185.504 327.582 184.64C327.31 183.76 327.174 182.68 327.174 181.4C327.174 179.208 327.686 177.6 328.71 176.576C329.75 175.552 331.31 175.04 333.39 175.04C334.174 175.04 334.814 175.104 335.31 175.232C335.806 175.344 336.238 175.496 336.606 175.688V177.944ZM339.392 185.768C339.584 185.832 339.792 185.864 340.016 185.864C340.176 185.864 340.344 185.84 340.52 185.792C340.696 185.744 340.864 185.632 341.024 185.456C341.184 185.264 341.336 184.984 341.48 184.616C341.64 184.232 341.776 183.712 341.888 183.056C342.016 182.4 342.12 181.576 342.2 180.584C342.28 179.576 342.344 178.36 342.392 176.936L342.44 175.28H350.888V188H348.896V177.2H344.24L344.216 177.968C344.136 180.224 343.976 182.032 343.736 183.392C343.512 184.736 343.224 185.776 342.872 186.512C342.536 187.232 342.152 187.704 341.72 187.928C341.288 188.152 340.832 188.264 340.352 188.264C340.16 188.264 339.992 188.256 339.848 188.24C339.72 188.24 339.568 188.208 339.392 188.144V185.768ZM356.923 190.592C357.147 190.592 357.347 190.56 357.523 190.496C357.715 190.448 357.891 190.336 358.051 190.16C358.227 189.984 358.395 189.728 358.555 189.392C358.731 189.056 358.915 188.608 359.107 188.048L353.947 175.28H356.251L360.139 185.432L363.379 175.28H365.515L361.123 187.568C360.707 188.752 360.307 189.672 359.923 190.328C359.555 190.984 359.203 191.472 358.867 191.792C358.531 192.112 358.203 192.304 357.883 192.368C357.563 192.448 357.251 192.488 356.947 192.488C356.435 192.488 356.059 192.424 355.819 192.296V190.304C356.155 190.496 356.523 190.592 356.923 190.592ZM368.304 175.28H376.344V177.152H370.296V188H368.304V175.28Z" fill="#262626" fill-opacity="0.7"/>
</g>
<g filter="url(#filter4_dd_43_1601)">
<path d="M386 227H30C16.7452 227 6 237.745 6 251C6 264.255 16.7452 275 30 275H386C399.255 275 410 264.255 410 251C410 237.745 399.255 227 386 227Z" fill="white"/>
<path d="M30.24 258.08H32.016C32.496 256.912 32.936 255.368 33.336 253.448C33.752 251.528 33.976 249.272 34.008 246.68L34.056 243.2H44.232V258.08H46.392V263.12H44.376V260H32.256V263.12H30.24V258.08ZM42.072 245.12H36.144L36.12 246.752C36.104 247.856 36.04 248.944 35.928 250.016C35.832 251.072 35.696 252.088 35.52 253.064C35.36 254.04 35.168 254.952 34.944 255.8C34.736 256.648 34.512 257.408 34.272 258.08H42.072V245.12ZM48.6666 253.592C48.6666 252.488 48.8186 251.528 49.1226 250.712C49.4266 249.896 49.8506 249.216 50.3946 248.672C50.9386 248.128 51.5866 247.72 52.3386 247.448C53.1066 247.176 53.9466 247.04 54.8586 247.04C55.7226 247.04 56.5066 247.168 57.2106 247.424C57.9146 247.68 58.5066 248.08 58.9866 248.624C59.4826 249.168 59.8666 249.856 60.1386 250.688C60.4106 251.52 60.5466 252.512 60.5466 253.664C60.5466 254.864 60.3866 255.88 60.0666 256.712C59.7626 257.544 59.3386 258.224 58.7946 258.752C58.2666 259.28 57.6426 259.664 56.9226 259.904C56.2026 260.144 55.4266 260.264 54.5946 260.264C52.6906 260.264 51.2266 259.68 50.2026 258.512C49.1786 257.344 48.6666 255.704 48.6666 253.592ZM50.6586 253.664C50.6586 255.184 51.0026 256.368 51.6906 257.216C52.3946 258.048 53.4186 258.464 54.7626 258.464C55.9466 258.464 56.8746 258.088 57.5466 257.336C58.2186 256.568 58.5546 255.344 58.5546 253.664V253.592C58.5546 251.976 58.2106 250.776 57.5226 249.992C56.8506 249.208 55.8746 248.816 54.5946 248.816C53.3306 248.816 52.3546 249.224 51.6666 250.04C50.9946 250.84 50.6586 252.024 50.6586 253.592V253.664ZM64.2962 247.28H74.4242V260H72.4322V249.152H66.2882V260H64.2962V247.28ZM78.1978 253.592C78.1978 252.488 78.3498 251.528 78.6538 250.712C78.9578 249.896 79.3818 249.216 79.9258 248.672C80.4698 248.128 81.1178 247.72 81.8698 247.448C82.6378 247.176 83.4778 247.04 84.3898 247.04C85.2538 247.04 86.0378 247.168 86.7418 247.424C87.4458 247.68 88.0378 248.08 88.5178 248.624C89.0138 249.168 89.3978 249.856 89.6698 250.688C89.9418 251.52 90.0778 252.512 90.0778 253.664C90.0778 254.864 89.9178 255.88 89.5978 256.712C89.2938 257.544 88.8698 258.224 88.3258 258.752C87.7978 259.28 87.1738 259.664 86.4538 259.904C85.7338 260.144 84.9578 260.264 84.1258 260.264C82.2218 260.264 80.7578 259.68 79.7338 258.512C78.7098 257.344 78.1978 255.704 78.1978 253.592ZM80.1898 253.664C80.1898 255.184 80.5338 256.368 81.2218 257.216C81.9258 258.048 82.9498 258.464 84.2938 258.464C85.4778 258.464 86.4058 258.088 87.0778 257.336C87.7498 256.568 88.0858 255.344 88.0858 253.664V253.592C88.0858 251.976 87.7418 250.776 87.0538 249.992C86.3818 249.208 85.4058 248.816 84.1258 248.816C82.8618 248.816 81.8858 249.224 81.1978 250.04C80.5258 250.84 80.1898 252.024 80.1898 253.592V253.664ZM92.2434 257.768C92.4354 257.832 92.6434 257.864 92.8674 257.864C93.0274 257.864 93.1954 257.84 93.3714 257.792C93.5474 257.744 93.7154 257.632 93.8754 257.456C94.0354 257.264 94.1874 256.984 94.3314 256.616C94.4914 256.232 94.6274 255.712 94.7394 255.056C94.8674 254.4 94.9714 253.576 95.0514 252.584C95.1314 251.576 95.1954 250.36 95.2434 248.936L95.2914 247.28H103.739V260H101.747V249.2H97.0914L97.0674 249.968C96.9874 252.224 96.8274 254.032 96.5874 255.392C96.3634 256.736 96.0754 257.776 95.7234 258.512C95.3874 259.232 95.0034 259.704 94.5714 259.928C94.1394 260.152 93.6834 260.264 93.2034 260.264C93.0114 260.264 92.8434 260.256 92.6994 260.24C92.5714 260.24 92.4194 260.208 92.2434 260.144V257.768ZM108.382 247.28H110.374V252.608H116.71V247.28H118.702V260H116.71V254.504H110.374V260H108.382V247.28ZM123.312 247.28H125.304V253.472C125.304 254.224 125.288 254.952 125.256 255.656C125.224 256.344 125.192 256.848 125.16 257.168L125.256 257.216C125.56 256.704 125.88 256.208 126.216 255.728C126.552 255.232 126.896 254.744 127.248 254.264L132.072 247.28H133.824V260H131.832V254.864C131.832 254.4 131.832 253.936 131.832 253.472C131.848 252.992 131.864 252.536 131.88 252.104C131.896 251.672 131.912 251.28 131.928 250.928C131.944 250.56 131.96 250.264 131.976 250.04L131.904 250.016C131.696 250.384 131.424 250.848 131.088 251.408C130.752 251.952 130.4 252.464 130.032 252.944L125.088 260H123.312V247.28ZM140.685 249.152H136.557V247.28H146.781V249.152H142.677V260H140.685V249.152ZM150.667 254.36C150.667 255.736 151.019 256.768 151.723 257.456C152.443 258.128 153.507 258.464 154.915 258.464C155.731 258.464 156.467 258.328 157.123 258.056C157.779 257.768 158.339 257.44 158.803 257.072V259.136C158.483 259.36 157.987 259.608 157.315 259.88C156.643 260.136 155.827 260.264 154.867 260.264C153.843 260.264 152.939 260.144 152.155 259.904C151.387 259.648 150.739 259.248 150.211 258.704C149.699 258.144 149.307 257.44 149.035 256.592C148.779 255.728 148.651 254.68 148.651 253.448C148.651 251.352 149.139 249.76 150.115 248.672C151.091 247.584 152.515 247.04 154.387 247.04C155.363 247.04 156.195 247.184 156.883 247.472C157.571 247.76 158.123 248.168 158.539 248.696C158.955 249.224 159.259 249.864 159.451 250.616C159.643 251.352 159.739 252.168 159.739 253.064V254.36H150.667ZM154.363 248.84C153.195 248.84 152.283 249.152 151.627 249.776C150.987 250.384 150.667 251.336 150.667 252.632H157.747C157.747 251.336 157.475 250.384 156.931 249.776C156.403 249.152 155.547 248.84 154.363 248.84ZM161.665 257.768C161.857 257.832 162.065 257.864 162.289 257.864C162.449 257.864 162.617 257.84 162.793 257.792C162.969 257.744 163.137 257.632 163.297 257.456C163.457 257.264 163.609 256.984 163.753 256.616C163.913 256.232 164.049 255.712 164.161 255.056C164.289 254.4 164.393 253.576 164.473 252.584C164.553 251.576 164.617 250.36 164.665 248.936L164.713 247.28H173.161V260H171.169V249.2H166.513L166.489 249.968C166.409 252.224 166.249 254.032 166.009 255.392C165.785 256.736 165.497 257.776 165.145 258.512C164.809 259.232 164.425 259.704 163.993 259.928C163.561 260.152 163.105 260.264 162.625 260.264C162.433 260.264 162.265 260.256 162.121 260.24C161.993 260.24 161.841 260.208 161.665 260.144V257.768ZM177.804 247.28H179.796V251.48C180.164 251.448 180.532 251.424 180.9 251.408C181.284 251.392 181.708 251.384 182.172 251.384C183.084 251.384 183.876 251.456 184.548 251.6C185.236 251.728 185.796 251.96 186.228 252.296C186.676 252.616 187.004 253.048 187.212 253.592C187.436 254.12 187.548 254.776 187.548 255.56C187.548 256.328 187.444 257 187.236 257.576C187.044 258.152 186.716 258.632 186.252 259.016C185.804 259.4 185.204 259.688 184.452 259.88C183.716 260.072 182.804 260.168 181.716 260.168C180.948 260.168 180.212 260.152 179.508 260.12C178.82 260.088 178.252 260.048 177.804 260V247.28ZM179.796 258.272C180.116 258.32 180.428 258.352 180.732 258.368C181.052 258.368 181.5 258.368 182.076 258.368C182.748 258.368 183.3 258.32 183.732 258.224C184.18 258.128 184.54 257.976 184.812 257.768C185.084 257.544 185.276 257.264 185.388 256.928C185.5 256.576 185.556 256.144 185.556 255.632C185.556 255.152 185.5 254.752 185.388 254.432C185.276 254.096 185.068 253.824 184.764 253.616C184.46 253.408 184.036 253.256 183.492 253.16C182.964 253.064 182.268 253.016 181.404 253.016C181.148 253.016 180.892 253.032 180.636 253.064C180.38 253.08 180.1 253.104 179.796 253.136V258.272ZM190.999 247.28H192.991V252.608H199.327V247.28H201.319V260H199.327V254.504H192.991V260H190.999V247.28ZM207.921 251.48C208.241 251.448 208.537 251.424 208.809 251.408C209.081 251.392 209.369 251.384 209.673 251.384C210.681 251.384 211.537 251.472 212.241 251.648C212.945 251.808 213.513 252.064 213.945 252.416C214.377 252.752 214.689 253.184 214.881 253.712C215.073 254.224 215.169 254.84 215.169 255.56C215.169 256.2 215.073 256.8 214.881 257.36C214.689 257.92 214.361 258.408 213.897 258.824C213.449 259.24 212.849 259.568 212.097 259.808C211.345 260.048 210.409 260.168 209.289 260.168C208.729 260.168 208.169 260.152 207.609 260.12C207.049 260.104 206.489 260.064 205.929 260V247.28H207.921V251.48ZM207.921 258.296C208.209 258.328 208.449 258.352 208.641 258.368C208.849 258.368 209.137 258.368 209.505 258.368C210.225 258.368 210.817 258.304 211.281 258.176C211.761 258.048 212.137 257.864 212.409 257.624C212.697 257.384 212.897 257.096 213.009 256.76C213.121 256.424 213.177 256.048 213.177 255.632C213.177 255.248 213.129 254.896 213.033 254.576C212.937 254.256 212.745 253.984 212.457 253.76C212.185 253.52 211.793 253.336 211.281 253.208C210.785 253.08 210.121 253.016 209.289 253.016C209.033 253.016 208.801 253.032 208.593 253.064C208.401 253.08 208.177 253.104 207.921 253.136V258.296ZM216.969 247.28H218.961V260H216.969V247.28ZM224.729 254.36C224.729 255.736 225.081 256.768 225.785 257.456C226.505 258.128 227.569 258.464 228.977 258.464C229.793 258.464 230.529 258.328 231.185 258.056C231.841 257.768 232.401 257.44 232.865 257.072V259.136C232.545 259.36 232.049 259.608 231.377 259.88C230.705 260.136 229.889 260.264 228.929 260.264C227.905 260.264 227.001 260.144 226.217 259.904C225.449 259.648 224.801 259.248 224.273 258.704C223.761 258.144 223.369 257.44 223.097 256.592C222.841 255.728 222.713 254.68 222.713 253.448C222.713 251.352 223.201 249.76 224.177 248.672C225.153 247.584 226.577 247.04 228.449 247.04C229.425 247.04 230.257 247.184 230.945 247.472C231.633 247.76 232.185 248.168 232.601 248.696C233.017 249.224 233.321 249.864 233.513 250.616C233.705 251.352 233.801 252.168 233.801 253.064V254.36H224.729ZM228.425 248.84C227.257 248.84 226.345 249.152 225.689 249.776C225.049 250.384 224.729 251.336 224.729 252.632H231.809C231.809 251.336 231.537 250.384 230.993 249.776C230.465 249.152 229.609 248.84 228.425 248.84ZM253.31 249.944C252.926 249.672 252.43 249.44 251.822 249.248C251.214 249.04 250.55 248.936 249.83 248.936C249.254 248.936 248.726 249.016 248.246 249.176C247.766 249.32 247.35 249.568 246.998 249.92C246.662 250.272 246.398 250.752 246.206 251.36C246.03 251.952 245.942 252.688 245.942 253.568C245.942 254.464 246.038 255.216 246.23 255.824C246.422 256.432 246.702 256.928 247.07 257.312C247.454 257.68 247.91 257.944 248.438 258.104C248.982 258.264 249.606 258.344 250.31 258.344C250.966 258.344 251.59 258.248 252.182 258.056C252.79 257.864 253.302 257.592 253.718 257.24V259.4C253.382 259.672 252.894 259.88 252.254 260.024C251.63 260.184 250.886 260.264 250.022 260.264C249.062 260.264 248.198 260.152 247.43 259.928C246.678 259.688 246.038 259.296 245.51 258.752C244.982 258.208 244.574 257.504 244.286 256.64C244.014 255.76 243.878 254.68 243.878 253.4C243.878 251.208 244.39 249.6 245.414 248.576C246.454 247.552 248.014 247.04 250.094 247.04C250.878 247.04 251.518 247.104 252.014 247.232C252.51 247.344 252.942 247.496 253.31 247.688V249.944ZM256.112 253.592C256.112 252.488 256.264 251.528 256.568 250.712C256.872 249.896 257.296 249.216 257.84 248.672C258.384 248.128 259.032 247.72 259.784 247.448C260.552 247.176 261.392 247.04 262.304 247.04C263.168 247.04 263.952 247.168 264.656 247.424C265.36 247.68 265.952 248.08 266.432 248.624C266.928 249.168 267.312 249.856 267.584 250.688C267.856 251.52 267.992 252.512 267.992 253.664C267.992 254.864 267.832 255.88 267.512 256.712C267.208 257.544 266.784 258.224 266.24 258.752C265.712 259.28 265.088 259.664 264.368 259.904C263.648 260.144 262.872 260.264 262.04 260.264C260.136 260.264 258.672 259.68 257.648 258.512C256.624 257.344 256.112 255.704 256.112 253.592ZM258.104 253.664C258.104 255.184 258.448 256.368 259.136 257.216C259.84 258.048 260.864 258.464 262.208 258.464C263.392 258.464 264.32 258.088 264.992 257.336C265.664 256.568 266 255.344 266 253.664V253.592C266 251.976 265.656 250.776 264.968 249.992C264.296 249.208 263.32 248.816 262.04 248.816C260.776 248.816 259.8 249.224 259.112 250.04C258.44 250.84 258.104 252.024 258.104 253.592V253.664ZM271.742 247.28H279.782V249.152H273.734V260H271.742V247.28ZM280.259 257.768C280.451 257.832 280.659 257.864 280.883 257.864C281.043 257.864 281.211 257.84 281.387 257.792C281.563 257.744 281.731 257.632 281.891 257.456C282.051 257.264 282.203 256.984 282.347 256.616C282.507 256.232 282.643 255.712 282.755 255.056C282.883 254.4 282.987 253.576 283.067 252.584C283.147 251.576 283.211 250.36 283.259 248.936L283.307 247.28H291.755V260H289.763V249.2H285.107L285.083 249.968C285.003 252.224 284.843 254.032 284.603 255.392C284.379 256.736 284.091 257.776 283.739 258.512C283.403 259.232 283.019 259.704 282.587 259.928C282.155 260.152 281.699 260.264 281.219 260.264C281.027 260.264 280.859 260.256 280.715 260.24C280.587 260.24 280.435 260.208 280.259 260.144V257.768ZM303.502 258.176C303.182 258.752 302.686 259.248 302.014 259.664C301.358 260.064 300.574 260.264 299.662 260.264C298.382 260.264 297.374 259.944 296.638 259.304C295.902 258.648 295.534 257.704 295.534 256.472C295.534 255.768 295.622 255.176 295.798 254.696C295.99 254.2 296.286 253.8 296.686 253.496C297.102 253.176 297.63 252.944 298.27 252.8C298.91 252.656 299.686 252.584 300.598 252.584H303.454V251.384C303.454 250.872 303.39 250.456 303.262 250.136C303.15 249.8 302.966 249.544 302.71 249.368C302.454 249.176 302.126 249.048 301.726 248.984C301.342 248.904 300.886 248.864 300.358 248.864C299.638 248.864 298.918 249 298.198 249.272C297.494 249.544 296.926 249.864 296.494 250.232V247.928C296.75 247.784 297.046 247.656 297.382 247.544C297.734 247.432 298.094 247.344 298.462 247.28C298.83 247.2 299.198 247.144 299.566 247.112C299.934 247.064 300.27 247.04 300.574 247.04C301.406 247.04 302.126 247.112 302.734 247.256C303.358 247.4 303.87 247.64 304.27 247.976C304.67 248.312 304.966 248.76 305.158 249.32C305.35 249.864 305.446 250.544 305.446 251.36V260H303.622L303.502 258.176ZM297.574 256.16C297.574 256.848 297.766 257.384 298.15 257.768C298.534 258.152 299.166 258.344 300.046 258.344C301.23 258.344 302.094 258.04 302.638 257.432C303.182 256.824 303.454 256.056 303.454 255.128V254.048H300.67C300.062 254.048 299.558 254.088 299.158 254.168C298.758 254.248 298.438 254.376 298.198 254.552C297.974 254.712 297.814 254.928 297.718 255.2C297.622 255.456 297.574 255.776 297.574 256.16ZM309.921 247.28H311.913V258.104H316.569V247.28H318.561V258.104H323.217V247.28H325.209V260H309.921V247.28ZM330.972 254.36C330.972 255.736 331.324 256.768 332.028 257.456C332.748 258.128 333.812 258.464 335.22 258.464C336.036 258.464 336.772 258.328 337.428 258.056C338.084 257.768 338.644 257.44 339.108 257.072V259.136C338.788 259.36 338.292 259.608 337.62 259.88C336.948 260.136 336.132 260.264 335.172 260.264C334.148 260.264 333.244 260.144 332.46 259.904C331.692 259.648 331.044 259.248 330.516 258.704C330.004 258.144 329.612 257.44 329.34 256.592C329.084 255.728 328.956 254.68 328.956 253.448C328.956 251.352 329.444 249.76 330.42 248.672C331.396 247.584 332.82 247.04 334.692 247.04C335.668 247.04 336.5 247.184 337.188 247.472C337.876 247.76 338.428 248.168 338.844 248.696C339.26 249.224 339.564 249.864 339.756 250.616C339.948 251.352 340.044 252.168 340.044 253.064V254.36H330.972ZM334.668 248.84C333.5 248.84 332.588 249.152 331.932 249.776C331.292 250.384 330.972 251.336 330.972 252.632H338.052C338.052 251.336 337.78 250.384 337.236 249.776C336.708 249.152 335.852 248.84 334.668 248.84ZM343.788 247.28H345.78V252.608H352.116V247.28H354.108V260H352.116V254.504H345.78V260H343.788V247.28ZM358.718 247.28H360.71V253.472C360.71 254.224 360.694 254.952 360.662 255.656C360.63 256.344 360.598 256.848 360.566 257.168L360.662 257.216C360.966 256.704 361.286 256.208 361.622 255.728C361.958 255.232 362.302 254.744 362.654 254.264L367.478 247.28H369.23V260H367.238V254.864C367.238 254.4 367.238 253.936 367.238 253.472C367.254 252.992 367.27 252.536 367.286 252.104C367.302 251.672 367.318 251.28 367.334 250.928C367.35 250.56 367.366 250.264 367.382 250.04L367.31 250.016C367.102 250.384 366.83 250.848 366.494 251.408C366.158 251.952 365.806 252.464 365.438 252.944L360.494 260H358.718V247.28ZM376.019 255.104C375.507 255.024 375.083 254.872 374.747 254.648C374.411 254.408 374.147 254.128 373.955 253.808C373.763 253.472 373.627 253.096 373.547 252.68C373.467 252.248 373.427 251.8 373.427 251.336C373.427 250.664 373.515 250.072 373.691 249.56C373.883 249.032 374.203 248.592 374.651 248.24C375.099 247.888 375.691 247.624 376.427 247.448C377.163 247.256 378.075 247.16 379.163 247.16C379.867 247.16 380.595 247.176 381.347 247.208C382.099 247.224 382.707 247.264 383.171 247.328V260H381.179V255.44H378.059L374.795 260H372.491L376.019 255.104ZM381.179 249.008C380.875 248.976 380.571 248.952 380.267 248.936C379.963 248.92 379.539 248.912 378.995 248.912C378.275 248.912 377.683 248.96 377.219 249.056C376.755 249.136 376.387 249.272 376.115 249.464C375.859 249.656 375.675 249.912 375.563 250.232C375.467 250.536 375.419 250.92 375.419 251.384C375.419 252.344 375.651 253 376.115 253.352C376.595 253.704 377.395 253.88 378.515 253.88H381.179V249.008Z" fill="#262626" fill-opacity="0.7"/>
</g>
<g filter="url(#filter5_dd_43_1601)">
<path d="M340 299H30C16.7452 299 6 309.745 6 323C6 336.255 16.7452 347 30 347H340C353.255 347 364 336.255 364 323C364 309.745 353.255 299 340 299Z" fill="white"/>
<path d="M33.9601 322.568H36.3601C37.0001 322.568 37.5281 322.488 37.9441 322.328C38.3761 322.168 38.7201 321.96 38.9761 321.704C39.2321 321.432 39.4081 321.12 39.5041 320.768C39.6161 320.416 39.6721 320.048 39.6721 319.664C39.6721 318.672 39.3681 317.976 38.7601 317.576C38.1681 317.16 37.2481 316.952 36.0001 316.952C35.2801 316.952 34.5841 317.08 33.9121 317.336C33.2401 317.592 32.6241 317.936 32.0641 318.368V315.896C32.5281 315.72 33.1041 315.528 33.7921 315.32C34.4961 315.112 35.3841 315.008 36.4561 315.008C38.2961 315.008 39.6641 315.328 40.5601 315.968C41.4721 316.592 41.9281 317.632 41.9281 319.088C41.9281 320.144 41.6961 320.992 41.2321 321.632C40.7681 322.272 40.0481 322.736 39.0721 323.024C40.3041 323.168 41.2321 323.568 41.8561 324.224C42.4801 324.88 42.7921 325.88 42.7921 327.224C42.7921 328.84 42.2801 330.072 41.2561 330.92C40.2321 331.768 38.6001 332.192 36.3601 332.192C35.2881 332.192 34.3441 332.096 33.5281 331.904C32.7121 331.696 32.0561 331.48 31.5601 331.256V328.52C31.7681 328.728 32.0321 328.936 32.3521 329.144C32.6881 329.336 33.0721 329.52 33.5041 329.696C33.9361 329.856 34.4081 329.992 34.9201 330.104C35.4481 330.2 36.0081 330.248 36.6001 330.248C38.0401 330.248 39.0481 329.984 39.6241 329.456C40.2161 328.912 40.5121 328.112 40.5121 327.056C40.5121 326.064 40.1841 325.368 39.5281 324.968C38.8881 324.568 37.8401 324.368 36.3841 324.368H33.9601V322.568ZM53.7519 330.176C53.4319 330.752 52.9359 331.248 52.2639 331.664C51.6079 332.064 50.8239 332.264 49.9119 332.264C48.6319 332.264 47.6239 331.944 46.8879 331.304C46.1519 330.648 45.7839 329.704 45.7839 328.472C45.7839 327.768 45.8719 327.176 46.0479 326.696C46.2399 326.2 46.5359 325.8 46.9359 325.496C47.3519 325.176 47.8799 324.944 48.5199 324.8C49.1599 324.656 49.9359 324.584 50.8479 324.584H53.7039V323.384C53.7039 322.872 53.6399 322.456 53.5119 322.136C53.3999 321.8 53.2159 321.544 52.9599 321.368C52.7039 321.176 52.3759 321.048 51.9759 320.984C51.5919 320.904 51.1359 320.864 50.6079 320.864C49.8879 320.864 49.1679 321 48.4479 321.272C47.7439 321.544 47.1759 321.864 46.7439 322.232V319.928C46.9999 319.784 47.2959 319.656 47.6319 319.544C47.9839 319.432 48.3439 319.344 48.7119 319.28C49.0799 319.2 49.4479 319.144 49.8159 319.112C50.1839 319.064 50.5199 319.04 50.8239 319.04C51.6559 319.04 52.3759 319.112 52.9839 319.256C53.6079 319.4 54.1199 319.64 54.5199 319.976C54.9199 320.312 55.2159 320.76 55.4079 321.32C55.5999 321.864 55.6959 322.544 55.6959 323.36V332H53.8719L53.7519 330.176ZM47.8239 328.16C47.8239 328.848 48.0159 329.384 48.3999 329.768C48.7839 330.152 49.4159 330.344 50.2959 330.344C51.4799 330.344 52.3439 330.04 52.8879 329.432C53.4319 328.824 53.7039 328.056 53.7039 327.128V326.048H50.9199C50.3119 326.048 49.8079 326.088 49.4079 326.168C49.0079 326.248 48.6879 326.376 48.4479 326.552C48.2239 326.712 48.0639 326.928 47.9679 327.2C47.8719 327.456 47.8239 327.776 47.8239 328.16ZM64.2513 326.24H62.1633V332H60.1713V319.28H62.1633V324.68H64.2753L68.5233 319.28H70.8033L65.9553 325.328L71.3073 332H68.8833L64.2513 326.24ZM74.0692 319.28H75.8932L76.0132 321.512C76.6852 319.864 78.1652 319.04 80.4532 319.04C82.1012 319.04 83.3332 319.536 84.1492 320.528C84.9652 321.504 85.3732 323.12 85.3732 325.376C85.3732 326.608 85.2612 327.664 85.0372 328.544C84.8132 329.408 84.4772 330.12 84.0292 330.68C83.5972 331.224 83.0532 331.624 82.3972 331.88C81.7412 332.136 80.9812 332.264 80.1172 332.264C79.0292 332.264 78.1572 332.072 77.5012 331.688C76.8612 331.288 76.3812 330.824 76.0612 330.296V336.32H74.0692V319.28ZM76.0612 326.888C76.0612 327.992 76.3732 328.864 76.9972 329.504C77.6372 330.144 78.5412 330.464 79.7092 330.464C80.3812 330.464 80.9492 330.376 81.4132 330.2C81.8772 330.024 82.2532 329.736 82.5412 329.336C82.8292 328.936 83.0372 328.424 83.1652 327.8C83.3092 327.176 83.3812 326.408 83.3812 325.496C83.3812 324.632 83.3012 323.904 83.1412 323.312C82.9812 322.704 82.7492 322.224 82.4452 321.872C82.1412 321.504 81.7572 321.24 81.2932 321.08C80.8452 320.92 80.3252 320.84 79.7332 320.84C79.1092 320.84 78.5652 320.928 78.1012 321.104C77.6372 321.28 77.2532 321.528 76.9492 321.848C76.6452 322.152 76.4212 322.52 76.2772 322.952C76.1332 323.384 76.0612 323.848 76.0612 324.344V326.888ZM91.1086 323.48C91.4286 323.448 91.7246 323.424 91.9966 323.408C92.2686 323.392 92.5566 323.384 92.8606 323.384C93.8686 323.384 94.7246 323.472 95.4286 323.648C96.1326 323.808 96.7006 324.064 97.1326 324.416C97.5646 324.752 97.8766 325.184 98.0686 325.712C98.2606 326.224 98.3566 326.84 98.3566 327.56C98.3566 328.2 98.2606 328.8 98.0686 329.36C97.8766 329.92 97.5486 330.408 97.0846 330.824C96.6366 331.24 96.0366 331.568 95.2846 331.808C94.5326 332.048 93.5966 332.168 92.4766 332.168C91.9166 332.168 91.3566 332.152 90.7966 332.12C90.2366 332.104 89.6766 332.064 89.1166 332V319.28H91.1086V323.48ZM91.1086 330.296C91.3966 330.328 91.6366 330.352 91.8286 330.368C92.0366 330.368 92.3246 330.368 92.6926 330.368C93.4126 330.368 94.0046 330.304 94.4686 330.176C94.9486 330.048 95.3246 329.864 95.5966 329.624C95.8846 329.384 96.0846 329.096 96.1966 328.76C96.3086 328.424 96.3646 328.048 96.3646 327.632C96.3646 327.248 96.3166 326.896 96.2206 326.576C96.1246 326.256 95.9326 325.984 95.6446 325.76C95.3726 325.52 94.9806 325.336 94.4686 325.208C93.9726 325.08 93.3086 325.016 92.4766 325.016C92.2206 325.016 91.9886 325.032 91.7806 325.064C91.5886 325.08 91.3646 325.104 91.1086 325.136V330.296ZM100.157 319.28H102.149V332H100.157V319.28ZM106.765 319.256C107.229 319.224 107.813 319.192 108.517 319.16C109.237 319.128 110.093 319.112 111.085 319.112C112.109 319.112 112.949 319.184 113.605 319.328C114.261 319.472 114.781 319.672 115.165 319.928C115.549 320.184 115.813 320.504 115.957 320.888C116.117 321.256 116.197 321.664 116.197 322.112C116.197 322.928 116.013 323.584 115.645 324.08C115.277 324.56 114.637 324.928 113.725 325.184C114.797 325.28 115.573 325.544 116.053 325.976C116.549 326.408 116.797 327.152 116.797 328.208C116.797 328.8 116.709 329.344 116.533 329.84C116.357 330.32 116.053 330.736 115.621 331.088C115.205 331.44 114.637 331.712 113.917 331.904C113.213 332.096 112.333 332.192 111.277 332.192C110.861 332.192 110.429 332.184 109.981 332.168C109.549 332.168 109.133 332.16 108.733 332.144C108.333 332.128 107.965 332.104 107.629 332.072C107.293 332.056 107.005 332.04 106.765 332.024V319.256ZM108.757 330.344C109.173 330.376 109.589 330.408 110.005 330.44C110.437 330.456 110.885 330.464 111.349 330.464C112.005 330.464 112.549 330.432 112.981 330.368C113.429 330.288 113.789 330.16 114.061 329.984C114.333 329.808 114.525 329.576 114.637 329.288C114.749 329 114.805 328.648 114.805 328.232C114.805 327.512 114.557 327.016 114.061 326.744C113.581 326.456 112.797 326.312 111.709 326.312H108.757V330.344ZM111.709 324.608C112.461 324.608 113.061 324.456 113.509 324.152C113.957 323.848 114.181 323.36 114.181 322.688C114.181 321.968 113.957 321.48 113.509 321.224C113.077 320.968 112.317 320.84 111.229 320.84C110.621 320.84 110.125 320.84 109.741 320.84C109.357 320.84 109.029 320.848 108.757 320.864V324.608H111.709ZM127.65 330.176C127.33 330.752 126.834 331.248 126.162 331.664C125.506 332.064 124.722 332.264 123.81 332.264C122.53 332.264 121.522 331.944 120.786 331.304C120.05 330.648 119.682 329.704 119.682 328.472C119.682 327.768 119.77 327.176 119.946 326.696C120.138 326.2 120.434 325.8 120.834 325.496C121.25 325.176 121.778 324.944 122.418 324.8C123.058 324.656 123.834 324.584 124.746 324.584H127.602V323.384C127.602 322.872 127.538 322.456 127.41 322.136C127.298 321.8 127.114 321.544 126.858 321.368C126.602 321.176 126.274 321.048 125.874 320.984C125.49 320.904 125.034 320.864 124.506 320.864C123.786 320.864 123.066 321 122.346 321.272C121.642 321.544 121.074 321.864 120.642 322.232V319.928C120.898 319.784 121.194 319.656 121.53 319.544C121.882 319.432 122.242 319.344 122.61 319.28C122.978 319.2 123.346 319.144 123.714 319.112C124.082 319.064 124.418 319.04 124.722 319.04C125.554 319.04 126.274 319.112 126.882 319.256C127.506 319.4 128.018 319.64 128.418 319.976C128.818 320.312 129.114 320.76 129.306 321.32C129.498 321.864 129.594 322.544 129.594 323.36V332H127.77L127.65 330.176ZM121.722 328.16C121.722 328.848 121.914 329.384 122.298 329.768C122.682 330.152 123.314 330.344 124.194 330.344C125.378 330.344 126.242 330.04 126.786 329.432C127.33 328.824 127.602 328.056 127.602 327.128V326.048H124.818C124.21 326.048 123.706 326.088 123.306 326.168C122.906 326.248 122.586 326.376 122.346 326.552C122.122 326.712 121.962 326.928 121.866 327.2C121.77 327.456 121.722 327.776 121.722 328.16ZM144.51 319.04C145.422 319.04 146.222 319.16 146.91 319.4C147.614 319.624 148.206 320 148.686 320.528C149.166 321.056 149.526 321.744 149.766 322.592C150.022 323.424 150.15 324.44 150.15 325.64C150.15 326.872 150.022 327.912 149.766 328.76C149.51 329.592 149.134 330.272 148.638 330.8C148.142 331.312 147.526 331.688 146.79 331.928C146.07 332.152 145.238 332.264 144.294 332.264C143.302 332.264 142.454 332.128 141.75 331.856C141.046 331.584 140.462 331.2 139.998 330.704C139.534 330.192 139.182 329.568 138.942 328.832C138.702 328.096 138.566 327.272 138.534 326.36H136.062V332H134.07V319.28H136.062V324.56H138.582C138.726 322.736 139.262 321.36 140.19 320.432C141.118 319.504 142.558 319.04 144.51 319.04ZM140.526 325.64C140.526 327.336 140.846 328.56 141.486 329.312C142.126 330.064 143.086 330.44 144.366 330.44C144.942 330.44 145.454 330.368 145.902 330.224C146.366 330.08 146.758 329.832 147.078 329.48C147.414 329.112 147.662 328.624 147.822 328.016C147.998 327.408 148.086 326.64 148.086 325.712C148.086 324.768 148.014 323.984 147.87 323.36C147.742 322.736 147.518 322.24 147.198 321.872C146.894 321.488 146.494 321.224 145.998 321.08C145.518 320.92 144.934 320.84 144.246 320.84C143.574 320.84 143.006 320.928 142.542 321.104C142.078 321.264 141.694 321.536 141.39 321.92C141.086 322.288 140.862 322.776 140.718 323.384C140.59 323.992 140.526 324.744 140.526 325.64ZM153.921 319.28H155.913V330.104H160.569V319.28H162.561V330.104H167.217V319.28H169.209V330.104H171.057V335.12H169.185V332H153.921V319.28ZM174.124 319.28H176.116V325.472C176.116 326.224 176.1 326.952 176.068 327.656C176.036 328.344 176.004 328.848 175.972 329.168L176.068 329.216C176.372 328.704 176.692 328.208 177.028 327.728C177.364 327.232 177.708 326.744 178.06 326.264L182.884 319.28H184.636V332H182.644V326.864C182.644 326.4 182.644 325.936 182.644 325.472C182.66 324.992 182.676 324.536 182.692 324.104C182.708 323.672 182.724 323.28 182.74 322.928C182.756 322.56 182.772 322.264 182.788 322.04L182.716 322.016C182.508 322.384 182.236 322.848 181.9 323.408C181.564 323.952 181.212 324.464 180.844 324.944L175.9 332H174.124V319.28ZM190.394 326.36C190.394 327.736 190.746 328.768 191.45 329.456C192.17 330.128 193.234 330.464 194.642 330.464C195.458 330.464 196.194 330.328 196.85 330.056C197.506 329.768 198.066 329.44 198.53 329.072V331.136C198.21 331.36 197.714 331.608 197.042 331.88C196.37 332.136 195.554 332.264 194.594 332.264C193.57 332.264 192.666 332.144 191.882 331.904C191.114 331.648 190.466 331.248 189.938 330.704C189.426 330.144 189.034 329.44 188.762 328.592C188.506 327.728 188.378 326.68 188.378 325.448C188.378 323.352 188.866 321.76 189.842 320.672C190.818 319.584 192.242 319.04 194.114 319.04C195.09 319.04 195.922 319.184 196.61 319.472C197.298 319.76 197.85 320.168 198.266 320.696C198.682 321.224 198.986 321.864 199.178 322.616C199.37 323.352 199.466 324.168 199.466 325.064V326.36H190.394ZM194.09 320.84C192.922 320.84 192.01 321.152 191.354 321.776C190.714 322.384 190.394 323.336 190.394 324.632H197.474C197.474 323.336 197.202 322.384 196.658 321.776C196.13 321.152 195.274 320.84 194.09 320.84ZM208.582 330.104H210.022C210.438 329.208 210.766 327.976 211.006 326.408C211.246 324.824 211.366 322.904 211.366 320.648V319.28H219.838V330.104H221.758V335.12H219.886V332H210.454V335.12H208.582V330.104ZM217.846 321.152H213.262L213.238 322.04C213.206 323.592 213.094 325.064 212.902 326.456C212.726 327.848 212.422 329.064 211.99 330.104H217.846V321.152ZM223.956 325.592C223.956 324.488 224.108 323.528 224.412 322.712C224.716 321.896 225.14 321.216 225.684 320.672C226.228 320.128 226.876 319.72 227.628 319.448C228.396 319.176 229.236 319.04 230.148 319.04C231.012 319.04 231.796 319.168 232.5 319.424C233.204 319.68 233.796 320.08 234.276 320.624C234.772 321.168 235.156 321.856 235.428 322.688C235.7 323.52 235.836 324.512 235.836 325.664C235.836 326.864 235.676 327.88 235.356 328.712C235.052 329.544 234.628 330.224 234.084 330.752C233.556 331.28 232.932 331.664 232.212 331.904C231.492 332.144 230.716 332.264 229.884 332.264C227.98 332.264 226.516 331.68 225.492 330.512C224.468 329.344 223.956 327.704 223.956 325.592ZM225.948 325.664C225.948 327.184 226.292 328.368 226.98 329.216C227.684 330.048 228.708 330.464 230.052 330.464C231.236 330.464 232.164 330.088 232.836 329.336C233.508 328.568 233.844 327.344 233.844 325.664V325.592C233.844 323.976 233.5 322.776 232.812 321.992C232.14 321.208 231.164 320.816 229.884 320.816C228.62 320.816 227.644 321.224 226.956 322.04C226.284 322.84 225.948 324.024 225.948 325.592V325.664ZM243.665 326.24H241.577V332H239.585V319.28H241.577V324.68H243.689L247.937 319.28H250.217L245.369 325.328L250.721 332H248.297L243.665 326.24ZM254.899 334.592C255.123 334.592 255.323 334.56 255.499 334.496C255.691 334.448 255.867 334.336 256.027 334.16C256.203 333.984 256.371 333.728 256.531 333.392C256.707 333.056 256.891 332.608 257.083 332.048L251.923 319.28H254.227L258.115 329.432L261.355 319.28H263.491L259.099 331.568C258.683 332.752 258.283 333.672 257.899 334.328C257.531 334.984 257.179 335.472 256.843 335.792C256.507 336.112 256.179 336.304 255.859 336.368C255.539 336.448 255.227 336.488 254.923 336.488C254.411 336.488 254.035 336.424 253.795 336.296V334.304C254.131 334.496 254.499 334.592 254.899 334.592ZM266.281 319.28H268.921L272.953 326.84L276.817 319.28H279.337V332H277.345V325.304C277.345 324.584 277.377 323.872 277.441 323.168C277.505 322.448 277.569 321.728 277.633 321.008C277.265 321.824 276.921 322.592 276.601 323.312C276.281 324.016 275.985 324.608 275.713 325.088L273.505 328.928H272.137L270.049 325.112C269.777 324.6 269.465 323.992 269.113 323.288C268.761 322.584 268.393 321.832 268.009 321.032C268.073 321.752 268.129 322.48 268.177 323.216C268.241 323.936 268.273 324.664 268.273 325.4V332H266.281V319.28ZM285.104 326.36C285.104 327.736 285.456 328.768 286.16 329.456C286.88 330.128 287.944 330.464 289.352 330.464C290.168 330.464 290.904 330.328 291.56 330.056C292.216 329.768 292.776 329.44 293.24 329.072V331.136C292.92 331.36 292.424 331.608 291.752 331.88C291.08 332.136 290.264 332.264 289.304 332.264C288.28 332.264 287.376 332.144 286.592 331.904C285.824 331.648 285.176 331.248 284.648 330.704C284.136 330.144 283.744 329.44 283.472 328.592C283.216 327.728 283.088 326.68 283.088 325.448C283.088 323.352 283.576 321.76 284.552 320.672C285.528 319.584 286.952 319.04 288.824 319.04C289.8 319.04 290.632 319.184 291.32 319.472C292.008 319.76 292.56 320.168 292.976 320.696C293.392 321.224 293.696 321.864 293.888 322.616C294.08 323.352 294.176 324.168 294.176 325.064V326.36H285.104ZM288.8 320.84C287.632 320.84 286.72 321.152 286.064 321.776C285.424 322.384 285.104 323.336 285.104 324.632H292.184C292.184 323.336 291.912 322.384 291.368 321.776C290.84 321.152 289.984 320.84 288.8 320.84ZM297.921 319.28H299.913V324.608H306.249V319.28H308.241V332H306.249V326.504H299.913V332H297.921V319.28ZM315.107 321.152H310.979V319.28H321.203V321.152H317.099V332H315.107V321.152ZM325.929 323.48C326.249 323.448 326.545 323.424 326.817 323.408C327.089 323.392 327.377 323.384 327.681 323.384C328.689 323.384 329.545 323.472 330.249 323.648C330.953 323.808 331.521 324.064 331.953 324.416C332.385 324.752 332.697 325.184 332.889 325.712C333.081 326.224 333.177 326.84 333.177 327.56C333.177 328.2 333.081 328.8 332.889 329.36C332.697 329.92 332.369 330.408 331.905 330.824C331.457 331.24 330.857 331.568 330.105 331.808C329.353 332.048 328.417 332.168 327.297 332.168C326.737 332.168 326.177 332.152 325.617 332.12C325.057 332.104 324.497 332.064 323.937 332V319.28H325.929V323.48ZM325.929 330.296C326.217 330.328 326.457 330.352 326.649 330.368C326.857 330.368 327.145 330.368 327.513 330.368C328.233 330.368 328.825 330.304 329.289 330.176C329.769 330.048 330.145 329.864 330.417 329.624C330.705 329.384 330.905 329.096 331.017 328.76C331.129 328.424 331.185 328.048 331.185 327.632C331.185 327.248 331.137 326.896 331.041 326.576C330.945 326.256 330.753 325.984 330.465 325.76C330.193 325.52 329.801 325.336 329.289 325.208C328.793 325.08 328.129 325.016 327.297 325.016C327.041 325.016 326.809 325.032 326.601 325.064C326.409 325.08 326.185 325.104 325.929 325.136V330.296ZM334.977 319.28H336.969V332H334.977V319.28Z" fill="#262626" fill-opacity="0.7"/>
</g>
</g>
<defs>
<filter id="filter0_dd_43_1601" x="0" y="0" width="257" height="68" filterUnits="userSpaceOnUse" color-interpolation-filters="sRGB">
<feFlood flood-opacity="0" result="BackgroundImageFix"/>
<feColorMatrix in="SourceAlpha" type="matrix" values="0 0 0 0 0 0 0 0 0 0 0 0 0 0 0 0 0 0 127 0" result="hardAlpha"/>
<feOffset dy="3"/>
<feGaussianBlur stdDeviation="3"/>
<feColorMatrix type="matrix" values="0 0 0 0 0.14902 0 0 0 0 0.14902 0 0 0 0 0.14902 0 0 0 0.16 0"/>
<feBlend mode="normal" in2="BackgroundImageFix" result="effect1_dropShadow_43_1601"/>
<feColorMatrix in="SourceAlpha" type="matrix" values="0 0 0 0 0 0 0 0 0 0 0 0 0 0 0 0 0 0 127 0" result="hardAlpha"/>
<feOffset dy="1"/>
<feGaussianBlur stdDeviation="1"/>
<feColorMatrix type="matrix" values="0 0 0 0 0.14902 0 0 0 0 0.14902 0 0 0 0 0.14902 0 0 0 0.04 0"/>
<feBlend mode="normal" in2="effect1_dropShadow_43_1601" result="effect2_dropShadow_43_1601"/>
<feBlend mode="normal" in="SourceGraphic" in2="effect2_dropShadow_43_1601" result="shape"/>
</filter>
<filter id="filter1_dd_43_1601" x="0" y="80" width="173" height="60" filterUnits="userSpaceOnUse" color-interpolation-filters="sRGB">
<feFlood flood-opacity="0" result="BackgroundImageFix"/>
<feColorMatrix in="SourceAlpha" type="matrix" values="0 0 0 0 0 0 0 0 0 0 0 0 0 0 0 0 0 0 127 0" result="hardAlpha"/>
<feOffset dy="3"/>
<feGaussianBlur stdDeviation="3"/>
<feColorMatrix type="matrix" values="0 0 0 0 0.14902 0 0 0 0 0.14902 0 0 0 0 0.14902 0 0 0 0.16 0"/>
<feBlend mode="normal" in2="BackgroundImageFix" result="effect1_dropShadow_43_1601"/>
<feColorMatrix in="SourceAlpha" type="matrix" values="0 0 0 0 0 0 0 0 0 0 0 0 0 0 0 0 0 0 127 0" result="hardAlpha"/>
<feOffset dy="1"/>
<feGaussianBlur stdDeviation="1"/>
<feColorMatrix type="matrix" values="0 0 0 0 0.14902 0 0 0 0 0.14902 0 0 0 0 0.14902 0 0 0 0.04 0"/>
<feBlend mode="normal" in2="effect1_dropShadow_43_1601" result="effect2_dropShadow_43_1601"/>
<feBlend mode="normal" in="SourceGraphic" in2="effect2_dropShadow_43_1601" result="shape"/>
</filter>
<filter id="filter2_dd_43_1601" x="187" y="80" width="120" height="60" filterUnits="userSpaceOnUse" color-interpolation-filters="sRGB">
<feFlood flood-opacity="0" result="BackgroundImageFix"/>
<feColorMatrix in="SourceAlpha" type="matrix" values="0 0 0 0 0 0 0 0 0 0 0 0 0 0 0 0 0 0 127 0" result="hardAlpha"/>
<feOffset dy="3"/>
<feGaussianBlur stdDeviation="3"/>
<feColorMatrix type="matrix" values="0 0 0 0 0.14902 0 0 0 0 0.14902 0 0 0 0 0.14902 0 0 0 0.16 0"/>
<feBlend mode="normal" in2="BackgroundImageFix" result="effect1_dropShadow_43_1601"/>
<feColorMatrix in="SourceAlpha" type="matrix" values="0 0 0 0 0 0 0 0 0 0 0 0 0 0 0 0 0 0 127 0" result="hardAlpha"/>
<feOffset dy="1"/>
<feGaussianBlur stdDeviation="1"/>
<feColorMatrix type="matrix" values="0 0 0 0 0.14902 0 0 0 0 0.14902 0 0 0 0 0.14902 0 0 0 0.04 0"/>
<feBlend mode="normal" in2="effect1_dropShadow_43_1601" result="effect2_dropShadow_43_1601"/>
<feBlend mode="normal" in="SourceGraphic" in2="effect2_dropShadow_43_1601" result="shape"/>
</filter>
<filter id="filter3_dd_43_1601" x="0" y="152" width="408" height="60" filterUnits="userSpaceOnUse" color-interpolation-filters="sRGB">
<feFlood flood-opacity="0" result="BackgroundImageFix"/>
<feColorMatrix in="SourceAlpha" type="matrix" values="0 0 0 0 0 0 0 0 0 0 0 0 0 0 0 0 0 0 127 0" result="hardAlpha"/>
<feOffset dy="3"/>
<feGaussianBlur stdDeviation="3"/>
<feColorMatrix type="matrix" values="0 0 0 0 0.14902 0 0 0 0 0.14902 0 0 0 0 0.14902 0 0 0 0.16 0"/>
<feBlend mode="normal" in2="BackgroundImageFix" result="effect1_dropShadow_43_1601"/>
<feColorMatrix in="SourceAlpha" type="matrix" values="0 0 0 0 0 0 0 0 0 0 0 0 0 0 0 0 0 0 127 0" result="hardAlpha"/>
<feOffset dy="1"/>
<feGaussianBlur stdDeviation="1"/>
<feColorMatrix type="matrix" values="0 0 0 0 0.14902 0 0 0 0 0.14902 0 0 0 0 0.14902 0 0 0 0.04 0"/>
<feBlend mode="normal" in2="effect1_dropShadow_43_1601" result="effect2_dropShadow_43_1601"/>
<feBlend mode="normal" in="SourceGraphic" in2="effect2_dropShadow_43_1601" result="shape"/>
</filter>
<filter id="filter4_dd_43_1601" x="0" y="224" width="416" height="60" filterUnits="userSpaceOnUse" color-interpolation-filters="sRGB">
<feFlood flood-opacity="0" result="BackgroundImageFix"/>
<feColorMatrix in="SourceAlpha" type="matrix" values="0 0 0 0 0 0 0 0 0 0 0 0 0 0 0 0 0 0 127 0" result="hardAlpha"/>
<feOffset dy="3"/>
<feGaussianBlur stdDeviation="3"/>
<feColorMatrix type="matrix" values="0 0 0 0 0.14902 0 0 0 0 0.14902 0 0 0 0 0.14902 0 0 0 0.16 0"/>
<feBlend mode="normal" in2="BackgroundImageFix" result="effect1_dropShadow_43_1601"/>
<feColorMatrix in="SourceAlpha" type="matrix" values="0 0 0 0 0 0 0 0 0 0 0 0 0 0 0 0 0 0 127 0" result="hardAlpha"/>
<feOffset dy="1"/>
<feGaussianBlur stdDeviation="1"/>
<feColorMatrix type="matrix" values="0 0 0 0 0.14902 0 0 0 0 0.14902 0 0 0 0 0.14902 0 0 0 0.04 0"/>
<feBlend mode="normal" in2="effect1_dropShadow_43_1601" result="effect2_dropShadow_43_1601"/>
<feBlend mode="normal" in="SourceGraphic" in2="effect2_dropShadow_43_1601" result="shape"/>
</filter>
<filter id="filter5_dd_43_1601" x="0" y="296" width="370" height="60" filterUnits="userSpaceOnUse" color-interpolation-filters="sRGB">
<feFlood flood-opacity="0" result="BackgroundImageFix"/>
<feColorMatrix in="SourceAlpha" type="matrix" values="0 0 0 0 0 0 0 0 0 0 0 0 0 0 0 0 0 0 127 0" result="hardAlpha"/>
<feOffset dy="3"/>
<feGaussianBlur stdDeviation="3"/>
<feColorMatrix type="matrix" values="0 0 0 0 0.14902 0 0 0 0 0.14902 0 0 0 0 0.14902 0 0 0 0.16 0"/>
<feBlend mode="normal" in2="BackgroundImageFix" result="effect1_dropShadow_43_1601"/>
<feColorMatrix in="SourceAlpha" type="matrix" values="0 0 0 0 0 0 0 0 0 0 0 0 0 0 0 0 0 0 127 0" result="hardAlpha"/>
<feOffset dy="1"/>
<feGaussianBlur stdDeviation="1"/>
<feColorMatrix type="matrix" values="0 0 0 0 0.14902 0 0 0 0 0.14902 0 0 0 0 0.14902 0 0 0 0.04 0"/>
<feBlend mode="normal" in2="effect1_dropShadow_43_1601" result="effect2_dropShadow_43_1601"/>
<feBlend mode="normal" in="SourceGraphic" in2="effect2_dropShadow_43_1601" result="shape"/>
</filter>
<clipPath id="clip0_43_1601">
<rect width="416" height="356" fill="white"/>
</clipPath>
</defs>
</svg>
