<svg width="296" height="253" viewBox="0 0 296 253" fill="none" xmlns="http://www.w3.org/2000/svg">
<g clip-path="url(#clip0_43_1435)">
<g filter="url(#filter0_dd_43_1435)">
<path d="M161.473 2.12738H21.774C12.3745 2.12738 4.75476 9.74715 4.75476 19.1466V24.8197C4.75476 34.2191 12.3745 41.8389 21.774 41.8389H161.473C170.873 41.8389 178.493 34.2191 178.493 24.8197V19.1466C178.493 9.74715 170.873 2.12738 161.473 2.12738Z" fill="white"/>
<path d="M21.9442 27.0038H23.2036C23.544 26.1755 23.856 25.0806 24.1397 23.7191C24.4347 22.3576 24.5935 20.7577 24.6162 18.9197L24.6503 16.4519H31.8664V27.0038H33.3982V30.5778H31.9685V28.3653H23.3738V30.5778H21.9442V27.0038ZM30.3347 17.8134H26.1309L26.1139 18.9707C26.1026 19.7536 26.0572 20.5251 25.9778 21.2853C25.9097 22.0342 25.8133 22.7547 25.6884 23.4468C25.575 24.1389 25.4388 24.7856 25.28 25.387C25.1325 25.9883 24.9736 26.5273 24.8034 27.0038H30.3347V17.8134ZM34.7984 23.8212C34.7984 23.0383 34.9062 22.3576 35.1218 21.7789C35.3374 21.2002 35.638 20.718 36.0238 20.3323C36.4096 19.9465 36.8691 19.6572 37.4024 19.4643C37.947 19.2714 38.5426 19.175 39.1894 19.175C39.8021 19.175 40.358 19.2657 40.8573 19.4473C41.3565 19.6288 41.7763 19.9125 42.1167 20.2982C42.4684 20.684 42.7407 21.1719 42.9336 21.7619C43.1265 22.3519 43.2229 23.0553 43.2229 23.8723C43.2229 24.7232 43.1095 25.4437 42.8825 26.0337C42.667 26.6237 42.3663 27.1059 41.9805 27.4803C41.6061 27.8548 41.1636 28.1271 40.653 28.2973C40.1425 28.4675 39.5922 28.5526 39.0022 28.5526C37.652 28.5526 36.6138 28.1384 35.8876 27.3101C35.1615 26.4819 34.7984 25.3189 34.7984 23.8212ZM36.211 23.8723C36.211 24.9501 36.455 25.7898 36.9428 26.3911C37.4421 26.9811 38.1682 27.2761 39.1213 27.2761C39.9609 27.2761 40.619 27.0095 41.0955 26.4762C41.5721 25.9316 41.8103 25.0636 41.8103 23.8723V23.8212C41.8103 22.6752 41.5664 21.8243 41.0785 21.2683C40.602 20.7124 39.9099 20.4344 39.0022 20.4344C38.1058 20.4344 37.4137 20.7237 36.9258 21.3024C36.4493 21.8697 36.211 22.7093 36.211 23.8212V23.8723ZM45.6692 19.3451H51.3706V20.6726H47.0818V28.3653H45.6692V19.3451ZM52.5223 23.8212C52.5223 23.0383 52.6301 22.3576 52.8457 21.7789C53.0613 21.2002 53.3619 20.718 53.7477 20.3323C54.1335 19.9465 54.593 19.6572 55.1263 19.4643C55.6709 19.2714 56.2665 19.175 56.9133 19.175C57.526 19.175 58.0819 19.2657 58.5812 19.4473C59.0804 19.6288 59.5002 19.9125 59.8406 20.2982C60.1923 20.684 60.4646 21.1719 60.6575 21.7619C60.8504 22.3519 60.9468 23.0553 60.9468 23.8723C60.9468 24.7232 60.8334 25.4437 60.6064 26.0337C60.3909 26.6237 60.0902 27.1059 59.7044 27.4803C59.33 27.8548 58.8875 28.1271 58.3769 28.2973C57.8664 28.4675 57.3161 28.5526 56.7261 28.5526C55.3759 28.5526 54.3377 28.1384 53.6115 27.3101C52.8854 26.4819 52.5223 25.3189 52.5223 23.8212ZM53.9349 23.8723C53.9349 24.9501 54.1789 25.7898 54.6667 26.3911C55.166 26.9811 55.8921 27.2761 56.8452 27.2761C57.6848 27.2761 58.3429 27.0095 58.8194 26.4762C59.296 25.9316 59.5342 25.0636 59.5342 23.8723V23.8212C59.5342 22.6752 59.2903 21.8243 58.8024 21.2683C58.3259 20.7124 57.6338 20.4344 56.7261 20.4344C55.8297 20.4344 55.1376 20.7237 54.6497 21.3024C54.1732 21.8697 53.9349 22.7093 53.9349 23.8212V23.8723ZM63.3931 19.3281C63.7221 19.3054 64.1362 19.2827 64.6355 19.2601C65.146 19.2374 65.7531 19.226 66.4565 19.226C67.1827 19.226 67.7784 19.2771 68.2435 19.3792C68.7087 19.4813 69.0775 19.6231 69.3498 19.8047C69.6221 19.9862 69.8093 20.2131 69.9114 20.4854C70.0249 20.7464 70.0816 21.0357 70.0816 21.3534C70.0816 21.9321 69.9511 22.3973 69.6902 22.749C69.4292 23.0894 68.9754 23.3503 68.3286 23.5319C69.0888 23.6 69.6391 23.7872 69.9795 24.0935C70.3312 24.3999 70.5071 24.9275 70.5071 25.6763C70.5071 26.0961 70.4447 26.4819 70.3199 26.8336C70.1951 27.174 69.9795 27.469 69.6732 27.7186C69.3782 27.9682 68.9754 28.1611 68.4648 28.2973C67.9656 28.4334 67.3415 28.5015 66.5927 28.5015C66.2977 28.5015 65.9913 28.4958 65.6736 28.4845C65.3673 28.4845 65.0723 28.4788 64.7886 28.4675C64.505 28.4561 64.244 28.4391 64.0058 28.4164C63.7675 28.4051 63.5633 28.3937 63.3931 28.3824V19.3281ZM64.8057 27.191C65.1007 27.2137 65.3957 27.2364 65.6907 27.2591C65.997 27.2704 66.3147 27.2761 66.6437 27.2761C67.1089 27.2761 67.4947 27.2534 67.801 27.208C68.1187 27.1513 68.374 27.0605 68.5669 26.9357C68.7598 26.8109 68.8959 26.6464 68.9754 26.4422C69.0548 26.2379 69.0945 25.9883 69.0945 25.6933C69.0945 25.1827 68.9186 24.831 68.5669 24.6381C68.2265 24.4339 67.6706 24.3318 66.899 24.3318H64.8057V27.191ZM66.899 23.1234C67.4323 23.1234 67.8578 23.0156 68.1755 22.8001C68.4932 22.5845 68.652 22.2384 68.652 21.7619C68.652 21.2513 68.4932 20.9052 68.1755 20.7237C67.8691 20.5422 67.3302 20.4514 66.5586 20.4514C66.1275 20.4514 65.7758 20.4514 65.5034 20.4514C65.2311 20.4514 64.9985 20.4571 64.8057 20.4684V23.1234H66.899ZM72.3403 23.8212C72.3403 23.0383 72.4481 22.3576 72.6637 21.7789C72.8792 21.2002 73.1799 20.718 73.5657 20.3323C73.9514 19.9465 74.411 19.6572 74.9442 19.4643C75.4888 19.2714 76.0845 19.175 76.7312 19.175C77.3439 19.175 77.8999 19.2657 78.3991 19.4473C78.8984 19.6288 79.3182 19.9125 79.6586 20.2982C80.0103 20.684 80.2826 21.1719 80.4755 21.7619C80.6684 22.3519 80.7648 23.0553 80.7648 23.8723C80.7648 24.7232 80.6513 25.4437 80.4244 26.0337C80.2088 26.6237 79.9082 27.1059 79.5224 27.4803C79.148 27.8548 78.7055 28.1271 78.1949 28.2973C77.6843 28.4675 77.134 28.5526 76.544 28.5526C75.1938 28.5526 74.1557 28.1384 73.4295 27.3101C72.7034 26.4819 72.3403 25.3189 72.3403 23.8212ZM73.7529 23.8723C73.7529 24.9501 73.9968 25.7898 74.4847 26.3911C74.9839 26.9811 75.7101 27.2761 76.6632 27.2761C77.5028 27.2761 78.1609 27.0095 78.6374 26.4762C79.1139 25.9316 79.3522 25.0636 79.3522 23.8723V23.8212C79.3522 22.6752 79.1083 21.8243 78.6204 21.2683C78.1438 20.7124 77.4517 20.4344 76.544 20.4344C75.6477 20.4344 74.9556 20.7237 74.4677 21.3024C73.9912 21.8697 73.7529 22.7093 73.7529 23.8212V23.8723ZM83.1943 19.3451H84.4878L84.5729 20.9279C85.0494 19.7593 86.0989 19.175 87.7214 19.175C88.8901 19.175 89.7637 19.5267 90.3424 20.2301C90.921 20.9223 91.2104 22.0682 91.2104 23.668C91.2104 24.5417 91.1309 25.2905 90.9721 25.9146C90.8132 26.5273 90.575 27.0322 90.2573 27.4293C89.9509 27.8151 89.5652 28.0987 89.1 28.2802C88.6348 28.4618 88.0958 28.5526 87.4831 28.5526C86.7116 28.5526 86.0932 28.4164 85.6281 28.1441C85.1742 27.8604 84.8338 27.5314 84.6069 27.157V31.4288H83.1943V19.3451ZM84.6069 24.7402C84.6069 25.5231 84.8281 26.1415 85.2706 26.5953C85.7245 27.0492 86.3656 27.2761 87.1938 27.2761C87.6704 27.2761 88.0731 27.2137 88.4022 27.0889C88.7312 26.9641 88.9979 26.7599 89.2021 26.4762C89.4063 26.1926 89.5538 25.8295 89.6446 25.387C89.7467 24.9445 89.7978 24.3999 89.7978 23.7531C89.7978 23.1404 89.741 22.6242 89.6276 22.2044C89.5141 21.7732 89.3496 21.4328 89.134 21.1832C88.9184 20.9223 88.6461 20.7351 88.3171 20.6216C87.9994 20.5081 87.6306 20.4514 87.2108 20.4514C86.7683 20.4514 86.3826 20.5138 86.0535 20.6386C85.7245 20.7634 85.4522 20.9393 85.2366 21.1662C85.021 21.3818 84.8622 21.6427 84.7601 21.9491C84.658 22.2554 84.6069 22.5845 84.6069 22.9362V24.7402ZM95.0645 22.3235C95.2914 22.3008 95.5013 22.2838 95.6942 22.2725C95.8871 22.2611 96.0913 22.2554 96.3069 22.2554C97.0217 22.2554 97.6287 22.3178 98.128 22.4426C98.6272 22.5561 99.03 22.7376 99.3363 22.9873C99.6427 23.2255 99.8639 23.5319 100 23.9063C100.136 24.2694 100.204 24.7062 100.204 25.2168C100.204 25.6706 100.136 26.0961 100 26.4932C99.8639 26.8903 99.6313 27.2364 99.3023 27.5314C98.9846 27.8264 98.5591 28.059 98.0259 28.2292C97.4926 28.3994 96.8288 28.4845 96.0346 28.4845C95.6375 28.4845 95.2404 28.4731 94.8433 28.4504C94.4461 28.4391 94.049 28.4107 93.6519 28.3653V19.3451H95.0645V22.3235ZM95.0645 27.157C95.2687 27.1797 95.4389 27.1967 95.5751 27.208C95.7226 27.208 95.9268 27.208 96.1878 27.208C96.6984 27.208 97.1182 27.1626 97.4472 27.0719C97.7876 26.9811 98.0542 26.8506 98.2471 26.6804C98.4513 26.5102 98.5932 26.306 98.6726 26.0677C98.752 25.8295 98.7917 25.5628 98.7917 25.2678C98.7917 24.9955 98.7577 24.7459 98.6896 24.519C98.6215 24.2921 98.4854 24.0992 98.2811 23.9403C98.0883 23.7701 97.8103 23.6397 97.4472 23.5489C97.0955 23.4581 96.6246 23.4127 96.0346 23.4127C95.8531 23.4127 95.6885 23.4241 95.541 23.4468C95.4049 23.4581 95.246 23.4751 95.0645 23.4978V27.157ZM101.481 19.3451H102.893V28.3653H101.481V19.3451ZM110.844 19.3451H112.257V23.1234H116.75V19.3451H118.162V28.3653H116.75V24.4679H112.257V28.3653H110.844V19.3451ZM126.256 27.0719C126.03 27.4803 125.678 27.8321 125.201 28.1271C124.736 28.4107 124.18 28.5526 123.533 28.5526C122.626 28.5526 121.911 28.3256 121.389 27.8718C120.867 27.4066 120.606 26.7372 120.606 25.8635C120.606 25.3643 120.669 24.9445 120.793 24.6041C120.929 24.2524 121.139 23.9687 121.423 23.7531C121.718 23.5262 122.092 23.3617 122.546 23.2596C123 23.1575 123.55 23.1064 124.197 23.1064H126.222V22.2554C126.222 21.8924 126.177 21.5974 126.086 21.3704C126.007 21.1322 125.876 20.9506 125.695 20.8258C125.513 20.6897 125.281 20.5989 124.997 20.5535C124.725 20.4968 124.401 20.4684 124.027 20.4684C123.516 20.4684 123.006 20.5649 122.495 20.7577C121.996 20.9506 121.593 21.1776 121.287 21.4385V19.8047C121.468 19.7026 121.678 19.6118 121.917 19.5324C122.166 19.4529 122.421 19.3905 122.682 19.3451C122.943 19.2884 123.204 19.2487 123.465 19.226C123.726 19.192 123.965 19.175 124.18 19.175C124.77 19.175 125.281 19.226 125.712 19.3281C126.154 19.4302 126.517 19.6004 126.801 19.8387C127.085 20.077 127.295 20.3947 127.431 20.7918C127.567 21.1776 127.635 21.6598 127.635 22.2384V28.3653H126.342L126.256 27.0719ZM122.053 25.6423C122.053 26.1301 122.189 26.5102 122.461 26.7826C122.734 27.0549 123.182 27.191 123.806 27.191C124.645 27.191 125.258 26.9754 125.644 26.5443C126.03 26.1131 126.222 25.5685 126.222 24.9104V24.1446H124.248C123.817 24.1446 123.46 24.1729 123.176 24.2297C122.892 24.2864 122.665 24.3772 122.495 24.502C122.336 24.6154 122.223 24.7686 122.155 24.9615C122.087 25.143 122.053 25.37 122.053 25.6423ZM130.596 19.3451H132.008V23.7361C132.008 24.2694 131.997 24.7856 131.974 25.2849C131.952 25.7727 131.929 26.1301 131.906 26.3571L131.974 26.3911C132.19 26.028 132.417 25.6763 132.655 25.3359C132.893 24.9842 133.137 24.6381 133.387 24.2977L136.808 19.3451H138.05V28.3653H136.638V24.7232C136.638 24.3942 136.638 24.0651 136.638 23.7361C136.649 23.3957 136.66 23.0724 136.672 22.766C136.683 22.4597 136.694 22.1817 136.706 21.9321C136.717 21.6711 136.728 21.4612 136.74 21.3024L136.689 21.2853C136.541 21.5463 136.348 21.8753 136.11 22.2725C135.872 22.6582 135.622 23.0213 135.361 23.3617L131.855 28.3653H130.596V19.3451ZM132.995 15.4307C133.041 15.8619 133.154 16.2023 133.336 16.4519C133.529 16.7015 133.863 16.8263 134.34 16.8263C134.816 16.8263 135.151 16.7015 135.344 16.4519C135.548 16.2023 135.673 15.8619 135.718 15.4307H136.978C136.887 16.2703 136.603 16.8774 136.127 17.2518C135.662 17.6262 135.066 17.8134 134.34 17.8134C133.614 17.8134 133.012 17.6262 132.536 17.2518C132.071 16.8774 131.793 16.2703 131.702 15.4307H132.995ZM141.103 19.3451H142.975L145.834 24.7062L148.574 19.3451H150.361V28.3653H148.949V23.617C148.949 23.1064 148.972 22.6015 149.017 22.1023C149.062 21.5917 149.108 21.0811 149.153 20.5705C148.892 21.1492 148.648 21.6938 148.421 22.2044C148.194 22.7036 147.984 23.1234 147.791 23.4638L146.226 26.1869H145.256L143.775 23.4808C143.582 23.1177 143.361 22.6866 143.111 22.1874C142.862 21.6881 142.601 21.1549 142.328 20.5876C142.374 21.0981 142.413 21.6144 142.447 22.1363C142.493 22.6469 142.516 23.1631 142.516 23.6851V28.3653H141.103V19.3451ZM158.46 27.0719C158.233 27.4803 157.881 27.8321 157.405 28.1271C156.939 28.4107 156.383 28.5526 155.737 28.5526C154.829 28.5526 154.114 28.3256 153.592 27.8718C153.07 27.4066 152.809 26.7372 152.809 25.8635C152.809 25.3643 152.872 24.9445 152.997 24.6041C153.133 24.2524 153.343 23.9687 153.626 23.7531C153.921 23.5262 154.296 23.3617 154.75 23.2596C155.203 23.1575 155.754 23.1064 156.4 23.1064H158.426V22.2554C158.426 21.8924 158.38 21.5974 158.29 21.3704C158.21 21.1322 158.08 20.9506 157.898 20.8258C157.717 20.6897 157.484 20.5989 157.2 20.5535C156.928 20.4968 156.605 20.4684 156.23 20.4684C155.72 20.4684 155.209 20.5649 154.698 20.7577C154.199 20.9506 153.796 21.1776 153.49 21.4385V19.8047C153.672 19.7026 153.882 19.6118 154.12 19.5324C154.369 19.4529 154.625 19.3905 154.886 19.3451C155.147 19.2884 155.408 19.2487 155.669 19.226C155.93 19.192 156.168 19.175 156.383 19.175C156.973 19.175 157.484 19.226 157.915 19.3281C158.358 19.4302 158.721 19.6004 159.004 19.8387C159.288 20.077 159.498 20.3947 159.634 20.7918C159.77 21.1776 159.838 21.6598 159.838 22.2384V28.3653H158.545L158.46 27.0719ZM154.256 25.6423C154.256 26.1301 154.392 26.5102 154.664 26.7826C154.937 27.0549 155.385 27.191 156.009 27.191C156.849 27.191 157.461 26.9754 157.847 26.5443C158.233 26.1131 158.426 25.5685 158.426 24.9104V24.1446H156.451C156.02 24.1446 155.663 24.1729 155.379 24.2297C155.096 24.2864 154.869 24.3772 154.698 24.502C154.54 24.6154 154.426 24.7686 154.358 24.9615C154.29 25.143 154.256 25.37 154.256 25.6423Z" fill="#262626" fill-opacity="0.7"/>
</g>
<g filter="url(#filter1_dd_43_1435)">
<path d="M101.906 58.8582H21.774C12.3745 58.8582 4.75476 66.4779 4.75476 75.8774C4.75476 85.2768 12.3745 92.8966 21.774 92.8966H101.906C111.306 92.8966 118.925 85.2768 118.925 75.8774C118.925 66.4779 111.306 58.8582 101.906 58.8582Z" fill="white"/>
<path d="M23.6802 70.4483C24.0433 70.4029 24.4971 70.3575 25.0417 70.3121C25.5977 70.2667 26.165 70.244 26.7436 70.244C27.6513 70.244 28.4229 70.3234 29.0583 70.4823C29.6936 70.6411 30.2099 70.8851 30.607 71.2141C31.0041 71.5318 31.2878 71.9346 31.458 72.4225C31.6395 72.899 31.7303 73.4663 31.7303 74.1244C31.7303 75.6334 31.3388 76.7397 30.5559 77.4432C29.7844 78.1466 28.5136 78.4983 26.7436 78.4983C26.5167 78.4983 26.2671 78.4927 25.9948 78.4813C25.7225 78.47 25.4615 78.453 25.2119 78.4303V82.2596H23.6802V70.4483ZM25.2119 77.0858C25.4615 77.1084 25.7111 77.1255 25.9608 77.1368C26.2217 77.1482 26.4827 77.1538 26.7436 77.1538C27.3677 77.1538 27.8953 77.1084 28.3264 77.0177C28.7576 76.9156 29.1036 76.751 29.3646 76.5241C29.6369 76.2972 29.8298 76.0022 29.9433 75.6391C30.0681 75.276 30.1305 74.8222 30.1305 74.2776C30.1305 73.7783 30.0737 73.3585 29.9603 73.0182C29.8468 72.6778 29.6539 72.4055 29.3816 72.2012C29.1207 71.9857 28.7803 71.8325 28.3605 71.7417C27.9407 71.6509 27.4244 71.6056 26.8117 71.6056C26.5508 71.6056 26.2784 71.6112 25.9948 71.6226C25.7225 71.6339 25.4615 71.6509 25.2119 71.6736V77.0858ZM39.1823 80.9661C38.9554 81.3746 38.6036 81.7263 38.1271 82.0213C37.6619 82.305 37.1059 82.4468 36.4592 82.4468C35.5515 82.4468 34.8367 82.2199 34.3148 81.766C33.7929 81.3008 33.5319 80.6314 33.5319 79.7578C33.5319 79.2585 33.5943 78.8387 33.7191 78.4983C33.8553 78.1466 34.0652 77.863 34.3488 77.6474C34.6438 77.4205 35.0182 77.2559 35.4721 77.1538C35.9259 77.0517 36.4762 77.0007 37.123 77.0007H39.1482V76.1497C39.1482 75.7866 39.1029 75.4916 39.0121 75.2647C38.9327 75.0264 38.8022 74.8449 38.6206 74.7201C38.4391 74.5839 38.2065 74.4932 37.9229 74.4478C37.6506 74.391 37.3272 74.3627 36.9528 74.3627C36.4422 74.3627 35.9316 74.4591 35.421 74.652C34.9218 74.8449 34.519 75.0718 34.2127 75.3328V73.6989C34.3942 73.5968 34.6041 73.506 34.8424 73.4266C35.092 73.3472 35.3473 73.2848 35.6082 73.2394C35.8692 73.1827 36.1302 73.143 36.3911 73.1203C36.6521 73.0862 36.8904 73.0692 37.1059 73.0692C37.6959 73.0692 38.2065 73.1203 38.6377 73.2224C39.0802 73.3245 39.4432 73.4947 39.7269 73.733C40.0106 73.9712 40.2205 74.2889 40.3566 74.686C40.4928 75.0718 40.5608 75.554 40.5608 76.1327V82.2596H39.2674L39.1823 80.9661ZM34.9785 79.5365C34.9785 80.0244 35.1147 80.4045 35.387 80.6768C35.6593 80.9491 36.1075 81.0853 36.7315 81.0853C37.5711 81.0853 38.1838 80.8697 38.5696 80.4385C38.9554 80.0074 39.1482 79.4628 39.1482 78.8047V78.0388H37.174C36.7429 78.0388 36.3855 78.0672 36.1018 78.1239C35.8182 78.1807 35.5912 78.2714 35.421 78.3962C35.2622 78.5097 35.1487 78.6629 35.0806 78.8557C35.0126 79.0373 34.9785 79.2642 34.9785 79.5365ZM49.8104 75.1285C49.5381 74.9357 49.1864 74.7711 48.7553 74.635C48.3241 74.4875 47.8532 74.4137 47.3427 74.4137C46.9342 74.4137 46.5598 74.4705 46.2194 74.5839C45.879 74.686 45.584 74.8619 45.3344 75.1115C45.0961 75.3611 44.9089 75.7015 44.7727 76.1327C44.6479 76.5525 44.5855 77.0744 44.5855 77.6984C44.5855 78.3338 44.6536 78.8671 44.7898 79.2982C44.9259 79.7294 45.1245 80.0811 45.3854 80.3534C45.6577 80.6144 45.9811 80.8016 46.3555 80.9151C46.7413 81.0285 47.1838 81.0853 47.683 81.0853C48.1482 81.0853 48.5907 81.0172 49.0105 80.881C49.4417 80.7449 49.8048 80.552 50.0998 80.3024V81.8341C49.8615 82.027 49.5154 82.1745 49.0616 82.2766C48.6191 82.3901 48.0915 82.4468 47.4788 82.4468C46.798 82.4468 46.1853 82.3674 45.6407 82.2085C45.1075 82.0383 44.6536 81.7604 44.2792 81.3746C43.9048 80.9888 43.6154 80.4896 43.4112 79.8769C43.2183 79.2529 43.1219 78.487 43.1219 77.5793C43.1219 76.0249 43.485 74.8846 44.2111 74.1584C44.9486 73.4323 46.0549 73.0692 47.5299 73.0692C48.0858 73.0692 48.5397 73.1146 48.8914 73.2054C49.2431 73.2848 49.5495 73.3926 49.8104 73.5287V75.1285ZM52.6597 73.2394H59.8418V82.2596H58.4292V74.5669H54.0723V82.2596H52.6597V73.2394ZM63.1305 73.2394H64.5431V77.6304C64.5431 78.1636 64.5317 78.6799 64.509 79.1791C64.4863 79.667 64.4636 80.0244 64.441 80.2513L64.509 80.2854C64.7246 79.9223 64.9515 79.5706 65.1898 79.2302C65.4281 78.8784 65.672 78.5324 65.9216 78.192L69.3425 73.2394H70.5849V82.2596H69.1723V78.6175C69.1723 78.2884 69.1723 77.9594 69.1723 77.6304C69.1836 77.29 69.195 76.9666 69.2063 76.6603C69.2177 76.3539 69.229 76.0759 69.2404 75.8263C69.2517 75.5654 69.2631 75.3555 69.2744 75.1966L69.2234 75.1796C69.0759 75.4406 68.883 75.7696 68.6447 76.1667C68.4064 76.5525 68.1568 76.9156 67.8959 77.2559L64.3899 82.2596H63.1305V73.2394ZM79.9266 75.1285C79.6543 74.9357 79.3026 74.7711 78.8714 74.635C78.4403 74.4875 77.9694 74.4137 77.4588 74.4137C77.0504 74.4137 76.6759 74.4705 76.3356 74.5839C75.9952 74.686 75.7002 74.8619 75.4506 75.1115C75.2123 75.3611 75.0251 75.7015 74.8889 76.1327C74.7641 76.5525 74.7017 77.0744 74.7017 77.6984C74.7017 78.3338 74.7698 78.8671 74.9059 79.2982C75.0421 79.7294 75.2406 80.0811 75.5016 80.3534C75.7739 80.6144 76.0973 80.8016 76.4717 80.9151C76.8575 81.0285 77.3 81.0853 77.7992 81.0853C78.2644 81.0853 78.7069 81.0172 79.1267 80.881C79.5579 80.7449 79.9209 80.552 80.2159 80.3024V81.8341C79.9777 82.027 79.6316 82.1745 79.1778 82.2766C78.7353 82.3901 78.2077 82.4468 77.595 82.4468C76.9142 82.4468 76.3015 82.3674 75.7569 82.2085C75.2236 82.0383 74.7698 81.7604 74.3954 81.3746C74.0209 80.9888 73.7316 80.4896 73.5274 79.8769C73.3345 79.2529 73.238 78.487 73.238 77.5793C73.238 76.0249 73.6011 74.8846 74.3273 74.1584C75.0648 73.4323 76.171 73.0692 77.646 73.0692C78.202 73.0692 78.6558 73.1146 79.0076 73.2054C79.3593 73.2848 79.6656 73.3926 79.9266 73.5287V75.1285ZM85.6692 78.175H84.1885V82.2596H82.7759V73.2394H84.1885V77.0687H85.6862L88.6986 73.2394H90.3154L86.8775 77.5283L90.6728 82.2596H88.9539L85.6692 78.175ZM92.6485 73.2394H94.0611V77.6304C94.0611 78.1636 94.0497 78.6799 94.027 79.1791C94.0044 79.667 93.9817 80.0244 93.959 80.2513L94.027 80.2854C94.2426 79.9223 94.4695 79.5706 94.7078 79.2302C94.9461 78.8784 95.19 78.5324 95.4396 78.192L98.8605 73.2394H100.103V82.2596H98.6903V78.6175C98.6903 78.2884 98.6903 77.9594 98.6903 77.6304C98.7017 77.29 98.713 76.9666 98.7243 76.6603C98.7357 76.3539 98.747 76.0759 98.7584 75.8263C98.7697 75.5654 98.7811 75.3555 98.7924 75.1966L98.7414 75.1796C98.5939 75.4406 98.401 75.7696 98.1627 76.1667C97.9244 76.5525 97.6748 76.9156 97.4139 77.2559L93.9079 82.2596H92.6485V73.2394Z" fill="#262626" fill-opacity="0.7"/>
</g>
<g filter="url(#filter2_dd_43_1435)">
<path d="M196.93 58.8582H154.382C144.983 58.8582 137.363 66.4779 137.363 75.8774C137.363 85.2768 144.983 92.8966 154.382 92.8966H196.93C206.33 92.8966 213.95 85.2768 213.95 75.8774C213.95 66.4779 206.33 58.8582 196.93 58.8582Z" fill="white"/>
<path d="M162.637 79.077H157.548L156.374 82.2596H154.808L159.352 70.3461H160.901L165.513 82.2596H163.828L162.637 79.077ZM158.058 77.7155H162.126L160.084 72.2523L158.058 77.7155ZM170.46 78.175H168.98V82.2596H167.567V73.2394H168.98V77.0687H170.477L173.49 73.2394H175.107L171.669 77.5282L175.464 82.2596H173.745L170.46 78.175ZM179.206 74.5669H176.278V73.2394H183.528V74.5669H180.618V82.2596H179.206V74.5669ZM186.88 76.2178C187.107 76.1951 187.317 76.1781 187.509 76.1667C187.702 76.1554 187.907 76.1497 188.122 76.1497C188.837 76.1497 189.444 76.2121 189.943 76.3369C190.442 76.4504 190.845 76.6319 191.152 76.8815C191.458 77.1198 191.679 77.4261 191.815 77.8006C191.951 78.1636 192.02 78.6005 192.02 79.111C192.02 79.5649 191.951 79.9904 191.815 80.3875C191.679 80.7846 191.447 81.1306 191.118 81.4256C190.8 81.7206 190.374 81.9532 189.841 82.1234C189.308 82.2936 188.644 82.3787 187.85 82.3787C187.453 82.3787 187.056 82.3674 186.659 82.3447C186.261 82.3333 185.864 82.305 185.467 82.2596V73.2394H186.88V76.2178ZM186.88 81.0512C187.084 81.0739 187.254 81.0909 187.39 81.1023C187.538 81.1023 187.742 81.1023 188.003 81.1023C188.514 81.1023 188.933 81.0569 189.262 80.9661C189.603 80.8754 189.869 80.7449 190.062 80.5747C190.267 80.4045 190.408 80.2003 190.488 79.962C190.567 79.7237 190.607 79.4571 190.607 79.1621C190.607 78.8898 190.573 78.6402 190.505 78.4132C190.437 78.1863 190.301 77.9934 190.096 77.8346C189.904 77.6644 189.626 77.5339 189.262 77.4431C188.911 77.3524 188.44 77.307 187.85 77.307C187.668 77.307 187.504 77.3183 187.356 77.341C187.22 77.3524 187.061 77.3694 186.88 77.3921V81.0512ZM193.296 73.2394H194.709V82.2596H193.296V73.2394Z" fill="#262626" fill-opacity="0.7"/>
</g>
<g filter="url(#filter3_dd_43_1435)">
<path d="M268.553 109.916H21.774C12.3745 109.916 4.75476 117.536 4.75476 126.935C4.75476 136.335 12.3745 143.954 21.774 143.954H268.553C277.952 143.954 285.572 136.335 285.572 126.935C285.572 117.536 277.952 109.916 268.553 109.916Z" fill="white"/>
<path d="M21.9442 131.956H23.2036C23.544 131.127 23.856 130.033 24.1397 128.671C24.4347 127.309 24.5935 125.71 24.6162 123.872L24.6503 121.404H31.8664V131.956H33.3982V135.53H31.9685V133.317H23.3738V135.53H21.9442V131.956ZM30.3347 122.765H26.1309L26.1139 123.923C26.1026 124.706 26.0572 125.477 25.9778 126.237C25.9097 126.986 25.8133 127.707 25.6884 128.399C25.575 129.091 25.4388 129.738 25.28 130.339C25.1325 130.94 24.9736 131.479 24.8034 131.956H30.3347V122.765ZM35.0112 128.773C35.0112 127.99 35.1189 127.309 35.3345 126.731C35.5501 126.152 35.8508 125.67 36.2365 125.284C36.6223 124.898 37.0818 124.609 37.6151 124.416C38.1597 124.223 38.7554 124.127 39.4021 124.127C40.0148 124.127 40.5708 124.218 41.07 124.399C41.5692 124.581 41.989 124.864 42.3294 125.25C42.6812 125.636 42.9535 126.124 43.1463 126.714C43.3392 127.304 43.4357 128.007 43.4357 128.824C43.4357 129.675 43.3222 130.396 43.0953 130.986C42.8797 131.576 42.579 132.058 42.1933 132.432C41.8188 132.807 41.3763 133.079 40.8658 133.249C40.3552 133.419 39.8049 133.504 39.2149 133.504C37.8647 133.504 36.8265 133.09 36.1004 132.262C35.3742 131.434 35.0112 130.271 35.0112 128.773ZM36.4238 128.824C36.4238 129.902 36.6677 130.742 37.1556 131.343C37.6548 131.933 38.381 132.228 39.334 132.228C40.1737 132.228 40.8317 131.961 41.3083 131.428C41.7848 130.884 42.0231 130.016 42.0231 128.824V128.773C42.0231 127.627 41.7791 126.776 41.2912 126.22C40.8147 125.664 40.1226 125.386 39.2149 125.386C38.3186 125.386 37.6264 125.676 37.1386 126.254C36.662 126.822 36.4238 127.661 36.4238 128.773V128.824ZM46.0946 124.297H51.7961V125.625H47.5072V133.317H46.0946V124.297ZM53.1605 128.773C53.1605 127.99 53.2683 127.309 53.4839 126.731C53.6995 126.152 54.0001 125.67 54.3859 125.284C54.7717 124.898 55.2312 124.609 55.7645 124.416C56.3091 124.223 56.9048 124.127 57.5515 124.127C58.1642 124.127 58.7201 124.218 59.2194 124.399C59.7186 124.581 60.1384 124.864 60.4788 125.25C60.8305 125.636 61.1028 126.124 61.2957 126.714C61.4886 127.304 61.5851 128.007 61.5851 128.824C61.5851 129.675 61.4716 130.396 61.2447 130.986C61.0291 131.576 60.7284 132.058 60.3426 132.432C59.9682 132.807 59.5257 133.079 59.0151 133.249C58.5046 133.419 57.9543 133.504 57.3643 133.504C56.0141 133.504 54.9759 133.09 54.2498 132.262C53.5236 131.434 53.1605 130.271 53.1605 128.773ZM54.5731 128.824C54.5731 129.902 54.8171 130.742 55.305 131.343C55.8042 131.933 56.5303 132.228 57.4834 132.228C58.323 132.228 58.9811 131.961 59.4576 131.428C59.9342 130.884 60.1725 130.016 60.1725 128.824V128.773C60.1725 127.627 59.9285 126.776 59.4406 126.22C58.9641 125.664 58.272 125.386 57.3643 125.386C56.4679 125.386 55.7758 125.676 55.2879 126.254C54.8114 126.822 54.5731 127.661 54.5731 128.773V128.824ZM64.244 124.28C64.5731 124.257 64.9872 124.235 65.4864 124.212C65.997 124.189 66.604 124.178 67.3075 124.178C68.0336 124.178 68.6293 124.229 69.0945 124.331C69.5597 124.433 69.9285 124.575 70.2008 124.757C70.4731 124.938 70.6603 125.165 70.7624 125.437C70.8759 125.698 70.9326 125.988 70.9326 126.305C70.9326 126.884 70.8021 127.349 70.5411 127.701C70.2802 128.041 69.8263 128.302 69.1796 128.484C69.9398 128.552 70.4901 128.739 70.8305 129.045C71.1822 129.352 71.3581 129.879 71.3581 130.628C71.3581 131.048 71.2957 131.434 71.1709 131.786C71.046 132.126 70.8305 132.421 70.5241 132.671C70.2291 132.92 69.8263 133.113 69.3158 133.249C68.8165 133.385 68.1925 133.453 67.4436 133.453C67.1486 133.453 66.8423 133.448 66.5246 133.436C66.2183 133.436 65.9233 133.431 65.6396 133.419C65.356 133.408 65.095 133.391 64.8567 133.368C64.6184 133.357 64.4142 133.346 64.244 133.334V124.28ZM65.6566 132.143C65.9516 132.166 66.2466 132.188 66.5416 132.211C66.848 132.222 67.1657 132.228 67.4947 132.228C67.9599 132.228 68.3457 132.205 68.652 132.16C68.9697 132.103 69.225 132.012 69.4179 131.888C69.6108 131.763 69.7469 131.598 69.8263 131.394C69.9058 131.19 69.9455 130.94 69.9455 130.645C69.9455 130.135 69.7696 129.783 69.4179 129.59C69.0775 129.386 68.5215 129.284 67.75 129.284H65.6566V132.143ZM67.75 128.075C68.2833 128.075 68.7087 127.968 69.0264 127.752C69.3441 127.536 69.503 127.19 69.503 126.714C69.503 126.203 69.3441 125.857 69.0264 125.676C68.7201 125.494 68.1811 125.403 67.4096 125.403C66.9784 125.403 66.6267 125.403 66.3544 125.403C66.0821 125.403 65.8495 125.409 65.6566 125.42V128.075H67.75ZM73.404 128.773C73.404 127.99 73.5118 127.309 73.7274 126.731C73.9429 126.152 74.2436 125.67 74.6294 125.284C75.0151 124.898 75.4747 124.609 76.0079 124.416C76.5525 124.223 77.1482 124.127 77.795 124.127C78.4076 124.127 78.9636 124.218 79.4628 124.399C79.9621 124.581 80.3819 124.864 80.7223 125.25C81.074 125.636 81.3463 126.124 81.5392 126.714C81.7321 127.304 81.8285 128.007 81.8285 128.824C81.8285 129.675 81.715 130.396 81.4881 130.986C81.2725 131.576 80.9719 132.058 80.5861 132.432C80.2117 132.807 79.7692 133.079 79.2586 133.249C78.748 133.419 78.1977 133.504 77.6077 133.504C76.2575 133.504 75.2194 133.09 74.4932 132.262C73.7671 131.434 73.404 130.271 73.404 128.773ZM74.8166 128.824C74.8166 129.902 75.0605 130.742 75.5484 131.343C76.0476 131.933 76.7738 132.228 77.7269 132.228C78.5665 132.228 79.2246 131.961 79.7011 131.428C80.1776 130.884 80.4159 130.016 80.4159 128.824V128.773C80.4159 127.627 80.172 126.776 79.6841 126.22C79.2075 125.664 78.5154 125.386 77.6077 125.386C76.7114 125.386 76.0193 125.676 75.5314 126.254C75.0549 126.822 74.8166 127.661 74.8166 128.773V128.824ZM84.4707 124.297H85.7642L85.8493 125.88C86.3258 124.711 87.3754 124.127 88.9979 124.127C90.1665 124.127 91.0402 124.479 91.6188 125.182C92.1975 125.874 92.4868 127.02 92.4868 128.62C92.4868 129.494 92.4074 130.242 92.2485 130.866C92.0897 131.479 91.8514 131.984 91.5337 132.381C91.2274 132.767 90.8416 133.051 90.3764 133.232C89.9112 133.414 89.3723 133.504 88.7596 133.504C87.9881 133.504 87.3697 133.368 86.9045 133.096C86.4506 132.812 86.1103 132.483 85.8833 132.109V136.381H84.4707V124.297ZM85.8833 129.692C85.8833 130.475 86.1046 131.093 86.5471 131.547C87.0009 132.001 87.642 132.228 88.4703 132.228C88.9468 132.228 89.3496 132.166 89.6786 132.041C90.0077 131.916 90.2743 131.712 90.4785 131.428C90.6828 131.144 90.8303 130.781 90.921 130.339C91.0231 129.896 91.0742 129.352 91.0742 128.705C91.0742 128.092 91.0175 127.576 90.904 127.156C90.7906 126.725 90.626 126.385 90.4105 126.135C90.1949 125.874 89.9226 125.687 89.5935 125.574C89.2758 125.46 88.9071 125.403 88.4873 125.403C88.0448 125.403 87.659 125.466 87.33 125.591C87.0009 125.715 86.7286 125.891 86.5131 126.118C86.2975 126.334 86.1386 126.595 86.0365 126.901C85.9344 127.207 85.8833 127.536 85.8833 127.888V129.692ZM96.5537 127.275C96.7806 127.253 96.9905 127.236 97.1834 127.224C97.3763 127.213 97.5805 127.207 97.7961 127.207C98.5109 127.207 99.1179 127.27 99.6172 127.395C100.116 127.508 100.519 127.69 100.826 127.939C101.132 128.177 101.353 128.484 101.489 128.858C101.625 129.221 101.693 129.658 101.693 130.169C101.693 130.623 101.625 131.048 101.489 131.445C101.353 131.842 101.121 132.188 100.791 132.483C100.474 132.778 100.048 133.011 99.515 133.181C98.9818 133.351 98.318 133.436 97.5238 133.436C97.1267 133.436 96.7296 133.425 96.3324 133.402C95.9353 133.391 95.5382 133.363 95.1411 133.317V124.297H96.5537V127.275ZM96.5537 132.109C96.7579 132.132 96.9281 132.149 97.0643 132.16C97.2118 132.16 97.416 132.16 97.677 132.16C98.1875 132.16 98.6073 132.115 98.9364 132.024C99.2768 131.933 99.5434 131.803 99.7363 131.632C99.9405 131.462 100.082 131.258 100.162 131.02C100.241 130.781 100.281 130.515 100.281 130.22C100.281 129.947 100.247 129.698 100.179 129.471C100.111 129.244 99.9746 129.051 99.7703 128.892C99.5774 128.722 99.2995 128.592 98.9364 128.501C98.5846 128.41 98.1138 128.365 97.5238 128.365C97.3423 128.365 97.1777 128.376 97.0302 128.399C96.8941 128.41 96.7352 128.427 96.5537 128.45V132.109ZM102.97 124.297H104.383V133.317H102.97V124.297ZM112.146 128.773C112.146 127.99 112.254 127.309 112.47 126.731C112.685 126.152 112.986 125.67 113.372 125.284C113.757 124.898 114.217 124.609 114.75 124.416C115.295 124.223 115.89 124.127 116.537 124.127C117.15 124.127 117.706 124.218 118.205 124.399C118.704 124.581 119.124 124.864 119.464 125.25C119.816 125.636 120.088 126.124 120.281 126.714C120.474 127.304 120.571 128.007 120.571 128.824C120.571 129.675 120.457 130.396 120.23 130.986C120.015 131.576 119.714 132.058 119.328 132.432C118.954 132.807 118.511 133.079 118.001 133.249C117.49 133.419 116.94 133.504 116.35 133.504C115 133.504 113.962 133.09 113.235 132.262C112.509 131.434 112.146 130.271 112.146 128.773ZM113.559 128.824C113.559 129.902 113.803 130.742 114.291 131.343C114.79 131.933 115.516 132.228 116.469 132.228C117.309 132.228 117.967 131.961 118.443 131.428C118.92 130.884 119.158 130.016 119.158 128.824V128.773C119.158 127.627 118.914 126.776 118.426 126.22C117.95 125.664 117.258 125.386 116.35 125.386C115.454 125.386 114.761 125.676 114.274 126.254C113.797 126.822 113.559 127.661 113.559 128.773V128.824ZM130.395 121.846C130.225 121.937 129.907 122.011 129.442 122.068C128.977 122.124 128.273 122.181 127.332 122.238C126.719 122.272 126.214 122.368 125.817 122.527C125.42 122.675 125.102 122.901 124.864 123.208C124.625 123.514 124.45 123.906 124.336 124.382C124.223 124.859 124.138 125.437 124.081 126.118L124.132 126.135C124.529 125.556 125.023 125.125 125.613 124.842C126.214 124.558 126.855 124.416 127.536 124.416C128.092 124.416 128.591 124.484 129.033 124.62C129.487 124.745 129.873 124.966 130.191 125.284C130.508 125.602 130.752 126.033 130.923 126.578C131.093 127.111 131.178 127.786 131.178 128.603C131.178 129.465 131.087 130.208 130.906 130.832C130.724 131.445 130.452 131.95 130.089 132.347C129.737 132.733 129.3 133.022 128.778 133.215C128.256 133.397 127.661 133.487 126.991 133.487C125.539 133.487 124.461 133.039 123.758 132.143C123.054 131.235 122.702 129.8 122.702 127.837C122.702 126.668 122.776 125.664 122.924 124.825C123.071 123.974 123.304 123.265 123.621 122.697C123.95 122.13 124.37 121.693 124.881 121.387C125.403 121.08 126.032 120.876 126.77 120.774C126.985 120.74 127.263 120.712 127.604 120.689C127.944 120.655 128.29 120.621 128.642 120.587C129.005 120.541 129.345 120.49 129.663 120.434C129.981 120.366 130.225 120.286 130.395 120.195V121.846ZM127.025 132.143C127.922 132.143 128.585 131.882 129.016 131.36C129.459 130.827 129.68 129.964 129.68 128.773C129.68 128.172 129.623 127.678 129.51 127.292C129.397 126.895 129.226 126.583 128.999 126.356C128.784 126.118 128.512 125.954 128.183 125.863C127.865 125.761 127.502 125.71 127.093 125.71C126.22 125.71 125.51 125.948 124.966 126.424C124.433 126.89 124.166 127.565 124.166 128.45C124.166 129.119 124.228 129.692 124.353 130.169C124.478 130.634 124.66 131.014 124.898 131.309C125.147 131.604 125.448 131.82 125.8 131.956C126.163 132.081 126.571 132.143 127.025 132.143ZM138.323 128.773C138.323 127.99 138.431 127.309 138.646 126.731C138.862 126.152 139.163 125.67 139.549 125.284C139.934 124.898 140.394 124.609 140.927 124.416C141.472 124.223 142.067 124.127 142.714 124.127C143.327 124.127 143.883 124.218 144.382 124.399C144.881 124.581 145.301 124.864 145.641 125.25C145.993 125.636 146.265 126.124 146.458 126.714C146.651 127.304 146.748 128.007 146.748 128.824C146.748 129.675 146.634 130.396 146.407 130.986C146.192 131.576 145.891 132.058 145.505 132.432C145.131 132.807 144.688 133.079 144.178 133.249C143.667 133.419 143.117 133.504 142.527 133.504C141.177 133.504 140.139 133.09 139.412 132.262C138.686 131.434 138.323 130.271 138.323 128.773ZM139.736 128.824C139.736 129.902 139.98 130.742 140.468 131.343C140.967 131.933 141.693 132.228 142.646 132.228C143.486 132.228 144.144 131.961 144.62 131.428C145.097 130.884 145.335 130.016 145.335 128.824V128.773C145.335 127.627 145.091 126.776 144.603 126.22C144.127 125.664 143.435 125.386 142.527 125.386C141.631 125.386 140.938 125.676 140.451 126.254C139.974 126.822 139.736 127.661 139.736 128.773V128.824ZM152.3 129.233H150.82V133.317H149.407V124.297H150.82V128.126H152.317L155.33 124.297H156.946L153.509 128.586L157.304 133.317H155.585L152.3 129.233ZM164.317 132.024C164.09 132.432 163.739 132.784 163.262 133.079C162.797 133.363 162.241 133.504 161.594 133.504C160.686 133.504 159.972 133.278 159.45 132.824C158.928 132.359 158.667 131.689 158.667 130.815C158.667 130.316 158.729 129.896 158.854 129.556C158.99 129.204 159.2 128.921 159.484 128.705C159.779 128.478 160.153 128.314 160.607 128.211C161.061 128.109 161.611 128.058 162.258 128.058H164.283V127.207C164.283 126.844 164.238 126.549 164.147 126.322C164.068 126.084 163.937 125.903 163.756 125.778C163.574 125.642 163.341 125.551 163.058 125.505C162.785 125.449 162.462 125.42 162.088 125.42C161.577 125.42 161.066 125.517 160.556 125.71C160.057 125.903 159.654 126.129 159.348 126.39V124.757C159.529 124.654 159.739 124.564 159.977 124.484C160.227 124.405 160.482 124.342 160.743 124.297C161.004 124.24 161.265 124.201 161.526 124.178C161.787 124.144 162.025 124.127 162.241 124.127C162.831 124.127 163.341 124.178 163.773 124.28C164.215 124.382 164.578 124.552 164.862 124.791C165.145 125.029 165.355 125.347 165.491 125.744C165.628 126.129 165.696 126.612 165.696 127.19V133.317H164.402L164.317 132.024ZM160.113 130.594C160.113 131.082 160.25 131.462 160.522 131.734C160.794 132.007 161.242 132.143 161.866 132.143C162.706 132.143 163.319 131.927 163.704 131.496C164.09 131.065 164.283 130.52 164.283 129.862V129.096H162.309C161.878 129.096 161.52 129.125 161.237 129.182C160.953 129.238 160.726 129.329 160.556 129.454C160.397 129.567 160.284 129.721 160.216 129.913C160.147 130.095 160.113 130.322 160.113 130.594ZM168.256 131.224C168.551 131.462 168.966 131.689 169.499 131.905C170.043 132.12 170.679 132.228 171.405 132.228C172.097 132.228 172.613 132.109 172.954 131.871C173.305 131.632 173.481 131.224 173.481 130.645C173.481 130.396 173.442 130.186 173.362 130.016C173.283 129.845 173.147 129.709 172.954 129.607C172.761 129.505 172.506 129.437 172.188 129.403C171.882 129.357 171.49 129.335 171.014 129.335H169.839V128.211H171.201C171.847 128.211 172.313 128.092 172.596 127.854C172.891 127.604 173.039 127.23 173.039 126.731C173.039 126.266 172.914 125.925 172.664 125.71C172.415 125.494 171.927 125.386 171.201 125.386C170.531 125.386 169.987 125.477 169.567 125.659C169.158 125.829 168.778 126.05 168.427 126.322V124.671C168.585 124.603 168.756 124.541 168.937 124.484C169.119 124.416 169.329 124.359 169.567 124.314C169.805 124.257 170.077 124.212 170.384 124.178C170.69 124.144 171.048 124.127 171.456 124.127C172.568 124.127 173.345 124.325 173.788 124.723C174.242 125.108 174.468 125.642 174.468 126.322C174.468 126.958 174.372 127.463 174.179 127.837C173.986 128.2 173.606 128.461 173.039 128.62C173.595 128.654 174.043 128.836 174.383 129.165C174.724 129.482 174.894 129.947 174.894 130.56C174.894 131.581 174.593 132.33 173.992 132.807C173.402 133.272 172.403 133.504 170.997 133.504C170.792 133.504 170.565 133.493 170.316 133.47C170.066 133.448 169.817 133.408 169.567 133.351C169.329 133.306 169.09 133.255 168.852 133.198C168.625 133.13 168.427 133.051 168.256 132.96V131.224ZM182.582 132.024C182.355 132.432 182.004 132.784 181.527 133.079C181.062 133.363 180.506 133.504 179.859 133.504C178.952 133.504 178.237 133.278 177.715 132.824C177.193 132.359 176.932 131.689 176.932 130.815C176.932 130.316 176.994 129.896 177.119 129.556C177.255 129.204 177.465 128.921 177.749 128.705C178.044 128.478 178.418 128.314 178.872 128.211C179.326 128.109 179.876 128.058 180.523 128.058H182.548V127.207C182.548 126.844 182.503 126.549 182.412 126.322C182.333 126.084 182.202 125.903 182.021 125.778C181.839 125.642 181.607 125.551 181.323 125.505C181.051 125.449 180.727 125.42 180.353 125.42C179.842 125.42 179.332 125.517 178.821 125.71C178.322 125.903 177.919 126.129 177.613 126.39V124.757C177.794 124.654 178.004 124.564 178.242 124.484C178.492 124.405 178.747 124.342 179.008 124.297C179.269 124.24 179.53 124.201 179.791 124.178C180.052 124.144 180.29 124.127 180.506 124.127C181.096 124.127 181.607 124.178 182.038 124.28C182.48 124.382 182.843 124.552 183.127 124.791C183.411 125.029 183.621 125.347 183.757 125.744C183.893 126.129 183.961 126.612 183.961 127.19V133.317H182.667L182.582 132.024ZM178.379 130.594C178.379 131.082 178.515 131.462 178.787 131.734C179.059 132.007 179.508 132.143 180.132 132.143C180.971 132.143 181.584 131.927 181.97 131.496C182.355 131.065 182.548 130.52 182.548 129.862V129.096H180.574C180.143 129.096 179.786 129.125 179.502 129.182C179.218 129.238 178.991 129.329 178.821 129.454C178.662 129.567 178.549 129.721 178.481 129.913C178.413 130.095 178.379 130.322 178.379 130.594ZM187.135 124.297H188.548V128.075H193.041V124.297H194.453V133.317H193.041V129.42H188.548V133.317H187.135V124.297ZM197.722 124.297H199.135V128.688C199.135 129.221 199.124 129.738 199.101 130.237C199.078 130.725 199.056 131.082 199.033 131.309L199.101 131.343C199.317 130.98 199.543 130.628 199.782 130.288C200.02 129.936 200.264 129.59 200.514 129.25L203.934 124.297H205.177V133.317H203.764V129.675C203.764 129.346 203.764 129.017 203.764 128.688C203.776 128.348 203.787 128.024 203.798 127.718C203.81 127.412 203.821 127.134 203.832 126.884C203.844 126.623 203.855 126.413 203.866 126.254L203.815 126.237C203.668 126.498 203.475 126.827 203.237 127.224C202.998 127.61 202.749 127.973 202.488 128.314L198.982 133.317H197.722V124.297ZM208.442 124.297H209.855V128.688C209.855 129.221 209.844 129.738 209.821 130.237C209.798 130.725 209.776 131.082 209.753 131.309L209.821 131.343C210.037 130.98 210.263 130.628 210.502 130.288C210.74 129.936 210.984 129.59 211.234 129.25L214.654 124.297H215.897V133.317H214.484V129.675C214.484 129.346 214.484 129.017 214.484 128.688C214.496 128.348 214.507 128.024 214.518 127.718C214.53 127.412 214.541 127.134 214.552 126.884C214.564 126.623 214.575 126.413 214.586 126.254L214.535 126.237C214.388 126.498 214.195 126.827 213.957 127.224C213.718 127.61 213.469 127.973 213.208 128.314L209.702 133.317H208.442V124.297ZM225.252 135.155C225.411 135.155 225.552 135.133 225.677 135.087C225.813 135.053 225.938 134.974 226.052 134.849C226.176 134.724 226.296 134.543 226.409 134.304C226.534 134.066 226.664 133.748 226.8 133.351L223.141 124.297H224.775L227.532 131.496L229.83 124.297H231.345L228.23 133.011C227.935 133.851 227.651 134.503 227.379 134.968C227.118 135.433 226.869 135.779 226.63 136.006C226.392 136.233 226.159 136.369 225.932 136.415C225.706 136.471 225.484 136.5 225.269 136.5C224.906 136.5 224.639 136.454 224.469 136.364V134.951C224.707 135.087 224.968 135.155 225.252 135.155ZM239.199 126.186C238.927 125.993 238.575 125.829 238.144 125.693C237.713 125.545 237.242 125.471 236.731 125.471C236.323 125.471 235.948 125.528 235.608 125.642C235.268 125.744 234.973 125.92 234.723 126.169C234.485 126.419 234.297 126.759 234.161 127.19C234.036 127.61 233.974 128.132 233.974 128.756C233.974 129.391 234.042 129.925 234.178 130.356C234.314 130.787 234.513 131.139 234.774 131.411C235.046 131.672 235.37 131.859 235.744 131.973C236.13 132.086 236.572 132.143 237.072 132.143C237.537 132.143 237.979 132.075 238.399 131.939C238.83 131.803 239.193 131.61 239.488 131.36V132.892C239.25 133.085 238.904 133.232 238.45 133.334C238.008 133.448 237.48 133.504 236.867 133.504C236.187 133.504 235.574 133.425 235.029 133.266C234.496 133.096 234.042 132.818 233.668 132.432C233.293 132.046 233.004 131.547 232.8 130.935C232.607 130.311 232.51 129.545 232.51 128.637C232.51 127.083 232.873 125.942 233.6 125.216C234.337 124.49 235.443 124.127 236.918 124.127C237.474 124.127 237.928 124.172 238.28 124.263C238.632 124.342 238.938 124.45 239.199 124.586V126.186ZM241.175 131.734C241.311 131.78 241.458 131.803 241.617 131.803C241.731 131.803 241.85 131.786 241.975 131.751C242.099 131.717 242.218 131.638 242.332 131.513C242.445 131.377 242.553 131.179 242.655 130.918C242.769 130.645 242.865 130.276 242.945 129.811C243.035 129.346 243.109 128.762 243.166 128.058C243.223 127.344 243.268 126.481 243.302 125.471L243.336 124.297H249.327V133.317H247.914V125.659H244.612L244.595 126.203C244.539 127.803 244.425 129.085 244.255 130.05C244.096 131.003 243.892 131.74 243.642 132.262C243.404 132.773 243.132 133.107 242.825 133.266C242.519 133.425 242.196 133.504 241.855 133.504C241.719 133.504 241.6 133.499 241.498 133.487C241.407 133.487 241.299 133.465 241.175 133.419V131.734ZM253.606 135.155C253.765 135.155 253.907 135.133 254.032 135.087C254.168 135.053 254.293 134.974 254.406 134.849C254.531 134.724 254.65 134.543 254.764 134.304C254.889 134.066 255.019 133.748 255.155 133.351L251.496 124.297H253.13L255.887 131.496L258.185 124.297H259.699L256.585 133.011C256.29 133.851 256.006 134.503 255.734 134.968C255.473 135.433 255.223 135.779 254.985 136.006C254.747 136.233 254.514 136.369 254.287 136.415C254.06 136.471 253.839 136.5 253.623 136.5C253.26 136.5 252.994 136.454 252.824 136.364V134.951C253.062 135.087 253.323 135.155 253.606 135.155ZM261.677 124.297H267.379V125.625H263.09V133.317H261.677V124.297Z" fill="#262626" fill-opacity="0.7"/>
</g>
<g filter="url(#filter4_dd_43_1435)">
<path d="M274.226 160.974H21.774C12.3745 160.974 4.75476 168.593 4.75476 177.993C4.75476 187.392 12.3745 195.012 21.774 195.012H274.226C283.625 195.012 291.245 187.392 291.245 177.993C291.245 168.593 283.625 160.974 274.226 160.974Z" fill="white"/>
<path d="M21.9442 183.013H23.2036C23.544 182.185 23.856 181.09 24.1397 179.729C24.4347 178.367 24.5935 176.767 24.6162 174.929L24.6503 172.462H31.8664V183.013H33.3982V186.587H31.9685V184.375H23.3738V186.587H21.9442V183.013ZM30.3347 173.823H26.1309L26.1139 174.98C26.1026 175.763 26.0572 176.535 25.9778 177.295C25.9097 178.044 25.8133 178.764 25.6884 179.456C25.575 180.149 25.4388 180.795 25.28 181.397C25.1325 181.998 24.9736 182.537 24.8034 183.013H30.3347V173.823ZM35.0112 179.831C35.0112 179.048 35.1189 178.367 35.3345 177.789C35.5501 177.21 35.8508 176.728 36.2365 176.342C36.6223 175.956 37.0818 175.667 37.6151 175.474C38.1597 175.281 38.7554 175.185 39.4021 175.185C40.0148 175.185 40.5708 175.275 41.07 175.457C41.5692 175.638 41.989 175.922 42.3294 176.308C42.6812 176.694 42.9535 177.182 43.1463 177.772C43.3392 178.362 43.4357 179.065 43.4357 179.882C43.4357 180.733 43.3222 181.453 43.0953 182.043C42.8797 182.633 42.579 183.116 42.1933 183.49C41.8188 183.864 41.3763 184.137 40.8658 184.307C40.3552 184.477 39.8049 184.562 39.2149 184.562C37.8647 184.562 36.8265 184.148 36.1004 183.32C35.3742 182.492 35.0112 181.329 35.0112 179.831ZM36.4238 179.882C36.4238 180.96 36.6677 181.799 37.1556 182.401C37.6548 182.991 38.381 183.286 39.334 183.286C40.1737 183.286 40.8317 183.019 41.3083 182.486C41.7848 181.941 42.0231 181.073 42.0231 179.882V179.831C42.0231 178.685 41.7791 177.834 41.2912 177.278C40.8147 176.722 40.1226 176.444 39.2149 176.444C38.3186 176.444 37.6264 176.733 37.1386 177.312C36.662 177.879 36.4238 178.719 36.4238 179.831V179.882ZM46.0946 175.355H53.2768V184.375H51.8642V176.682H47.5072V184.375H46.0946V175.355ZM55.9528 179.831C55.9528 179.048 56.0605 178.367 56.2761 177.789C56.4917 177.21 56.7924 176.728 57.1781 176.342C57.5639 175.956 58.0234 175.667 58.5567 175.474C59.1013 175.281 59.697 175.185 60.3437 175.185C60.9564 175.185 61.5124 175.275 62.0116 175.457C62.5108 175.638 62.9306 175.922 63.271 176.308C63.6228 176.694 63.8951 177.182 64.0879 177.772C64.2808 178.362 64.3773 179.065 64.3773 179.882C64.3773 180.733 64.2638 181.453 64.0369 182.043C63.8213 182.633 63.5206 183.116 63.1349 183.49C62.7604 183.864 62.3179 184.137 61.8074 184.307C61.2968 184.477 60.7465 184.562 60.1565 184.562C58.8063 184.562 57.7681 184.148 57.042 183.32C56.3158 182.492 55.9528 181.329 55.9528 179.831ZM57.3653 179.882C57.3653 180.96 57.6093 181.799 58.0972 182.401C58.5964 182.991 59.3226 183.286 60.2756 183.286C61.1153 183.286 61.7733 183.019 62.2499 182.486C62.7264 181.941 62.9647 181.073 62.9647 179.882V179.831C62.9647 178.685 62.7207 177.834 62.2329 177.278C61.7563 176.722 61.0642 176.444 60.1565 176.444C59.2602 176.444 58.568 176.733 58.0802 177.312C57.6036 177.879 57.3653 178.719 57.3653 179.831V179.882ZM65.913 182.792C66.0491 182.838 66.1966 182.86 66.3555 182.86C66.4689 182.86 66.5881 182.843 66.7129 182.809C66.8377 182.775 66.9568 182.696 67.0703 182.571C67.1837 182.435 67.2915 182.236 67.3936 181.975C67.5071 181.703 67.6036 181.334 67.683 180.869C67.7737 180.404 67.8475 179.82 67.9042 179.116C67.961 178.401 68.0063 177.539 68.0404 176.529L68.0744 175.355H74.0649V184.375H72.6523V176.716H69.3509L69.3338 177.261C69.2771 178.861 69.1636 180.143 68.9935 181.107C68.8346 182.06 68.6304 182.798 68.3808 183.32C68.1425 183.83 67.8702 184.165 67.5638 184.324C67.2575 184.483 66.9341 184.562 66.5937 184.562C66.4576 184.562 66.3385 184.557 66.2363 184.545C66.1456 184.545 66.0378 184.522 65.913 184.477V182.792ZM77.3574 175.355H78.77V179.133H83.2631V175.355H84.6757V184.375H83.2631V180.478H78.77V184.375H77.3574V175.355ZM87.9448 175.355H89.3574V179.746C89.3574 180.279 89.346 180.795 89.3233 181.295C89.3007 181.782 89.278 182.14 89.2553 182.367L89.3233 182.401C89.5389 182.038 89.7659 181.686 90.0041 181.346C90.2424 180.994 90.4863 180.648 90.7359 180.307L94.1568 175.355H95.3992V184.375H93.9866V180.733C93.9866 180.404 93.9866 180.075 93.9866 179.746C93.998 179.405 94.0093 179.082 94.0207 178.776C94.032 178.469 94.0433 178.191 94.0547 177.942C94.066 177.681 94.0774 177.471 94.0887 177.312L94.0377 177.295C93.8902 177.556 93.6973 177.885 93.459 178.282C93.2208 178.668 92.9711 179.031 92.7102 179.371L89.2042 184.375H87.9448V175.355ZM100.265 176.682H97.3373V175.355H104.587V176.682H101.677V184.375H100.265V176.682ZM107.343 180.375C107.343 181.351 107.593 182.083 108.092 182.571C108.603 183.047 109.357 183.286 110.356 183.286C110.934 183.286 111.456 183.189 111.921 182.996C112.387 182.792 112.784 182.56 113.113 182.299V183.762C112.886 183.921 112.534 184.097 112.058 184.29C111.581 184.471 111.002 184.562 110.322 184.562C109.595 184.562 108.954 184.477 108.398 184.307C107.854 184.125 107.394 183.842 107.02 183.456C106.657 183.059 106.379 182.56 106.186 181.958C106.004 181.346 105.914 180.602 105.914 179.729C105.914 178.242 106.26 177.113 106.952 176.342C107.644 175.57 108.654 175.185 109.981 175.185C110.673 175.185 111.263 175.287 111.751 175.491C112.239 175.695 112.63 175.985 112.925 176.359C113.22 176.733 113.436 177.187 113.572 177.72C113.708 178.242 113.776 178.821 113.776 179.456V180.375H107.343ZM109.964 176.461C109.136 176.461 108.489 176.682 108.024 177.125C107.57 177.556 107.343 178.231 107.343 179.15H112.364C112.364 178.231 112.171 177.556 111.785 177.125C111.411 176.682 110.804 176.461 109.964 176.461ZM115.142 182.792C115.278 182.838 115.426 182.86 115.585 182.86C115.698 182.86 115.817 182.843 115.942 182.809C116.067 182.775 116.186 182.696 116.3 182.571C116.413 182.435 116.521 182.236 116.623 181.975C116.736 181.703 116.833 181.334 116.912 180.869C117.003 180.404 117.077 179.82 117.133 179.116C117.19 178.401 117.236 177.539 117.27 176.529L117.304 175.355H123.294V184.375H121.882V176.716H118.58L118.563 177.261C118.506 178.861 118.393 180.143 118.223 181.107C118.064 182.06 117.86 182.798 117.61 183.32C117.372 183.83 117.099 184.165 116.793 184.324C116.487 184.483 116.163 184.562 115.823 184.562C115.687 184.562 115.568 184.557 115.466 184.545C115.375 184.545 115.267 184.522 115.142 184.477V182.792ZM126.587 175.355H128V178.333C128.261 178.31 128.521 178.293 128.782 178.282C129.055 178.271 129.355 178.265 129.684 178.265C130.331 178.265 130.893 178.316 131.369 178.418C131.857 178.509 132.254 178.674 132.561 178.912C132.878 179.139 133.111 179.445 133.258 179.831C133.417 180.205 133.497 180.67 133.497 181.226C133.497 181.771 133.423 182.248 133.276 182.656C133.139 183.064 132.907 183.405 132.578 183.677C132.26 183.949 131.835 184.154 131.301 184.29C130.779 184.426 130.133 184.494 129.361 184.494C128.816 184.494 128.295 184.483 127.795 184.46C127.307 184.437 126.905 184.409 126.587 184.375V175.355ZM128 183.15C128.226 183.184 128.448 183.206 128.663 183.218C128.89 183.218 129.208 183.218 129.616 183.218C130.093 183.218 130.484 183.184 130.791 183.116C131.108 183.047 131.364 182.94 131.557 182.792C131.749 182.633 131.886 182.435 131.965 182.197C132.044 181.947 132.084 181.641 132.084 181.277C132.084 180.937 132.044 180.653 131.965 180.427C131.886 180.188 131.738 179.995 131.523 179.848C131.307 179.7 131.006 179.593 130.621 179.525C130.246 179.456 129.753 179.422 129.14 179.422C128.958 179.422 128.777 179.434 128.595 179.456C128.414 179.468 128.215 179.485 128 179.507V183.15ZM135.944 175.355H137.357V179.133H141.85V175.355H143.262V184.375H141.85V180.478H137.357V184.375H135.944V175.355ZM147.944 178.333C148.171 178.31 148.381 178.293 148.574 178.282C148.767 178.271 148.971 178.265 149.186 178.265C149.901 178.265 150.508 178.327 151.007 178.452C151.507 178.566 151.909 178.747 152.216 178.997C152.522 179.235 152.743 179.542 152.88 179.916C153.016 180.279 153.084 180.716 153.084 181.226C153.084 181.68 153.016 182.106 152.88 182.503C152.743 182.9 152.511 183.246 152.182 183.541C151.864 183.836 151.439 184.069 150.905 184.239C150.372 184.409 149.708 184.494 148.914 184.494C148.517 184.494 148.12 184.483 147.723 184.46C147.326 184.449 146.928 184.42 146.531 184.375V175.355H147.944V178.333ZM147.944 183.167C148.148 183.189 148.318 183.206 148.455 183.218C148.602 183.218 148.806 183.218 149.067 183.218C149.578 183.218 149.998 183.172 150.327 183.082C150.667 182.991 150.934 182.86 151.127 182.69C151.331 182.52 151.473 182.316 151.552 182.077C151.631 181.839 151.671 181.572 151.671 181.277C151.671 181.005 151.637 180.756 151.569 180.529C151.501 180.302 151.365 180.109 151.161 179.95C150.968 179.78 150.69 179.649 150.327 179.559C149.975 179.468 149.504 179.422 148.914 179.422C148.733 179.422 148.568 179.434 148.421 179.456C148.284 179.468 148.126 179.485 147.944 179.507V183.167ZM154.36 175.355H155.773V184.375H154.36V175.355ZM159.863 180.375C159.863 181.351 160.113 182.083 160.612 182.571C161.123 183.047 161.877 183.286 162.876 183.286C163.454 183.286 163.976 183.189 164.441 182.996C164.906 182.792 165.304 182.56 165.633 182.299V183.762C165.406 183.921 165.054 184.097 164.577 184.29C164.101 184.471 163.522 184.562 162.841 184.562C162.115 184.562 161.474 184.477 160.918 184.307C160.374 184.125 159.914 183.842 159.54 183.456C159.177 183.059 158.899 182.56 158.706 181.958C158.524 181.346 158.433 180.602 158.433 179.729C158.433 178.242 158.78 177.113 159.472 176.342C160.164 175.57 161.174 175.185 162.501 175.185C163.193 175.185 163.783 175.287 164.271 175.491C164.759 175.695 165.15 175.985 165.445 176.359C165.74 176.733 165.956 177.187 166.092 177.72C166.228 178.242 166.296 178.821 166.296 179.456V180.375H159.863ZM162.484 176.461C161.656 176.461 161.009 176.682 160.544 177.125C160.09 177.556 159.863 178.231 159.863 179.15H164.884C164.884 178.231 164.691 177.556 164.305 177.125C163.931 176.682 163.324 176.461 162.484 176.461ZM180.131 177.244C179.859 177.051 179.507 176.887 179.076 176.75C178.645 176.603 178.174 176.529 177.663 176.529C177.255 176.529 176.88 176.586 176.54 176.699C176.199 176.801 175.904 176.977 175.655 177.227C175.417 177.477 175.229 177.817 175.093 178.248C174.968 178.668 174.906 179.19 174.906 179.814C174.906 180.449 174.974 180.982 175.11 181.414C175.246 181.845 175.445 182.197 175.706 182.469C175.978 182.73 176.302 182.917 176.676 183.03C177.062 183.144 177.504 183.201 178.003 183.201C178.469 183.201 178.911 183.133 179.331 182.996C179.762 182.86 180.125 182.667 180.42 182.418V183.949C180.182 184.142 179.836 184.29 179.382 184.392C178.94 184.505 178.412 184.562 177.799 184.562C177.118 184.562 176.506 184.483 175.961 184.324C175.428 184.154 174.974 183.876 174.6 183.49C174.225 183.104 173.936 182.605 173.732 181.992C173.539 181.368 173.442 180.602 173.442 179.695C173.442 178.14 173.805 177 174.532 176.274C175.269 175.548 176.375 175.185 177.85 175.185C178.406 175.185 178.86 175.23 179.212 175.321C179.564 175.4 179.87 175.508 180.131 175.644V177.244ZM182.118 179.831C182.118 179.048 182.226 178.367 182.441 177.789C182.657 177.21 182.957 176.728 183.343 176.342C183.729 175.956 184.189 175.667 184.722 175.474C185.266 175.281 185.862 175.185 186.509 175.185C187.122 175.185 187.677 175.275 188.177 175.457C188.676 175.638 189.096 175.922 189.436 176.308C189.788 176.694 190.06 177.182 190.253 177.772C190.446 178.362 190.542 179.065 190.542 179.882C190.542 180.733 190.429 181.453 190.202 182.043C189.986 182.633 189.686 183.116 189.3 183.49C188.926 183.864 188.483 184.137 187.972 184.307C187.462 184.477 186.912 184.562 186.322 184.562C184.971 184.562 183.933 184.148 183.207 183.32C182.481 182.492 182.118 181.329 182.118 179.831ZM183.53 179.882C183.53 180.96 183.774 181.799 184.262 182.401C184.762 182.991 185.488 183.286 186.441 183.286C187.28 183.286 187.938 183.019 188.415 182.486C188.892 181.941 189.13 181.073 189.13 179.882V179.831C189.13 178.685 188.886 177.834 188.398 177.278C187.921 176.722 187.229 176.444 186.322 176.444C185.425 176.444 184.733 176.733 184.245 177.312C183.769 177.879 183.53 178.719 183.53 179.831V179.882ZM193.202 175.355H198.903V176.682H194.614V184.375H193.202V175.355ZM199.241 182.792C199.377 182.838 199.525 182.86 199.684 182.86C199.797 182.86 199.916 182.843 200.041 182.809C200.166 182.775 200.285 182.696 200.399 182.571C200.512 182.435 200.62 182.236 200.722 181.975C200.835 181.703 200.932 181.334 201.011 180.869C201.102 180.404 201.176 179.82 201.233 179.116C201.289 178.401 201.335 177.539 201.369 176.529L201.403 175.355H207.394V184.375H205.981V176.716H202.679L202.662 177.261C202.605 178.861 202.492 180.143 202.322 181.107C202.163 182.06 201.959 182.798 201.709 183.32C201.471 183.83 201.199 184.165 200.892 184.324C200.586 184.483 200.262 184.562 199.922 184.562C199.786 184.562 199.667 184.557 199.565 184.545C199.474 184.545 199.366 184.522 199.241 184.477V182.792ZM215.724 183.082C215.497 183.49 215.145 183.842 214.669 184.137C214.203 184.42 213.647 184.562 213.001 184.562C212.093 184.562 211.378 184.335 210.856 183.881C210.334 183.416 210.073 182.747 210.073 181.873C210.073 181.374 210.136 180.954 210.261 180.614C210.397 180.262 210.607 179.978 210.89 179.763C211.185 179.536 211.56 179.371 212.014 179.269C212.467 179.167 213.018 179.116 213.664 179.116H215.69V178.265C215.69 177.902 215.644 177.607 215.554 177.38C215.474 177.142 215.344 176.96 215.162 176.835C214.981 176.699 214.748 176.609 214.464 176.563C214.192 176.506 213.869 176.478 213.494 176.478C212.984 176.478 212.473 176.575 211.963 176.767C211.463 176.96 211.06 177.187 210.754 177.448V175.814C210.936 175.712 211.146 175.621 211.384 175.542C211.633 175.463 211.889 175.4 212.15 175.355C212.411 175.298 212.672 175.258 212.933 175.236C213.194 175.202 213.432 175.185 213.647 175.185C214.237 175.185 214.748 175.236 215.179 175.338C215.622 175.44 215.985 175.61 216.268 175.848C216.552 176.087 216.762 176.404 216.898 176.801C217.034 177.187 217.102 177.669 217.102 178.248V184.375H215.809L215.724 183.082ZM211.52 181.652C211.52 182.14 211.656 182.52 211.928 182.792C212.201 183.065 212.649 183.201 213.273 183.201C214.113 183.201 214.725 182.985 215.111 182.554C215.497 182.123 215.69 181.578 215.69 180.92V180.154H213.716C213.284 180.154 212.927 180.183 212.643 180.239C212.36 180.296 212.133 180.387 211.963 180.512C211.804 180.625 211.69 180.778 211.622 180.971C211.554 181.153 211.52 181.38 211.52 181.652ZM220.276 175.355H221.688V183.03H224.99V175.355H226.403V183.03H229.704V175.355H231.117V184.375H220.276V175.355ZM235.204 180.375C235.204 181.351 235.453 182.083 235.953 182.571C236.463 183.047 237.218 183.286 238.216 183.286C238.795 183.286 239.317 183.189 239.782 182.996C240.247 182.792 240.644 182.56 240.973 182.299V183.762C240.746 183.921 240.395 184.097 239.918 184.29C239.441 184.471 238.863 184.562 238.182 184.562C237.456 184.562 236.815 184.477 236.259 184.307C235.714 184.125 235.255 183.842 234.88 183.456C234.517 183.059 234.239 182.56 234.046 181.958C233.865 181.346 233.774 180.602 233.774 179.729C233.774 178.242 234.12 177.113 234.812 176.342C235.504 175.57 236.514 175.185 237.842 175.185C238.534 175.185 239.124 175.287 239.612 175.491C240.1 175.695 240.491 175.985 240.786 176.359C241.081 176.733 241.297 177.187 241.433 177.72C241.569 178.242 241.637 178.821 241.637 179.456V180.375H235.204ZM237.825 176.461C236.996 176.461 236.35 176.682 235.884 177.125C235.431 177.556 235.204 178.231 235.204 179.15H240.224C240.224 178.231 240.031 177.556 239.646 177.125C239.271 176.682 238.664 176.461 237.825 176.461ZM244.292 175.355H245.705V179.133H250.198V175.355H251.61V184.375H250.198V180.478H245.705V184.375H244.292V175.355ZM254.879 175.355H256.292V179.746C256.292 180.279 256.281 180.795 256.258 181.295C256.235 181.782 256.213 182.14 256.19 182.367L256.258 182.401C256.473 182.038 256.7 181.686 256.939 181.346C257.177 180.994 257.421 180.648 257.67 180.307L261.091 175.355H262.334V184.375H260.921V180.733C260.921 180.404 260.921 180.075 260.921 179.746C260.933 179.405 260.944 179.082 260.955 178.776C260.967 178.469 260.978 178.191 260.989 177.942C261.001 177.681 261.012 177.471 261.023 177.312L260.972 177.295C260.825 177.556 260.632 177.885 260.394 178.282C260.155 178.668 259.906 179.031 259.645 179.371L256.139 184.375H254.879V175.355ZM267.148 180.903C266.785 180.846 266.484 180.739 266.246 180.58C266.008 180.409 265.821 180.211 265.684 179.984C265.548 179.746 265.452 179.479 265.395 179.184C265.338 178.878 265.31 178.56 265.31 178.231C265.31 177.754 265.372 177.335 265.497 176.972C265.633 176.597 265.86 176.285 266.178 176.036C266.496 175.786 266.915 175.599 267.437 175.474C267.959 175.338 268.606 175.27 269.378 175.27C269.877 175.27 270.393 175.281 270.926 175.304C271.46 175.315 271.891 175.343 272.22 175.389V184.375H270.807V181.141H268.595L266.28 184.375H264.646L267.148 180.903ZM270.807 176.58C270.592 176.557 270.376 176.54 270.16 176.529C269.945 176.518 269.644 176.512 269.258 176.512C268.748 176.512 268.328 176.546 267.999 176.614C267.67 176.671 267.409 176.767 267.216 176.904C267.035 177.04 266.904 177.221 266.825 177.448C266.757 177.664 266.723 177.936 266.723 178.265C266.723 178.946 266.887 179.411 267.216 179.661C267.557 179.91 268.124 180.035 268.918 180.035H270.807V176.58Z" fill="#262626" fill-opacity="0.7"/>
</g>
<g filter="url(#filter5_dd_43_1435)">
<path d="M241.606 212.031H21.774C12.3745 212.031 4.75476 219.651 4.75476 229.05C4.75476 238.45 12.3745 246.07 21.774 246.07H241.606C251.005 246.07 258.625 238.45 258.625 229.05C258.625 219.651 251.005 212.031 241.606 212.031Z" fill="white"/>
<path d="M24.5822 228.744H26.2841C26.7379 228.744 27.1124 228.687 27.4074 228.574C27.7137 228.46 27.9577 228.313 28.1392 228.131C28.3207 227.939 28.4455 227.717 28.5136 227.468C28.593 227.218 28.6327 226.957 28.6327 226.685C28.6327 225.981 28.4172 225.488 27.986 225.204C27.5662 224.909 26.9138 224.762 26.0288 224.762C25.5182 224.762 25.0247 224.852 24.5481 225.034C24.0716 225.215 23.6348 225.459 23.2377 225.766V224.013C23.5667 223.888 23.9752 223.752 24.463 223.604C24.9623 223.457 25.592 223.383 26.3522 223.383C27.657 223.383 28.6271 223.61 29.2625 224.064C29.9092 224.506 30.2326 225.244 30.2326 226.276C30.2326 227.025 30.068 227.627 29.739 228.08C29.41 228.534 28.8994 228.863 28.2073 229.067C29.0809 229.17 29.739 229.453 30.1815 229.918C30.624 230.384 30.8452 231.093 30.8452 232.046C30.8452 233.192 30.4822 234.065 29.756 234.667C29.0299 235.268 27.8726 235.569 26.2841 235.569C25.5239 235.569 24.8545 235.501 24.2758 235.365C23.6972 235.217 23.232 235.064 22.8802 234.905V232.965C23.0277 233.112 23.215 233.26 23.4419 233.407C23.6802 233.544 23.9525 233.674 24.2588 233.799C24.5652 233.912 24.8999 234.009 25.2629 234.088C25.6374 234.156 26.0345 234.19 26.4543 234.19C27.4754 234.19 28.1902 234.003 28.5987 233.629C29.0185 233.243 29.2284 232.676 29.2284 231.927C29.2284 231.223 28.9958 230.73 28.5306 230.446C28.0768 230.162 27.3336 230.021 26.3011 230.021H24.5822V228.744ZM38.6172 234.139C38.3903 234.548 38.0386 234.899 37.562 235.194C37.0968 235.478 36.5409 235.62 35.8941 235.62C34.9865 235.62 34.2716 235.393 33.7497 234.939C33.2278 234.474 32.9668 233.804 32.9668 232.931C32.9668 232.432 33.0292 232.012 33.154 231.671C33.2902 231.32 33.5001 231.036 33.7838 230.82C34.0788 230.594 34.4532 230.429 34.907 230.327C35.3609 230.225 35.9112 230.174 36.5579 230.174H38.5832V229.323C38.5832 228.96 38.5378 228.665 38.447 228.438C38.3676 228.199 38.2371 228.018 38.0556 227.893C37.874 227.757 37.6415 227.666 37.3578 227.621C37.0855 227.564 36.7621 227.536 36.3877 227.536C35.8771 227.536 35.3665 227.632 34.856 227.825C34.3567 228.018 33.954 228.245 33.6476 228.506V226.872C33.8291 226.77 34.0391 226.679 34.2773 226.6C34.5269 226.52 34.7822 226.458 35.0432 226.412C35.3041 226.356 35.5651 226.316 35.8261 226.293C36.087 226.259 36.3253 226.242 36.5409 226.242C37.1309 226.242 37.6415 226.293 38.0726 226.395C38.5151 226.498 38.8782 226.668 39.1618 226.906C39.4455 227.144 39.6554 227.462 39.7915 227.859C39.9277 228.245 39.9958 228.727 39.9958 229.306V235.433H38.7023L38.6172 234.139ZM34.4135 232.71C34.4135 233.197 34.5496 233.578 34.8219 233.85C35.0942 234.122 35.5424 234.258 36.1665 234.258C37.0061 234.258 37.6188 234.043 38.0045 233.612C38.3903 233.18 38.5832 232.636 38.5832 231.978V231.212H36.609C36.1778 231.212 35.8204 231.24 35.5367 231.297C35.2531 231.354 35.0262 231.445 34.856 231.569C34.6971 231.683 34.5837 231.836 34.5156 232.029C34.4475 232.21 34.4135 232.437 34.4135 232.71ZM46.0627 231.348H44.582V235.433H43.1694V226.412H44.582V230.242H46.0797L49.0921 226.412H50.709L47.2711 230.701L51.0664 235.433H49.3474L46.0627 231.348ZM53.0249 226.412H54.3184L54.4035 227.995C54.88 226.827 55.9295 226.242 57.552 226.242C58.7207 226.242 59.5943 226.594 60.173 227.297C60.7517 227.99 61.041 229.136 61.041 230.735C61.041 231.609 60.9616 232.358 60.8027 232.982C60.6439 233.595 60.4056 234.099 60.0879 234.497C59.7816 234.882 59.3958 235.166 58.9306 235.348C58.4654 235.529 57.9265 235.62 57.3138 235.62C56.5422 235.62 55.9239 235.484 55.4587 235.211C55.0048 234.928 54.6644 234.599 54.4375 234.224V238.496H53.0249V226.412ZM54.4375 231.808C54.4375 232.59 54.6588 233.209 55.1013 233.663C55.5551 234.117 56.1962 234.343 57.0244 234.343C57.501 234.343 57.9038 234.281 58.2328 234.156C58.5618 234.031 58.8285 233.827 59.0327 233.544C59.2369 233.26 59.3844 232.897 59.4752 232.454C59.5773 232.012 59.6284 231.467 59.6284 230.82C59.6284 230.208 59.5717 229.692 59.4582 229.272C59.3447 228.841 59.1802 228.5 58.9646 228.251C58.7491 227.99 58.4767 227.802 58.1477 227.689C57.83 227.575 57.4613 227.519 57.0415 227.519C56.599 227.519 56.2132 227.581 55.8842 227.706C55.5551 227.831 55.2828 228.007 55.0672 228.234C54.8517 228.449 54.6928 228.71 54.5907 229.016C54.4886 229.323 54.4375 229.652 54.4375 230.004V231.808ZM65.1081 229.391C65.3351 229.368 65.545 229.351 65.7379 229.34C65.9307 229.328 66.135 229.323 66.3506 229.323C67.0654 229.323 67.6724 229.385 68.1716 229.51C68.6708 229.623 69.0736 229.805 69.38 230.055C69.6863 230.293 69.9076 230.599 70.0437 230.974C70.1799 231.337 70.248 231.774 70.248 232.284C70.248 232.738 70.1799 233.163 70.0437 233.561C69.9076 233.958 69.675 234.304 69.3459 234.599C69.0282 234.894 68.6028 235.126 68.0695 235.297C67.5362 235.467 66.8725 235.552 66.0782 235.552C65.6811 235.552 65.284 235.54 64.8869 235.518C64.4898 235.506 64.0927 235.478 63.6956 235.433V226.412H65.1081V229.391ZM65.1081 234.224C65.3124 234.247 65.4826 234.264 65.6187 234.275C65.7662 234.275 65.9705 234.275 66.2314 234.275C66.742 234.275 67.1618 234.23 67.4908 234.139C67.8312 234.048 68.0979 233.918 68.2907 233.748C68.495 233.578 68.6368 233.373 68.7162 233.135C68.7957 232.897 68.8354 232.63 68.8354 232.335C68.8354 232.063 68.8013 231.813 68.7332 231.586C68.6652 231.359 68.529 231.167 68.3248 231.008C68.1319 230.837 67.8539 230.707 67.4908 230.616C67.1391 230.525 66.6682 230.48 66.0782 230.48C65.8967 230.48 65.7322 230.491 65.5847 230.514C65.4485 230.525 65.2897 230.542 65.1081 230.565V234.224ZM71.5248 226.412H72.9374V235.433H71.5248V226.412ZM76.2107 226.395C76.5398 226.373 76.9539 226.35 77.4531 226.327C77.9637 226.305 78.5707 226.293 79.2742 226.293C80.0003 226.293 80.596 226.344 81.0612 226.447C81.5264 226.549 81.8951 226.69 82.1674 226.872C82.4398 227.054 82.627 227.28 82.7291 227.553C82.8425 227.814 82.8993 228.103 82.8993 228.421C82.8993 228.999 82.7688 229.465 82.5078 229.816C82.2469 230.157 81.793 230.418 81.1463 230.599C81.9065 230.667 82.4568 230.855 82.7972 231.161C83.1489 231.467 83.3248 231.995 83.3248 232.744C83.3248 233.163 83.2623 233.549 83.1375 233.901C83.0127 234.241 82.7972 234.536 82.4908 234.786C82.1958 235.036 81.793 235.228 81.2824 235.365C80.7832 235.501 80.1592 235.569 79.4103 235.569C79.1153 235.569 78.809 235.563 78.4913 235.552C78.1849 235.552 77.8899 235.546 77.6063 235.535C77.3226 235.523 77.0617 235.506 76.8234 235.484C76.5851 235.472 76.3809 235.461 76.2107 235.45V226.395ZM77.6233 234.258C77.9183 234.281 78.2133 234.304 78.5083 234.326C78.8147 234.338 79.1324 234.343 79.4614 234.343C79.9266 234.343 80.3124 234.321 80.6187 234.275C80.9364 234.219 81.1917 234.128 81.3846 234.003C81.5774 233.878 81.7136 233.714 81.793 233.51C81.8724 233.305 81.9122 233.056 81.9122 232.761C81.9122 232.25 81.7363 231.898 81.3846 231.705C81.0442 231.501 80.4882 231.399 79.7167 231.399H77.6233V234.258ZM79.7167 230.191C80.2499 230.191 80.6754 230.083 80.9931 229.867C81.3108 229.652 81.4697 229.306 81.4697 228.829C81.4697 228.319 81.3108 227.973 80.9931 227.791C80.6868 227.61 80.1478 227.519 79.3763 227.519C78.9451 227.519 78.5934 227.519 78.3211 227.519C78.0488 227.519 77.8162 227.524 77.6233 227.536V230.191H79.7167ZM91.021 234.139C90.7941 234.548 90.4423 234.899 89.9658 235.194C89.5006 235.478 88.9446 235.62 88.2979 235.62C87.3902 235.62 86.6754 235.393 86.1535 234.939C85.6316 234.474 85.3706 233.804 85.3706 232.931C85.3706 232.432 85.433 232.012 85.5578 231.671C85.694 231.32 85.9039 231.036 86.1875 230.82C86.4825 230.594 86.857 230.429 87.3108 230.327C87.7646 230.225 88.3149 230.174 88.9617 230.174H90.987V229.323C90.987 228.96 90.9416 228.665 90.8508 228.438C90.7714 228.199 90.6409 228.018 90.4594 227.893C90.2778 227.757 90.0452 227.666 89.7616 227.621C89.4893 227.564 89.1659 227.536 88.7915 227.536C88.2809 227.536 87.7703 227.632 87.2597 227.825C86.7605 228.018 86.3577 228.245 86.0514 228.506V226.872C86.2329 226.77 86.4428 226.679 86.6811 226.6C86.9307 226.52 87.186 226.458 87.447 226.412C87.7079 226.356 87.9689 226.316 88.2298 226.293C88.4908 226.259 88.7291 226.242 88.9446 226.242C89.5346 226.242 90.0452 226.293 90.4764 226.395C90.9189 226.498 91.282 226.668 91.5656 226.906C91.8493 227.144 92.0592 227.462 92.1953 227.859C92.3315 228.245 92.3995 228.727 92.3995 229.306V235.433H91.1061L91.021 234.139ZM86.8172 232.71C86.8172 233.197 86.9534 233.578 87.2257 233.85C87.498 234.122 87.9462 234.258 88.5702 234.258C89.4098 234.258 90.0225 234.043 90.4083 233.612C90.7941 233.18 90.987 232.636 90.987 231.978V231.212H89.0127C88.5816 231.212 88.2242 231.24 87.9405 231.297C87.6569 231.354 87.4299 231.445 87.2597 231.569C87.1009 231.683 86.9874 231.836 86.9194 232.029C86.8513 232.21 86.8172 232.437 86.8172 232.71ZM102.977 226.242C103.624 226.242 104.191 226.327 104.679 226.498C105.178 226.656 105.598 226.923 105.938 227.297C106.279 227.672 106.534 228.16 106.704 228.761C106.886 229.351 106.977 230.072 106.977 230.923C106.977 231.796 106.886 232.534 106.704 233.135C106.523 233.725 106.256 234.207 105.904 234.582C105.553 234.945 105.116 235.211 104.594 235.382C104.083 235.54 103.493 235.62 102.824 235.62C102.12 235.62 101.519 235.523 101.02 235.331C100.521 235.138 100.106 234.865 99.7774 234.514C99.4483 234.151 99.1987 233.708 99.0285 233.186C98.8583 232.664 98.7619 232.08 98.7392 231.433H96.9862V235.433H95.5736V226.412H96.9862V230.157H98.7733C98.8754 228.863 99.2555 227.887 99.9135 227.229C100.572 226.571 101.593 226.242 102.977 226.242ZM100.152 230.923C100.152 232.125 100.379 232.993 100.833 233.527C101.286 234.06 101.967 234.326 102.875 234.326C103.283 234.326 103.646 234.275 103.964 234.173C104.293 234.071 104.571 233.895 104.798 233.646C105.036 233.385 105.212 233.039 105.326 232.607C105.45 232.176 105.513 231.632 105.513 230.974C105.513 230.304 105.462 229.748 105.36 229.306C105.269 228.863 105.11 228.512 104.883 228.251C104.668 227.978 104.384 227.791 104.032 227.689C103.692 227.575 103.278 227.519 102.79 227.519C102.313 227.519 101.91 227.581 101.581 227.706C101.252 227.819 100.98 228.012 100.765 228.285C100.549 228.546 100.39 228.892 100.288 229.323C100.197 229.754 100.152 230.287 100.152 230.923ZM109.651 226.412H111.063V234.088H114.365V226.412H115.778V234.088H119.079V226.412H120.492V234.088H121.802V237.645H120.475V235.433H109.651V226.412ZM123.977 226.412H125.39V230.803C125.39 231.337 125.379 231.853 125.356 232.352C125.333 232.84 125.31 233.197 125.288 233.424L125.356 233.458C125.571 233.095 125.798 232.744 126.037 232.403C126.275 232.052 126.519 231.705 126.768 231.365L130.189 226.412H131.432V235.433H130.019V231.791C130.019 231.462 130.019 231.132 130.019 230.803C130.03 230.463 130.042 230.14 130.053 229.833C130.065 229.527 130.076 229.249 130.087 228.999C130.099 228.738 130.11 228.529 130.121 228.37L130.07 228.353C129.923 228.614 129.73 228.943 129.492 229.34C129.253 229.726 129.004 230.089 128.743 230.429L125.237 235.433H123.977V226.412ZM135.515 231.433C135.515 232.409 135.765 233.141 136.264 233.629C136.774 234.105 137.529 234.343 138.527 234.343C139.106 234.343 139.628 234.247 140.093 234.054C140.558 233.85 140.955 233.617 141.284 233.356V234.82C141.058 234.979 140.706 235.155 140.229 235.348C139.753 235.529 139.174 235.62 138.493 235.62C137.767 235.62 137.126 235.535 136.57 235.365C136.026 235.183 135.566 234.899 135.192 234.514C134.828 234.117 134.551 233.617 134.358 233.016C134.176 232.403 134.085 231.66 134.085 230.786C134.085 229.3 134.431 228.171 135.123 227.4C135.816 226.628 136.825 226.242 138.153 226.242C138.845 226.242 139.435 226.344 139.923 226.549C140.411 226.753 140.802 227.042 141.097 227.417C141.392 227.791 141.608 228.245 141.744 228.778C141.88 229.3 141.948 229.879 141.948 230.514V231.433H135.515ZM138.136 227.519C137.308 227.519 136.661 227.74 136.196 228.182C135.742 228.614 135.515 229.289 135.515 230.208H140.536C140.536 229.289 140.343 228.614 139.957 228.182C139.583 227.74 138.976 227.519 138.136 227.519ZM148.413 234.088H149.434C149.729 233.453 149.961 232.579 150.132 231.467C150.302 230.344 150.387 228.982 150.387 227.383V226.412H156.395V234.088H157.756V237.645H156.429V235.433H149.74V237.645H148.413V234.088ZM154.982 227.74H151.731L151.714 228.37C151.692 229.47 151.612 230.514 151.476 231.501C151.351 232.488 151.136 233.351 150.829 234.088H154.982V227.74ZM159.315 230.889C159.315 230.106 159.423 229.425 159.638 228.846C159.854 228.268 160.155 227.785 160.54 227.4C160.926 227.014 161.386 226.725 161.919 226.532C162.463 226.339 163.059 226.242 163.706 226.242C164.319 226.242 164.875 226.333 165.374 226.515C165.873 226.696 166.293 226.98 166.633 227.366C166.985 227.751 167.257 228.239 167.45 228.829C167.643 229.419 167.739 230.123 167.739 230.94C167.739 231.791 167.626 232.511 167.399 233.101C167.183 233.691 166.883 234.173 166.497 234.548C166.123 234.922 165.68 235.194 165.17 235.365C164.659 235.535 164.109 235.62 163.519 235.62C162.168 235.62 161.13 235.206 160.404 234.377C159.678 233.549 159.315 232.386 159.315 230.889ZM160.728 230.94C160.728 232.017 160.971 232.857 161.459 233.458C161.959 234.048 162.685 234.343 163.638 234.343C164.477 234.343 165.135 234.077 165.612 233.544C166.089 232.999 166.327 232.131 166.327 230.94V230.889C166.327 229.743 166.083 228.892 165.595 228.336C165.118 227.78 164.426 227.502 163.519 227.502C162.622 227.502 161.93 227.791 161.442 228.37C160.966 228.937 160.728 229.777 160.728 230.889V230.94ZM173.291 231.348H171.811V235.433H170.398V226.412H171.811V230.242H173.308L176.321 226.412H177.937L174.5 230.701L178.295 235.433H176.576L173.291 231.348ZM181.258 237.271C181.417 237.271 181.558 237.248 181.683 237.203C181.819 237.169 181.944 237.089 182.058 236.964C182.182 236.84 182.302 236.658 182.415 236.42C182.54 236.182 182.67 235.864 182.806 235.467L179.147 226.412H180.781L183.538 233.612L185.836 226.412H187.351L184.236 235.126C183.941 235.966 183.657 236.618 183.385 237.084C183.124 237.549 182.874 237.895 182.636 238.122C182.398 238.349 182.165 238.485 181.938 238.53C181.711 238.587 181.49 238.615 181.275 238.615C180.912 238.615 180.645 238.57 180.475 238.479V237.067C180.713 237.203 180.974 237.271 181.258 237.271ZM189.329 226.412H191.201L194.06 231.774L196.8 226.412H198.587V235.433H197.175V230.684C197.175 230.174 197.198 229.669 197.243 229.17C197.288 228.659 197.334 228.148 197.379 227.638C197.118 228.217 196.874 228.761 196.647 229.272C196.42 229.771 196.21 230.191 196.018 230.531L194.452 233.254H193.482L192.001 230.548C191.808 230.185 191.587 229.754 191.337 229.255C191.088 228.755 190.827 228.222 190.554 227.655C190.6 228.165 190.64 228.682 190.674 229.204C190.719 229.714 190.742 230.23 190.742 230.752V235.433H189.329V226.412ZM202.677 231.433C202.677 232.409 202.927 233.141 203.426 233.629C203.936 234.105 204.691 234.343 205.689 234.343C206.268 234.343 206.79 234.247 207.255 234.054C207.72 233.85 208.118 233.617 208.447 233.356V234.82C208.22 234.979 207.868 235.155 207.391 235.348C206.915 235.529 206.336 235.62 205.655 235.62C204.929 235.62 204.288 235.535 203.732 235.365C203.188 235.183 202.728 234.899 202.354 234.514C201.991 234.117 201.713 233.617 201.52 233.016C201.338 232.403 201.247 231.66 201.247 230.786C201.247 229.3 201.594 228.171 202.286 227.4C202.978 226.628 203.988 226.242 205.315 226.242C206.007 226.242 206.597 226.344 207.085 226.549C207.573 226.753 207.964 227.042 208.259 227.417C208.554 227.791 208.77 228.245 208.906 228.778C209.042 229.3 209.11 229.879 209.11 230.514V231.433H202.677ZM205.298 227.519C204.47 227.519 203.823 227.74 203.358 228.182C202.904 228.614 202.677 229.289 202.677 230.208H207.698C207.698 229.289 207.505 228.614 207.119 228.182C206.745 227.74 206.138 227.519 205.298 227.519ZM211.766 226.412H213.179V230.191H217.672V226.412H219.084V235.433H217.672V231.535H213.179V235.433H211.766V226.412ZM223.953 227.74H221.026V226.412H228.276V227.74H225.366V235.433H223.953V227.74ZM231.627 229.391C231.854 229.368 232.064 229.351 232.257 229.34C232.45 229.328 232.654 229.323 232.87 229.323C233.585 229.323 234.192 229.385 234.691 229.51C235.19 229.623 235.593 229.805 235.899 230.055C236.206 230.293 236.427 230.599 236.563 230.974C236.699 231.337 236.767 231.774 236.767 232.284C236.767 232.738 236.699 233.163 236.563 233.561C236.427 233.958 236.194 234.304 235.865 234.599C235.548 234.894 235.122 235.126 234.589 235.297C234.056 235.467 233.392 235.552 232.598 235.552C232.2 235.552 231.803 235.54 231.406 235.518C231.009 235.506 230.612 235.478 230.215 235.433V226.412H231.627V229.391ZM231.627 234.224C231.832 234.247 232.002 234.264 232.138 234.275C232.286 234.275 232.49 234.275 232.751 234.275C233.261 234.275 233.681 234.23 234.01 234.139C234.351 234.048 234.617 233.918 234.81 233.748C235.014 233.578 235.156 233.373 235.236 233.135C235.315 232.897 235.355 232.63 235.355 232.335C235.355 232.063 235.321 231.813 235.253 231.586C235.184 231.359 235.048 231.167 234.844 231.008C234.651 230.837 234.373 230.707 234.01 230.616C233.658 230.525 233.188 230.48 232.598 230.48C232.416 230.48 232.252 230.491 232.104 230.514C231.968 230.525 231.809 230.542 231.627 230.565V234.224ZM238.044 226.412H239.456V235.433H238.044V226.412Z" fill="#262626" fill-opacity="0.7"/>
</g>
</g>
<defs>
<filter id="filter0_dd_43_1435" x="-1.24524" y="-0.87262" width="185.738" height="51.7115" filterUnits="userSpaceOnUse" color-interpolation-filters="sRGB">
<feFlood flood-opacity="0" result="BackgroundImageFix"/>
<feColorMatrix in="SourceAlpha" type="matrix" values="0 0 0 0 0 0 0 0 0 0 0 0 0 0 0 0 0 0 127 0" result="hardAlpha"/>
<feOffset dy="3"/>
<feGaussianBlur stdDeviation="3"/>
<feColorMatrix type="matrix" values="0 0 0 0 0.14902 0 0 0 0 0.14902 0 0 0 0 0.14902 0 0 0 0.16 0"/>
<feBlend mode="normal" in2="BackgroundImageFix" result="effect1_dropShadow_43_1435"/>
<feColorMatrix in="SourceAlpha" type="matrix" values="0 0 0 0 0 0 0 0 0 0 0 0 0 0 0 0 0 0 127 0" result="hardAlpha"/>
<feOffset dy="1"/>
<feGaussianBlur stdDeviation="1"/>
<feColorMatrix type="matrix" values="0 0 0 0 0.14902 0 0 0 0 0.14902 0 0 0 0 0.14902 0 0 0 0.04 0"/>
<feBlend mode="normal" in2="effect1_dropShadow_43_1435" result="effect2_dropShadow_43_1435"/>
<feBlend mode="normal" in="SourceGraphic" in2="effect2_dropShadow_43_1435" result="shape"/>
</filter>
<filter id="filter1_dd_43_1435" x="-1.24524" y="55.8582" width="126.171" height="46.0385" filterUnits="userSpaceOnUse" color-interpolation-filters="sRGB">
<feFlood flood-opacity="0" result="BackgroundImageFix"/>
<feColorMatrix in="SourceAlpha" type="matrix" values="0 0 0 0 0 0 0 0 0 0 0 0 0 0 0 0 0 0 127 0" result="hardAlpha"/>
<feOffset dy="3"/>
<feGaussianBlur stdDeviation="3"/>
<feColorMatrix type="matrix" values="0 0 0 0 0.14902 0 0 0 0 0.14902 0 0 0 0 0.14902 0 0 0 0.16 0"/>
<feBlend mode="normal" in2="BackgroundImageFix" result="effect1_dropShadow_43_1435"/>
<feColorMatrix in="SourceAlpha" type="matrix" values="0 0 0 0 0 0 0 0 0 0 0 0 0 0 0 0 0 0 127 0" result="hardAlpha"/>
<feOffset dy="1"/>
<feGaussianBlur stdDeviation="1"/>
<feColorMatrix type="matrix" values="0 0 0 0 0.14902 0 0 0 0 0.14902 0 0 0 0 0.14902 0 0 0 0.04 0"/>
<feBlend mode="normal" in2="effect1_dropShadow_43_1435" result="effect2_dropShadow_43_1435"/>
<feBlend mode="normal" in="SourceGraphic" in2="effect2_dropShadow_43_1435" result="shape"/>
</filter>
<filter id="filter2_dd_43_1435" x="131.363" y="55.8582" width="88.5865" height="46.0385" filterUnits="userSpaceOnUse" color-interpolation-filters="sRGB">
<feFlood flood-opacity="0" result="BackgroundImageFix"/>
<feColorMatrix in="SourceAlpha" type="matrix" values="0 0 0 0 0 0 0 0 0 0 0 0 0 0 0 0 0 0 127 0" result="hardAlpha"/>
<feOffset dy="3"/>
<feGaussianBlur stdDeviation="3"/>
<feColorMatrix type="matrix" values="0 0 0 0 0.14902 0 0 0 0 0.14902 0 0 0 0 0.14902 0 0 0 0.16 0"/>
<feBlend mode="normal" in2="BackgroundImageFix" result="effect1_dropShadow_43_1435"/>
<feColorMatrix in="SourceAlpha" type="matrix" values="0 0 0 0 0 0 0 0 0 0 0 0 0 0 0 0 0 0 127 0" result="hardAlpha"/>
<feOffset dy="1"/>
<feGaussianBlur stdDeviation="1"/>
<feColorMatrix type="matrix" values="0 0 0 0 0.14902 0 0 0 0 0.14902 0 0 0 0 0.14902 0 0 0 0.04 0"/>
<feBlend mode="normal" in2="effect1_dropShadow_43_1435" result="effect2_dropShadow_43_1435"/>
<feBlend mode="normal" in="SourceGraphic" in2="effect2_dropShadow_43_1435" result="shape"/>
</filter>
<filter id="filter3_dd_43_1435" x="-1.24524" y="106.916" width="292.817" height="46.0385" filterUnits="userSpaceOnUse" color-interpolation-filters="sRGB">
<feFlood flood-opacity="0" result="BackgroundImageFix"/>
<feColorMatrix in="SourceAlpha" type="matrix" values="0 0 0 0 0 0 0 0 0 0 0 0 0 0 0 0 0 0 127 0" result="hardAlpha"/>
<feOffset dy="3"/>
<feGaussianBlur stdDeviation="3"/>
<feColorMatrix type="matrix" values="0 0 0 0 0.14902 0 0 0 0 0.14902 0 0 0 0 0.14902 0 0 0 0.16 0"/>
<feBlend mode="normal" in2="BackgroundImageFix" result="effect1_dropShadow_43_1435"/>
<feColorMatrix in="SourceAlpha" type="matrix" values="0 0 0 0 0 0 0 0 0 0 0 0 0 0 0 0 0 0 127 0" result="hardAlpha"/>
<feOffset dy="1"/>
<feGaussianBlur stdDeviation="1"/>
<feColorMatrix type="matrix" values="0 0 0 0 0.14902 0 0 0 0 0.14902 0 0 0 0 0.14902 0 0 0 0.04 0"/>
<feBlend mode="normal" in2="effect1_dropShadow_43_1435" result="effect2_dropShadow_43_1435"/>
<feBlend mode="normal" in="SourceGraphic" in2="effect2_dropShadow_43_1435" result="shape"/>
</filter>
<filter id="filter4_dd_43_1435" x="-1.24524" y="157.974" width="298.49" height="46.0385" filterUnits="userSpaceOnUse" color-interpolation-filters="sRGB">
<feFlood flood-opacity="0" result="BackgroundImageFix"/>
<feColorMatrix in="SourceAlpha" type="matrix" values="0 0 0 0 0 0 0 0 0 0 0 0 0 0 0 0 0 0 127 0" result="hardAlpha"/>
<feOffset dy="3"/>
<feGaussianBlur stdDeviation="3"/>
<feColorMatrix type="matrix" values="0 0 0 0 0.14902 0 0 0 0 0.14902 0 0 0 0 0.14902 0 0 0 0.16 0"/>
<feBlend mode="normal" in2="BackgroundImageFix" result="effect1_dropShadow_43_1435"/>
<feColorMatrix in="SourceAlpha" type="matrix" values="0 0 0 0 0 0 0 0 0 0 0 0 0 0 0 0 0 0 127 0" result="hardAlpha"/>
<feOffset dy="1"/>
<feGaussianBlur stdDeviation="1"/>
<feColorMatrix type="matrix" values="0 0 0 0 0.14902 0 0 0 0 0.14902 0 0 0 0 0.14902 0 0 0 0.04 0"/>
<feBlend mode="normal" in2="effect1_dropShadow_43_1435" result="effect2_dropShadow_43_1435"/>
<feBlend mode="normal" in="SourceGraphic" in2="effect2_dropShadow_43_1435" result="shape"/>
</filter>
<filter id="filter5_dd_43_1435" x="-1.24524" y="209.031" width="265.87" height="46.0385" filterUnits="userSpaceOnUse" color-interpolation-filters="sRGB">
<feFlood flood-opacity="0" result="BackgroundImageFix"/>
<feColorMatrix in="SourceAlpha" type="matrix" values="0 0 0 0 0 0 0 0 0 0 0 0 0 0 0 0 0 0 127 0" result="hardAlpha"/>
<feOffset dy="3"/>
<feGaussianBlur stdDeviation="3"/>
<feColorMatrix type="matrix" values="0 0 0 0 0.14902 0 0 0 0 0.14902 0 0 0 0 0.14902 0 0 0 0.16 0"/>
<feBlend mode="normal" in2="BackgroundImageFix" result="effect1_dropShadow_43_1435"/>
<feColorMatrix in="SourceAlpha" type="matrix" values="0 0 0 0 0 0 0 0 0 0 0 0 0 0 0 0 0 0 127 0" result="hardAlpha"/>
<feOffset dy="1"/>
<feGaussianBlur stdDeviation="1"/>
<feColorMatrix type="matrix" values="0 0 0 0 0.14902 0 0 0 0 0.14902 0 0 0 0 0.14902 0 0 0 0.04 0"/>
<feBlend mode="normal" in2="effect1_dropShadow_43_1435" result="effect2_dropShadow_43_1435"/>
<feBlend mode="normal" in="SourceGraphic" in2="effect2_dropShadow_43_1435" result="shape"/>
</filter>
<clipPath id="clip0_43_1435">
<rect width="295" height="252.452" fill="white" transform="translate(0.5)"/>
</clipPath>
</defs>
</svg>
