<svg width="248" height="48" viewBox="0 0 248 48" fill="none" xmlns="http://www.w3.org/2000/svg">
<path d="M0 15.4151C0 20.7426 3.52035 23.9109 8.80088 23.9109C14.1518 23.9109 17.6018 20.414 17.6018 15.462C17.6018 10.158 14.0814 6.98973 8.80088 6.96626C3.44994 6.96626 0 10.4631 0 15.4151ZM3.09791 15.4386C3.09791 12.0121 5.25706 9.68867 8.77741 9.6652C12.5325 9.68867 14.5038 12.2233 14.5038 15.4386C14.5038 18.8885 12.3212 21.212 8.82435 21.212C5.0693 21.1885 3.09791 18.6538 3.09791 15.4386Z" fill="#333F48"/>
<path d="M32.5997 23.6527H35.5334V7.22442H32.5997V13.8427H23.6111V7.22442H20.6775V23.6527H23.6111V16.5416H32.5997V23.6527Z" fill="#333F48"/>
<path d="M50.7279 23.6527H53.6615V7.22442H41.7862L41.6219 10.6274C41.1525 20.0854 39.8148 20.7895 38.6883 20.7895C38.4771 20.7895 38.2189 20.766 37.9842 20.6722V23.6293C38.3363 23.7935 38.7822 23.864 39.2985 23.864C41.6923 23.864 43.7811 22.6436 44.4382 10.6978L44.4851 9.92336H50.7279V23.6527Z" fill="#333F48"/>
<path d="M65.9701 7.22442H62.6375L55.9723 23.6527H58.9529L60.5018 19.7569H68.0354L69.6078 23.6527H72.7292L65.9701 7.22442ZM61.5579 17.0579L64.2569 10.3223L66.9558 17.0579H61.5579Z" fill="#333F48"/>
<path d="M77.9749 7.22442H75.0412V23.6527H78.1861L87.1982 11.1907V23.6527H90.1318V7.22442H86.94L77.9749 19.4987V7.22442ZM84.687 3C84.5696 3.82142 84.0533 4.3612 82.6687 4.3612C81.3309 4.3612 80.6973 3.84488 80.5564 3H77.7871C78.0687 5.76934 80.0871 6.42648 82.7156 6.42648C85.3911 6.42648 87.1512 5.29996 87.4094 3H84.687Z" fill="#333F48"/>
<path d="M106.33 23.6527H109.264V7.22442H106.33V13.8427H97.3414V7.22442H94.4077V23.6527H97.3414V16.5416H106.33V23.6527Z" fill="#333F48"/>
<path d="M113.263 17.9967H119.553V15.462H113.263V17.9967Z" fill="#333F48"/>
<path d="M135.248 23.6527H138.182V7.22442H123.561V23.6527H126.494V9.92336H135.248V23.6527Z" fill="#333F48"/>
<path d="M141.272 15.4151C141.272 20.7426 144.793 23.9109 150.073 23.9109C155.424 23.9109 158.874 20.414 158.874 15.462C158.874 10.158 155.354 6.98973 150.073 6.96626C144.722 6.96626 141.272 10.4631 141.272 15.4151ZM144.37 15.4386C144.37 12.0121 146.529 9.68867 150.05 9.6652C153.805 9.68867 155.776 12.2233 155.776 15.4386C155.776 18.8885 153.594 21.212 150.097 21.212C146.342 21.1885 144.37 18.6538 144.37 15.4386Z" fill="#333F48"/>
<path d="M159.566 20.9538V26.7037H162.312V23.6527H173.788V26.7037H176.534V20.9538H174.633V7.22442H163.086L163.039 10.6274C162.969 15.6263 162.288 18.7242 161.35 20.9538H159.566ZM165.762 10.6978V9.92336H171.699V20.9538H164.213C165.152 18.3722 165.668 14.9927 165.762 10.6978Z" fill="#333F48"/>
<path d="M190.941 23.6527H193.875V7.22442H179.254V23.6527H182.187V9.92336H190.941V23.6527Z" fill="#333F48"/>
<path d="M201.073 7.22442H198.139V23.6527H201.284L210.296 11.1907V23.6527H213.229V7.22442H210.038L201.073 19.4987V7.22442Z" fill="#333F48"/>
<path d="M231.071 18.2314C230.108 19.8977 228.09 21.212 225.227 21.212C221.448 21.1415 219.5 18.6304 219.5 15.4386C219.5 11.9886 221.706 9.6652 225.297 9.6652C227.761 9.6652 229.756 11.0733 230.742 12.5284V8.44481C229.78 7.76421 227.879 6.96626 225.297 6.96626C219.852 6.96626 216.332 10.4631 216.332 15.4151C216.332 20.7191 219.899 23.8874 225.25 23.9109C228.09 23.9109 230.249 22.8313 231.071 21.8456V18.2314Z" fill="#333F48"/>
<path d="M237.032 7.22442H234.099V23.6527H239.285C244.073 23.6527 246.655 21.7283 246.655 17.9028C246.655 14.1947 244.472 12.3407 239.262 12.3407H237.032V7.22442ZM239.52 15.0396C242.383 15.0396 243.627 15.8141 243.627 17.8324C243.627 20.062 242.219 20.9538 239.473 20.9538H237.032V15.0396H239.52Z" fill="#333F48"/>
<path d="M234.671 33.9356L236.896 32.293H229.449V42.1579H236.896V40.5152H231.574V37.9901H236.113V36.3474H231.574V33.9356H234.671Z" fill="#2A9E3E"/>
<path d="M223.828 36.1386H221.242V33.9356H225.371L227.595 32.293H219.117V42.1579H223.554C226.043 42.1579 227.47 41.0284 227.47 39.0587C227.47 37.1757 226.176 36.1386 223.828 36.1386ZM223.458 40.5152H221.242V37.7807H223.458C224.807 37.7807 225.436 38.238 225.436 39.1477C225.435 40.0775 224.77 40.5152 223.458 40.5152Z" fill="#2A9E3E"/>
<path d="M242.929 32.293H238.874V42.1579H240.999V39.3636H242.929C245.516 39.3636 247.123 38.0008 247.123 35.8234C247.123 33.6459 245.516 32.293 242.929 32.293ZM242.883 37.721H240.999V33.9356H242.883C244.245 33.9356 244.994 34.6077 244.994 35.8283C244.994 37.0488 244.245 37.721 242.883 37.721Z" fill="#2A9E3E"/>
<path d="M215.469 39.9901C214.924 40.2912 214.289 40.4506 213.634 40.4506C211.718 40.4506 210.328 39.0809 210.328 37.1937C210.328 35.3064 211.719 33.9366 213.634 33.9366C214.359 33.9366 215.009 34.1406 215.567 34.5426L217.091 33.4175L216.991 33.3291C216.101 32.5457 214.911 32.1318 213.552 32.1318C212.077 32.1318 210.738 32.6298 209.783 33.5347C208.822 34.4444 208.292 35.7246 208.292 37.1394C208.292 38.5607 208.82 39.8599 209.778 40.7973C210.738 41.738 212.074 42.256 213.538 42.256C215.071 42.256 216.408 41.7212 217.315 40.7474C216.615 40.231 215.94 39.7325 215.94 39.7325L215.469 39.9901Z" fill="#2A9E3E"/>
<path d="M201.834 32.1499C202.226 32.656 202.56 33.2088 202.827 33.7989L195.281 39.3688L192.129 37.3894V35.0082L195.281 36.9876L201.834 32.1499Z" fill="#2A9E3E"/>
<path d="M188.913 37.2211C188.913 37.1141 188.915 37.0081 188.921 36.9022L187.01 36.8066C187.004 36.9439 187 37.0822 187 37.2211C187 39.5118 187.927 41.5856 189.426 43.0864L190.78 41.7295C189.627 40.5745 188.913 38.9799 188.913 37.2211Z" fill="url(#paint0_linear_43_1643)"/>
<path d="M195.28 30.8423C195.387 30.8423 195.493 30.8462 195.599 30.8511L195.694 28.9365C195.557 28.9299 195.419 28.926 195.28 28.926C192.993 28.926 190.923 29.8543 189.424 31.3556L190.779 32.7125C191.932 31.5576 193.525 30.8423 195.28 30.8423Z" fill="url(#paint1_linear_43_1643)"/>
<path d="M195.281 43.6003C195.174 43.6003 195.068 43.5975 194.962 43.5921L194.867 45.5056C195.004 45.5122 195.142 45.516 195.281 45.516C197.568 45.516 199.638 44.5878 201.136 43.0865L199.782 41.7295C198.629 42.8845 197.036 43.6003 195.281 43.6003Z" fill="url(#paint2_linear_43_1643)"/>
<path d="M198.871 31.9556L200.482 30.7666C199.06 29.616 197.251 28.926 195.281 28.926V30.8423C196.612 30.8423 197.849 31.2535 198.871 31.9556Z" fill="url(#paint3_linear_43_1643)"/>
<path d="M203.562 37.221C203.562 36.7138 203.516 36.217 203.429 35.7351L201.646 37.0509C201.648 37.1074 201.649 37.164 201.649 37.221C201.649 39.094 200.839 40.7808 199.551 41.9489L200.836 43.3718C202.51 41.8545 203.562 39.661 203.562 37.221Z" fill="#2A9E3E"/>
<path d="M195.281 43.6003C193.412 43.6003 191.727 42.789 190.561 41.499L189.141 42.7862C190.656 44.4626 192.846 45.5161 195.281 45.5161V43.6003Z" fill="url(#paint4_linear_43_1643)"/>
<path d="M191.011 32.4931L189.725 31.0703C188.052 32.5881 187 34.7816 187 37.2211H188.913C188.913 35.3481 189.723 33.6613 191.011 32.4931Z" fill="url(#paint5_linear_43_1643)"/>
<defs>
<linearGradient id="paint0_linear_43_1643" x1="189.812" y1="42.8468" x2="187.716" y2="36.7968" gradientUnits="userSpaceOnUse">
<stop offset="0.1444" stop-color="#F2E913"/>
<stop offset="0.3037" stop-color="#E7E518"/>
<stop offset="0.5823" stop-color="#CADB26"/>
<stop offset="0.891" stop-color="#A3CD39"/>
</linearGradient>
<linearGradient id="paint1_linear_43_1643" x1="189.971" y1="31.695" x2="195.357" y2="29.6457" gradientUnits="userSpaceOnUse">
<stop offset="0.0592" stop-color="#0FA8E0"/>
<stop offset="0.5385" stop-color="#0099F9"/>
<stop offset="0.9234" stop-color="#0291EB"/>
</linearGradient>
<linearGradient id="paint2_linear_43_1643" x1="194.741" y1="44.3602" x2="200.83" y2="42.9862" gradientUnits="userSpaceOnUse">
<stop offset="0.1226" stop-color="#A3CD39"/>
<stop offset="0.2846" stop-color="#86C339"/>
<stop offset="0.8693" stop-color="#21A038"/>
</linearGradient>
<linearGradient id="paint3_linear_43_1643" x1="194.881" y1="29.5684" x2="200.088" y2="31.1723" gradientUnits="userSpaceOnUse">
<stop offset="0.0566" stop-color="#0291EB"/>
<stop offset="0.79" stop-color="#0C8ACB"/>
</linearGradient>
<linearGradient id="paint4_linear_43_1643" x1="189.62" y1="42.5533" x2="195.289" y2="44.6677" gradientUnits="userSpaceOnUse">
<stop offset="0.1324" stop-color="#F2E913"/>
<stop offset="0.2977" stop-color="#EBE716"/>
<stop offset="0.5306" stop-color="#D9E01F"/>
<stop offset="0.8023" stop-color="#BBD62D"/>
<stop offset="0.9829" stop-color="#A3CD39"/>
</linearGradient>
<linearGradient id="paint5_linear_43_1643" x1="187.712" y1="37.4535" x2="189.993" y2="31.5299" gradientUnits="userSpaceOnUse">
<stop offset="0.0698" stop-color="#A3CD39"/>
<stop offset="0.2599" stop-color="#81C55F"/>
<stop offset="0.9216" stop-color="#0FA8E0"/>
</linearGradient>
</defs>
</svg>
