<svg width="248" height="49" viewBox="0 0 248 49" fill="none" xmlns="http://www.w3.org/2000/svg">
<path d="M0 16.0401C0 21.3676 3.52035 24.5359 8.80088 24.5359C14.1518 24.5359 17.6018 21.039 17.6018 16.087C17.6018 10.783 14.0814 7.61473 8.80088 7.59126C3.44994 7.59126 0 11.0881 0 16.0401ZM3.09791 16.0636C3.09791 12.6371 5.25706 10.3137 8.77741 10.2902C12.5325 10.3137 14.5038 12.8483 14.5038 16.0636C14.5038 19.5135 12.3212 21.837 8.82435 21.837C5.0693 21.8135 3.09791 19.2788 3.09791 16.0636Z" fill="#333F48"/>
<path d="M32.5997 24.2777H35.5334V7.84942H32.5997V14.4677H23.6111V7.84942H20.6775V24.2777H23.6111V17.1666H32.5997V24.2777Z" fill="#333F48"/>
<path d="M50.7279 24.2777H53.6615V7.84942H41.7862L41.6219 11.2524C41.1525 20.7104 39.8148 21.4145 38.6883 21.4145C38.4771 21.4145 38.2189 21.391 37.9842 21.2972V24.2543C38.3363 24.4185 38.7822 24.489 39.2985 24.489C41.6923 24.489 43.7811 23.2686 44.4382 11.3228L44.4851 10.5484H50.7279V24.2777Z" fill="#333F48"/>
<path d="M65.9701 7.84942H62.6375L55.9723 24.2777H58.9529L60.5018 20.3819H68.0354L69.6078 24.2777H72.7292L65.9701 7.84942ZM61.5579 17.6829L64.2569 10.9473L66.9558 17.6829H61.5579Z" fill="#333F48"/>
<path d="M77.9749 7.84942H75.0412V24.2777H78.1861L87.1982 11.8157V24.2777H90.1318V7.84942H86.94L77.9749 20.1237V7.84942ZM84.687 3.625C84.5696 4.44642 84.0533 4.9862 82.6687 4.9862C81.3309 4.9862 80.6973 4.46988 80.5564 3.625H77.7871C78.0687 6.39434 80.0871 7.05148 82.7156 7.05148C85.3911 7.05148 87.1512 5.92496 87.4094 3.625H84.687Z" fill="#333F48"/>
<path d="M106.33 24.2777H109.264V7.84942H106.33V14.4677H97.3414V7.84942H94.4077V24.2777H97.3414V17.1666H106.33V24.2777Z" fill="#333F48"/>
<path d="M113.263 18.6217H119.553V16.087H113.263V18.6217Z" fill="#333F48"/>
<path d="M135.248 24.2777H138.182V7.84942H123.561V24.2777H126.494V10.5484H135.248V24.2777Z" fill="#333F48"/>
<path d="M141.272 16.0401C141.272 21.3676 144.793 24.5359 150.073 24.5359C155.424 24.5359 158.874 21.039 158.874 16.087C158.874 10.783 155.354 7.61473 150.073 7.59126C144.722 7.59126 141.272 11.0881 141.272 16.0401ZM144.37 16.0636C144.37 12.6371 146.529 10.3137 150.05 10.2902C153.805 10.3137 155.776 12.8483 155.776 16.0636C155.776 19.5135 153.594 21.837 150.097 21.837C146.342 21.8135 144.37 19.2788 144.37 16.0636Z" fill="#333F48"/>
<path d="M159.566 21.5788V27.3287H162.312V24.2777H173.788V27.3287H176.534V21.5788H174.633V7.84942H163.086L163.039 11.2524C162.969 16.2513 162.288 19.3492 161.35 21.5788H159.566ZM165.762 11.3228V10.5484H171.699V21.5788H164.213C165.152 18.9972 165.668 15.6177 165.762 11.3228Z" fill="#333F48"/>
<path d="M190.941 24.2777H193.875V7.84942H179.254V24.2777H182.187V10.5484H190.941V24.2777Z" fill="#333F48"/>
<path d="M201.073 7.84942H198.139V24.2777H201.284L210.296 11.8157V24.2777H213.229V7.84942H210.038L201.073 20.1237V7.84942Z" fill="#333F48"/>
<path d="M231.071 18.8564C230.108 20.5227 228.09 21.837 225.227 21.837C221.448 21.7665 219.5 19.2554 219.5 16.0636C219.5 12.6136 221.706 10.2902 225.297 10.2902C227.761 10.2902 229.756 11.6983 230.742 13.1534V9.06981C229.78 8.38921 227.879 7.59126 225.297 7.59126C219.852 7.59126 216.332 11.0881 216.332 16.0401C216.332 21.3441 219.899 24.5124 225.25 24.5359C228.09 24.5359 230.249 23.4563 231.071 22.4706V18.8564Z" fill="#333F48"/>
<path d="M237.032 7.84942H234.099V24.2777H239.285C244.073 24.2777 246.655 22.3533 246.655 18.5278C246.655 14.8197 244.472 12.9657 239.262 12.9657H237.032V7.84942ZM239.52 15.6646C242.383 15.6646 243.627 16.4391 243.627 18.4574C243.627 20.687 242.219 21.5788 239.473 21.5788H237.032V15.6646H239.52Z" fill="#333F48"/>
<path d="M234.671 34.5606L236.896 32.918H229.449V42.7829H236.896V41.1402H231.574V38.6151H236.113V36.9724H231.574V34.5606H234.671Z" fill="#2A9E3E"/>
<path d="M223.828 36.7636H221.242V34.5606H225.371L227.595 32.918H219.117V42.7829H223.554C226.043 42.7829 227.47 41.6534 227.47 39.6837C227.47 37.8007 226.176 36.7636 223.828 36.7636ZM223.458 41.1402H221.242V38.4057H223.458C224.807 38.4057 225.436 38.863 225.436 39.7727C225.435 40.7025 224.77 41.1402 223.458 41.1402Z" fill="#2A9E3E"/>
<path d="M242.929 32.918H238.874V42.7829H240.999V39.9886H242.929C245.516 39.9886 247.123 38.6258 247.123 36.4484C247.123 34.2709 245.516 32.918 242.929 32.918ZM242.883 38.346H240.999V34.5606H242.883C244.245 34.5606 244.994 35.2327 244.994 36.4533C244.994 37.6738 244.245 38.346 242.883 38.346Z" fill="#2A9E3E"/>
<path d="M215.469 40.6151C214.924 40.9162 214.289 41.0756 213.634 41.0756C211.718 41.0756 210.328 39.7059 210.328 37.8187C210.328 35.9314 211.719 34.5616 213.634 34.5616C214.359 34.5616 215.009 34.7656 215.567 35.1676L217.091 34.0425L216.991 33.9541C216.101 33.1707 214.911 32.7568 213.552 32.7568C212.077 32.7568 210.738 33.2548 209.783 34.1597C208.822 35.0694 208.292 36.3496 208.292 37.7644C208.292 39.1857 208.82 40.4849 209.778 41.4223C210.738 42.363 212.074 42.881 213.538 42.881C215.071 42.881 216.408 42.3462 217.315 41.3724C216.615 40.856 215.94 40.3575 215.94 40.3575L215.469 40.6151Z" fill="#2A9E3E"/>
<path d="M201.834 32.7749C202.226 33.281 202.56 33.8338 202.827 34.4239L195.281 39.9938L192.129 38.0144V35.6332L195.281 37.6126L201.834 32.7749Z" fill="#2A9E3E"/>
<path d="M188.913 37.8461C188.913 37.7391 188.915 37.6331 188.921 37.5272L187.01 37.4316C187.004 37.5689 187 37.7072 187 37.8461C187 40.1368 187.927 42.2106 189.426 43.7114L190.78 42.3545C189.627 41.1995 188.913 39.6049 188.913 37.8461Z" fill="url(#paint0_linear_43_2166)"/>
<path d="M195.28 31.4673C195.387 31.4673 195.493 31.4712 195.599 31.4761L195.694 29.5615C195.557 29.5549 195.419 29.551 195.28 29.551C192.993 29.551 190.923 30.4793 189.424 31.9806L190.779 33.3375C191.932 32.1826 193.525 31.4673 195.28 31.4673Z" fill="url(#paint1_linear_43_2166)"/>
<path d="M195.281 44.2253C195.174 44.2253 195.068 44.2225 194.962 44.2171L194.867 46.1306C195.004 46.1372 195.142 46.141 195.281 46.141C197.568 46.141 199.638 45.2128 201.136 43.7115L199.782 42.3545C198.629 43.5095 197.036 44.2253 195.281 44.2253Z" fill="url(#paint2_linear_43_2166)"/>
<path d="M198.871 32.5806L200.482 31.3916C199.061 30.241 197.251 29.551 195.281 29.551V31.4673C196.612 31.4673 197.849 31.8785 198.871 32.5806Z" fill="url(#paint3_linear_43_2166)"/>
<path d="M203.562 37.846C203.562 37.3388 203.516 36.842 203.429 36.3601L201.646 37.6759C201.648 37.7324 201.649 37.789 201.649 37.846C201.649 39.719 200.839 41.4058 199.551 42.5739L200.836 43.9968C202.51 42.4795 203.562 40.286 203.562 37.846Z" fill="#2A9E3E"/>
<path d="M195.281 44.2253C193.412 44.2253 191.727 43.414 190.561 42.124L189.141 43.4112C190.656 45.0876 192.846 46.1411 195.281 46.1411V44.2253Z" fill="url(#paint4_linear_43_2166)"/>
<path d="M191.011 33.1181L189.725 31.6953C188.052 33.2131 187 35.4066 187 37.8461H188.913C188.913 35.9731 189.723 34.2863 191.011 33.1181Z" fill="url(#paint5_linear_43_2166)"/>
<defs>
<linearGradient id="paint0_linear_43_2166" x1="189.812" y1="43.4718" x2="187.716" y2="37.4218" gradientUnits="userSpaceOnUse">
<stop offset="0.1444" stop-color="#F2E913"/>
<stop offset="0.3037" stop-color="#E7E518"/>
<stop offset="0.5823" stop-color="#CADB26"/>
<stop offset="0.891" stop-color="#A3CD39"/>
</linearGradient>
<linearGradient id="paint1_linear_43_2166" x1="189.971" y1="32.32" x2="195.357" y2="30.2707" gradientUnits="userSpaceOnUse">
<stop offset="0.0592" stop-color="#0FA8E0"/>
<stop offset="0.5385" stop-color="#0099F9"/>
<stop offset="0.9234" stop-color="#0291EB"/>
</linearGradient>
<linearGradient id="paint2_linear_43_2166" x1="194.741" y1="44.9852" x2="200.83" y2="43.6112" gradientUnits="userSpaceOnUse">
<stop offset="0.1226" stop-color="#A3CD39"/>
<stop offset="0.2846" stop-color="#86C339"/>
<stop offset="0.8693" stop-color="#21A038"/>
</linearGradient>
<linearGradient id="paint3_linear_43_2166" x1="194.881" y1="30.1934" x2="200.088" y2="31.7973" gradientUnits="userSpaceOnUse">
<stop offset="0.0566" stop-color="#0291EB"/>
<stop offset="0.79" stop-color="#0C8ACB"/>
</linearGradient>
<linearGradient id="paint4_linear_43_2166" x1="189.62" y1="43.1783" x2="195.289" y2="45.2927" gradientUnits="userSpaceOnUse">
<stop offset="0.1324" stop-color="#F2E913"/>
<stop offset="0.2977" stop-color="#EBE716"/>
<stop offset="0.5306" stop-color="#D9E01F"/>
<stop offset="0.8023" stop-color="#BBD62D"/>
<stop offset="0.9829" stop-color="#A3CD39"/>
</linearGradient>
<linearGradient id="paint5_linear_43_2166" x1="187.712" y1="38.0785" x2="189.993" y2="32.1549" gradientUnits="userSpaceOnUse">
<stop offset="0.0698" stop-color="#A3CD39"/>
<stop offset="0.2599" stop-color="#81C55F"/>
<stop offset="0.9216" stop-color="#0FA8E0"/>
</linearGradient>
</defs>
</svg>
