<svg width="206" height="41" viewBox="0 0 206 41" fill="none" xmlns="http://www.w3.org/2000/svg">
<path d="M0 13.8293C0 18.2689 2.93363 20.9091 7.33406 20.9091C11.7932 20.9091 14.6681 17.9951 14.6681 13.8684C14.6681 9.44844 11.7345 6.80818 7.33406 6.78862C2.87495 6.78862 0 9.70269 0 13.8293ZM2.58159 13.8489C2.58159 10.9935 4.38088 9.05729 7.31451 9.03773C10.4437 9.05729 12.0865 11.1695 12.0865 13.8489C12.0865 16.7238 10.2677 18.66 7.35362 18.66C4.22442 18.6405 2.58159 16.5283 2.58159 13.8489Z" fill="#333F48"/>
<path d="M27.1664 20.694H29.6111V7.00375H27.1664V12.519H19.6759V7.00375H17.2312V20.694H19.6759V14.7681H27.1664V20.694Z" fill="#333F48"/>
<path d="M42.2732 20.694H44.7179V7.00375H34.8218L34.6849 9.83959C34.2938 17.7213 33.179 18.308 32.2402 18.308C32.0642 18.308 31.8491 18.2884 31.6535 18.2102V20.6744C31.9469 20.8114 32.3185 20.87 32.7487 20.87C34.7436 20.87 36.4842 19.853 37.0318 9.89826L37.0709 9.25286H42.2732V20.694Z" fill="#333F48"/>
<path d="M54.9751 7.00375H52.1979L46.6436 20.694H49.1274L50.4182 17.4475H56.6961L58.0065 20.694H60.6076L54.9751 7.00375ZM51.2983 15.1983L53.5474 9.58534L55.7965 15.1983H51.2983Z" fill="#333F48"/>
<path d="M64.979 7.00375H62.5344V20.694H65.1551L72.6651 10.309V20.694H75.1098V7.00375H72.45L64.979 17.2323V7.00375ZM70.5725 3.4834C70.4747 4.16791 70.0444 4.61773 68.8905 4.61773C67.7758 4.61773 67.2477 4.18747 67.1304 3.4834H64.8226C65.0573 5.79118 66.7392 6.3388 68.9297 6.3388C71.1592 6.3388 72.626 5.40003 72.8412 3.4834H70.5725Z" fill="#333F48"/>
<path d="M88.6083 20.694H91.053V7.00375H88.6083V12.519H81.1178V7.00375H78.6731V20.694H81.1178V14.7681H88.6083V20.694Z" fill="#333F48"/>
<path d="M94.3862 15.9806H99.6276V13.8684H94.3862V15.9806Z" fill="#333F48"/>
<path d="M112.707 20.694H115.152V7.00375H102.967V20.694H105.412V9.25286H112.707V20.694Z" fill="#333F48"/>
<path d="M117.727 13.8293C117.727 18.2689 120.661 20.9091 125.061 20.9091C129.52 20.9091 132.395 17.9951 132.395 13.8684C132.395 9.44844 129.462 6.80818 125.061 6.78862C120.602 6.78862 117.727 9.70269 117.727 13.8293ZM120.309 13.8489C120.309 10.9935 122.108 9.05729 125.042 9.03773C128.171 9.05729 129.814 11.1695 129.814 13.8489C129.814 16.7238 127.995 18.66 125.081 18.66C121.951 18.6405 120.309 16.5283 120.309 13.8489Z" fill="#333F48"/>
<path d="M132.972 18.4449V23.2365H135.26V20.694H144.823V23.2365H147.112V18.4449H145.528V7.00375H135.905L135.866 9.83959C135.807 14.0053 135.24 16.5869 134.458 18.4449H132.972ZM138.135 9.89826V9.25286H143.083V18.4449H136.844C137.626 16.2936 138.057 13.4773 138.135 9.89826Z" fill="#333F48"/>
<path d="M159.118 20.694H161.562V7.00375H149.378V20.694H151.823V9.25286H159.118V20.694Z" fill="#333F48"/>
<path d="M167.56 7.00375H165.116V20.694H167.736L175.247 10.309V20.694H177.691V7.00375H175.031L167.56 17.2323V7.00375Z" fill="#333F48"/>
<path d="M192.559 16.1762C191.757 17.5648 190.075 18.66 187.689 18.66C184.54 18.6014 182.917 16.5087 182.917 13.8489C182.917 10.9739 184.755 9.03773 187.748 9.03773C189.801 9.03773 191.464 10.2112 192.285 11.4237V8.02074C191.483 7.45357 189.899 6.78862 187.748 6.78862C183.21 6.78862 180.277 9.70269 180.277 13.8293C180.277 18.2493 183.249 20.8896 187.708 20.9091C190.075 20.9091 191.874 20.0095 192.559 19.1881V16.1762Z" fill="#333F48"/>
<path d="M197.527 7.00375H195.082V20.694H199.404C203.394 20.694 205.546 19.0903 205.546 15.9024C205.546 12.8123 203.727 11.2673 199.385 11.2673H197.527V7.00375ZM199.6 13.5164C201.986 13.5164 203.023 14.1618 203.023 15.8437C203.023 17.7017 201.849 18.4449 199.561 18.4449H197.527V13.5164H199.6Z" fill="#333F48"/>
<path d="M195.559 29.2629L197.413 27.894H191.207V36.1148H197.413V34.7459H192.978V32.6416H196.761V31.2728H192.978V29.2629H195.559Z" fill="#2A9E3E"/>
<path d="M186.523 31.0987H184.368V29.2629H187.809L189.663 27.894H182.597V36.1148H186.295C188.369 36.1148 189.559 35.1736 189.559 33.5322C189.559 31.963 188.48 31.0987 186.523 31.0987ZM186.215 34.7459H184.368V32.4671H186.215C187.339 32.4671 187.863 32.8482 187.863 33.6063C187.862 34.3811 187.308 34.7459 186.215 34.7459Z" fill="#2A9E3E"/>
<path d="M202.44 27.894H199.062V36.1148H200.833V33.7862H202.44C204.596 33.7862 205.936 32.6506 205.936 30.8361C205.936 29.0215 204.597 27.894 202.44 27.894ZM202.402 32.4174H200.833V29.2629H202.402C203.537 29.2629 204.162 29.823 204.162 30.8401C204.162 31.8572 203.537 32.4174 202.402 32.4174Z" fill="#2A9E3E"/>
<path d="M179.557 34.3083C179.103 34.5592 178.574 34.6921 178.028 34.6921C176.432 34.6921 175.273 33.5507 175.273 31.978C175.273 30.4052 176.432 29.2638 178.028 29.2638C178.632 29.2638 179.174 29.4337 179.639 29.7687L180.909 28.8311L180.825 28.7575C180.084 28.1047 179.093 27.7598 177.96 27.7598C176.731 27.7598 175.615 28.1748 174.819 28.9288C174.018 29.6869 173.577 30.7538 173.577 31.9327C173.577 33.1171 174.017 34.1998 174.814 34.981C175.615 35.7649 176.728 36.1966 177.948 36.1966C179.225 36.1966 180.34 35.7509 181.096 34.9394C180.513 34.509 179.95 34.0936 179.95 34.0936L179.557 34.3083Z" fill="#2A9E3E"/>
<path d="M168.195 27.7749C168.521 28.1967 168.8 28.6573 169.022 29.1491L162.734 33.7907L160.107 32.1412V30.1568L162.734 31.8063L168.195 27.7749Z" fill="#2A9E3E"/>
<path d="M157.427 32.0009C157.427 31.9117 157.429 31.8234 157.434 31.7351L155.842 31.6555C155.836 31.7699 155.833 31.8852 155.833 32.0009C155.833 33.9098 156.606 35.638 157.855 36.8886L158.984 35.7579C158.022 34.7954 157.427 33.4665 157.427 32.0009Z" fill="url(#paint0_linear_43_2538)"/>
<path d="M162.733 26.6853C162.822 26.6853 162.911 26.6885 162.999 26.6926L163.078 25.0971C162.964 25.0916 162.849 25.0884 162.733 25.0884C160.828 25.0884 159.102 25.8619 157.854 27.113L158.982 28.2438C159.943 27.2813 161.271 26.6853 162.733 26.6853Z" fill="url(#paint1_linear_43_2538)"/>
<path d="M162.734 37.317C162.645 37.317 162.557 37.3148 162.468 37.3102L162.389 38.9048C162.503 38.9103 162.618 38.9135 162.734 38.9135C164.639 38.9135 166.365 38.1399 167.614 36.8889L166.485 35.7581C165.524 36.7206 164.197 37.317 162.734 37.317Z" fill="url(#paint2_linear_43_2538)"/>
<path d="M165.726 27.613L167.068 26.6222C165.884 25.6634 164.376 25.0884 162.734 25.0884V26.6853C163.844 26.6853 164.874 27.0279 165.726 27.613Z" fill="url(#paint3_linear_43_2538)"/>
<path d="M169.635 32.001C169.635 31.5783 169.597 31.1643 169.524 30.7627L168.039 31.8592C168.04 31.9063 168.041 31.9534 168.041 32.001C168.041 33.5618 167.366 34.9675 166.292 35.9409L167.363 37.1266C168.758 35.8622 169.635 34.0343 169.635 32.001Z" fill="#2A9E3E"/>
<path d="M162.735 37.317C161.176 37.317 159.773 36.6409 158.801 35.5659L157.617 36.6386C158.88 38.0356 160.705 38.9135 162.735 38.9135V37.317Z" fill="url(#paint4_linear_43_2538)"/>
<path d="M159.175 28.0609L158.104 26.8752C156.71 28.1401 155.833 29.968 155.833 32.0009H157.428C157.427 30.4401 158.102 29.0344 159.175 28.0609Z" fill="url(#paint5_linear_43_2538)"/>
<defs>
<linearGradient id="paint0_linear_43_2538" x1="158.177" y1="36.689" x2="156.43" y2="31.6473" gradientUnits="userSpaceOnUse">
<stop offset="0.1444" stop-color="#F2E913"/>
<stop offset="0.3037" stop-color="#E7E518"/>
<stop offset="0.5823" stop-color="#CADB26"/>
<stop offset="0.891" stop-color="#A3CD39"/>
</linearGradient>
<linearGradient id="paint1_linear_43_2538" x1="158.309" y1="27.3958" x2="162.797" y2="25.6881" gradientUnits="userSpaceOnUse">
<stop offset="0.0592" stop-color="#0FA8E0"/>
<stop offset="0.5385" stop-color="#0099F9"/>
<stop offset="0.9234" stop-color="#0291EB"/>
</linearGradient>
<linearGradient id="paint2_linear_43_2538" x1="162.284" y1="37.9503" x2="167.358" y2="36.8053" gradientUnits="userSpaceOnUse">
<stop offset="0.1226" stop-color="#A3CD39"/>
<stop offset="0.2846" stop-color="#86C339"/>
<stop offset="0.8693" stop-color="#21A038"/>
</linearGradient>
<linearGradient id="paint3_linear_43_2538" x1="162.401" y1="25.6237" x2="166.74" y2="26.9603" gradientUnits="userSpaceOnUse">
<stop offset="0.0566" stop-color="#0291EB"/>
<stop offset="0.79" stop-color="#0C8ACB"/>
</linearGradient>
<linearGradient id="paint4_linear_43_2538" x1="158.017" y1="36.4445" x2="162.741" y2="38.2065" gradientUnits="userSpaceOnUse">
<stop offset="0.1324" stop-color="#F2E913"/>
<stop offset="0.2977" stop-color="#EBE716"/>
<stop offset="0.5306" stop-color="#D9E01F"/>
<stop offset="0.8023" stop-color="#BBD62D"/>
<stop offset="0.9829" stop-color="#A3CD39"/>
</linearGradient>
<linearGradient id="paint5_linear_43_2538" x1="156.427" y1="32.1945" x2="158.327" y2="27.2582" gradientUnits="userSpaceOnUse">
<stop offset="0.0698" stop-color="#A3CD39"/>
<stop offset="0.2599" stop-color="#81C55F"/>
<stop offset="0.9216" stop-color="#0FA8E0"/>
</linearGradient>
</defs>
</svg>
