<svg width="24" height="19" viewBox="0 0 24 19" fill="none" xmlns="http://www.w3.org/2000/svg">
<path fill-rule="evenodd" clip-rule="evenodd" d="M21 0.624756C22.6563 0.624756 24 1.96847 24 3.62476V15.6248C24 17.281 22.6563 18.6248 21 18.6248H3C1.34372 18.6248 0 17.281 0 15.6248V3.62476C0 1.96847 1.34372 0.624756 3 0.624756H21ZM21 2.62476H3C2.44828 2.62476 2 3.07304 2 3.62476V4.07581L12 10.4394L22 4.07581V3.62476C22 3.07304 21.5517 2.62476 21 2.62476ZM22 6.44643L12 12.8101L2 6.44643V15.6248C2 16.1765 2.44828 16.6248 3 16.6248H21C21.5517 16.6248 22 16.1765 22 15.6248V6.44643Z" fill="#262626" fill-opacity="0.7"/>
</svg>
