<svg width="21" height="22" viewBox="0 0 21 22" fill="none" xmlns="http://www.w3.org/2000/svg">
<path fill-rule="evenodd" clip-rule="evenodd" d="M12.5362 14.284L12.7938 14.412L12.9446 14.2574L14.0451 13.1505C15.0663 12.1293 16.4906 12.0868 17.5433 13.0221L17.6784 13.1497L19.5061 14.9671L20.1843 15.6545C21.2265 16.6968 21.2699 18.1216 20.3146 19.1957L20.1843 19.3338L19.2837 20.2202L19.074 20.4361C19.0418 20.4701 19.0106 20.5034 18.9802 20.5365L18.8015 20.736C17.9701 21.6514 16.9019 22.0365 15.6174 21.9775C14.2404 21.9101 12.9082 21.4985 11.4166 20.7663C8.61343 19.3982 6.1925 17.5042 4.19287 15.1184C2.60365 13.2639 1.41048 11.3115 0.638108 9.21705C0.161688 7.92685 -0.0569587 6.83441 0.0123066 5.6917C0.0728172 4.76203 0.444692 3.96381 1.12485 3.31217L1.28222 3.16078L2.56297 1.89242L2.81187 1.65535C3.86582 0.71878 5.29109 0.761331 6.3123 1.78254L7.5753 3.04554L8.58401 4.04654L8.92809 4.40599C9.85951 5.44937 9.86006 6.77983 8.94131 7.81161L8.69019 8.07516L8.19422 8.57556L7.55466 9.19761C7.82144 9.73072 8.16927 10.2495 8.62535 10.8103C9.73087 12.1756 10.9435 13.2916 12.2603 14.1319L12.4352 14.2311C12.4667 14.248 12.5001 14.2655 12.5362 14.284ZM4.89809 3.19676C4.6137 2.91237 4.37527 2.91237 4.07595 3.21178L3.83999 3.44063L2.84801 4.42692L2.50701 4.75773C2.18952 5.06191 2.0361 5.39122 2.00836 5.81714C1.95866 6.63732 2.12569 7.47191 2.51443 8.52465C3.2003 10.3845 4.26987 12.1347 5.7186 13.8253C7.54525 16.0047 9.74285 17.724 12.2958 18.9699C13.5651 19.5929 14.6484 19.9277 15.7121 19.9797C16.4294 20.0127 16.9159 19.8373 17.3068 19.4072C17.509 19.1749 17.7013 18.9722 17.9821 18.6931L18.7701 17.9195C19.0766 17.6131 19.0766 17.3752 18.7613 17.0598L18.2662 16.5566L16.2646 14.5642C15.9811 14.2804 15.7437 14.2804 15.4579 14.5661L14.5156 15.512L13.9123 16.1328C13.4659 16.5791 12.8969 16.6929 12.321 16.4066L11.6867 16.0958L11.4413 15.967L11.2084 15.8328C9.67721 14.8561 8.30638 13.5945 7.07235 12.0706C6.39615 11.2391 5.89785 10.4513 5.51853 9.55053C5.31408 9.00844 5.42563 8.48287 5.84273 8.06898L6.57303 7.3642L7.02805 6.91379C7.07406 6.8674 7.11919 6.82157 7.1641 6.77566L7.45576 6.47211C7.68347 6.21255 7.68235 6.01694 7.44217 5.7451L7.157 5.44788L4.89809 3.19676Z" fill="#262626" fill-opacity="0.7"/>
</svg>
