<svg width="21" height="22" viewBox="0 0 21 22" fill="none" xmlns="http://www.w3.org/2000/svg">
<path fill-rule="evenodd" clip-rule="evenodd" d="M12.5362 14.2838L12.7938 14.4117L12.9446 14.2571L14.0451 13.1503C15.0663 12.1291 16.4906 12.0865 17.5433 13.0219L17.6784 13.1494L19.5061 14.9669L20.1843 15.6543C21.2265 16.6965 21.2699 18.1214 20.3146 19.1955L20.1843 19.3335L19.2837 20.22L19.074 20.4359C19.0418 20.4699 19.0106 20.5032 18.9802 20.5363L18.8015 20.7357C17.9701 21.6511 16.9019 22.0362 15.6174 21.9772C14.2404 21.9099 12.9082 21.4982 11.4166 20.7661C8.61343 19.398 6.1925 17.504 4.19287 15.1181C2.60365 13.2637 1.41048 11.3112 0.638108 9.2168C0.161688 7.92661 -0.0569587 6.83417 0.0123066 5.69145C0.0728172 4.76179 0.444692 3.96357 1.12485 3.31192L1.28222 3.16054L2.56297 1.89218L2.81187 1.65511C3.86582 0.718536 5.29109 0.761086 6.3123 1.7823L7.5753 3.0453L8.58401 4.04629L8.92809 4.40574C9.85951 5.44912 9.86006 6.77959 8.94131 7.81137L8.69019 8.07491L8.19422 8.57532L7.55466 9.19736C7.82144 9.73048 8.16927 10.2493 8.62535 10.8101C9.73087 12.1753 10.9435 13.2914 12.2603 14.1317L12.4352 14.2309C12.4667 14.2478 12.5001 14.2653 12.5362 14.2838ZM4.89809 3.19651C4.6137 2.91212 4.37527 2.91212 4.07595 3.21154L3.83999 3.44039L2.84801 4.42668L2.50701 4.75748C2.18952 5.06166 2.0361 5.39098 2.00836 5.8169C1.95866 6.63708 2.12569 7.47167 2.51443 8.5244C3.2003 10.3842 4.26987 12.1344 5.7186 13.825C7.54525 16.0044 9.74285 17.7237 12.2958 18.9697C13.5651 19.5927 14.6484 19.9274 15.7121 19.9795C16.4294 20.0124 16.9159 19.837 17.3068 19.4069C17.509 19.1746 17.7013 18.972 17.9821 18.6929L18.7701 17.9193C19.0766 17.6128 19.0766 17.375 18.7613 17.0596L18.2662 16.5564L16.2646 14.564C15.9811 14.2801 15.7437 14.2801 15.4579 14.5659L14.5156 15.5117L13.9123 16.1325C13.4659 16.5789 12.8969 16.6927 12.321 16.4063L11.6867 16.0956L11.4413 15.9667L11.2084 15.8325C9.67721 14.8559 8.30638 13.5943 7.07235 12.0703C6.39615 11.2388 5.89785 10.4511 5.51853 9.55028C5.31408 9.00819 5.42563 8.48262 5.84273 8.06874L6.57303 7.36396L7.02805 6.91355C7.07406 6.86715 7.11919 6.82133 7.1641 6.77542L7.45576 6.47186C7.68347 6.2123 7.68235 6.0167 7.44217 5.74486L7.157 5.44763L4.89809 3.19651Z" fill="#262626" fill-opacity="0.7"/>
</svg>
