<svg width="24" height="18" viewBox="0 0 24 18" fill="none" xmlns="http://www.w3.org/2000/svg">
<path fill-rule="evenodd" clip-rule="evenodd" d="M21 0C22.6563 0 24 1.34372 24 3V15C24 16.6563 22.6563 18 21 18H3C1.34372 18 0 16.6563 0 15V3C0 1.34372 1.34372 0 3 0H21ZM21 2H3C2.44828 2 2 2.44828 2 3V3.45105L12 9.81469L22 3.45105V3C22 2.44828 21.5517 2 21 2ZM22 5.82167L12 12.1853L2 5.82167V15C2 15.5517 2.44828 16 3 16H21C21.5517 16 22 15.5517 22 15V5.82167Z" fill="#262626" fill-opacity="0.7"/>
</svg>
