<svg width="24" height="19" viewBox="0 0 24 19" fill="none" xmlns="http://www.w3.org/2000/svg">
<path fill-rule="evenodd" clip-rule="evenodd" d="M21 0.983154C22.6563 0.983154 24 2.32687 24 3.98315V15.9832C24 17.6394 22.6563 18.9832 21 18.9832H3C1.34372 18.9832 0 17.6394 0 15.9832V3.98315C0 2.32687 1.34372 0.983154 3 0.983154H21ZM21 2.98315H3C2.44828 2.98315 2 3.43144 2 3.98315V4.43421L12 10.7978L22 4.43421V3.98315C22 3.43144 21.5517 2.98315 21 2.98315ZM22 6.80483L12 13.1685L2 6.80483V15.9832C2 16.5349 2.44828 16.9832 3 16.9832H21C21.5517 16.9832 22 16.5349 22 15.9832V6.80483Z" fill="#262626" fill-opacity="0.7"/>
</svg>
