<svg width="24" height="19" viewBox="0 0 24 19" fill="none" xmlns="http://www.w3.org/2000/svg">
<path fill-rule="evenodd" clip-rule="evenodd" d="M21 0.983398C22.6563 0.983398 24 2.32711 24 3.9834V15.9834C24 17.6397 22.6563 18.9834 21 18.9834H3C1.34372 18.9834 0 17.6397 0 15.9834V3.9834C0 2.32711 1.34372 0.983398 3 0.983398H21ZM21 2.9834H3C2.44828 2.9834 2 3.43168 2 3.9834V4.43445L12 10.7981L22 4.43445V3.9834C22 3.43168 21.5517 2.9834 21 2.9834ZM22 6.80507L12 13.1687L2 6.80507V15.9834C2 16.5351 2.44828 16.9834 3 16.9834H21C21.5517 16.9834 22 16.5351 22 15.9834V6.80507Z" fill="#262626" fill-opacity="0.7"/>
</svg>
