<svg width="21" height="22" viewBox="0 0 21 22" fill="none" xmlns="http://www.w3.org/2000/svg">
<path fill-rule="evenodd" clip-rule="evenodd" d="M12.5362 13.9253L12.7938 14.0533L12.9446 13.8987L14.0451 12.7918C15.0663 11.7706 16.4906 11.7281 17.5433 12.6634L17.6784 12.791L19.5061 14.6084L20.1843 15.2958C21.2265 16.338 21.2699 17.7629 20.3146 18.837L20.1843 18.9751L19.2837 19.8615L19.074 20.0774C19.0418 20.1114 19.0106 20.1447 18.9802 20.1778L18.8015 20.3773C17.9701 21.2927 16.9019 21.6778 15.6174 21.6188C14.2404 21.5514 12.9082 21.1398 11.4166 20.4076C8.61343 19.0395 6.1925 17.1455 4.19287 14.7597C2.60365 12.9052 1.41048 10.9528 0.638108 8.85834C0.161688 7.56815 -0.0569587 6.47571 0.0123066 5.33299C0.0728172 4.40333 0.444692 3.60511 1.12485 2.95346L1.28222 2.80208L2.56297 1.53372L2.81187 1.29665C3.86582 0.360076 5.29109 0.402627 6.3123 1.42384L7.5753 2.68684L8.58401 3.68783L8.92809 4.04728C9.85951 5.09066 9.86006 6.42113 8.94131 7.45291L8.69019 7.71646L8.19422 8.21686L7.55466 8.8389C7.82144 9.37202 8.16927 9.8908 8.62535 10.4516C9.73087 11.8169 10.9435 12.9329 12.2603 13.7732L12.4352 13.8724C12.4667 13.8893 12.5001 13.9068 12.5362 13.9253ZM4.89809 2.83805C4.6137 2.55366 4.37527 2.55366 4.07595 2.85308L3.83999 3.08193L2.84801 4.06822L2.50701 4.39902C2.18952 4.7032 2.0361 5.03252 2.00836 5.45844C1.95866 6.27862 2.12569 7.11321 2.51443 8.16595C3.2003 10.0258 4.26987 11.776 5.7186 13.4666C7.54525 15.646 9.74285 17.3653 12.2958 18.6112C13.5651 19.2342 14.6484 19.569 15.7121 19.621C16.4294 19.654 16.9159 19.4786 17.3068 19.0485C17.509 18.8162 17.7013 18.6135 17.9821 18.3344L18.7701 17.5608C19.0766 17.2544 19.0766 17.0165 18.7613 16.7011L18.2662 16.1979L16.2646 14.2055C15.9811 13.9217 15.7437 13.9217 15.4579 14.2074L14.5156 15.1533L13.9123 15.7741C13.4659 16.2204 12.8969 16.3342 12.321 16.0479L11.6867 15.7371L11.4413 15.6083L11.2084 15.4741C9.67721 14.4974 8.30638 13.2358 7.07235 11.7119C6.39615 10.8804 5.89785 10.0926 5.51853 9.19183C5.31408 8.64973 5.42563 8.12416 5.84273 7.71028L6.57303 7.0055L7.02805 6.55509C7.07406 6.50869 7.11919 6.46287 7.1641 6.41696L7.45576 6.1134C7.68347 5.85384 7.68235 5.65824 7.44217 5.3864L7.157 5.08917L4.89809 2.83805Z" fill="#262626" fill-opacity="0.7"/>
</svg>
