<svg width="32" height="32" viewBox="0 0 32 32" fill="none" xmlns="http://www.w3.org/2000/svg">
<path d="M20.52 6.94669L22.4 10.7067C22.6533 11.2267 23.3333 11.72 23.9067 11.8267L27.3067 12.3867C29.48 12.7467 29.9867 14.32 28.4267 15.8933L25.7733 18.5467C25.3333 18.9867 25.08 19.8533 25.2267 20.48L25.9867 23.76C26.5867 26.3467 25.2 27.36 22.92 26L19.7333 24.1067C19.16 23.76 18.2 23.76 17.6267 24.1067L14.44 26C12.16 27.3467 10.7733 26.3467 11.3733 23.76L12.1334 20.48C12.28 19.8667 12.0267 19 11.5867 18.5467L8.93337 15.8933C7.37337 14.3333 7.88003 12.76 10.0534 12.3867L13.4533 11.8267C14.0267 11.7333 14.7067 11.2267 14.96 10.7067L16.84 6.94669C17.84 4.90669 19.4934 4.90669 20.52 6.94669Z" stroke="#F2A405" stroke-width="1.5" stroke-linecap="round" stroke-linejoin="round"/>
<path d="M10.6667 6.66669H2.66666" stroke="#F2A405" stroke-width="1.5" stroke-linecap="round" stroke-linejoin="round"/>
<path d="M6.66666 25.3333H2.66666" stroke="#F2A405" stroke-width="1.5" stroke-linecap="round" stroke-linejoin="round"/>
<path d="M4 16H2.66666" stroke="#F2A405" stroke-width="1.5" stroke-linecap="round" stroke-linejoin="round"/>
</svg>
