<svg width="54" height="44" viewBox="0 0 54 44" fill="none" xmlns="http://www.w3.org/2000/svg">
<g filter="url(#filter0_i_43_1797)">
<path fill-rule="evenodd" clip-rule="evenodd" d="M21.4569 5.17375C21.0754 7.06281 19.864 9.16795 17.8068 10.905C17.4195 11.232 16.8447 11.1779 16.5231 10.7842C16.2014 10.3904 16.2546 9.80607 16.6419 9.47904C18.4265 7.97221 19.3841 6.2215 19.6709 4.80097C19.9704 3.31815 19.5269 2.5118 19.0056 2.2564C18.4127 1.96592 17.0616 2.00264 14.7962 3.71315C12.5909 5.37823 9.75754 8.46691 6.39318 13.6176C3.64257 17.8287 2.39026 20.7386 2.08703 22.6144C1.93676 23.5439 2.03545 24.1239 2.2041 24.4702C2.35732 24.7848 2.61302 25.0011 3.03377 25.1225C3.97407 25.3939 5.57233 25.1308 7.55699 24.2466C9.48941 23.3857 11.6102 22.0151 13.5016 20.3486C17.1557 17.1289 21.4883 13.7805 24.2195 12.1095C24.9006 11.6928 25.5182 11.3578 26.0192 11.1588C26.2648 11.0612 26.5319 10.9759 26.7907 10.9479C27.0091 10.9243 27.4778 10.9135 27.8396 11.285C28.2268 11.6826 28.1823 12.1882 28.1291 12.4401C28.0702 12.7188 27.9411 13.0022 27.794 13.269C27.4931 13.815 26.9832 14.5268 26.2623 15.4157C25.1169 16.8279 23.8763 18.4343 22.8108 19.9295C21.8458 21.2835 21.0538 22.5059 20.5968 23.3989C20.7189 23.3283 20.8533 23.2472 21.0009 23.1543C21.7081 22.7088 22.6382 22.0429 23.8306 21.1091C25.3501 19.9192 27.3219 18.6974 28.7266 18.3301C29.0843 18.2365 29.487 18.1753 29.8723 18.2356C30.2884 18.3007 30.7434 18.5246 30.9958 19.0272C31.2201 19.4737 31.1934 19.9694 31.1028 20.3888C31.0083 20.8258 30.8142 21.3197 30.5381 21.8684C30.2002 22.5397 30.0266 23.0327 29.9563 23.3776C29.9187 23.562 29.9157 23.6775 29.92 23.7425C30.0172 23.7517 30.1887 23.7428 30.4449 23.6762C31.0355 23.5228 31.804 23.1354 32.5306 22.6091C33.2607 22.0803 33.8521 21.4811 34.1541 20.9693C34.3535 20.6315 34.9783 19.8008 35.8165 18.7397C36.6768 17.6505 37.8125 16.2555 39.0816 14.7516C41.613 11.7516 44.7027 8.28472 47.2035 5.94877C48.4344 4.79902 49.6007 3.84774 50.5215 3.39805C50.9458 3.19085 51.5467 2.97211 52.1309 3.15731C52.8757 3.39345 53.1229 4.08616 53.1662 4.64644C53.2089 5.19745 53.0954 5.87948 52.8819 6.66041C52.6632 7.46042 52.3167 8.4427 51.8331 9.62474C50.8655 11.9898 49.3221 15.2189 47.0697 19.5001C47.031 19.5737 46.9923 19.6471 46.9536 19.7203C48.6702 19.0871 50.3845 18.5553 52.0494 18.1604C52.5397 18.0441 53.0299 18.3539 53.1443 18.8524C53.2587 19.3508 52.954 19.8492 52.4637 19.9655C50.2291 20.4956 47.8942 21.2861 45.5867 22.2417C41.5378 29.5165 37.746 34.6235 34.4777 38.0099C32.6457 39.908 30.9646 41.2798 29.4807 42.1882C28.0105 43.0882 26.6703 43.5723 25.535 43.5989C24.3567 43.6264 23.3393 43.1465 22.8158 42.1091C22.3319 41.1502 22.3816 39.9228 22.7664 38.6535C23.5435 36.0908 25.8521 32.7736 29.926 29.3389C33.385 26.4227 38.7282 23.1544 44.3067 20.774C44.6893 20.0783 45.0745 19.3624 45.462 18.6258C47.7026 14.3671 49.2148 11.1979 50.1497 8.91286C50.6173 7.76984 50.9338 6.86411 51.1253 6.16397C51.2625 5.66195 51.3254 5.30071 51.345 5.0526C51.334 5.05779 51.3226 5.06322 51.311 5.06891C50.6581 5.38777 49.6657 6.16618 48.4371 7.31376C46.0189 9.57248 42.9864 12.9708 40.4654 15.9585C39.2081 17.4484 38.0851 18.8279 37.2381 19.9003C36.369 21.0007 35.8381 21.7187 35.7174 21.9231C35.238 22.7354 34.4293 23.5098 33.5885 24.1188C32.7442 24.7303 31.7708 25.2449 30.8963 25.4721C30.4633 25.5846 29.9837 25.6456 29.5301 25.5562C29.0443 25.4605 28.5639 25.181 28.2958 24.6334C28.0509 24.1333 28.0578 23.5563 28.171 23.0012C28.2869 22.4333 28.5365 21.776 28.915 21.0241C29.1189 20.6189 29.2358 20.3155 29.2956 20.0979C29.2606 20.1054 29.2224 20.1144 29.1808 20.1253C28.1487 20.3952 26.4189 21.422 24.9432 22.5776C23.7263 23.5306 22.7418 24.2383 21.9611 24.73C21.2088 25.2038 20.5573 25.5354 20.0312 25.6408C19.7719 25.6927 19.3867 25.7227 19.0218 25.5204C18.5963 25.2844 18.434 24.8726 18.3988 24.5399C18.3669 24.2387 18.4261 23.942 18.495 23.7022C18.568 23.4483 18.6759 23.1786 18.8028 22.9048C19.3023 21.827 20.2524 20.3601 21.3344 18.8419C22.4273 17.3083 23.6922 15.6708 24.8556 14.2364C25.0552 13.9903 25.2325 13.7649 25.3891 13.5592C25.3146 13.6035 25.2381 13.6497 25.1596 13.6977C22.5555 15.2909 18.3123 18.5627 14.6957 21.7493C12.6802 23.5253 10.4057 25.0013 8.28875 25.9444C6.22402 26.8642 4.11882 27.3625 2.53589 26.9057C1.69502 26.663 0.98416 26.1428 0.570168 25.2927C0.171608 24.4743 0.102428 23.4613 0.28793 22.3138C0.656236 20.0354 2.09001 16.8548 4.87434 12.5922C8.29794 7.35078 11.2678 4.06833 13.7091 2.22502C16.0902 0.427141 18.2289 -0.181799 19.7971 0.586558C21.4369 1.38999 21.8258 3.34697 21.4569 5.17375ZM26.9838 12.7911C26.9987 12.7895 26.9963 12.7911 26.9809 12.7915C26.982 12.7913 26.9829 12.7912 26.9838 12.7911ZM42.7629 23.4977C38.1951 25.6679 33.9536 28.3514 31.0898 30.7658C27.1544 34.0837 25.1396 37.1191 24.5087 39.1996C24.1897 40.2519 24.2643 40.9187 24.438 41.263C24.5721 41.5287 24.8449 41.7609 25.4931 41.7457C26.1845 41.7296 27.2072 41.4162 28.5402 40.6002C29.8592 39.7927 31.4213 38.5301 33.1763 36.7116C35.981 33.8056 39.2436 29.5165 42.7629 23.4977ZM19.6477 23.8266C19.6479 23.8264 19.6516 23.8259 19.6585 23.8256C19.651 23.8267 19.6476 23.8268 19.6477 23.8266Z" fill="#677178"/>
</g>
<defs>
<filter id="filter0_i_43_1797" x="0.189941" y="0.260864" width="52.9852" height="45.3391" filterUnits="userSpaceOnUse" color-interpolation-filters="sRGB">
<feFlood flood-opacity="0" result="BackgroundImageFix"/>
<feBlend mode="normal" in="SourceGraphic" in2="BackgroundImageFix" result="shape"/>
<feColorMatrix in="SourceAlpha" type="matrix" values="0 0 0 0 0 0 0 0 0 0 0 0 0 0 0 0 0 0 127 0" result="hardAlpha"/>
<feOffset dy="2"/>
<feGaussianBlur stdDeviation="1.5"/>
<feComposite in2="hardAlpha" operator="arithmetic" k2="-1" k3="1"/>
<feColorMatrix type="matrix" values="0 0 0 0 0 0 0 0 0 0 0 0 0 0 0 0 0 0 0.62 0"/>
<feBlend mode="normal" in2="shape" result="effect1_innerShadow_43_1797"/>
</filter>
</defs>
</svg>
