<svg width="69" height="56" viewBox="0 0 69 56" fill="none" xmlns="http://www.w3.org/2000/svg">
<g filter="url(#filter0_i_43_2248)">
<path fill-rule="evenodd" clip-rule="evenodd" d="M27.628 6.34811C27.1325 8.78903 25.5587 11.5092 22.8862 13.7537C22.383 14.1762 21.6363 14.1063 21.2184 13.5975C20.8006 13.0887 20.8697 12.3337 21.3728 11.9111C23.6912 9.9641 24.9352 7.70194 25.3079 5.86642C25.6969 3.95043 25.1207 2.90852 24.4435 2.5785C23.6733 2.20316 21.918 2.25061 18.975 4.46081C16.1102 6.61233 12.4293 10.6033 8.05866 17.2587C4.48533 22.7 2.85845 26.46 2.46452 28.8837C2.2693 30.0848 2.39751 30.8342 2.61661 31.2817C2.81565 31.6883 3.14784 31.9677 3.69443 32.1246C4.91598 32.4752 6.99229 32.1353 9.57057 30.9928C12.081 29.8804 14.8362 28.1094 17.2933 25.956C22.0403 21.7957 27.6688 17.4692 31.2169 15.3101C32.1018 14.7716 32.9041 14.3388 33.5549 14.0816C33.874 13.9555 34.221 13.8453 34.5572 13.8091C34.8409 13.7786 35.4498 13.7646 35.9198 14.2446C36.4228 14.7584 36.365 15.4117 36.2959 15.7372C36.2195 16.0974 36.0517 16.4635 35.8606 16.8083C35.4696 17.5137 34.8073 18.4335 33.8707 19.5821C32.3827 21.4069 30.7711 23.4826 29.3869 25.4145C28.1333 27.1641 27.1043 28.7436 26.5107 29.8974C26.6693 29.8063 26.8439 29.7015 27.0356 29.5814C27.9544 29.0058 29.1627 28.1453 30.7117 26.9388C32.6857 25.4012 35.2472 23.8225 37.0722 23.3478C37.5368 23.227 38.06 23.1479 38.5605 23.2258C39.1011 23.3099 39.6922 23.5993 40.0201 24.2486C40.3114 24.8256 40.2768 25.466 40.159 26.008C40.0363 26.5726 39.7842 27.2109 39.4255 27.9198C38.9865 28.7873 38.761 29.4243 38.6696 29.87C38.6207 30.1082 38.617 30.2574 38.6225 30.3414C38.7488 30.3534 38.9716 30.3418 39.3044 30.2558C40.0716 30.0575 41.07 29.557 42.0139 28.8769C42.9625 28.1936 43.7306 27.4193 44.123 26.7581C44.3821 26.3216 45.1938 25.2483 46.2826 23.8771C47.4002 22.4697 48.8757 20.6672 50.5243 18.724C53.8129 14.8476 57.8268 10.3679 61.0756 7.34954C62.6747 5.86391 64.1898 4.63472 65.3861 4.05366C65.9373 3.78593 66.7179 3.50329 67.4767 3.7426C68.4443 4.04772 68.7655 4.9428 68.8218 5.66676C68.8772 6.37874 68.7298 7.26001 68.4524 8.26907C68.1683 9.3028 67.7182 10.572 67.0899 12.0994C65.8329 15.1554 63.8279 19.3278 60.9018 24.8597C60.8515 24.9548 60.8012 25.0496 60.751 25.1442C62.981 24.3261 65.2081 23.6389 67.3709 23.1286C68.0078 22.9783 68.6447 23.3786 68.7933 24.0227C68.9419 24.6668 68.546 25.3108 67.9091 25.4611C65.0062 26.146 61.9728 27.1674 58.9751 28.4021C53.7152 37.8022 48.7893 44.4011 44.5434 48.7768C42.1635 51.2295 39.9796 53.002 38.0517 54.1758C36.1419 55.3387 34.4008 55.9643 32.926 55.9986C31.3952 56.0341 30.0734 55.414 29.3934 54.0736C28.7648 52.8346 28.8292 51.2485 29.3292 49.6085C30.3387 46.2972 33.3379 42.0108 38.6303 37.5728C43.1239 33.8046 50.0653 29.5815 57.3124 26.5058C57.8094 25.6069 58.3098 24.6818 58.8132 23.73C61.724 18.2271 63.6885 14.1321 64.903 11.1795C65.5105 9.70261 65.9217 8.53229 66.1704 7.62761C66.3487 6.97893 66.4303 6.51216 66.4558 6.19157C66.4415 6.19827 66.4268 6.20529 66.4116 6.21265C65.5634 6.62465 64.2742 7.63047 62.6781 9.1133C59.5367 12.0319 55.5971 16.423 52.322 20.2835C50.6888 22.2087 49.2298 23.9912 48.1295 25.3768C47.0004 26.7986 46.3107 27.7264 46.154 27.9905C45.5312 29.0401 44.4806 30.0408 43.3883 30.8277C42.2914 31.6179 41.0269 32.2828 39.8908 32.5764C39.3283 32.7217 38.7053 32.8005 38.116 32.685C37.4848 32.5614 36.8608 32.2002 36.5125 31.4927C36.1944 30.8464 36.2033 30.1009 36.3504 29.3836C36.5009 28.6498 36.8252 27.8005 37.3169 26.8288C37.5817 26.3054 37.7336 25.9134 37.8113 25.6322C37.7659 25.6418 37.7162 25.6534 37.6622 25.6675C36.3214 26.0162 34.0742 27.343 32.1571 28.8363C30.5762 30.0676 29.2973 30.9821 28.283 31.6175C27.3057 32.2297 26.4594 32.6581 25.7759 32.7942C25.439 32.8613 24.9387 32.9002 24.4646 32.6387C23.9118 32.3338 23.701 31.8017 23.6552 31.3718C23.6138 30.9825 23.6907 30.5993 23.7803 30.2894C23.8751 29.9614 24.0152 29.6128 24.1801 29.259C24.8289 27.8664 26.0632 25.9709 27.4688 24.0092C28.8887 22.0276 30.532 19.9117 32.0433 18.0583C32.3026 17.7403 32.5329 17.4491 32.7364 17.1832C32.6396 17.2405 32.5402 17.3002 32.4382 17.3623C29.0553 19.4209 23.5428 23.6484 18.8445 27.766C16.2261 30.0607 13.2714 31.968 10.5212 33.1866C7.83891 34.3751 5.10403 35.019 3.04763 34.4287C1.95525 34.1151 1.03177 33.4429 0.493954 32.3445C-0.0238165 31.287 -0.113689 29.978 0.127297 28.4953C0.605766 25.5514 2.46839 21.4417 6.08553 15.9337C10.5332 9.16112 14.3913 4.91976 17.5628 2.53796C20.6561 0.214852 23.4345 -0.57198 25.4718 0.42084C27.6021 1.45898 28.1073 3.98766 27.628 6.34811ZM34.808 16.1908C34.8274 16.1887 34.8243 16.1907 34.8043 16.1912C34.8057 16.1911 34.8069 16.1909 34.808 16.1908ZM55.3068 30.0251C49.3728 32.8293 43.8625 36.2968 40.1422 39.4165C35.0297 43.7036 32.4122 47.6258 31.5927 50.3141C31.1782 51.6738 31.2751 52.5354 31.5008 52.9803C31.675 53.3236 32.0294 53.6236 32.8715 53.604C33.7696 53.5832 35.0983 53.1783 36.8299 52.1239C38.5436 51.0805 40.5728 49.449 42.8528 47.0993C46.4963 43.3444 50.7348 37.8023 55.3068 30.0251ZM25.2777 30.4501C25.2779 30.4499 25.2828 30.4492 25.2917 30.4489C25.282 30.4502 25.2776 30.4504 25.2777 30.4501Z" fill="#677178"/>
</g>
<defs>
<filter id="filter0_i_43_2248" x="0" y="0" width="68.8333" height="58" filterUnits="userSpaceOnUse" color-interpolation-filters="sRGB">
<feFlood flood-opacity="0" result="BackgroundImageFix"/>
<feBlend mode="normal" in="SourceGraphic" in2="BackgroundImageFix" result="shape"/>
<feColorMatrix in="SourceAlpha" type="matrix" values="0 0 0 0 0 0 0 0 0 0 0 0 0 0 0 0 0 0 127 0" result="hardAlpha"/>
<feOffset dy="2"/>
<feGaussianBlur stdDeviation="1.5"/>
<feComposite in2="hardAlpha" operator="arithmetic" k2="-1" k3="1"/>
<feColorMatrix type="matrix" values="0 0 0 0 0 0 0 0 0 0 0 0 0 0 0 0 0 0 0.62 0"/>
<feBlend mode="normal" in2="shape" result="effect1_innerShadow_43_2248"/>
</filter>
</defs>
</svg>
