<svg width="40" height="33" viewBox="0 0 40 33" fill="none" xmlns="http://www.w3.org/2000/svg">
<g filter="url(#filter0_i_43_2063)">
<path fill-rule="evenodd" clip-rule="evenodd" d="M15.899 4.57125C15.6175 5.96482 14.7238 7.51781 13.2062 8.79925C12.9205 9.04051 12.4965 9.0006 12.2592 8.71011C12.0219 8.41962 12.0612 7.98856 12.3469 7.7473C13.6634 6.6357 14.3698 5.34418 14.5814 4.29624C14.8023 3.20235 14.4751 2.6075 14.0906 2.41909C13.6532 2.2048 12.6565 2.23188 10.9853 3.49374C9.35843 4.7221 7.26822 7.00064 4.7863 10.8004C2.75715 13.9069 1.83331 16.0536 1.60961 17.4374C1.49876 18.1231 1.57156 18.5509 1.69598 18.8064C1.80901 19.0385 1.99764 19.198 2.30803 19.2876C3.0017 19.4878 4.18075 19.2937 5.64485 18.6415C7.07042 18.0064 8.63497 16.9953 10.0303 15.7659C12.7259 13.3907 15.9221 10.9205 17.9369 9.68783C18.4394 9.38042 18.895 9.13331 19.2646 8.98649C19.4458 8.9145 19.6428 8.85158 19.8338 8.83091C19.9948 8.81347 20.3406 8.80551 20.6075 9.07955C20.8931 9.37287 20.8603 9.74586 20.8211 9.93169C20.7777 10.1373 20.6824 10.3464 20.5739 10.5432C20.3519 10.946 19.9757 11.4711 19.4439 12.1268C18.5989 13.1687 17.6838 14.3537 16.8977 15.4567C16.1858 16.4556 15.6015 17.3573 15.2644 18.0161C15.3545 17.964 15.4537 17.9042 15.5625 17.8357C16.0843 17.5071 16.7704 17.0158 17.6501 16.3269C18.771 15.4491 20.2256 14.5478 21.2619 14.2768C21.5257 14.2078 21.8228 14.1626 22.107 14.2071C22.4141 14.2551 22.7497 14.4203 22.9359 14.7911C23.1013 15.1205 23.0817 15.4861 23.0148 15.7955C22.9451 16.1179 22.8019 16.4823 22.5982 16.887C22.349 17.3823 22.2209 17.746 22.169 18.0004C22.1413 18.1364 22.1391 18.2216 22.1422 18.2696C22.214 18.2764 22.3405 18.2698 22.5295 18.2207C22.9651 18.1075 23.5321 17.8217 24.0681 17.4335C24.6067 17.0434 25.043 16.6013 25.2658 16.2238C25.4129 15.9745 25.8738 15.3618 26.4921 14.579C27.1268 13.7754 27.9646 12.7464 28.9008 11.6369C30.7683 9.42379 33.0476 6.86624 34.8925 5.14298C35.8005 4.2948 36.6609 3.59303 37.3402 3.26129C37.6532 3.10844 38.0965 2.94707 38.5274 3.0837C39.0768 3.2579 39.2592 3.76892 39.2912 4.18224C39.3227 4.58873 39.239 5.09187 39.0815 5.66797C38.9201 6.25815 38.6645 6.98278 38.3078 7.85478C37.5939 9.59951 36.4554 11.9817 34.7938 15.1399C34.7652 15.1942 34.7367 15.2484 34.7081 15.3024C35.9745 14.8353 37.2391 14.443 38.4673 14.1516C38.829 14.0658 39.1906 14.2944 39.275 14.6621C39.3594 15.0298 39.1346 15.3975 38.7729 15.4833C37.1245 15.8743 35.402 16.4575 33.6997 17.1624C30.7128 22.5291 27.9155 26.2966 25.5045 28.7948C24.1531 30.1951 22.9129 31.207 21.8181 31.8772C20.7336 32.5411 19.7449 32.8983 18.9074 32.9178C18.0382 32.9382 17.2876 32.5841 16.9014 31.8188C16.5445 31.1114 16.5811 30.2059 16.865 29.2696C17.4382 27.3791 19.1413 24.9319 22.1467 22.3981C24.6984 20.2468 28.6401 17.8357 32.7555 16.0797C33.0377 15.5665 33.3219 15.0384 33.6077 14.495C35.2606 11.3532 36.3762 9.01532 37.0659 7.32962C37.4109 6.48641 37.6443 5.81824 37.7856 5.30174C37.8868 4.9314 37.9332 4.66491 37.9476 4.48187C37.9395 4.4857 37.9312 4.48971 37.9226 4.49391C37.4409 4.72913 36.7088 5.30337 35.8025 6.14995C34.0186 7.81623 31.7815 10.3232 29.9217 12.5273C28.9942 13.6264 28.1657 14.6441 27.5409 15.4352C26.8997 16.2469 26.5081 16.7766 26.4191 16.9274C26.0654 17.5266 25.4688 18.0979 24.8485 18.5472C24.2257 18.9983 23.5076 19.378 22.8625 19.5456C22.5431 19.6286 22.1893 19.6735 21.8546 19.6076C21.4962 19.537 21.1419 19.3308 20.9441 18.9269C20.7634 18.5579 20.7685 18.1322 20.852 17.7227C20.9375 17.3038 21.1217 16.8189 21.4008 16.2642C21.5512 15.9653 21.6375 15.7415 21.6816 15.581C21.6558 15.5865 21.6276 15.5931 21.5969 15.6011C20.8355 15.8002 19.5595 16.5577 18.4708 17.4103C17.5731 18.1133 16.8468 18.6354 16.2709 18.9981C15.7159 19.3477 15.2353 19.5922 14.8472 19.67C14.6559 19.7083 14.3718 19.7304 14.1026 19.5811C13.7887 19.4071 13.6689 19.1033 13.643 18.8579C13.6194 18.6356 13.6631 18.4168 13.714 18.2399C13.7678 18.0526 13.8474 17.8536 13.941 17.6516C14.3095 16.8565 15.0104 15.7744 15.8085 14.6544C16.6148 13.523 17.548 12.315 18.4062 11.2569C18.5534 11.0753 18.6842 10.909 18.7998 10.7573C18.7448 10.79 18.6884 10.824 18.6305 10.8595C16.7094 12.0348 13.5791 14.4484 10.9112 16.7992C9.42428 18.1093 7.74637 19.1982 6.18468 19.894C4.66151 20.5725 3.10848 20.9401 1.94074 20.6031C1.32042 20.4241 0.796016 20.0403 0.49061 19.4132C0.196589 18.8094 0.145554 18.0621 0.2824 17.2156C0.554103 15.5349 1.61181 13.1885 3.66584 10.0439C6.19146 6.17726 8.38237 3.75576 10.1833 2.39594C11.9399 1.06962 13.5176 0.620404 14.6745 1.18723C15.8842 1.77993 16.1711 3.22361 15.899 4.57125ZM19.9762 10.1907C19.9871 10.1895 19.9854 10.1906 19.9741 10.1909C19.9748 10.1908 19.9755 10.1907 19.9762 10.1907ZM31.6166 18.089C28.2469 19.69 25.1178 21.6697 23.0052 23.4508C20.1021 25.8984 18.6157 28.1376 18.1503 29.6724C17.9149 30.4487 17.97 30.9406 18.0981 31.1946C18.197 31.3907 18.3983 31.5619 18.8765 31.5508C19.3865 31.5388 20.141 31.3077 21.1243 30.7057C22.0974 30.11 23.2498 29.1785 24.5445 27.8371C26.6135 25.6933 29.0204 22.5292 31.6166 18.089ZM14.5643 18.3316C14.5644 18.3315 14.5672 18.3311 14.5722 18.3309C14.5667 18.3317 14.5642 18.3318 14.5643 18.3316Z" fill="#677178"/>
</g>
<defs>
<filter id="filter0_i_43_2063" x="0.210114" y="0.94696" width="39.0876" height="33.9717" filterUnits="userSpaceOnUse" color-interpolation-filters="sRGB">
<feFlood flood-opacity="0" result="BackgroundImageFix"/>
<feBlend mode="normal" in="SourceGraphic" in2="BackgroundImageFix" result="shape"/>
<feColorMatrix in="SourceAlpha" type="matrix" values="0 0 0 0 0 0 0 0 0 0 0 0 0 0 0 0 0 0 127 0" result="hardAlpha"/>
<feOffset dy="2"/>
<feGaussianBlur stdDeviation="1.5"/>
<feComposite in2="hardAlpha" operator="arithmetic" k2="-1" k3="1"/>
<feColorMatrix type="matrix" values="0 0 0 0 0 0 0 0 0 0 0 0 0 0 0 0 0 0 0.62 0"/>
<feBlend mode="normal" in2="shape" result="effect1_innerShadow_43_2063"/>
</filter>
</defs>
</svg>
