<svg width="40" height="32" viewBox="0 0 40 32" fill="none" xmlns="http://www.w3.org/2000/svg">
<g filter="url(#filter0_i_43_1524)">
<path fill-rule="evenodd" clip-rule="evenodd" d="M15.7875 3.62749C15.5043 5.0223 14.605 6.57666 13.0778 7.85924C12.7903 8.10071 12.3636 8.06076 12.1248 7.77002C11.886 7.47927 11.9255 7.04783 12.2131 6.80635C13.5378 5.69377 14.2487 4.40111 14.4616 3.35224C14.6839 2.25739 14.3547 1.66201 13.9677 1.47343C13.5276 1.25895 12.5246 1.28606 10.8429 2.54904C9.20582 3.77848 7.10247 6.05904 4.60495 9.86212C2.56304 12.9714 1.6334 15.12 1.4083 16.505C1.29674 17.1913 1.37 17.6196 1.4952 17.8753C1.60895 18.1076 1.79877 18.2672 2.1111 18.3569C2.80913 18.5573 3.9956 18.363 5.4689 17.7102C6.90343 17.0745 8.47781 16.0625 9.88187 14.832C12.5945 12.4547 15.8107 9.98241 17.8383 8.7486C18.3439 8.44092 18.8024 8.1936 19.1742 8.04664C19.3566 7.97459 19.5549 7.91161 19.747 7.89092C19.9091 7.87347 20.257 7.86551 20.5256 8.13979C20.813 8.43337 20.78 8.80668 20.7405 8.99268C20.6968 9.19849 20.601 9.40771 20.4918 9.60476C20.2684 10.0079 19.8899 10.5334 19.3547 11.1897C18.5044 12.2325 17.5835 13.4186 16.7925 14.5226C16.0761 15.5223 15.4882 16.4249 15.149 17.0842C15.2396 17.0321 15.3394 16.9723 15.4489 16.9036C15.9739 16.5748 16.6644 16.083 17.5496 15.3936C18.6775 14.515 20.1413 13.6129 21.1841 13.3416C21.4496 13.2726 21.7486 13.2273 22.0346 13.2719C22.3435 13.32 22.6812 13.4853 22.8686 13.8564C23.0351 14.1861 23.0153 14.552 22.948 14.8617C22.8779 15.1844 22.7338 15.5491 22.5288 15.9542C22.278 16.4499 22.1491 16.8139 22.0969 17.0686C22.069 17.2047 22.0668 17.2899 22.07 17.338C22.1422 17.3448 22.2695 17.3382 22.4596 17.289C22.8981 17.1757 23.4686 16.8897 24.008 16.5011C24.55 16.1106 24.9889 15.6682 25.2131 15.2904C25.3612 15.0409 25.825 14.4276 26.4472 13.6441C27.0859 12.8398 27.929 11.8098 28.871 10.6994C30.7502 8.48433 33.0439 5.92452 34.9004 4.19974C35.8141 3.3508 36.6799 2.64841 37.3635 2.31638C37.6784 2.16339 38.1245 2.00188 38.5581 2.13863C39.111 2.31298 39.2945 2.82446 39.3267 3.23815C39.3584 3.64499 39.2742 4.14858 39.1157 4.72519C38.9533 5.31589 38.6961 6.04116 38.3371 6.91394C37.6188 8.66021 36.4731 11.0445 34.801 14.2055C34.7723 14.2599 34.7436 14.3141 34.7149 14.3681C35.9891 13.9006 37.2618 13.508 38.4976 13.2164C38.8616 13.1305 39.2255 13.3592 39.3105 13.7273C39.3954 14.0953 39.1692 14.4633 38.8052 14.5492C37.1464 14.9406 35.4131 15.5242 33.7001 16.2298C30.6944 21.6013 27.8796 25.3721 25.4534 27.8725C24.0934 29.274 22.8455 30.2868 21.7438 30.9576C20.6525 31.6221 19.6576 31.9796 18.8148 31.9992C17.9401 32.0195 17.1848 31.6652 16.7962 30.8992C16.437 30.1912 16.4739 29.2849 16.7596 28.3477C17.3364 26.4555 19.0502 24.0062 22.0745 21.4702C24.6422 19.3169 28.6087 16.9037 32.7499 15.1462C33.034 14.6325 33.3199 14.1039 33.6076 13.56C35.2708 10.4155 36.3934 8.0755 37.0874 6.38831C37.4346 5.54435 37.6695 4.87559 37.8116 4.35863C37.9135 3.98796 37.9602 3.72123 37.9747 3.53804C37.9666 3.54187 37.9582 3.54588 37.9495 3.55009C37.4648 3.78552 36.7281 4.36027 35.8161 5.2076C34.021 6.87535 31.7698 9.38456 29.8983 11.5906C28.965 12.6907 28.1313 13.7092 27.5026 14.501C26.8574 15.3135 26.4633 15.8437 26.3737 15.9946C26.0178 16.5943 25.4175 17.1662 24.7933 17.6158C24.1665 18.0674 23.444 18.4473 22.7948 18.6151C22.4733 18.6981 22.1173 18.7431 21.7806 18.6772C21.4199 18.6065 21.0633 18.4001 20.8643 17.9958C20.6825 17.6265 20.6876 17.2005 20.7716 16.7906C20.8576 16.3713 21.043 15.886 21.3239 15.3308C21.4753 15.0316 21.5621 14.8076 21.6065 14.647C21.5805 14.6525 21.5521 14.6591 21.5212 14.6671C20.7551 14.8664 19.471 15.6246 18.3755 16.4779C17.4721 17.1815 16.7413 17.7041 16.1617 18.0671C15.6033 18.417 15.1196 18.6618 14.7291 18.7396C14.5366 18.7779 14.2507 18.8001 13.9798 18.6507C13.6639 18.4764 13.5434 18.1724 13.5173 17.9267C13.4936 17.7043 13.5375 17.4853 13.5887 17.3082C13.6429 17.1208 13.723 16.9216 13.8172 16.7194C14.188 15.9237 14.8933 14.8405 15.6965 13.7195C16.5078 12.5872 17.4468 11.3781 18.3105 10.319C18.4586 10.1373 18.5902 9.9709 18.7065 9.81898C18.6512 9.85171 18.5944 9.88582 18.5361 9.92129C16.603 11.0977 13.453 13.5134 10.7683 15.8663C9.27208 17.1776 7.58363 18.2674 6.01212 18.9638C4.47938 19.6429 2.91659 20.0108 1.7415 19.6735C1.11729 19.4943 0.589585 19.1102 0.28226 18.4825C-0.0136094 17.8783 -0.064965 17.1303 0.0727411 16.283C0.346152 14.6008 1.41051 12.2524 3.47744 9.10498C6.01894 5.23493 8.22362 2.81129 10.0359 1.45026C11.8035 0.122773 13.3911 -0.326846 14.5553 0.24048C15.7726 0.833705 16.0613 2.27867 15.7875 3.62749ZM19.8903 9.25188C19.9013 9.25069 19.8996 9.25185 19.8882 9.25214C19.889 9.25204 19.8897 9.25195 19.8903 9.25188ZM31.6039 17.1572C28.213 18.7596 25.0643 20.741 22.9384 22.5237C20.017 24.9735 18.5213 27.2147 18.053 28.7509C17.8161 29.5279 17.8715 30.0202 18.0004 30.2744C18.1 30.4706 18.3025 30.6421 18.7837 30.6309C19.2969 30.6189 20.0562 30.3876 21.0457 29.7851C22.0249 29.1889 23.1845 28.2566 24.4873 26.9139C26.5693 24.7682 28.9913 21.6013 31.6039 17.1572ZM14.4444 17.4001C14.4445 17.3999 14.4473 17.3995 14.4524 17.3994C14.4469 17.4001 14.4443 17.4002 14.4444 17.4001Z" fill="#677178"/>
</g>
<defs>
<filter id="filter0_i_43_1524" x="0" y="0" width="39.3333" height="34" filterUnits="userSpaceOnUse" color-interpolation-filters="sRGB">
<feFlood flood-opacity="0" result="BackgroundImageFix"/>
<feBlend mode="normal" in="SourceGraphic" in2="BackgroundImageFix" result="shape"/>
<feColorMatrix in="SourceAlpha" type="matrix" values="0 0 0 0 0 0 0 0 0 0 0 0 0 0 0 0 0 0 127 0" result="hardAlpha"/>
<feOffset dy="2"/>
<feGaussianBlur stdDeviation="1.5"/>
<feComposite in2="hardAlpha" operator="arithmetic" k2="-1" k3="1"/>
<feColorMatrix type="matrix" values="0 0 0 0 0 0 0 0 0 0 0 0 0 0 0 0 0 0 0.62 0"/>
<feBlend mode="normal" in2="shape" result="effect1_innerShadow_43_1524"/>
</filter>
</defs>
</svg>
